<svg width="181" height="93" viewBox="0 0 181 93" fill="none" xmlns="http://www.w3.org/2000/svg">
<path d="M87.804 2.90396C85.9469 2.90396 84.1611 2.90396 82.304 2.90396C73.3754 2.90396 64.3754 3.97539 55.5897 3.90396C46.804 3.83253 37.1611 2.83253 28.5897 6.47539C21.0183 9.61825 9.94685 13.4754 5.94685 22.1897C0.803992 33.4039 1.0897 49.7611 3.0897 61.8325C4.5897 71.1183 7.30399 75.6897 14.6611 80.1182C22.0183 84.5468 29.9469 87.9039 38.0183 89.761C49.3754 92.4039 62.1611 90.4039 73.7326 90.4754C90.6611 90.6182 107.161 85.4039 124.09 84.9039C131.161 84.6897 138.447 85.404 145.304 83.2611C150.233 81.6897 154.875 78.904 159.804 77.1183C167.875 74.1183 176.518 71.9039 178.09 60.6897C180.947 40.4039 175.59 22.6896 160.518 11.9753C143.733 0.0467427 122.375 2.61822 103.447 1.76108C99.804 1.61822 96.304 2.90396 92.804 2.90396C91.1611 2.90396 89.4469 2.90396 87.804 2.90396Z" fill="#F1A4C5" stroke="#231C1C" stroke-width="3.5" stroke-miterlimit="10"/>
<path d="M17.7339 60.2662C17.7339 58.2662 17.7339 56.6948 18.5196 55.5519C19.3053 54.6948 25.3053 54.4091 26.9482 54.5519C31.8053 54.2662 34.4482 54.0519 34.8053 53.9805C42.591 53.8376 47.591 53.9091 49.8053 54.1948C51.9482 53.9805 52.3053 55.5519 52.3053 57.9805V61.1947C52.1625 61.7662 51.3767 62.052 49.8767 62.052C48.3767 62.052 46.7339 61.9805 44.8767 61.7662C43.0196 61.5519 41.9482 61.4805 41.5196 61.5519C41.5196 61.5519 38.9482 62.1234 38.4482 62.8377C37.3767 64.3377 37.5196 67.6234 37.3053 69.9805C37.2339 70.9091 37.0196 72.5519 36.8767 73.2662C36.3053 74.7662 34.5196 75.7662 32.6625 75.2662C31.4482 74.909 30.8053 73.6948 30.6625 71.6948C30.6625 71.3376 30.3053 63.7662 30.2339 63.4805C30.091 62.4805 29.8767 61.9091 28.8053 62.2662C28.2339 62.4091 25.2339 62.5519 19.8767 62.5519C18.8767 62.5519 17.8053 61.3376 17.8053 60.1947L17.7339 60.2662ZM18.3767 23.4805C18.9482 23.3376 23.6625 23.1948 24.3053 23.0519C25.5196 22.8376 27.591 22.6947 30.6625 22.6947C33.7339 22.6947 35.8053 22.6947 37.0196 22.6947H39.4482C39.9482 22.6947 44.0196 23.1948 44.4482 23.2662C47.3053 23.5519 46.0196 27.1233 44.8767 28.8376C44.1625 29.909 43.2339 30.9805 42.1625 32.1234C40.5196 33.9091 39.8053 34.7662 38.8767 36.2662C38.5196 36.8377 38.091 37.9091 38.591 38.6948C38.8053 39.0519 39.1625 39.5519 39.7339 40.0519C40.7339 41.0519 42.091 42.6948 43.5196 44.1948C44.5196 45.1948 45.3053 46.1234 45.8767 46.7662C46.4482 47.4805 46.3053 48.4805 45.8767 49.1948L45.591 49.7662C44.3053 51.4805 43.3053 52.6948 42.6625 53.3377C41.5196 54.2662 40.9482 53.052 40.0196 52.6948C39.4482 52.4091 37.2339 50.6233 36.6625 50.2662C36.4482 50.1233 34.8767 48.4091 34.2339 47.4091C33.6625 46.5519 33.4482 46.1948 32.6625 45.6234C32.3053 45.4091 31.9482 45.3377 31.6625 45.3377L30.7339 46.552C25.6625 50.4091 22.8053 52.6948 22.1625 53.4091C21.3053 54.5519 20.591 54.4805 20.1625 53.1234C19.091 50.2662 18.5196 48.4805 18.3053 47.8376C18.0196 46.6233 17.9482 45.9091 18.0196 45.6234C18.1625 45.3377 19.2339 44.6233 20.1625 44.2662C22.591 43.0519 26.7339 38.9805 32.4482 31.9091C32.6625 31.6234 32.8767 31.4091 32.9482 31.2663C33.0196 31.1234 32.1624 30.9805 30.3053 30.9091C26.8053 30.6948 21.8767 30.6234 18.5196 30.9091C18.5196 29.6234 18.5196 24.7662 18.5196 23.4805H18.3767ZM62.6625 25.0519C62.6625 25.0519 62.7339 26.1233 62.9482 28.0519C62.8053 29.2662 62.6625 32.0519 62.5196 36.4805C62.3767 40.9091 62.3767 43.6948 62.5196 44.9805C62.591 46.552 62.5196 51.0519 62.3767 58.5519C62.1625 66.0519 61.9482 70.4805 61.7339 71.8376C61.1625 75.5519 59.3053 77.1948 55.3053 77.0519C54.9482 77.0519 53.5196 76.9091 53.3053 76.6233C53.2339 76.4091 53.0196 76.3377 53.0196 75.9805C53.0196 75.4805 52.9482 75.2663 52.9482 74.6948C52.9482 71.052 52.8767 58.3377 52.7339 54.2663C52.5196 45.1948 51.8767 46.4805 52.3053 36.2662C52.5196 31.1948 52.7339 27.5519 53.0196 25.4805C53.2339 23.8376 55.091 22.7662 56.7339 22.8376C57.3767 22.8376 59.7339 22.4805 60.591 22.4805C61.8053 22.4805 62.3053 23.6233 62.591 25.0519H62.6625Z" fill="white" stroke="#040000" stroke-width="3.78571" stroke-linecap="round" stroke-linejoin="round"/>
<path d="M109.305 46.1942C110.09 46.1942 111.376 46.7656 111.662 47.2656C112.09 47.9084 111.948 50.5513 111.519 51.1942C111.305 51.4799 111.376 51.6942 111.019 51.9085C110.233 52.4085 109.019 52.837 107.948 53.0513C106.805 53.4084 96.0904 53.4085 94.8761 53.9085C94.3761 54.0513 94.6618 58.5513 94.5904 59.337C94.5904 59.4799 94.8046 60.6227 94.5904 60.6942C93.4475 62.837 89.5189 62.7656 87.9475 61.1227C87.2332 60.4084 87.2332 59.9798 87.2332 58.1941C87.2332 56.837 87.2332 54.2656 86.3761 54.1228C85.8761 53.9799 83.8046 53.9084 80.0904 53.7656C76.4475 53.6942 74.3046 53.6227 73.6618 53.7656C72.0189 54.1227 70.9475 54.1941 70.3761 52.6227C69.8761 51.2656 69.7332 49.7656 69.9475 48.1228C69.9475 47.6942 70.3046 47.337 70.8046 46.9084C71.3046 46.4798 72.5189 46.1941 74.3761 45.9084C76.2332 45.6227 77.5904 45.6228 78.3046 45.7656H84.6618C89.3761 45.7656 97.6618 45.5513 97.9475 45.5513C98.3046 45.5513 108.805 46.1942 109.162 46.1942H109.305ZM91.9475 20.7656C93.1618 20.7656 95.3761 21.6228 95.3761 23.5513C95.3761 26.0513 95.5904 28.337 96.1618 30.337C96.3761 31.1942 101.162 33.6227 101.876 33.9085C104.019 34.6227 106.662 35.5513 109.948 36.8371C110.876 37.1942 111.59 37.6227 111.09 39.1227C110.805 39.9799 110.662 40.1227 110.376 41.0513C110.305 41.5513 110.019 42.7656 110.019 43.1942C110.019 43.4799 109.519 43.837 109.305 43.837C108.376 43.9799 105.662 44.6941 104.519 44.6941C103.805 44.6941 103.09 44.337 102.305 43.6941C101.59 42.9084 90.2332 36.3371 89.3046 35.8371C88.6618 35.5513 87.9475 35.5513 87.0904 36.0513C85.5189 36.837 83.5904 38.0513 81.3046 39.5513C79.7332 40.5513 76.6618 42.4085 74.5189 42.1942C73.0904 42.0513 72.8761 41.7656 72.6618 40.1227C72.5189 39.0513 72.0189 37.4085 71.8761 36.4085C71.8046 35.6228 72.5189 34.837 72.9475 34.5513C73.1618 34.4084 73.6618 34.1228 74.3761 33.6942C75.5189 32.9799 83.3047 28.6227 84.4475 28.0513C85.5904 27.4084 85.8761 26.4799 85.9475 24.6227C85.9475 24.4799 85.8761 23.4084 85.6618 21.4798C89.3761 21.1941 91.5189 20.9798 91.9475 20.9084V20.7656ZM78.8761 60.9798V67.0513H98.8046C102.947 67.0513 105.733 67.0513 107.162 67.0513C108.019 67.0513 108.233 67.9085 108.376 68.7656C108.376 68.9799 108.376 69.0513 108.376 69.1227C108.376 69.5513 108.448 69.9799 108.448 70.4085C108.448 71.7656 108.09 73.1942 107.448 74.6942C107.305 75.1228 106.876 75.337 106.162 75.4798C105.733 75.5513 92.2332 76.5513 91.8046 76.6227C91.5904 76.6227 91.4475 76.6227 91.2332 76.6227C89.5904 76.6227 81.2332 76.8371 79.6618 76.9085C79.0904 76.9085 77.0189 77.1228 76.4475 77.1228C74.5904 77.1228 72.8761 76.4798 72.6618 74.4798C72.5904 72.6227 72.0189 60.4084 71.9475 58.5513C73.1618 58.5513 73.8761 57.5513 75.0189 57.5513C75.6618 57.5513 76.7332 57.837 78.1618 58.4084C78.5904 58.5513 78.8046 58.9084 78.8046 59.337C78.8046 59.6227 78.8046 60.5513 78.8046 60.8371L78.8761 60.9798Z" fill="white" stroke="#040000" stroke-width="3.78571" stroke-linecap="round" stroke-linejoin="round"/>
<path d="M119.235 68.6158C118.235 67.4015 117.52 65.3301 117.235 62.4016C116.735 58.3301 116.521 54.7587 116.521 51.6873C116.521 46.2587 117.449 41.1158 119.449 36.1872C119.592 35.7586 119.735 35.4015 119.878 35.2587C122.592 32.0444 124.235 30.1158 124.878 29.4015C125.306 28.9015 126.378 28.6873 127.163 28.6873C129.449 28.1158 131.663 28.2587 133.663 29.2587C136.378 30.5444 140.092 33.5444 142.02 36.473C142.52 37.2587 142.878 38.1872 143.092 39.2587C143.521 41.8301 143.663 44.0444 143.521 45.7587C143.235 49.8301 142.663 54.4015 141.949 59.3301C141.092 65.1158 138.878 69.3301 135.163 72.0444C132.949 73.6872 131.306 74.4015 130.235 74.1872C125.806 74.1158 122.163 72.2587 119.235 68.6158ZM134.878 44.8301C133.878 42.9729 132.092 41.8301 130.378 42.1873C128.949 42.5444 127.878 43.6873 127.306 45.7587C126.021 49.6158 126.663 51.4015 127.021 55.4015C127.306 58.4729 127.235 59.9015 128.878 61.2587C129.663 61.9015 130.449 62.2587 131.235 62.2587C132.521 62.2587 133.806 60.8301 134.021 59.473C134.163 58.7587 134.735 55.1873 135.806 48.7587C135.521 47.4015 135.449 45.8301 134.949 44.8301H134.878ZM157.949 76.4015C155.735 76.4015 152.735 76.7587 152.021 74.9016C151.021 71.973 150.52 69.6872 150.449 68.1158C150.235 63.0443 150.092 37.973 149.949 32.9015C149.949 30.473 149.735 28.5444 149.521 26.1158L149.235 23.0444C151.235 22.9015 152.235 22.8301 152.306 22.8301C154.306 22.9015 156.735 23.4016 158.592 23.5444C159.592 23.6873 160.092 24.33 160.092 25.4729C160.235 31.83 160.735 38.4729 160.735 45.1158C160.735 48.1158 160.735 50.1158 160.735 51.2586C160.735 53.4015 160.735 69.3301 160.735 71.5444V71.6872C160.735 74.2586 159.878 76.4015 158.021 76.3301L157.949 76.4015Z" fill="white" stroke="#040000" stroke-width="3.78571" stroke-linecap="round" stroke-linejoin="round"/>
</svg>
