<svg width="550" height="620" viewBox="0 0 550 620" fill="none" xmlns="http://www.w3.org/2000/svg">
<g clip-path="url(#clip0_39_2500)">
<path d="M152.644 497.254C139.358 492.254 116.572 496.826 101.072 477.469C99.0724 474.969 95.0724 473.04 93.501 469.969C86.2867 455.754 78.501 439.54 81.3581 423.397L84.5724 404.969C76.1438 402.754 71.6438 396.826 69.9296 388.897C67.6438 378.683 72.0724 369.111 82.2867 365.183C87.7152 363.04 95.3581 361.826 101.144 363.969C107.858 366.469 111.287 373.326 113.572 379.897L120.572 378.397C132.287 375.826 144.215 378.183 156.358 381.183C156.358 370.754 155.644 361.469 157.715 351.969C160.644 338.469 164.93 325.826 169.858 312.897C161.572 312.897 154.144 310.04 148.072 304.612L130.715 288.969C125.715 284.469 122.644 278.826 120.215 272.612C119.215 270.112 117.358 267.04 117.144 264.397C116.144 254.04 116.287 244.183 117.358 234.04C118.43 223.897 125.072 221.326 125.215 215.254C125.287 210.969 127.644 209.04 129.93 205.826L137.001 196.04C145.644 184.04 173.501 175.826 187.644 173.969C195.572 172.969 203.215 173.826 210.287 177.326C214.858 179.54 219.93 180.469 224.644 182.254C238.787 187.683 247.287 200.326 254.215 212.969C258.787 221.254 262.287 228.397 262.072 238.326C261.858 249.897 260.215 261.04 255.93 272.183L266.858 271.397C270.358 271.183 274.001 270.469 277.215 271.969C281.358 273.897 285.501 274.54 290.072 274.183C296.43 273.683 302.001 274.54 309.43 275.469L299.93 264.612C286.43 249.112 288.215 206.54 306.715 187.04C316.572 176.612 311.93 174.754 324.572 168.897C329.215 166.683 333.644 164.754 338.858 164.183C356.572 162.326 355.215 159.54 372.144 164.612C385.644 168.612 399.501 171.326 411.715 179.112C419.43 184.04 425.715 192.826 428.572 201.397C430.43 207.04 432.072 211.183 434.715 216.326C437.001 220.754 437.43 226.326 439.072 231.183C445.287 249.397 444.43 253.469 437.715 271.54C435.715 276.969 432.072 280.826 427.858 284.897C432.001 287.254 436.215 288.183 438.787 290.969C446.072 299.183 450.287 309.04 456.501 317.826C462.715 326.612 467.787 334.183 469.787 344.754L477.001 383.469C477.715 387.469 478.787 391.183 478.572 395.254C477.715 409.826 483.144 404.826 479.215 426.112L476.358 441.754C475.144 448.469 471.43 454.04 466.358 458.397C450.144 472.326 432.358 480.754 413.001 490.397C410.215 491.754 406.787 492.683 403.787 493.397L385.858 497.469C397.001 512.326 416.858 546.897 409.572 563.683C406.001 571.826 393.43 582.754 382.93 581.612C381.501 593.54 374.858 602.612 365.43 609.183C351.001 619.326 339.358 620.254 322.787 615.826C318.287 614.612 314.001 614.04 311.001 609.469C301.93 616.469 291.144 620.397 280.001 619.969C272.644 619.683 265.715 617.397 258.787 615.683C249.43 613.397 242.287 608.04 236.43 600.612L227.93 589.897C226.858 588.54 225.858 586.112 224.644 584.183C212.215 586.826 200.144 579.826 197.001 567.04C194.144 555.183 196.001 541.254 201.787 530.326L213.43 508.326C205.215 508.54 198.358 507.897 190.644 506.754C187.715 506.326 183.715 506.897 180.715 506.754C170.358 506.397 162.43 501.112 152.787 497.469L152.644 497.254ZM89.7153 409.04L87.2867 422.897C84.5009 438.897 91.7867 453.897 99.1438 467.897L106.001 474.112C109.072 476.897 111.43 480.326 115.287 482.04C134.144 490.612 127.715 485.826 146.001 489.683C149.787 490.469 153.787 490.754 157.215 492.469C184.358 505.683 177.858 497.897 199.43 501.754C209.644 503.612 220.644 499.897 231.072 503.326C242.572 507.112 237.215 502.326 251.43 502.469C278.072 502.683 327.858 503.683 352.215 497.54C358.072 496.04 363.001 494.254 369.144 493.754C378.358 492.969 387.287 490.397 396.358 488.754C402.358 487.683 408.001 486.254 413.358 483.397L441.644 468.469C448.93 464.612 455.287 459.754 461.501 454.469C472.93 444.754 475.001 416.397 474.715 414.326L472.501 398.969C471.787 393.826 472.001 389.183 471.072 384.112C468.358 369.397 466.072 354.969 462.43 340.469C460.43 332.754 455.43 327.254 451.287 320.683C445.572 311.612 440.715 302.397 433.858 294.112L424.43 289.612C423.215 289.04 421.572 286.826 421.287 285.683C420.287 281.826 427.715 277.183 429.358 274.397C433.072 268.112 435.287 261.183 436.787 253.969C437.858 249.112 436.93 243.683 435.287 238.969C433.001 232.469 432.001 225.397 429.43 219.254C427.072 213.683 424.858 209.183 423.001 203.183C420.572 195.469 414.501 187.611 407.572 183.326C396.001 176.254 383.215 173.897 370.572 170.04C354.715 165.183 356.858 167.826 340.358 169.54C335.43 170.04 331.287 171.897 326.93 173.897C322.572 175.897 320.001 178.04 317.572 182.04C309.43 195.611 305.715 190.826 299.001 215.04C294.715 230.54 295.93 246.54 304.215 260.397C308.144 266.969 321.215 274.969 319.358 279.397C319.072 280.04 317.787 281.183 317.001 281.254C306.215 283.04 302.858 278.183 290.358 279.683C284.358 280.397 279.501 279.04 273.858 276.754C271.43 275.754 267.501 277.183 264.858 277.254C259.93 277.254 255.93 277.897 251.572 280.254C249.644 281.326 246.215 281.969 244.644 280.254C241.287 276.683 249.644 271.611 251.358 266.969C254.858 257.397 256.144 247.254 256.215 237.254C256.215 228.54 252.787 222.469 248.858 215.326C242.644 203.826 235.287 192.397 222.43 187.469C218.215 185.826 213.43 185.04 209.287 182.969C194.287 175.469 180.144 180.612 164.572 185.54C155.001 188.54 145.715 193.469 139.787 201.826L131.715 213.183C129.858 215.826 130.787 220.683 128.287 223.54C124.644 227.612 122.787 233.183 122.572 238.754C122.358 246.397 122.287 253.469 122.501 261.254C122.501 264.04 124.43 267.326 125.358 269.897C127.501 275.54 130.287 280.54 134.787 284.612L152.215 300.326C164.001 310.897 175.715 304.612 178.144 308.469C179.858 311.112 174.858 314.183 172.072 322.969L166.001 342.254C162.072 354.754 161.215 367.112 162.358 380.254C162.501 381.969 161.144 384.754 160.001 385.754C158.787 386.826 155.858 387.183 154.072 386.754C143.215 383.826 123.715 381.111 113.787 386.611C108.572 412.897 91.4296 399.54 89.7867 409.04H89.7153ZM309.787 275.326C309.787 275.326 309.644 274.969 309.43 274.969C309.215 274.969 309.072 275.112 309.072 275.326C309.072 275.54 309.215 275.683 309.43 275.683C309.644 275.683 309.787 275.54 309.787 275.326ZM297.144 610.469C307.43 606.826 307.072 601.04 310.787 601.754C314.787 602.54 315.572 607.612 319.287 608.54L331.144 611.54C338.072 613.326 346.43 611.969 353.001 609.183C357.787 607.183 362.001 603.826 365.93 600.683C376.858 592.112 378.358 578.183 376.001 565.469L374.644 557.897C374.43 556.683 375.93 554.683 377.144 554.612C378.358 554.54 380.287 555.897 380.501 557.112L381.787 564.54C382.43 568.112 382.715 571.183 383.144 575.326C390.215 576.754 401.144 567.04 403.715 561.254C410.358 546.469 388.787 509.754 378.644 498.183C373.215 499.254 368.787 499.826 363.501 500.397C359.572 500.826 355.644 503.183 351.715 503.826C335.858 506.54 320.43 508.04 304.287 508.04L251.215 508.183C240.144 508.183 239.572 512.754 231.072 509.469C227.858 508.183 223.072 507.183 219.858 507.969L213.858 519.326L206.358 533.397C201.287 542.969 200.001 554.754 202.358 565.183C204.572 574.826 214.358 580.254 223.43 578.04C222.787 575.969 221.787 563.754 221.93 562.754C222.072 561.754 223.93 560.183 224.858 559.897C225.787 559.612 228.072 560.683 228.144 561.683C229.001 584.254 230.287 583.897 243.072 599.254C246.644 603.54 251.215 606.683 256.501 608.469C273.358 614.04 281.287 616.04 297.072 610.469H297.144Z" fill="#291F1C" stroke="#231815" stroke-width="1.42857" stroke-miterlimit="10"/>
<path d="M89.7164 409.043C91.3592 399.543 108.502 412.972 113.716 386.615C123.645 381.043 143.145 383.829 154.002 386.758C155.788 387.258 158.716 386.829 159.931 385.758C161.002 384.829 162.431 382.043 162.288 380.258C161.145 367.115 162.002 354.758 165.931 342.258L172.002 322.972C174.788 314.186 179.788 311.115 178.074 308.472C175.574 304.615 163.931 310.901 152.145 300.329L134.716 284.615C130.216 280.543 127.431 275.543 125.288 269.901C124.288 267.258 122.431 264.043 122.431 261.258C122.288 253.472 122.288 246.401 122.502 238.758C122.716 233.186 124.502 227.615 128.216 223.543C130.716 220.686 129.788 215.829 131.645 213.186L139.716 201.829C145.645 193.543 154.859 188.615 164.502 185.543C180.074 180.615 194.216 175.543 209.216 182.972C213.359 185.043 218.145 185.901 222.359 187.472C235.216 192.401 242.574 203.829 248.788 215.329C252.645 222.472 256.145 228.543 256.145 237.258C256.145 247.258 254.788 257.401 251.288 266.972C249.574 271.543 241.216 276.686 244.574 280.258C246.145 281.972 249.574 281.258 251.502 280.258C255.859 277.901 259.859 277.329 264.788 277.258C267.431 277.258 271.359 275.829 273.788 276.758C279.431 279.043 284.288 280.472 290.288 279.686C302.788 278.186 306.145 283.043 316.931 281.258C317.716 281.115 319.002 279.972 319.288 279.401C321.145 274.972 308.074 266.901 304.145 260.401C295.859 246.472 294.574 230.543 298.931 215.043C305.645 190.829 309.359 195.615 317.502 182.043C319.931 178.043 322.645 175.829 326.859 173.901C331.074 171.972 335.359 170.115 340.288 169.543C356.859 167.829 354.645 165.186 370.502 170.043C383.145 173.901 396.002 176.258 407.502 183.329C414.431 187.615 420.502 195.472 422.931 203.186C424.788 209.186 427.002 213.686 429.359 219.258C432.002 225.401 432.931 232.472 435.216 238.972C436.859 243.686 437.788 249.043 436.716 253.972C435.216 261.186 433.002 268.115 429.288 274.401C427.645 277.186 420.216 281.829 421.216 285.686C421.502 286.829 423.145 289.043 424.359 289.615L433.788 294.115C440.645 302.401 445.574 311.615 451.216 320.686C455.359 327.258 460.431 332.758 462.359 340.472C466.074 354.972 468.359 369.401 471.002 384.115C471.931 389.258 471.645 393.829 472.431 398.972L474.645 414.329C474.931 416.401 472.859 444.758 461.431 454.472C455.216 459.758 448.859 464.615 441.574 468.472L413.288 483.401C407.931 486.258 402.288 487.615 396.288 488.758C387.216 490.401 378.359 492.972 369.074 493.758C362.859 494.258 358.002 496.115 352.145 497.543C327.788 503.615 278.002 502.686 251.359 502.472C237.145 502.329 242.502 507.115 231.002 503.329C220.574 499.901 209.645 503.615 199.359 501.758C177.859 497.829 184.288 505.686 157.145 492.472C153.716 490.758 149.716 490.543 145.931 489.686C127.716 485.829 134.074 490.615 115.216 482.043C111.431 480.329 109.002 476.901 105.931 474.115L99.0735 467.901C91.7164 453.901 84.4307 438.901 87.2164 422.901L89.6449 409.043H89.7164Z" fill="#C6E5EF" stroke="#231815" stroke-width="1.42857" stroke-miterlimit="10"/>
<path d="M297.142 610.467C281.428 616.039 273.428 614.039 256.571 608.467C251.285 606.753 246.713 603.539 243.142 599.253C230.356 583.896 228.999 584.182 228.213 561.682C228.213 560.682 225.856 559.61 224.928 559.896C223.999 560.182 222.142 561.753 221.999 562.753C221.856 563.753 222.928 575.967 223.499 578.039C214.428 580.253 204.571 574.824 202.428 565.182C200.071 554.753 201.356 542.967 206.428 533.396L213.928 519.324L219.928 507.967C223.142 507.182 227.928 508.182 231.142 509.467C239.642 512.753 240.213 508.253 251.285 508.182L304.356 508.039C320.499 508.039 335.928 506.467 351.785 503.825C355.713 503.182 359.642 500.824 363.571 500.396C368.785 499.824 373.213 499.324 378.713 498.182C388.856 509.753 410.428 546.467 403.785 561.253C401.213 567.039 390.285 576.753 383.213 575.325C382.785 571.182 382.428 568.11 381.856 564.539L380.571 557.11C380.356 555.896 378.499 554.539 377.213 554.61C375.928 554.682 374.499 556.682 374.713 557.896L376.071 565.467C378.428 578.182 376.856 592.11 365.999 600.682C361.999 603.824 357.856 607.11 353.071 609.182C346.428 611.967 338.071 613.325 331.213 611.539L319.356 608.539C315.642 607.61 314.856 602.467 310.856 601.753C307.142 601.039 307.499 606.825 297.213 610.467H297.142Z" fill="#C6E5EF" stroke="#231815" stroke-width="1.42857" stroke-miterlimit="10"/>
<path d="M309.357 275.681C309.554 275.681 309.714 275.521 309.714 275.324C309.714 275.127 309.554 274.967 309.357 274.967C309.16 274.967 309 275.127 309 275.324C309 275.521 309.16 275.681 309.357 275.681Z" fill="#FEFEFE" stroke="#231815" stroke-width="1.42857" stroke-miterlimit="10"/>
<path d="M288.786 352.121C287.643 355.693 271.929 349.407 268.501 362.55C268.001 364.55 267.286 366.121 265.215 366.05C263.715 366.05 262.001 363.479 262.429 361.693C266.215 345.264 286.929 346.693 288.643 348.907C289.143 349.55 289.072 351.264 288.786 352.121Z" fill="#291F1C" stroke="#231815" stroke-width="1.42857" stroke-miterlimit="10"/>
<path d="M326.714 359.047C318.5 347.547 308.285 354.261 307.714 348.904C307.143 343.118 323.357 344.19 331.857 355.975C332.571 356.975 331.857 360.047 330.857 360.475C329.428 361.047 327.643 360.332 326.714 359.118V359.047Z" fill="#291F1C" stroke="#231815" stroke-width="1.42857" stroke-miterlimit="10"/>
<path d="M318.429 446.536C319.072 445.75 319.429 443.322 320.072 442.75C320.786 442.036 323.286 442.393 323.858 443.179C326.144 446.465 324.072 451.036 320.715 452.75C315.286 455.465 309.072 454.679 304.144 451.036C300.215 453.108 295.858 455.251 291.429 455.179C285.644 455.108 282.215 450.393 281.572 444.965C281.358 443.251 282.429 441.393 284.001 441.322C288.144 440.965 286.715 446.25 289.286 448.465C290.286 449.322 293.215 449.25 294.715 448.893C302.858 446.75 299.215 443.608 302.572 442.75C303.644 442.465 305.715 443.536 306.358 444.536C308.786 448.393 315.358 450.465 318.501 446.679L318.429 446.536Z" fill="#291F1C" stroke="#231815" stroke-width="1.42857" stroke-miterlimit="10"/>
</g>
<defs>
<clipPath id="clip0_39_2500">
<rect width="550" height="620" fill="white"/>
</clipPath>
</defs>
</svg>
