<svg width="392" height="145" viewBox="0 0 392 145" fill="none" xmlns="http://www.w3.org/2000/svg">
<path d="M221.64 5.04907C190.783 5.26336 160.068 1.76337 128.925 3.3348C106.711 4.40623 84.7826 8.19197 62.5683 6.7634C47.7112 5.83483 31.1398 8.19196 20.354 18.192C13.5683 24.4777 11.7112 32.2634 8.63976 40.192C4.78262 50.1205 1.7826 59.1205 3.35403 69.9062C4.35403 76.6919 6.2826 82.9777 6.92546 89.7634C7.71118 97.4777 13.9969 101.335 18.854 107.263C22.7826 112.049 26.5683 116.763 31.2112 121.049C41.6398 130.478 56.1398 136.121 70.0683 139.478C83.9969 142.835 99.9969 141.121 114.497 141.335C157.64 142.121 200.783 141.763 243.925 141.621C265.068 141.621 285.854 141.049 306.854 141.692C329.64 142.406 348.783 130.549 363.64 115.906C371.497 108.121 378.354 101.406 382.14 91.1205C386.068 80.5491 387.354 67.1205 388.14 56.0491C388.783 46.4062 381.997 35.5491 375.426 28.4062C363.283 15.1205 343.64 4.76337 324.497 3.8348C291.854 2.3348 259.068 4.26338 226.425 4.90624C224.854 4.90624 223.283 4.90624 221.711 4.90624L221.64 5.04907Z" fill="white" stroke="#040000" stroke-width="5.85714" stroke-linecap="round" stroke-linejoin="round"/>
<path d="M39.4978 39.4122C43.9263 39.9836 46.1406 42.3407 46.1406 46.4121C46.1406 50.4836 43.9263 53.7693 39.4978 56.4121C36.7121 56.4121 34.7835 55.055 33.6406 52.4122V50.9122C33.6406 43.2693 35.5692 39.4122 39.4978 39.4122ZM36.1406 49.9122C36.712 51.9122 37.7835 52.9121 39.4978 52.9121C41.3549 52.9121 42.7121 51.055 43.6406 47.4121C43.2835 44.4121 41.9978 42.9121 39.9263 42.9121C37.9978 44.1264 36.9978 45.4835 36.9978 46.9121C36.712 46.9121 36.4263 47.9122 36.1406 49.9122ZM54.4978 36.9121H56.1406C56.9978 36.9121 57.7835 43.7693 58.6406 57.4121C58.3549 58.055 58.212 58.555 58.212 58.9121H57.7835C56.1406 58.9121 55.2835 57.4121 55.2835 54.4121C55.2835 50.9121 54.8549 45.9122 54.0692 39.4122C54.3549 38.8407 54.4978 37.9835 54.4978 36.9121Z" fill="black"/>
<path d="M72.9961 36.3359C73.5675 36.6931 73.9247 36.8359 74.2818 36.8359C74.2818 39.8359 73.5675 44.1931 72.2104 49.9074L72.639 50.9074V53.4074C72.639 54.0502 72.3533 54.4074 71.7818 54.4074H70.9247C70.5675 54.4074 70.139 53.9074 69.7104 52.9074V50.4074C69.7104 48.7645 70.2818 45.1217 71.3532 39.4074C67.0675 40.0502 63.9961 40.4074 62.1389 40.4074L60.4961 39.9074V37.9074L72.9961 36.4073V36.3359ZM89.2818 35.3359L90.139 37.3359C90.139 37.3359 89.9961 37.8359 89.7104 37.8359L90.9961 51.3359L89.7104 52.3359H88.8532C88.2818 52.3359 87.7818 49.693 87.2104 44.3359C87.4961 44.3359 87.6389 44.193 87.6389 43.8359C87.3532 43.8359 87.2104 43.693 87.2104 43.3359C86.2818 43.3359 82.7818 43.9788 76.7818 45.3359C76.2104 44.2645 75.9247 43.4073 75.9247 42.8359C76.2818 42.193 79.4961 41.3359 85.4961 40.3359V40.8359C85.9961 40.4788 86.5675 40.3359 87.1389 40.3359V35.8359L89.2104 35.3359H89.2818ZM79.2104 58.8359H80.0675C80.639 58.9788 80.9247 59.2645 80.9247 59.8359V66.3359C85.9247 65.5502 88.4247 64.6931 88.4247 63.8359C90.639 64.2645 91.7818 64.9073 91.7818 65.8359L91.3532 68.3359H89.7104C88.2818 68.3359 85.4961 68.9788 81.3533 70.3359C80.9961 70.3359 79.8532 69.8359 77.9961 68.8359V61.8359C78.139 59.8359 78.5675 58.8359 79.2104 58.8359Z" fill="black"/>
<path d="M115.357 35.3379V35.8379L116.214 35.3379H116.999C118.428 36.1236 119.071 36.9808 119.071 37.8379C118.499 43.1951 118.071 45.8379 117.785 45.8379C117.785 46.195 117.928 46.3379 118.214 46.3379C117.642 50.1951 117.357 54.195 117.357 58.3379L116.142 59.3379H115.714C115.714 58.8379 115.285 58.1236 114.499 57.3379V56.8379C115.071 47.3379 115.285 41.3379 115.285 38.7665C113.785 38.7665 111.785 38.9093 109.428 39.2665C106.642 38.9808 105.285 38.4808 105.285 37.7665V36.7665C105.357 36.1236 105.642 35.7665 106.142 35.7665H111.142L115.285 35.2665L115.357 35.3379ZM130.785 33.3379L132.857 33.8379V38.8379C132.857 38.8379 132.714 39.3379 132.428 39.3379C132.428 39.6236 132.571 39.8379 132.857 39.8379C132.857 40.0522 132.714 42.1951 132.428 46.3379C132.428 47.5522 132.714 50.695 133.285 55.8379C132.785 56.195 132.357 56.3379 131.999 56.3379C130.714 55.695 130.071 54.9808 129.928 54.3379V52.2665L129.499 47.2665C126.642 48.9808 124.571 49.7665 123.214 49.7665H121.928C121.285 49.7665 120.857 48.9093 120.642 47.2665L129.428 44.2665L129.857 43.2665V41.7665C129.857 41.0522 129.571 40.7665 128.999 40.7665H126.499C125.571 40.7665 123.642 41.1236 120.642 41.7665L120.214 40.7665V40.2665C120.214 38.695 122.285 37.6951 126.499 37.2665C127.571 37.6236 128.714 37.7665 129.857 37.7665V34.2665C129.857 33.5522 130.214 33.2665 130.642 33.2665L130.785 33.3379ZM136.214 32.8379H137.499L138.357 36.8379H137.928C138.785 41.1236 139.357 47.1236 139.642 54.9093H140.499C139.785 57.9093 139.071 59.4093 138.428 59.4093C137.357 59.4093 136.428 50.695 135.499 33.3379L136.357 32.8379H136.214Z" fill="black"/>
<path d="M152.144 27.4121L153.001 28.9121V30.4121C153.001 30.9835 149.644 31.9835 143.001 33.4121L142.144 31.9121C142.144 30.4835 145.501 28.9835 152.144 27.4121ZM153.429 33.4121C154.001 33.7692 154.429 33.9121 154.715 33.9121V35.4121C154.715 36.4835 153.358 37.3407 150.572 37.9121C150.572 38.4835 151.572 38.9835 153.501 39.4121C154.858 40.4121 155.572 41.055 155.572 41.4121V42.4121C154.429 45.1264 153.358 46.4121 152.215 46.4121L153.072 50.9121C155.286 50.6264 156.929 50.0549 158.072 49.4121C160.001 49.7692 161.001 50.2693 161.001 50.9121V52.4121C159.501 53.055 156.715 53.7692 152.644 54.4121C152.644 54.9121 150.858 55.555 147.215 56.4121L146.358 54.9121V52.9121C148.858 52.555 150.072 52.055 150.072 51.4121C150.072 48.7693 149.215 47.4121 147.572 47.4121C146.715 47.0549 146.358 46.0549 146.358 44.4121C147.001 40.7692 148.001 38.9121 149.286 38.9121V38.4121H148.429C148.429 39.1264 147.286 39.6264 145.072 39.9121L144.215 38.4121V37.4121C144.215 36.8407 146.429 36.0549 150.929 34.9121C150.929 34.6978 151.786 34.1978 153.429 33.4121ZM149.715 41.8407C149.715 42.5549 149.429 42.8407 148.858 42.8407C149.144 43.4121 149.286 44.1264 149.286 44.8406C151.501 44.1978 152.644 43.4835 152.644 42.8407C151.501 42.1978 150.572 41.8407 149.715 41.8407ZM164.286 58.9121C164.858 59.1978 165.144 62.3407 165.144 68.4121C164.572 68.7692 164.215 68.9121 163.858 68.9121C162.429 68.4121 161.786 66.7693 161.786 63.9121C162.072 63.9121 162.215 63.7693 162.215 63.4121L161.358 62.9121H159.715C159.715 62.9121 157.858 63.2693 155.144 63.9121C153.715 63.9121 152.858 63.4121 152.644 62.4121V61.4121C152.644 60.6264 156.501 59.8407 164.286 58.9121ZM164.715 33.9121C166.144 33.9121 166.786 37.2692 166.786 43.9121C166.929 43.9121 167.358 45.5549 168.001 48.9121C167.715 51.9121 166.858 53.4121 165.501 53.4121C164.644 53.055 164.215 52.7693 164.215 52.4121L162.929 34.4121C162.929 34.4121 163.644 34.2692 164.572 33.9121H164.715Z" fill="black"/>
<path d="M189.354 38.916H190.997C190.997 41.6303 191.282 48.4874 191.854 59.416C191.568 60.0588 191.425 60.5588 191.425 60.916H190.568C189.497 60.916 188.711 56.7731 188.068 48.416H187.639C183.854 48.7017 181.497 48.916 180.568 48.916C180.568 48.5588 180.425 48.416 180.14 48.416C179.211 52.0588 177.568 53.916 175.139 53.916C171.568 52.9874 169.711 50.9874 169.711 47.916C169.711 42.7731 171.211 39.916 174.282 39.416C178.14 39.416 180.068 41.2731 180.068 44.916H181.354C182.782 44.916 185.14 45.1303 188.425 45.416V43.416L187.997 39.916L189.282 38.916H189.354ZM173.997 42.416C173.997 42.8446 173.425 44.0588 172.354 45.916V46.916C172.354 48.416 173.211 49.7732 174.854 50.916C176.782 50.916 177.925 49.416 178.211 46.416C178.211 44.2731 176.997 43.0589 174.497 42.916C174.497 42.6303 174.354 42.416 174.068 42.416H173.997ZM195.64 37.916H196.425C197.64 37.916 198.782 44.5588 199.782 57.916L198.497 58.916C196.997 58.916 195.782 52.0589 194.782 38.416L195.64 37.916Z" fill="black"/>
<path d="M217.928 34.4062H219.999C221.571 35.4777 222.714 36.6206 223.356 37.9063V40.9063C222.499 45.2634 220.642 47.4062 217.928 47.4062C215.356 47.4062 213.856 45.0491 213.356 40.4063V39.4063C213.928 37.8348 215.428 36.192 217.928 34.4062ZM216.285 43.4063L218.356 43.9063H219.214C220.571 42.9063 221.285 41.5491 221.285 39.9063C221.214 39.0491 220.499 38.192 219.214 37.4063C217.642 37.4063 216.642 39.4063 216.285 43.4063ZM224.999 51.9063C227.499 51.9063 228.785 55.0491 228.785 61.4062C228.785 66.0491 227.499 68.4063 224.999 68.4063C223.999 68.692 222.714 68.9063 221.285 68.9063C218.785 68.9063 217.571 65.5491 217.571 58.9062V54.9063H219.214C219.856 54.9063 220.285 56.5491 220.428 59.9062H225.428L224.999 53.9063V51.9063ZM220.856 64.4063V64.9063H224.571C225.142 64.9063 225.428 64.5491 225.428 63.9063V62.4063H224.999C222.214 63.0491 220.856 63.7634 220.856 64.4063ZM234.214 32.4062H234.642L236.714 32.9062V33.4062C236.714 39.6205 237.142 43.6205 237.999 45.4062L237.571 46.4062V47.9062L236.285 48.9062C235.071 48.9062 234.071 46.0491 233.356 40.4063H232.499C231.928 40.4063 229.999 40.7634 226.642 41.4063C225.499 41.1206 224.999 40.0491 224.999 38.4063C227.071 37.7634 229.071 37.4063 230.856 37.4063H233.785C233.785 36.0491 233.928 35.4062 234.214 35.4062C233.928 34.7634 233.785 34.2634 233.785 33.9062C234.071 33.2634 234.214 32.7634 234.214 32.4062ZM233.356 51.9063L235.428 52.4063V56.9063C239.571 59.9063 241.714 62.4063 241.714 64.4063L239.642 64.9063H239.214C236.571 62.2634 234.642 60.9062 233.356 60.9062C233.214 63.9062 232.785 65.4063 232.142 65.4063H231.714L229.642 64.9063C229.785 62.9063 230.999 58.5491 233.356 51.9063Z" fill="black"/>
<path d="M250.144 32.4062L251.001 32.9062C252.072 32.5491 253.072 32.4062 253.929 32.4062C254.501 32.7634 254.929 32.9062 255.215 32.9062V34.9062C255.215 35.5491 253.858 36.0491 251.072 36.4062C250.786 36.4062 250.644 36.2634 250.644 35.9062C248.429 36.1919 247.286 36.8349 247.286 37.9063L248.572 46.9062C253.572 46.1205 256.072 45.6205 256.072 45.4062V44.9063H256.929C256.929 44.9063 257.358 45.0491 257.358 45.4062L258.215 44.9063H258.644L259.072 47.4062C257.858 48.6205 253.715 49.7634 246.572 50.9063V50.4063C245.644 47.4063 245.144 43.4063 244.929 38.4063C244.929 37.0491 244.501 35.9062 243.644 34.9062C244.072 33.5491 244.501 32.9062 244.929 32.9062H248.644C249.286 32.9062 249.858 32.7634 250.286 32.4062H250.144ZM253.858 58.9062C254.429 59.0491 254.715 59.3348 254.715 59.9062V63.4063C254.715 63.4063 254.572 63.9063 254.286 63.9063L254.715 64.9063V67.4063H255.572C259.286 67.4063 261.786 66.9063 263.072 65.9063C263.501 66.2634 264.215 66.4063 265.144 66.4063C265.144 69.4063 263.072 70.9062 258.929 70.9062L253.072 71.9062C252.215 70.6205 251.786 69.6205 251.786 68.9063C251.786 68.5491 251.929 68.4063 252.215 68.4063L251.786 65.9063V62.9063C251.786 62.1206 251.929 61.4777 252.215 60.9062V59.4062C252.715 59.0491 253.286 58.9062 253.858 58.9062ZM265.572 33.4062C266.715 33.9062 267.215 34.4062 267.215 34.9062V35.9062C267.215 35.9062 267.072 36.4062 266.786 36.4062L267.215 37.4063V47.9062C267.215 48.4062 266.786 48.9062 265.929 49.4062H265.501C265.072 49.4062 264.644 48.9062 264.215 47.9062V40.4063C260.429 41.4063 257.644 41.9063 255.858 41.9063H255.429L255.001 39.4063C256.429 38.692 259.072 38.0491 262.929 37.4063C263.501 37.692 263.929 37.9063 264.215 37.9063C264.215 37.5491 264.358 37.4063 264.644 37.4063L264.215 36.4062V34.4062C264.215 33.7634 264.644 33.4062 265.501 33.4062H265.572Z" fill="black"/>
<path d="M293.357 36.3359C293.929 36.6931 294.286 36.8359 294.643 36.8359C294.643 39.8359 293.929 44.1931 292.572 49.9074L293 50.9074V53.4074C293 54.0502 292.715 54.4074 292.143 54.4074H291.286C290.929 54.4074 290.5 53.9074 290.072 52.9074V50.4074C290.072 48.7645 290.643 45.1217 291.715 39.4074C287.429 40.0502 284.357 40.4074 282.5 40.4074L280.857 39.9074V37.9074L293.357 36.4073V36.3359ZM309.643 35.3359L310.5 37.3359C310.5 37.3359 310.357 37.8359 310.072 37.8359L311.357 51.3359L310.072 52.3359H309.215C308.643 52.3359 308.143 49.693 307.572 44.3359C307.857 44.3359 308 44.193 308 43.8359C307.715 43.8359 307.572 43.693 307.572 43.3359C306.643 43.3359 303.143 43.9788 297.143 45.3359C296.572 44.2645 296.286 43.4073 296.286 42.8359C296.643 42.193 299.857 41.3359 305.857 40.3359V40.8359C306.357 40.4788 306.929 40.3359 307.5 40.3359V35.8359L309.572 35.3359H309.643ZM299.572 58.8359H300.429C301 58.9788 301.286 59.2645 301.286 59.8359V66.3359C306.286 65.5502 308.786 64.6931 308.786 63.8359C311 64.2645 312.143 64.9073 312.143 65.8359L311.715 68.3359H310.072C308.643 68.3359 305.857 68.9788 301.715 70.3359C301.357 70.3359 300.215 69.8359 298.357 68.8359V61.8359C298.5 59.8359 298.929 58.8359 299.572 58.8359Z" fill="black"/>
<path d="M313.928 38.416H325.999L326.428 40.916C325.356 41.5589 323.785 41.916 321.856 41.916H320.999C320.999 41.916 320.571 41.7731 320.571 41.416C320.142 41.7731 319.428 41.916 318.499 41.916V42.416C318.499 46.4874 318.785 50.3446 319.356 53.916C324.428 52.5589 327.785 51.916 329.356 51.916H330.213V54.916C329.213 54.916 325.213 55.916 318.142 57.916H317.285C316.713 52.2731 316.213 48.4874 315.642 46.416H316.071C316.071 46.416 315.928 45.916 315.642 45.916L316.071 43.416V41.416C314.713 41.416 313.999 41.0589 313.999 40.416V38.416H313.928ZM333.856 39.416C334.428 39.7017 334.856 39.916 335.142 39.916V41.916C335.142 41.916 334.999 42.416 334.713 42.416C334.713 42.7731 334.856 42.916 335.142 42.916L334.713 45.416C334.713 45.416 334.856 46.6303 335.142 48.416L334.713 49.416L335.571 55.416C335.285 56.0589 335.142 56.5588 335.142 56.916H333.071C332.499 52.916 332.213 50.7732 332.213 50.416H332.642C332.642 50.416 332.213 48.7017 332.213 45.916C330.071 47.2731 328.213 47.916 326.785 47.916H325.928C325.356 47.916 325.071 47.6303 325.071 46.916C325.071 45.7017 326.999 44.7017 330.928 43.916C331.713 43.4874 332.142 42.8446 332.142 41.916H332.571L332.142 40.916C332.142 40.0589 332.713 39.5589 333.785 39.416H333.856ZM337.642 37.916H339.285C339.856 38.0589 340.142 38.3446 340.142 38.916C340.142 41.1303 340.428 46.4874 340.999 54.916C340.713 55.5589 340.571 56.0588 340.571 56.416H338.071C338.071 55.0588 337.928 54.416 337.642 54.416L338.071 52.416C337.785 45.416 337.642 40.6303 337.642 37.916Z" fill="black"/>
<path d="M345.714 70.9102H346.142C347.285 71.4816 347.785 72.6244 347.785 74.4101C347.214 75.9101 346.714 76.7673 346.142 76.9102C344.642 76.9102 343.499 75.9101 342.785 73.9101C343.214 71.9101 344.214 70.9102 345.714 70.9102Z" fill="black"/>
<path d="M352.501 70.9102H352.929C354.072 71.4816 354.572 72.6244 354.572 74.4101C354.001 75.9101 353.501 76.7673 352.929 76.9102C351.429 76.9102 350.287 75.9101 349.572 73.9101C350.001 71.9101 351.001 70.9102 352.501 70.9102Z" fill="black"/>
<path d="M130.783 83.9824H131.641C132.212 84.0539 132.426 84.411 132.426 84.9824V86.4824C131.569 87.6967 131.141 88.911 131.141 89.9824V90.9824C136.926 95.1967 139.998 97.6967 140.355 98.4824C139.783 100.482 139.212 101.482 138.712 101.482C133.926 98.0538 130.998 95.7681 129.998 94.4824H129.569C129.141 94.6253 127.926 97.6253 125.855 103.482H124.998C124.426 103.482 124.141 103.197 124.141 102.482C124.141 102.125 124.283 101.982 124.569 101.982C124.283 101.34 124.141 100.84 124.141 100.482C126.212 93.2681 128.498 87.7681 130.783 83.9824ZM132.426 108.482H134.069V119.482C138.641 118.125 141.426 117.482 142.426 117.482V117.982C142.926 117.697 144.569 117.411 147.426 116.982L147.855 117.982V119.482C147.855 120.625 144.355 121.625 137.426 122.482C137.426 122.84 136.069 123.34 133.284 123.982C131.855 123.982 131.212 121.982 131.212 117.982V113.982C131.212 110.34 131.641 108.482 132.498 108.482H132.426ZM146.569 83.9824H147.426C147.998 84.0539 148.283 84.411 148.283 84.9824V92.4824C148.283 95.7682 148.569 99.1253 149.141 102.482L147.498 104.482H146.212C146.212 103.625 145.926 102.84 145.355 101.982C145.355 101.34 145.498 100.982 145.784 100.982L145.355 97.4824V85.4824C145.355 84.9824 145.783 84.4824 146.641 83.9824H146.569Z" fill="black"/>
<path d="M163.353 85.916L164.21 87.9161C162.781 94.9875 161.996 100.202 161.71 103.416C161.139 103.773 160.71 103.916 160.424 103.916C159.853 103.559 159.424 103.416 159.139 103.416V99.9161C160.281 93.8446 160.781 90.3446 160.781 89.416C156.924 90.1303 153.996 90.416 151.996 90.416C151.424 90.0589 151.067 89.916 150.71 89.916V87.4161H153.21L163.21 85.916H163.353ZM174.281 108.416C176.353 108.416 177.71 110.273 178.424 113.916V115.416C177.781 120.773 175.424 123.416 171.353 123.416C167.139 122.773 165.067 120.63 165.067 116.916H165.496L165.067 115.916V115.416C165.067 112.987 166.21 110.773 168.424 108.916H169.639C169.639 108.916 170.067 109.059 170.067 109.416C171.353 108.773 172.71 108.416 174.21 108.416H174.281ZM177.996 84.416C179.424 84.416 180.067 88.916 180.067 97.916C180.353 97.916 180.496 98.7732 180.496 100.416C180.139 102.059 179.71 102.916 179.21 102.916H178.353C177.567 99.2732 176.996 97.416 176.71 97.416C175.281 97.416 173.281 97.7732 170.853 98.416L168.353 97.916V96.416C168.353 95.5589 170.853 94.8446 175.853 94.416H176.71V91.416C176.71 90.7732 176.424 90.416 175.853 90.416C170.924 91.416 168.067 91.916 167.067 91.916L166.639 90.916V89.916C166.853 88.7732 170.21 87.9161 176.71 87.4161C176.71 85.4161 177.139 84.416 177.924 84.416H177.996ZM167.996 114.987V117.987C169.139 119.487 169.639 120.273 169.639 120.487C173.853 120.487 175.924 118.345 175.924 113.987C175.924 113.345 175.067 112.487 173.424 111.487C169.781 112.273 167.996 113.487 167.996 114.987Z" fill="black"/>
<path d="M211.569 111.979C212.141 113.05 212.355 114.05 212.355 114.978C211.998 114.978 211.569 115.479 211.141 116.479C210.498 116.479 209.926 116.336 209.498 115.979L196.141 117.479C194.784 117.264 194.069 116.764 194.069 115.979V114.479C194.141 113.836 194.426 113.479 194.926 113.479H197.855C197.855 113.479 198.284 113.621 198.284 113.979C199.784 113.336 204.284 112.621 211.641 111.979H211.569ZM200.712 85.9785C200.712 85.9785 200.998 86.4785 201.569 86.4785L199.498 91.9785C201.569 93.9785 203.426 94.9785 204.926 94.9785C205.998 91.05 207.069 88.4071 208.284 86.9785H209.569V89.9785L208.712 91.4785C212.569 93.9071 214.784 95.7642 215.355 96.9785V98.9785C214.784 98.9785 214.498 99.3357 214.498 99.9785H213.641C211.498 98.6214 209.712 97.1214 208.212 95.4785H207.784C206.784 100.479 205.926 102.978 205.284 102.978C204.784 102.621 204.355 102.478 203.998 102.478V97.9785C202.426 97.9785 200.498 97.1214 198.212 95.4785C197.284 100.121 196.569 102.478 196.141 102.478H195.284C194.712 102.478 194.426 102.121 194.426 101.479C194.998 97.2642 196.069 92.7642 197.784 87.9785C198.141 86.6214 199.141 85.9785 200.712 85.9785Z" fill="black"/>
<path d="M220.858 92.9844H221.715C225.858 92.9844 228.001 94.9844 228.001 98.9844C228.001 103.699 226.715 106.842 224.215 108.484H223.786C220.286 108.484 218.001 106.342 217.144 101.984V98.9844C217.144 96.7701 218.358 94.7701 220.858 92.9844ZM219.644 100.484C219.644 103.127 221.144 104.484 224.215 104.484L225.501 102.484V97.4844L222.572 96.4844H222.144C220.501 98.6273 219.644 99.9844 219.644 100.484ZM241.286 90.4844H242.501C242.501 91.6272 242.644 92.413 242.929 92.9844C242.644 94.7701 242.501 96.2701 242.501 97.4844V101.984C243.358 103.199 243.786 106.699 243.786 112.484C243.501 113.842 242.929 114.484 242.144 114.484C240.786 114.056 240.072 111.199 240.072 105.984C238.072 105.984 236.572 106.27 235.501 106.984C234.358 106.484 233.858 105.984 233.858 105.484C233.858 103.484 235.929 102.484 240.144 102.484V97.4844L238.072 96.9844C237.215 96.9844 235.429 97.3415 232.644 97.9844C232.072 97.6273 231.715 97.4844 231.429 97.4844V96.4844C231.429 94.9844 234.358 93.8416 240.144 92.9844C240.358 91.3416 240.786 90.4844 241.429 90.4844H241.286Z" fill="black"/>
<path d="M248.497 123.479H248.926C250.068 124.05 250.568 125.193 250.568 126.979C249.997 128.479 249.497 129.336 248.926 129.479C247.426 129.479 246.283 128.479 245.568 126.479C245.997 124.479 246.997 123.479 248.497 123.479Z" fill="black"/>
<path d="M255.284 123.479H255.713C256.855 124.05 257.355 125.193 257.355 126.979C256.784 128.479 256.284 129.336 255.713 129.479C254.213 129.479 253.07 128.479 252.355 126.479C252.784 124.479 253.784 123.479 255.284 123.479Z" fill="black"/>
<path d="M262.071 123.479H262.5C263.643 124.05 264.143 125.193 264.143 126.979C263.571 128.479 263.071 129.336 262.5 129.479C261 129.479 259.857 128.479 259.143 126.479C259.571 124.479 260.571 123.479 262.071 123.479Z" fill="black"/>
</svg>
