<svg width="369" height="161" viewBox="0 0 369 161" fill="none" xmlns="http://www.w3.org/2000/svg">
<path d="M209.407 10.9328C207.476 10.0749 205.76 10.2894 203.687 10.1464C188.102 8.93105 172.588 8.14464 157.003 6.35733C129.621 3.21166 102.096 1.9963 74.5718 3.71212C55.6264 4.856 30.2466 9.36002 18.5218 26.4467C9.22779 39.9588 1.29213 62.0499 3.22243 78.4932C4.50929 83.6406 6.51108 88.5021 9.1563 93.1491C12.5164 100.513 16.0196 107.805 19.6657 115.026C24.0267 121.389 30.5325 126.965 36.7524 131.469C48.9776 140.406 64.8489 146.482 79.2189 151.058C113.106 161.853 148.495 155.705 183.026 154.776C217.557 153.846 250.086 156.205 283.115 151.844C295.126 150.272 308.995 148.913 320.506 145.482C325.081 144.123 340.238 133.113 342.025 131.684C354.536 121.532 360.684 109.378 364.402 93.7925C368.692 75.4905 360.684 61.478 347.387 49.5387C327.655 31.7371 300.488 26.9471 275.537 21.0133C252.731 15.5798 228.281 9.64597 209.478 10.9328H209.407Z" fill="white" stroke="#040000" stroke-width="5.86238" stroke-linecap="round" stroke-linejoin="round"/>
<path d="M62.3466 39.3203H62.7756C63.3475 41.4651 63.6335 42.609 63.6335 42.8235C63.2045 44.1818 62.7756 44.8253 62.3466 44.8253L61.1313 43.8244L54.0535 44.8253C52.9096 44.3248 52.4092 43.8244 52.4092 43.3239V42.323C52.4092 41.6081 53.1241 41.1077 54.4825 40.8217V41.3221C59.201 40.6787 61.8462 39.9637 62.4181 39.3203H62.3466ZM64.4199 48.8288C64.7059 50.6161 64.8488 51.5455 64.8488 51.8315C63.8479 52.4749 61.7032 53.0469 58.5575 53.3329C58.5575 52.9754 58.4145 52.8324 58.1286 52.8324L57.6996 53.8333C58.0571 56.836 58.486 58.3373 58.9865 58.3373C60.1303 58.3373 62.6326 57.9799 66.4932 57.3364C67.6371 57.8369 68.1375 58.3373 68.1375 58.8378V59.3382C67.7086 60.6966 66.8506 61.5545 65.6353 61.8404L64.7774 61.34C61.4172 61.9834 59.4154 62.4839 58.915 62.8413C56.6987 62.8413 55.5548 61.197 55.5548 57.8369C55.5548 54.4767 54.6969 52.8324 53.0526 52.8324L52.6236 51.8315V49.8297C55.6263 49.8297 59.5584 49.4722 64.3484 48.8288H64.4199ZM64.8488 67.8458H67.3511C70.2823 67.8458 72.2126 70.8485 73.142 76.8538C71.9981 80.8574 69.6388 82.8592 66.0642 82.8592C62.4181 81.5009 60.6308 79.3561 60.6308 76.3534V73.3507C61.1312 69.7046 62.4896 67.8458 64.7774 67.8458H64.8488ZM63.2045 74.852C63.2045 77.2828 64.6344 78.7842 67.3511 79.3561C68.7809 79.3561 69.9248 78.3552 70.7112 76.3534V75.3525C68.9239 72.7073 67.5656 71.3489 66.5647 71.3489C64.3484 71.3489 63.2045 72.4928 63.2045 74.852ZM72.3556 41.8226H72.7845L74.0714 49.8297H75.3582C76.0017 49.8297 76.5736 49.9727 77.0026 50.3301C77.503 49.9727 78.0749 49.8297 78.6469 49.8297C80.0052 49.8297 80.7202 50.8306 80.7202 52.8324L78.6469 54.3338C77.217 53.9763 76.5736 53.6903 76.5736 53.3329L75.7157 53.8333H75.2868L74.4288 53.3329V53.8333C75.2867 56.836 75.7157 58.8378 75.7157 59.8387L74.4288 60.8395H73.142L71.8551 54.3338C71.8551 54.3338 72.2841 54.1908 72.2841 53.8333C71.7121 53.8333 71.4262 53.4759 71.4262 52.8324V51.8315C71.4262 51.8315 71.5692 51.331 71.8551 51.331L70.6397 43.3239L72.2841 41.8226H72.3556Z" fill="black"/>
<path d="M103.742 63.3323L104.171 64.3332V65.8346C104.171 66.764 101.526 67.4074 96.2355 67.8364V69.3377C96.2355 70.982 96.3785 73.4842 96.6645 76.8444L95.3776 77.8453C94.0193 77.2734 93.3043 75.772 93.3043 73.3412V69.3377L92.8754 68.3368C90.1587 69.3377 87.9424 69.8381 86.2266 69.8381H83.7244C83.2954 69.8381 82.8665 69.1947 82.4375 67.8364C82.7235 67.1929 82.8664 66.6925 82.8664 66.335H84.5108C96.021 64.3332 102.455 63.3323 103.671 63.3323H103.742ZM89.5867 43.3145V45.8167L89.1578 46.8176C96.6645 50.6067 100.382 53.1089 100.382 54.3243V56.3261C100.382 56.9695 100.096 57.327 99.5242 57.327H97.8799C97.8799 56.612 95.8066 54.7532 91.66 51.822C90.2302 51.1786 89.0148 50.8211 87.8709 50.8211C86.727 55.6826 86.2266 58.8283 86.2266 60.3296H84.1533C84.1533 59.6862 84.0103 59.3287 83.7244 59.3287C83.7244 56.5405 85.0827 51.2501 87.8709 43.3145H89.5152H89.5867Z" fill="black"/>
<path d="M122.259 54.3288H124.761V54.8292C124.761 56.831 124.047 57.8319 122.688 57.8319V60.8346L122.259 64.3377C123.618 64.3377 124.333 66.3395 124.333 70.3431V74.3466C124.333 76.0624 123.904 77.0634 123.117 77.3494H122.688C122.331 77.3494 121.759 76.4914 121.044 74.8471C121.044 74.2036 121.187 73.8462 121.473 73.8462L121.044 70.3431V67.3404H120.615C117.112 68.3413 114.467 68.8417 112.679 68.8417H111.035C110.606 68.8417 110.249 68.3413 109.748 67.3404C110.034 66.697 110.177 66.1965 110.177 65.8391H114.324V65.3386C113.108 65.3386 112.465 63.3368 112.25 59.3332L108.104 59.8337H107.246C106.817 59.8337 106.459 59.3332 105.959 58.3323V57.8319C105.959 56.974 110.535 55.9731 119.757 54.8292C119.757 54.4718 120.615 54.3288 122.259 54.3288ZM113.895 38.3145C116.754 38.3145 118.971 39.8158 120.543 42.8185C120.543 46.3931 117.898 48.8953 112.608 50.3252H112.179C110.749 50.3252 109.605 49.4673 108.819 47.823V42.3181C109.391 42.3181 110.606 40.9597 112.536 38.3145H113.823H113.895ZM111.392 45.3207V45.8212C111.464 46.4646 111.75 46.8221 112.25 46.8221H113.537C116.325 46.1786 117.684 45.3207 117.684 44.3198C117.684 43.8194 116.826 43.033 115.182 41.8176H113.537C113.108 41.8176 112.679 42.6755 112.25 44.3198C111.678 44.4628 111.392 44.7488 111.392 45.3207ZM115.182 58.8328V60.3341L115.61 62.8364C115.61 62.8364 115.182 62.9793 115.182 63.3368H116.039L114.753 65.3386H115.182C117.97 64.6952 119.757 64.3377 120.615 64.3377V63.3368C119.757 63.3368 119.328 61.6925 119.328 58.3323L115.182 58.8328Z" fill="black"/>
<path d="M142.419 58.3327V58.8331L143.277 58.3327H145.35C145.922 58.4042 146.208 58.7616 146.208 59.3335V60.8349L145.35 62.3362L141.204 61.8358C138.273 61.8358 133.84 61.9788 127.835 62.3362C127.263 61.9788 126.905 61.8358 126.548 61.8358V59.3335C131.481 58.6901 136.771 58.3327 142.419 58.3327ZM136.128 38.8867L136.986 39.3872L137.844 38.8867C140.06 39.7446 141.204 41.246 141.204 43.3908C140.489 48.3952 137.915 50.8974 133.697 50.8974C131.981 50.8974 130.48 49.7536 129.122 47.3943V46.3934C129.979 41.389 132.339 38.8867 136.199 38.8867H136.128ZM131.552 64.8385H133.197L133.626 67.3407V74.3469C139.631 72.9886 142.848 72.3452 143.206 72.3452L144.063 73.8465V74.3469C144.063 75.7768 141.132 76.7777 135.27 77.3497C135.27 77.7071 134.555 78.0646 133.197 78.3506C132.839 78.3506 132.196 77.8501 131.123 76.8492L131.552 73.3461V72.8456L131.123 69.8429L131.552 68.8421C131.266 68.2701 131.123 67.6267 131.123 66.8403L131.552 64.8385ZM131.552 46.8939L134.484 47.8948C136.485 47.8948 137.987 46.8939 139.059 44.8921V43.8912C139.059 43.3908 138.487 42.6758 137.415 41.8894C133.769 41.8894 131.981 43.0333 131.981 45.3926C131.695 45.3926 131.552 45.893 131.552 46.8939Z" fill="black"/>
<path d="M171.375 42.8262L171.804 43.8271V45.3284L170.588 50.3328L173.948 53.3356H174.377L175.235 52.8351V53.836L174.806 54.8369H175.235C177.165 50.9763 178.166 47.9736 178.166 45.8288C177.88 45.8288 177.451 45.6859 176.951 45.3284C175.664 45.9718 174.377 46.3293 173.162 46.3293L172.733 45.3284V44.828C172.733 44.256 174.377 43.6126 177.737 42.8262C178.023 42.8262 178.166 42.9692 178.166 43.3266L179.024 42.8262C180.24 42.8262 181.098 43.8271 181.526 45.8288C181.098 47.6161 180.526 48.9745 179.882 49.8324C179.882 50.4043 181.026 51.7627 183.242 53.836C183.814 53.4785 184.172 53.3356 184.529 53.3356V54.3365C184.529 56.0523 184.1 57.0532 183.242 57.3391C180.454 56.1238 179.096 54.9799 179.096 53.836H178.238C177.952 56.8387 177.523 58.34 177.022 58.34H176.165C175.593 58.34 175.307 57.3391 175.307 55.3373H174.878L174.449 57.3391C172.947 57.3391 171.732 56.1953 170.731 53.836H169.444C169.087 53.836 168.372 55.1943 167.371 57.8396L167.8 58.8405V59.3409L165.298 58.8405V54.8369C166.156 54.8369 167.442 51.9772 169.087 46.3293H168.658C166.871 46.3293 164.082 46.4723 160.293 46.8297L159.864 45.8288V44.3275C163.01 43.7556 166.871 43.2551 171.518 42.8262H171.375ZM179.739 65.9182L180.597 66.4186C182.527 66.0612 184.029 65.9182 185.173 65.9182H186.459C186.602 69.2068 186.888 70.9227 187.246 70.9227L186.459 80.4311C185.316 80.4311 184.386 79.5732 183.528 77.9289C184.1 74.4258 184.386 71.7806 184.386 69.9218L182.313 68.9209C180.097 69.5643 177.451 69.9218 174.377 69.9218C174.377 69.5643 173.805 69.0639 172.733 68.4205C172.733 67.0621 175.092 66.2757 179.811 65.9182H179.739ZM187.246 42.8262C187.818 43.1836 188.175 43.3266 188.533 43.3266C188.533 43.6841 188.39 43.8271 188.104 43.8271L188.533 44.828V45.3284C188.533 45.3284 188.39 45.8288 188.104 45.8288L189.319 55.3373L188.89 56.3382L189.319 57.3391C189.033 57.9111 188.89 58.6975 188.89 59.8413H188.104C187.389 59.1979 186.888 58.8405 186.459 58.8405C186.173 50.4758 185.888 46.3293 185.602 46.3293C185.745 44.0415 186.316 42.8262 187.246 42.8262Z" fill="black"/>
<path d="M193.604 50.3908H194.819C199.037 52.2496 201.325 53.3934 201.468 53.8939L201.897 54.8948V58.3979C201.611 62.4015 200.11 64.4033 197.322 64.4033C193.175 63.8313 191.03 61.8296 191.03 58.3979V54.3943C192.246 51.7491 193.104 50.3908 193.532 50.3908H193.604ZM193.604 55.3237C193.604 57.969 194.462 59.7563 196.106 60.8286H196.964C198.894 60.8286 199.895 59.4703 199.895 56.8251V55.8242C196.821 55.6097 195.32 55.3238 195.32 54.8233C194.819 55.1808 194.247 55.3237 193.675 55.3237H193.604ZM214.408 49.3184H214.837V49.8188L216.482 69.3363C216.482 69.9797 216.196 70.3371 215.624 70.3371H214.337C213.479 70.3371 212.978 65.9761 212.692 57.3255C211.406 57.3255 209.189 57.683 206.044 58.3264L203.97 57.826V56.8251C203.97 55.2523 206.902 54.2514 212.692 53.8224V49.8188C213.193 49.4613 213.765 49.3184 214.337 49.3184H214.408Z" fill="black"/>
<path d="M219.203 43.8186H220.847V44.8195C223.635 44.4621 225.709 44.3191 227.067 44.3191C227.925 44.3191 228.711 47.1788 229.569 52.8267H229.14C229.14 52.8267 229.283 53.3271 229.569 53.3271C229.569 56.6158 228.425 58.3316 226.209 58.3316C223.707 58.975 221.92 59.3325 220.776 59.3325C219.775 59.3325 218.917 54.328 218.273 44.3191L219.131 43.8186H219.203ZM221.705 48.8231V49.3235C221.705 53.3271 222.063 55.3289 222.563 55.3289C225.351 55.3289 226.71 54.6855 226.71 53.3271C226.567 49.967 226.138 48.3226 225.423 48.3226H223.778L221.705 48.8231ZM239.578 63.8365C240.722 67.1966 241.222 70.6997 241.222 74.3459L239.578 75.8472C238.434 75.8472 237.791 73.202 237.505 67.8401C236.075 68.4835 233.144 68.841 228.711 68.841C228.425 68.269 228.282 67.6256 228.282 66.8392C228.568 66.1958 228.711 65.6953 228.711 65.3379C231.571 65.3379 235.146 64.8374 239.578 63.8365ZM241.651 41.3164C243.01 41.3164 243.725 45.32 243.725 53.3271C244.011 53.3271 244.154 53.6846 244.154 54.328H243.725L244.154 55.3289C244.154 56.9017 243.725 58.0456 242.867 58.832C241.508 58.832 240.794 56.8303 240.794 52.8267V51.3253C238.434 51.3253 235.503 51.6828 232 52.3262L231.571 51.3253V49.824C231.571 49.109 234.502 48.2511 240.293 47.3217V46.3209C240.293 46.3209 240.15 44.6765 239.864 42.3173L241.508 41.3164H241.651Z" fill="black"/>
<path d="M248.515 50.3908H249.731C253.949 52.2496 256.236 53.3934 256.379 53.8939L256.808 54.8948V58.3979C256.522 62.4015 255.021 64.4033 252.233 64.4033C248.086 63.8313 245.941 61.8296 245.941 58.3979V54.3943C247.157 51.7491 248.015 50.3908 248.444 50.3908H248.515ZM248.515 55.3237C248.515 57.969 249.373 59.7563 251.017 60.8286H251.875C253.806 60.8286 254.807 59.4703 254.807 56.8251V55.8242C251.732 55.6097 250.231 55.3238 250.231 54.8233C249.731 55.1808 249.159 55.3237 248.587 55.3237H248.515ZM269.319 49.3184H269.748V49.8188L271.393 69.3363C271.393 69.9797 271.107 70.3371 270.535 70.3371H269.248C268.39 70.3371 267.89 65.9761 267.604 57.3255C266.317 57.3255 264.101 57.683 260.955 58.3264L258.882 57.826V56.8251C258.882 55.2523 261.813 54.2514 267.604 53.8224V49.8188C268.104 49.4613 268.676 49.3184 269.248 49.3184H269.319Z" fill="black"/>
<path d="M276.537 49.3194H278.61C282.471 50.6777 284.473 52.8225 284.473 55.8252V57.3266C284.473 60.1148 282.542 62.1165 278.61 63.3319C276.251 63.3319 274.464 61.9736 273.177 59.3283V55.3248C273.177 53.18 274.321 51.1782 276.537 49.3194ZM275.75 58.3274C276.751 59.3283 277.752 59.8288 278.682 59.8288C279.826 59.8288 281.041 58.9709 282.471 57.3266C281.899 54.9673 280.54 53.323 278.324 52.3221C277.824 52.3221 277.037 54.3239 275.822 58.3274H275.75ZM290.335 46.8887H292.408C292.98 46.9602 293.266 47.3176 293.266 47.8896V50.8922L295.339 51.3927C295.768 51.3927 297.413 51.2497 300.344 50.8922L301.13 52.894C301.13 54.5383 299.2 55.3962 295.339 55.3962H293.695V57.3981C293.695 58.1845 296.483 59.0424 302.06 59.9003V60.4007L300.773 63.4034L297.842 62.903H294.124L294.553 63.9038V65.9056C294.553 66.4061 294.124 66.9065 293.266 67.407H292.051C290.907 62.8314 290.406 56.1827 290.406 47.3891V46.8887H290.335Z" fill="black"/>
<path d="M306.709 80.3594H307.138C308.282 80.9313 308.783 82.0752 308.783 83.8625C308.211 85.3638 307.71 86.2217 307.138 86.3647C305.637 86.3647 304.493 85.3638 303.778 83.362C304.207 81.3603 305.208 80.3594 306.709 80.3594Z" fill="black"/>
<path d="M313.503 80.3594H313.931C315.075 80.9313 315.576 82.0752 315.576 83.8625C315.004 85.3638 314.503 86.2217 313.931 86.3647C312.43 86.3647 311.286 85.3638 310.571 83.362C311 81.3603 312.001 80.3594 313.503 80.3594Z" fill="black"/>
<path d="M110.963 90.3647H113.037V91.3656C111.893 95.9411 110.82 101.803 109.676 108.881C109.39 108.881 109.247 109.239 109.247 109.882C107.818 109.453 107.174 108.953 107.174 108.381C107.174 106.021 108.032 100.946 109.676 93.3673C106.602 94.3682 102.384 95.0117 97.1653 95.3691L96.7363 93.3673C97.2368 92.7954 100.883 91.9375 107.603 90.8651V91.3656C108.604 90.7221 109.748 90.3647 110.963 90.3647ZM121.401 109.382C121.902 109.739 122.474 109.882 123.046 109.882C123.046 112.241 122.188 113.385 120.543 113.385C116.111 115.03 113.752 116.03 113.466 116.388C112.322 115.887 111.821 115.387 111.821 114.887V113.886C112.179 113.385 115.396 111.884 121.473 109.382H121.401ZM125.619 88.8633H126.906L127.335 91.3656V92.3664C127.335 95.4406 127.478 99.8016 127.764 105.45C127.478 106.45 127.192 106.951 126.906 106.951C125.548 106.951 124.761 103.948 124.404 97.9428H123.975C120.043 98.5863 117.255 98.9437 115.61 98.9437H113.966C113.394 98.9437 113.108 98.5863 113.108 97.9428V96.942C113.108 96.1555 116.897 95.3691 124.404 94.4397V90.4361C124.404 89.9357 124.833 89.4352 125.691 88.9348L125.619 88.8633ZM123.903 114.458C123.903 115.101 124.189 115.458 124.761 115.458V116.96C124.761 118.104 122.545 118.89 118.041 119.462L117.612 121.964L118.041 123.966L123.046 123.466H126.835C127.407 123.466 127.693 123.966 127.693 124.967C127.693 126.611 127.407 127.469 126.835 127.469L123.046 126.969C119.757 127.97 117.398 128.47 115.968 128.47C115.968 127.827 115.682 127.469 115.11 127.469V119.963C113.752 119.963 113.037 119.319 113.037 117.961C113.323 117.317 113.466 116.817 113.466 116.459H115.11C115.11 116.459 115.539 116.602 115.539 116.96C117.827 115.959 120.615 115.101 123.903 114.458Z" fill="black"/>
<path d="M135.343 101.517C139.775 102.089 141.992 104.448 141.992 108.523C141.992 112.598 139.775 115.887 135.343 118.532C132.555 118.532 130.624 117.174 129.48 114.529V113.027C129.48 105.378 131.411 101.517 135.343 101.517ZM131.983 111.955C132.555 113.957 133.627 114.958 135.343 114.958C137.202 114.958 138.56 113.099 139.489 109.453C139.132 106.45 137.845 104.949 135.772 104.949C133.842 106.164 132.841 107.522 132.841 108.952C132.555 108.952 132.269 109.953 131.983 111.955ZM150.356 98.9434H152.001C152.858 98.9434 153.645 105.807 154.503 119.462C154.217 120.105 154.074 120.606 154.074 120.963H153.645C152.001 120.963 151.143 119.462 151.143 116.459C151.143 112.956 150.714 107.951 149.927 101.446C150.213 100.874 150.356 100.016 150.356 98.9434Z" fill="black"/>
<path d="M176.805 97.5059H177.234C178.092 97.5059 178.879 103.011 179.736 114.021C179.165 116.022 178.593 117.023 178.092 117.023H177.663C176.805 117.023 176.376 116.88 176.376 116.523L169.299 118.024C168.727 115.379 168.298 112.519 168.012 109.517C168.012 109.159 168.155 109.016 168.441 109.016L168.012 106.514V102.01C168.083 101.366 168.369 101.009 168.87 101.009H169.728C170.371 101.009 170.8 103.011 171.014 107.014C171.586 107.014 171.872 107.157 171.872 107.515C172.444 107.229 174.017 106.943 176.448 106.514C175.876 103.154 175.661 101.152 175.661 100.509C176.233 100.509 176.448 100.151 176.448 99.5076C176.162 98.8642 176.019 98.3638 176.019 98.0063L176.805 97.5059ZM171.014 111.947V113.449C174.589 113.306 176.448 112.805 176.448 111.947V109.946C172.873 110.589 171.014 111.304 171.014 111.947ZM188.101 98.0063C188.959 99.1502 189.388 101.152 189.388 104.012V106.013H191.032C191.676 106.013 192.248 105.87 192.677 105.513L193.535 106.013L194.392 105.513L196.466 106.013V109.016C192.963 109.66 190.675 110.017 189.745 110.017C190.031 113.949 190.174 116.809 190.174 118.525C190.174 119.025 189.745 119.525 188.888 120.026H188.03C187.458 118.382 186.957 114.378 186.385 108.015H186.814L186.385 107.014V104.512C186.385 103.297 186.242 101.795 185.956 100.008C186.242 98.6497 186.957 98.0063 188.03 98.0063H188.101Z" fill="black"/>
<path d="M205.335 92.5078C205.907 92.5793 206.192 92.9368 206.192 93.5087V95.01L204.119 99.0136V99.5141C205.406 99.5141 207.265 101.015 209.553 104.018C210.84 104.018 211.697 104.662 212.055 106.02V106.52C212.055 107.164 211.769 107.521 211.197 107.521H210.339C208.123 107.521 205.907 105.519 203.69 101.516C202.046 104.018 201.188 107.235 201.188 111.024C200.545 111.024 199.973 111.167 199.544 111.525C199.544 110.524 199.115 110.023 198.257 110.023V109.523C198.757 105.091 200.831 99.4426 204.548 92.5078H205.335ZM216.13 115.957C216.702 117.673 217.131 121.391 217.417 126.967C217.131 128.611 216.487 129.469 215.344 129.469C214.486 127.968 214.057 126.467 214.057 124.965L214.486 122.964C214.486 122.32 214.2 121.105 213.628 119.46C207.408 120.819 203.905 121.462 203.19 121.462C202.046 121.105 201.546 120.104 201.546 118.46C210.053 116.744 214.915 115.957 216.13 115.957ZM214.057 92.5078H215.701C216.058 92.5078 216.63 94.6526 217.345 99.0136C217.917 99.0136 218.203 99.1566 218.203 99.5141L219.061 99.0136H220.348L221.206 99.5141V98.5132C222.564 98.7277 223.279 99.7286 223.279 101.516C223.279 102.517 221.635 103.16 218.275 103.518C218.275 103.16 218.132 103.017 217.846 103.017L217.417 104.018C217.703 106.306 217.846 108.165 217.846 109.523C217.417 110.881 216.988 111.525 216.559 111.525H216.13C215.415 111.525 214.986 110.881 214.915 109.523C214.915 107.378 214.629 101.73 214.057 92.5078Z" fill="black"/>
<path d="M235.004 95.9414C235.004 95.9414 235.147 96.4419 235.433 96.4419C235.433 96.0844 235.576 95.9414 235.862 95.9414V96.4419C235.576 97.0853 235.433 97.5857 235.433 97.9432C235.719 97.9432 235.862 98.0862 235.862 98.4436L234.217 99.945H233.002C233.002 99.945 232.573 99.802 232.573 99.4445C231.215 100.445 229.427 100.946 227.14 100.946L225.066 100.445V98.4436C229.141 96.7993 232.43 95.9414 235.075 95.9414H235.004ZM235.862 102.447L237.935 102.948V104.949C237.935 106.093 234.289 107.094 227.068 107.952L226.21 106.451V104.949C226.21 104.377 229.427 103.52 235.79 102.447H235.862ZM234.646 108.953H235.075C237.292 108.953 238.436 109.954 238.436 111.956L238.864 114.958C237.935 118.962 236.005 120.964 233.002 120.964C233.002 120.32 232.144 119.677 230.5 118.962C229.642 117.318 229.284 115.959 229.284 114.958V113.457C230.285 113.457 231.215 112.313 232.216 109.954C233.074 109.31 233.931 108.953 234.718 108.953H234.646ZM232.573 115.959V116.46C232.573 116.46 233.288 116.603 233.86 116.96C235.218 116.531 235.933 115.316 235.933 113.457C235.933 112.814 235.647 112.456 235.075 112.456C234.146 112.456 233.288 113.6 232.573 115.959ZM246.729 97.9432H247.587C248.158 98.0147 248.444 98.3721 248.444 98.9441V106.451H249.302L252.234 105.95V106.451C252.805 106.093 253.163 105.95 253.52 105.95V98.9441H255.165C256.094 98.9441 256.952 105.807 257.667 119.462C257.381 119.462 257.238 119.319 257.238 118.962L256.38 119.462H254.736C254.45 116.531 254.021 113.386 253.52 109.954H253.091C251.09 109.954 249.588 110.311 248.516 110.955L249.803 114.958C249.803 117.318 249.231 118.462 248.158 118.462C246.514 118.462 245.656 113.457 245.656 103.448L246.085 100.445C245.799 99.802 245.656 99.3015 245.656 98.9441L246.943 97.9432H246.729Z" fill="black"/>
<path d="M262.313 132.973H262.742C263.886 133.545 264.386 134.688 264.386 136.476C263.814 137.977 263.314 138.835 262.742 138.978C261.241 138.978 260.097 137.977 259.382 135.975C259.811 133.974 260.812 132.973 262.313 132.973Z" fill="black"/>
<path d="M269.106 132.973H269.535C270.679 133.545 271.179 134.688 271.179 136.476C270.607 137.977 270.107 138.835 269.535 138.978C268.034 138.978 266.89 137.977 266.175 135.975C266.604 133.974 267.605 132.973 269.106 132.973Z" fill="black"/>
</svg>
