<svg width="550" height="620" viewBox="0 0 550 620" fill="none" xmlns="http://www.w3.org/2000/svg">
<g clip-path="url(#clip0_45_43)">
<path d="M158.272 478.908C156.27 483.772 154.124 494.715 154.124 503.87C154.124 516.458 157.128 529.118 156.413 541.778C156.27 544.71 155.698 547.643 155.698 550.647C155.698 561.733 154.625 582.261 160.418 592.274C162.421 589.771 191.603 608.367 193.391 608.725C241.741 618.524 255.76 616.592 304.969 619.811C320.776 620.884 364.406 617.165 379.926 614.59C398.809 611.443 415.116 607.437 426.131 597.209C426.703 588.126 427.49 572.319 427.562 563.092C427.562 549.073 429.564 539.632 429.35 525.828C429.207 517.245 428.42 510.379 429.207 501.867C429.636 497.576 429.779 486.49 425.13 483.056C421.625 480.482 407.249 481.125 402.528 480.911C395.304 480.482 388.08 480.339 380.856 480.267C366.408 480.052 351.96 480.267 337.512 480.052C301.178 479.409 264.343 478.336 227.723 478.336C204.692 478.336 182.519 479.48 158.272 478.908Z" fill="white" stroke="#040000" stroke-width="9.29817" stroke-linecap="round" stroke-linejoin="round"/>
<path d="M294.383 452.874C285.728 450.943 276.859 450.585 267.99 450.657C247.677 450.943 227.579 453.875 207.338 455.234C202.331 455.592 195.536 455.091 190.387 456.665C182.233 459.24 161.491 467.537 160.275 476.906C159.273 484.273 167.427 492.856 172.362 497.362C192.103 515.458 223.216 510.809 247.677 511.166C299.39 512.025 351.03 522.61 401.669 506.875C409.179 504.515 420.695 498.936 425.773 492.57C431.495 485.418 425.201 478.051 420.337 471.327C413.042 461.171 408.607 462.029 395.375 461.6C386.649 461.314 377.78 461.242 369.126 460.384C353.82 458.811 337.87 456.236 322.492 455.521C311.835 455.02 300.462 455.807 294.454 452.803L294.383 452.874Z" fill="white" stroke="#040000" stroke-width="9.29817" stroke-linecap="round" stroke-linejoin="round"/>
</g>
<defs>
<clipPath id="clip0_45_43">
<rect width="550" height="620" fill="white"/>
</clipPath>
</defs>
</svg>
