<svg width="414" height="260" viewBox="0 0 414 260" fill="none" xmlns="http://www.w3.org/2000/svg">
<path d="M115.189 179.778C111.613 181.423 109.252 185 106.82 187.861C102.744 192.653 96.6639 195.442 90.5844 196.515C89.0824 196.801 72.2743 197.016 74.3485 193.726C77.6386 188.433 83.2174 184.356 86.2214 178.849C87.5088 176.56 90.5129 168.549 89.7976 166.117C88.7963 162.97 84.0042 161.826 81.4293 160.252C76.7087 157.32 71.5589 154.316 66.5523 152.456C58.2554 149.381 49.8156 146.448 41.9479 142.228C36.5121 139.296 30.9332 137.508 26.4272 133.216C23.2801 130.212 20.9914 126.707 18.2019 123.417C14.4827 118.983 10.978 114.405 9.69052 108.826C8.40309 103.534 6.11431 98.67 4.54077 93.4487C3.18181 89.0142 3.61097 84.5082 3.32487 79.7876C2.68116 70.1318 2.68118 60.1899 4.46929 50.6772C10.6204 17.9191 50.6739 8.1203 77.71 4.47256C106.248 0.610257 128.206 4.11493 154.384 13.8422C187.643 26.1444 222.618 35.2995 255.305 48.8891C294.929 65.3397 347.571 75.4961 380.687 105.107C428.107 147.521 418.237 236.211 352.435 255.022C346.355 256.738 344.996 256.238 337.557 255.022C322.466 252.59 300.436 252.519 285.846 246.725C282.555 245.438 279.623 242.934 276.404 241.647C273.186 240.359 269.252 240.216 265.89 239.144C258.237 236.64 251.156 232.778 243.789 229.845C230.7 224.624 217.468 221.191 203.879 218.044C198.3 216.756 193.508 214.182 188.716 211.034C181.921 206.6 174.339 202.809 166.972 199.734C159.605 196.658 151.809 193.44 144.299 190.507C139.579 188.719 135.144 186.502 130.638 184.213C126.704 182.282 122.413 178.205 117.692 179.063C116.834 179.206 115.975 179.492 115.26 179.85L115.189 179.778Z" fill="white" stroke="#040000" stroke-width="5.86499" stroke-linecap="round" stroke-linejoin="round"/>
<path d="M110.4 60.9749C110.257 61.4041 110.472 61.9763 111.187 62.763L115.764 64.5511C116.837 64.9803 116.766 66.8399 115.407 70.2015L114.763 71.8466C113.905 73.9923 111.473 74.7791 107.539 74.2784L105.465 73.4201C101.96 71.0598 100.744 68.3419 101.96 65.3379C101.96 64.6942 101.96 64.1935 102.032 63.9074C104.821 60.8318 107.611 59.9021 110.4 60.9749ZM112.045 37.658C116.408 40.2329 118.125 42.8077 117.123 45.4541L116.48 47.0992C114.405 51.033 112.045 52.535 109.47 51.4622L108.683 51.1045C104.607 47.5999 103.176 44.3098 104.464 41.2342L104.607 40.8051C107.396 37.7295 109.899 36.6567 112.188 37.5865L112.045 37.658ZM107.396 66.0531C107.396 66.0531 107.396 65.5524 107.11 65.4809C106.609 65.9101 106.323 66.2677 106.18 66.5538C105.823 68.628 105.966 69.8439 106.681 70.13C108.111 70.7022 109.542 70.4876 110.829 69.4148L111.473 67.7697V66.7684C110.758 66.8399 109.47 66.6253 107.324 66.1246L107.396 66.0531ZM108.326 43.38C108.469 45.6687 108.755 46.9562 109.256 47.0992L110.472 47.5999C110.829 47.7429 111.688 47.2423 112.975 46.1694L113.976 43.666L111.258 42.0925L110.829 41.9494C110.472 41.8064 109.613 42.2356 108.326 43.38ZM124.633 39.8038L126.278 40.4474C127.208 41.3057 127.351 42.5216 126.779 44.0237L126.278 45.2396L127.137 45.5972C130.141 46.8131 131.5 47.8144 131.214 48.6012L130.355 50.6754L126.064 49.4595L124.848 48.9588L123.99 51.0331L129.139 52.6065L129.569 52.7496C129.926 52.8927 130.212 53.4648 130.355 54.4662L129.712 56.1113C126.421 55.7536 124.49 55.4675 123.847 55.1814L122.631 54.6808L121.629 57.1841C121.486 57.5417 120.914 57.8278 119.913 57.9709L119.055 57.6133C118.697 57.4702 118.268 56.4689 117.839 54.6808L123.632 40.1613C123.918 39.6607 124.347 39.5176 124.776 39.6607L124.633 39.8038Z" fill="#040000"/>
<path d="M135.648 48.5314C137.865 49.3897 137.722 53.0375 135.147 59.4032L133.645 63.1224L137.793 64.7675C139.295 65.3397 140.011 66.2695 140.011 67.5569L139.868 67.986L137.793 69.5596C142.371 70.7755 144.946 71.4908 145.59 71.7053C146.305 73.0643 145.804 75.9252 144.088 80.2167C142.8 82.9346 142.013 84.1505 141.584 84.0074V85.0088C141.513 85.438 140.726 85.7956 139.367 86.0102L138.151 85.5095C138.151 85.5095 137.793 85.2234 137.937 84.9373C136.935 85.2949 134.718 84.9373 131.213 83.7214C129.211 82.3624 128.495 80.7889 129.211 79.0723C130.426 74.4948 131.285 71.4907 131.857 70.0602C133.073 69.9172 134.074 69.4166 134.932 68.4152L134.503 68.2721C134.503 68.2721 134.217 68.6298 133.931 68.5582L134.074 68.1291H133.073L129.783 66.9132C128.424 65.5542 127.995 64.1237 128.638 62.6217L129.282 60.9767C129.282 60.9767 129.568 60.619 129.854 60.7621C129.997 58.9025 131.142 55.1832 133.359 49.6759L133.86 48.46C134.503 48.7461 135.076 48.8176 135.648 48.7461V48.5314ZM135.505 73.9226C135.505 74.5663 135.505 74.9954 135.433 75.2815L135.004 75.1385V76.1398L133.788 79.4299L135.076 79.9306C137.078 80.7173 138.366 80.7889 138.866 80.0021L140.511 75.8537V74.8524L139.438 74.9239L138.652 74.6378C138.008 74.3517 137.507 73.9941 137.15 73.5649C136.22 73.5649 135.648 73.5649 135.576 73.9226H135.505ZM151.383 54.8256L153.028 55.4693C154.959 56.2561 154.53 60.0469 151.812 66.9847L150.954 69.0589C150.525 70.1318 149.595 71.2046 148.236 72.2775L145.733 71.2761V68.8444L146.519 68.2006C146.519 67.5569 146.519 67.1278 146.591 66.7701L142.3 65.5542C142.514 64.9105 142.156 64.2668 141.155 63.6231C140.869 62.7648 140.798 62.0495 140.941 61.6204C141.656 60.6191 142.443 60.333 143.229 60.6191C142.514 59.1886 142.371 58.0442 142.729 57.0428L143.015 56.2561C143.301 55.6124 145.518 56.0415 149.738 57.472V56.4706L150.167 55.2547C150.453 54.7541 150.882 54.611 151.312 54.7541L151.383 54.8256Z" fill="#040000"/>
<path d="M177.562 59.9764C177.92 60.1195 178.349 61.1208 178.778 62.9089L177.276 66.6282C176.418 68.8454 176.918 70.7766 178.778 72.5647L178.42 74.782C176.847 76.284 175.917 77.3568 175.703 78.0005L175.559 78.4296C175.559 78.4296 176.704 80.3608 179.422 83.2933L179.064 84.1516L177.848 86.0827C175.202 85.0099 173.485 83.7225 172.699 82.0774L171.482 81.5767C169.909 83.794 168.693 84.7953 167.906 84.5093L167.477 84.3662C165.975 83.794 165.117 82.6496 164.974 80.933L165.331 80.0747C165.689 79.288 167.477 77.5714 170.696 74.9965L171.196 73.7091L169.122 72.8508C165.904 71.5633 164.33 69.9898 164.33 68.0587C164.902 66.6282 166.19 66.1275 168.264 66.6997C169.623 67.558 170.839 68.2017 171.84 68.6309V67.6295L172.126 66.7712C172.198 66.4851 172.412 66.4136 172.699 66.5567V65.5553L174.773 60.1195C175.345 59.4042 176.346 59.3327 177.777 59.9049L177.562 59.9764ZM188.219 69.4891C191.295 70.705 191.867 73.4945 190.15 77.929L188.291 82.5065C188.076 83.1502 187.933 83.7224 188.005 84.2946L187.289 84.9384C186.646 87.4417 186.002 89.3729 185.358 90.9464C185.215 91.304 184.643 91.5901 183.642 91.7332C181.138 90.7318 180.781 88.0139 182.569 83.5794C184.786 76.9992 186.073 72.7077 186.36 70.6335C187.218 69.7037 187.862 69.2746 188.219 69.4891Z" fill="#040000"/>
<path d="M202.452 73.7793L204.097 74.4229C206.601 75.4243 207.387 76.9978 206.529 79.2151L206.171 80.0734C206.171 80.0734 205.885 80.431 205.599 80.2879C205.528 80.574 205.599 80.7886 205.885 80.8601C200.02 88.7993 196.444 92.447 195.157 91.9464L194.727 91.8033C192.796 91.0166 192.224 89.6576 192.939 87.7265L193.082 87.2973C193.369 86.6536 194.227 85.5807 195.8 84.0787L195.014 83.7926L191.938 83.0058L190.865 79.7157L191.723 77.6415C197.231 79.072 200.163 79.4296 200.449 78.7144C200.163 78.6429 200.092 78.4283 200.235 78.1422C199.52 78.1422 197.875 77.8561 195.3 77.1408C194.227 76.211 193.583 74.9952 193.44 73.4932L194.298 71.4189C196.73 71.7766 199.448 72.5633 202.524 73.7793H202.452ZM197.159 94.2351L197.589 94.3782C200.378 95.4511 200.879 98.2405 199.09 102.675L198.59 103.891L199.019 104.034C201.665 105.107 204.026 105.536 206.171 105.464C207.673 106.108 208.532 107.539 208.746 109.899L208.603 110.328C207.959 111.83 203.954 111.544 196.516 109.327C194.656 108.54 193.297 106.609 192.653 103.462L194.155 99.7425L195.729 94.5928L197.302 94.2351H197.159ZM215.04 75.925C217.329 77.3554 218.259 78.6429 217.758 79.8588C216.685 82.4337 215.827 85.1516 215.04 87.8695C214.039 89.5861 213.181 91.3027 212.466 93.0908C212.466 93.7345 212.466 94.2351 212.394 94.5212L211.965 94.3782V95.3795L211.393 97.0246C211.25 97.4538 210.463 97.8114 209.104 98.026L207.03 97.1677C206.171 96.81 206.386 94.8073 207.53 91.1596L207.96 91.3027V90.3013C207.96 90.3013 209.462 86.7966 212.251 80.5025C212.394 80.2164 212.394 79.7873 212.322 79.1436L213.038 78.4998C212.966 77.9276 213.038 77.2839 213.324 76.7117C213.467 76.3541 214.039 76.068 215.04 75.9965V75.925Z" fill="#040000"/>
<path d="M236.354 108.97C238.428 109.828 238.786 112.689 237.284 117.482C238.071 117.768 239.93 115.98 242.863 112.046L244.937 112.904C245.366 113.691 245.795 114.191 246.296 114.406L245.438 116.48C244.079 118.197 243.364 119.198 243.292 119.484C245.867 124.348 247.083 126.923 246.94 127.209L246.797 127.638C246.582 128.21 245.295 128.139 243.006 127.566C243.077 127.352 242.148 125.707 240.216 122.631L239.787 122.488C238.428 124.276 236.64 125.492 234.495 126.136L233.636 125.778C233.064 125.564 232.921 125.206 233.136 124.634C231.705 124.634 229.774 124.205 227.414 123.275L225.339 122.417C223.837 121.845 222.765 120.414 222.192 118.268C222.264 118.054 222.765 117.267 223.623 115.98L225.84 106.753H226.841L227.628 107.039C229.488 107.754 229.989 109.757 229.13 112.904C228.987 113.19 229.13 113.405 229.345 113.476L232.563 113.762C232.921 114.191 233.422 114.621 234.065 114.835L234.208 114.406C234.638 111.688 235.067 109.972 235.353 109.113H236.354V108.97ZM250.802 92.162C252.733 93.7356 253.377 95.3091 252.805 96.7396L250.301 102.962C249.443 105.179 248.513 107.897 247.583 110.973C247.083 111.33 246.725 111.831 246.511 112.475L244.866 111.831C243.578 111.331 243.721 108.183 245.295 102.39C243.864 102.39 241.575 101.818 238.357 100.602C235.353 105.179 232.42 106.896 229.559 105.752C225.983 104.321 224.982 101.532 226.627 97.3833C227.628 94.8084 229.416 92.8057 231.92 91.3037L235.639 92.8057C237.427 94.7369 238.214 96.0243 237.928 96.668C238.571 96.668 239.001 96.668 239.287 96.7396L240.503 97.2402L240.646 96.8111L243.578 97.9555C245.795 98.8138 247.154 98.5992 247.726 97.2402L248.299 94.5938L248.942 92.9487C249.085 92.5196 249.658 92.305 250.659 92.2335L250.802 92.162ZM227.986 116.623C227.771 117.267 227.414 117.768 226.913 118.125C228.343 118.984 229.345 119.556 230.06 119.842C230.704 119.842 231.204 119.842 231.49 119.913C231.419 120.199 231.491 120.343 231.777 120.486L233.064 118.554L228.057 116.552L227.986 116.623ZM233.851 95.9528C232.277 96.7396 231.419 97.2402 231.347 97.3833L229.845 101.103L230.275 101.246C232.706 100.745 233.994 100.316 234.208 99.9581L234.351 99.529C234.924 98.027 234.781 96.8111 233.851 95.9528Z" fill="#040000"/>
<path d="M264.174 120.554L264.031 120.984H265.033C265.033 120.984 265.39 121.198 265.319 121.484H266.32L272.972 124.059C272.829 124.417 272.972 125.418 273.258 127.063L270.54 127.922L263.101 124.917C260.455 123.845 256.807 122.7 252.015 121.413C250.513 119.982 249.869 118.909 249.941 118.194L250.585 116.549C257.236 118.266 261.814 119.625 264.317 120.626L264.174 120.554ZM257.236 124.56L257.666 124.703C258.452 125.061 258.095 128.065 256.45 133.786C261.671 134.287 265.247 134.859 267.25 135.718C267.607 135.861 267.894 136.433 267.965 137.434L266.964 139.938L255.234 138.149L252.73 137.148C251.157 135.503 250.799 133.5 251.801 130.997L253.446 126.849L253.875 124.631C255.234 124.202 256.307 124.202 257.236 124.631V124.56ZM261.027 99.5979C262.315 100.099 262.1 103.532 260.24 109.897L260.67 110.04C267.607 111.185 271.756 112.043 273.115 112.615L273.329 114.618C272.543 116.549 270.254 116.764 266.391 115.19C266.105 115.905 263.817 115.691 259.525 114.403C255.663 112.83 254.661 109.754 256.521 105.034C256.521 104.891 257.165 103.031 258.238 99.4548C259.382 99.2403 260.312 99.3118 261.027 99.5979Z" fill="#040000"/>
<path d="M296.651 112.398L297.867 112.899L300.441 114.902L295.935 122.698L296.579 123.485L297.437 123.842L297.867 121.554C299.297 121.554 301.586 122.126 304.804 123.413L305.234 123.556L307.737 117.334L309.382 117.977C311.313 118.764 311.814 120.409 310.812 122.841C307.737 129.779 305.949 133.784 305.591 134.714V135.715C304.59 137.217 303.231 137.647 301.8 137.074C301.085 135 301.014 133.069 301.729 131.281L303.231 127.562H302.229L298.51 126.131L297.867 125.416L297.723 125.845C299.512 128.563 300.155 130.637 299.583 131.925C299.44 132.282 298.868 132.568 297.867 132.64L297.08 132.354C295.935 131.853 294.505 129.707 292.931 125.917C291 128.992 289.713 130.423 288.854 130.065L286.78 129.207C286.923 128.849 286.78 127.848 286.494 126.203C286.78 125.559 288.282 123.771 291.072 120.767C294.433 116.404 296.15 114.044 296.293 113.757L296.794 112.542L296.651 112.398ZM313.173 118.049L314.389 118.55C317.178 119.622 317.536 122.698 315.533 127.633C315.819 127.776 315.39 129.636 314.246 133.355C314.174 133.641 313.959 133.713 313.673 133.57L313.244 135.787L310.741 142.009L308.524 141.58C306.592 140.794 306.736 137.503 309.096 131.71C310.097 129.135 311.456 124.701 313.03 118.335L313.173 117.906V118.049Z" fill="#040000"/>
<path d="M325.472 126.347L327.546 127.205C327.975 127.42 328.333 128.135 328.547 129.494L328.404 129.923C326.545 132.212 325.4 133.714 325.186 134.357C326.545 138.077 327.617 140.151 328.547 140.508L328.047 141.724C327.904 142.154 327.332 142.368 326.259 142.511L325.043 142.01C323.97 141.581 322.754 140.151 321.466 137.647C318.892 140.795 317.104 142.154 316.031 141.724C314.314 140.437 313.527 139.507 313.813 138.935L313.957 138.506C314.386 137.433 316.174 135.359 319.249 132.498C322.468 128.564 324.542 126.561 325.543 126.347H325.472ZM329.191 149.449L329.62 149.592C333.34 152.31 334.698 154.956 333.697 157.46L333.053 159.105C329.978 162.395 327.26 163.539 324.971 162.609C324.757 163.182 323.255 162.896 320.465 161.823L320.036 161.68C318.463 161.036 317.318 159.176 316.531 155.958L318.176 151.809C319.464 148.662 323.112 147.875 329.191 149.521V149.449ZM321.18 156.315L321.753 158.461C325.4 158.962 327.618 158.246 328.404 156.315L328.905 155.099C329.12 154.527 328.905 154.17 328.404 153.955L326.33 153.097C324.113 152.238 322.468 153.311 321.252 156.315H321.18ZM339.133 129.351C341.207 130.209 341.994 132.712 341.35 137.004C344.712 139.006 346.214 140.508 345.785 141.653L345.642 142.082C345.499 142.44 344.927 142.726 343.925 142.797L339.777 141.152L337.989 145.73C337.13 146.66 335.914 146.803 334.412 146.23C334.055 145.086 333.697 144.514 333.268 144.299L334.412 141.438C335.271 139.364 336.487 135.43 338.203 129.494H339.205L339.133 129.351Z" fill="#040000"/>
<path d="M67.5564 91.0873L70.4889 92.2316C71.8479 93.8052 72.7062 95.7363 72.9923 98.0251L71.991 100.528C71.0612 102.889 68.8439 103.604 65.3392 102.674L64.91 102.531C61.8345 100.528 61.0477 97.8105 62.4066 94.3058C63.4795 91.5164 65.053 90.5866 66.9842 91.3018C67.1272 91.0157 67.2703 90.9442 67.5564 91.0157V91.0873ZM74.0651 79.7149C76.2824 80.5732 76.7831 82.5759 75.5672 85.5799C74.9235 87.2249 75.7102 88.5124 77.8559 89.3706L78.4281 91.5164C77.7844 93.1615 76.3539 93.5906 74.1366 92.6608C73.2068 92.3032 72.5631 91.874 72.277 91.3734C70.7035 91.0873 69.3445 90.7296 68.3432 90.3005L65.8399 89.2992C63.6942 88.4409 62.6213 87.2249 62.5497 85.5799L63.0504 84.2924C63.1935 83.9348 63.7657 83.6487 64.8386 83.5772L70.2029 85.7229L71.4903 82.4328C71.7048 81.7891 71.8479 81.2169 71.7764 80.6447C72.2771 79.858 73.0638 79.5719 74.1366 79.6434L74.0651 79.7149ZM71.4903 104.176C74.2082 105.249 74.7803 108.539 73.3498 114.047L74.1366 114.404C76.8545 114.833 78.7142 115.262 79.8586 115.763C81.003 116.192 81.6467 117.265 81.9328 118.982L81.4321 120.198C81.0745 121.127 78.285 120.841 73.1353 119.268C72.9922 119.625 71.7764 119.482 69.4876 118.767C67.1273 117.837 66.9843 114.547 69.0585 108.968C68.8439 108.897 68.9154 107.466 69.273 104.748L71.4188 104.176H71.4903ZM85.7236 87.7972C87.6548 89.1561 88.513 90.1574 88.37 90.8012C88.0124 91.6595 87.5833 93.519 87.0826 96.5231L90.3726 97.8105C91.8747 98.3827 92.733 99.5271 92.876 101.244L92.3753 102.46C92.0177 102.96 91.088 103.246 89.6575 103.246L88.1554 102.173H87.1541C86.7249 101.744 86.3674 101.458 86.0813 101.315L85.4375 102.96C84.8653 104.462 83.9355 105.178 82.5765 105.178C80.2878 104.248 79.644 102.245 80.6453 99.0979L81.0745 99.241L83.3633 88.6554L83.5064 88.2263C83.7925 87.511 84.5076 87.368 85.652 87.6541L85.7236 87.7972Z" fill="#040000"/>
<path d="M96.5977 116.194L97.0269 116.337C99.2442 117.195 99.6018 119.627 98.0283 123.49L97.0269 125.993C101.962 127.638 105.038 128.711 106.325 129.212L108.256 130.427L107.112 133.288C104.394 132.859 101.032 131.786 96.8124 130.141L95.1672 129.498C92.8785 127.924 91.9487 126.78 92.2348 125.921L93.5937 122.631C94.1659 121.201 94.8097 119.127 95.668 116.266H96.6693L96.5977 116.194ZM109.043 94.6653L109.83 94.9514C110.903 95.3806 111.117 97.7408 110.402 101.889L114.121 103.391L114.765 101.746L115.337 99.0998C116.052 98.0985 116.982 97.8124 118.055 98.2415C119.986 99.0283 119.271 103.677 115.838 112.26L113.334 118.483C113.12 119.055 112.762 119.198 112.19 118.984L110.974 118.483C110.044 118.125 110.187 115.407 111.332 110.472L111.761 110.615V109.614L112.476 107.54L109.544 106.395C108.971 106.252 108.614 106.395 108.399 106.896L106.897 110.615C106.468 111.688 103.393 111.259 97.7421 109.399L96.9553 109.042C94.595 108.112 93.2361 106.61 92.95 104.607L95.2388 98.8137C96.5978 93.7355 97.3129 91.1606 97.3845 91.0176L98.6005 91.5182C100.818 92.3765 101.247 94.5222 99.8879 97.8124L99.3873 99.0283L104.752 101.174C105.324 101.389 105.681 101.174 105.896 100.673L106.54 99.0283L107.756 94.7368H108.757L109.043 94.6653ZM98.8865 102.175L97.7421 105.036L98.5289 105.394L103.679 106.968L104.322 105.322L101.032 103.963C100.246 103.677 99.5302 103.034 98.8865 102.175Z" fill="#040000"/>
<path d="M142.157 107.896C144.088 108.683 144.374 110.685 143.087 114.047C141.37 119.84 140.369 123.917 140.083 126.278C139.439 127.923 135.648 127.35 128.71 124.632L127.065 123.989L125.635 121.485L127.709 117.48L129.354 113.332C129.855 112.044 130.498 109.755 131.142 106.394C132 106.108 132.716 106.036 133.145 106.251L135.147 108.468C135.577 108.611 137.865 108.468 142.085 107.896H142.157ZM131.357 132.429C133.574 133.287 134.075 135.147 133.002 137.864L131.786 142.156L133.002 142.657C135.362 143.586 138.366 144.516 142.014 145.303C143.802 146.376 144.589 147.306 144.231 148.092C143.444 150.024 141.442 150.31 138.152 149.022C132.859 147.52 129.283 146.447 127.423 145.732C126.064 144.373 125.635 143.086 126.064 141.87L127.137 140.368C128.353 136.506 129.282 133.859 129.855 132.357C130.498 132.357 130.999 132.357 131.285 132.429H131.357ZM134.075 113.832L131.428 120.484L134.289 121.628L136.506 122.058C138.581 116.121 139.153 113.046 138.294 112.688L134.003 113.832H134.075ZM151.741 110.328L152.17 110.471C154.244 111.329 155.317 112.33 155.246 113.618C154.888 114.548 154.459 115.191 154.03 115.549L153.458 118.195L152.957 119.411L156.033 120.126C159.823 121.843 161.468 123.345 161.039 124.489C160.61 125.491 158.536 125.634 154.674 124.847L154.817 124.418C152.742 124.06 151.598 124.06 151.455 124.489L150.811 126.135C150.525 126.778 150.454 127.35 150.525 127.994L147.807 131.213L146.52 130.712C144.875 130.068 145.161 126.921 147.378 121.414C149.452 116.193 150.668 112.831 150.954 111.329C151.455 110.9 151.741 110.542 151.884 110.256L151.741 110.328Z" fill="#040000"/>
<path d="M171.979 142.943C173.911 143.729 174.125 145.875 172.695 149.523L172.552 149.952C171.693 152.098 170.191 153.099 167.974 152.956L160.464 151.382L160.106 152.241C159.391 154.172 159.32 155.245 159.82 155.459C160.464 155.745 163.468 156.246 168.761 157.104L172.48 158.606C172.981 158.892 173.124 159.322 172.981 159.751L172.122 161.825C171.908 162.397 168.475 161.825 161.751 160.108C161.608 160.538 160.035 160.394 157.102 159.679C154.098 158.463 153.741 154.959 156.03 149.165C156.888 146.948 159.677 146.805 164.398 148.665C166.401 149.237 167.759 148.665 168.475 146.876C165.042 146.161 162.61 145.517 161.108 144.874C158.747 143.586 157.746 142.585 158.104 141.727L158.604 140.511C158.891 139.867 163.325 140.654 171.979 143.014V142.943ZM175.913 137.793L175.77 138.222H176.772C179.489 139.438 180.705 140.225 180.562 140.654L180.348 142.442C179.99 143.3 178.631 143.515 176.199 143.229C175.913 143.086 175.842 142.943 175.913 142.656C170.978 141.655 165.9 140.082 160.536 137.936H159.534C157.961 136.505 157.245 135.289 157.174 134.217L157.675 132.929L160.893 133.287C167.473 135.933 172.48 137.435 175.913 137.864V137.793ZM179.561 121.485C179.776 122.63 179.776 123.416 179.561 123.917C179.346 124.489 175.77 123.774 168.975 121.557L168.475 122.773C167.688 124.775 167.616 126.063 168.403 126.564C173.338 127.851 176.629 128.852 178.274 129.568L179.132 129.925C179.633 130.211 179.776 130.64 179.632 131.07L178.774 133.144C178.417 134.002 174.268 133.144 166.329 130.569L166.472 130.14C165.828 130.211 165.328 130.14 165.042 130.14C162.538 128.352 162.467 124.632 164.684 118.982L165.328 117.337C167.545 117.337 172.266 118.696 179.489 121.557L179.561 121.485Z" fill="#040000"/>
<path d="M206.1 133.999C208.318 134.858 206.601 142.368 200.951 156.458L197.875 155.743C196.874 155.314 197.589 151.451 200.092 144.156C196.23 142.582 193.798 143.083 192.797 145.586C190.079 146.516 187.933 146.802 186.217 146.302C183.141 145.086 181.925 142.01 182.641 137.218C184.429 133.785 186.002 132.283 187.29 132.783L188.005 133.499C189.721 133.213 191.295 133.356 192.654 133.928C193.798 134.357 194.728 136.002 195.443 138.935L199.163 140.437C200.021 140.15 200.736 140.079 201.165 140.222L202.524 136.932L203.239 133.856C204.598 133.785 205.528 133.856 206.1 134.071V133.999ZM188.291 136.431L187.29 138.935L187.004 142.153C189.292 142.868 190.794 142.153 191.653 140.15C191.438 139.006 191.438 138.219 191.653 137.79L188.362 136.431H188.291Z" fill="#040000"/>
<path d="M221.19 145.304L224.481 146.663C223.98 150.31 224.123 152.242 224.981 152.599H225.983C226.412 153.028 226.769 153.314 227.055 153.457L227.199 153.028L228.414 148.737H229.416L231.919 149.667C231.776 151.669 230.989 155.532 229.702 161.254C228.772 162.469 228.128 163.042 227.628 162.827L225.983 162.183L225.339 161.468C224.409 162.183 223.837 162.899 223.479 163.614L222.335 166.546L230.632 169.836C231.776 170.909 232.062 172.197 231.561 173.556C231.418 173.913 230.489 174.199 228.844 174.414L213.537 168.263C211.034 167.262 210.319 165.545 211.32 163.042C212.751 163.042 214.682 163.471 217.042 164.401L217.686 165.116L218.401 164.472L220.046 160.324C217.543 159.322 216.899 157.463 217.972 154.673C218.401 153.672 218.473 152.742 218.115 151.884L218.258 151.455C218.544 150.954 218.973 150.811 219.402 150.954L219.832 148.737L221.19 145.447V145.304Z" fill="#040000"/>
<path d="M243.504 168.618L244.72 169.118C245.792 170.406 246.007 171.979 245.292 173.696C244.72 173.553 244.29 173.696 244.147 174.197V175.198C244.147 175.198 243.289 176.414 241.644 178.059C244.791 180.419 246.365 182.136 246.293 183.28C245.721 184.711 245.006 185.354 244.076 185.283L243.289 184.925C241 183.066 239.498 181.993 238.783 181.707L238.354 181.564C236.208 184.568 234.277 185.712 232.632 185.068L232.203 184.925C231.273 183.995 231.13 182.851 231.702 181.349L240.285 171.836C241.716 169.476 242.717 168.475 243.432 168.761L243.504 168.618ZM252.444 143.87L254.089 144.514C255.019 145.372 255.162 146.588 254.59 148.09L252.444 153.455L252.873 153.598C256.736 155.171 258.81 155.529 259.167 154.67L260.026 152.596C260.455 151.595 260.812 150.307 261.099 148.734C261.599 148.305 261.885 147.947 261.957 147.661L264.46 148.662C265.605 149.878 265.462 152.167 264.031 155.672L263.673 156.459C263.316 157.317 263.03 157.674 262.744 157.531L262.315 159.749L260.455 164.326C259.167 167.616 257.952 169.047 256.807 168.618C254.59 167.759 254.089 165.757 255.305 162.753L256.449 159.82C253.088 158.819 250.656 158.032 249.226 157.388C245.721 162.753 243.432 165.184 242.431 164.755L241.143 164.255C240.714 164.112 240.357 163.325 240.142 161.894L240.643 160.678C245.435 154.313 248.224 150.164 249.011 148.162C245.649 147.446 243.289 146.874 242.002 146.374C240.786 144.586 240.428 143.155 240.857 142.082C241.501 141.725 244.505 142.297 249.798 143.727C250.012 143.227 250.799 143.227 252.158 143.727L252.444 143.87ZM255.019 174.697L256.664 175.341C257.093 175.484 257.451 176.271 257.665 177.63L257.165 178.846L255.091 182.851C258.166 186.141 259.811 188.43 260.026 189.646L259.382 191.291C259.167 191.935 258.309 192.078 256.807 191.72C256.521 191.577 254.947 189.646 251.943 185.927C251.228 187.786 249.512 189.217 246.865 190.146C245.149 188.859 244.576 187.5 245.149 186.07C249.082 181.993 252.087 178.202 254.018 174.697H255.019ZM269.395 149.664C271.899 150.665 272.256 153.383 270.468 157.818C269.896 159.248 269.538 160.607 269.395 161.68L268.966 161.537C268.966 162.181 268.966 162.681 268.895 162.967C267.035 167.545 265.247 170.978 263.387 173.267L262.171 172.766C260.526 172.122 261.528 167.187 265.175 158.104C265.533 157.174 266.32 154.742 267.536 150.88C268.394 149.95 269.038 149.592 269.467 149.735L269.395 149.664Z" fill="#040000"/>
<path d="M267.535 185.926L268.751 186.427C269.824 187.714 270.324 188.501 270.181 188.858L268.822 192.148L274.616 194.437L276.118 190.718C276.404 190.217 276.833 190.074 277.262 190.217L278.478 190.718C278.907 190.861 279.265 192.005 279.551 194.008L278.049 197.727C277.477 199.158 276.833 201.232 275.975 204.165L274.401 204.522C271.04 202.877 268.965 201.876 268.322 201.59H267.32C266.891 201.161 266.534 200.874 266.247 200.731L264.03 200.302C262.457 198.8 261.741 197.584 261.67 196.511L263.744 192.506C264.102 190.861 264.388 189.717 264.674 189.073L265.103 189.216C265.103 189.216 265.103 188.715 264.889 188.644C266.033 186.57 266.891 185.64 267.463 185.854L267.535 185.926ZM284.772 183.637C286.274 184.567 286.99 185.354 286.775 185.854L286.632 186.283C285.988 187.929 284.415 188.286 281.911 187.285C275.832 185.497 272.041 184.281 270.396 183.637C266.462 182.064 264.531 180.132 264.531 177.915C265.032 177.486 265.318 177.128 265.461 176.842C267.106 177.486 269.538 178.63 272.756 180.204C279.766 182.064 283.842 183.208 284.915 183.566L284.772 183.637ZM267.177 196.368C267.034 196.941 267.177 197.37 267.678 197.513L272.685 199.515L272.828 199.086C273.042 198.514 272.828 198.157 272.327 197.87C270.253 197.37 268.536 196.869 267.177 196.297V196.368ZM279.122 159.247C281.125 160.034 282.054 161.393 281.84 163.181C282.841 163.539 283.985 166.257 285.273 171.335C285.845 171.55 286.417 172.551 286.918 174.41L287.347 174.553L286.846 175.769C286.703 176.199 286.131 176.413 285.058 176.556L284.629 176.413C283.127 175.841 281.339 173.051 279.336 168.045L279.479 167.616L278.693 167.258C274.902 172.765 272.041 175.197 270.038 174.41L269.037 172.05L269.895 169.976C274.401 165.184 277.119 161.608 278.049 159.247C278.621 159.462 278.907 159.462 279.05 159.176L279.122 159.247Z" fill="#040000"/>
<path d="M293.934 172.907L294.363 173.05C296.866 174.052 297.581 175.768 296.58 178.272L293.791 185.352L292.217 188.07C292.217 188.07 292.575 188.356 292.503 188.643C295.865 189.358 298.869 190.216 301.515 191.289C303.375 192.219 304.162 193.077 303.875 193.721L303.518 194.579C301.372 195.938 296.008 194.937 287.425 191.504C286.853 189.644 286.638 188.643 286.781 188.356C289.213 183.85 291.073 180.06 292.217 177.056L293.862 172.907H293.934ZM314.39 178.2C317.179 179.273 317.25 183.064 314.747 189.358C315.319 189.572 314.676 192.076 312.816 196.725L311.672 199.657C311.028 201.302 310.098 201.946 309.025 201.445C307.094 200.659 306.593 199.157 307.452 196.939C309.311 192.219 311.171 185.925 313.102 178.057L313.531 178.2H314.533H314.39Z" fill="#040000"/>
<path d="M328.331 187.645C330.692 189.004 331.55 190.435 330.906 192.008C329.333 192.795 326.329 192.724 321.894 191.794L321.394 193.01C319.319 198.589 318.819 201.593 319.749 201.95C321.251 202.523 323.396 203.095 326.257 203.595C327.688 204.811 328.332 205.67 328.046 206.242L327.545 207.458C326.186 208.531 322.753 207.958 317.174 205.741L315.529 205.097C313.741 204.382 313.884 200.734 316.029 194.226L316.459 194.369V193.367L317.031 191.722C318.604 187.86 320.75 186.501 323.468 187.574C323.611 187.359 325.185 187.431 328.26 187.574L328.331 187.645ZM337.415 190.292C339.919 191.293 340.634 193.01 339.632 195.513C338.202 199.089 338.059 201.092 339.132 201.521L342.851 203.023C343.924 204.311 344.424 205.097 344.281 205.527L343.924 206.385C343.709 206.814 342.994 207.172 341.563 207.386L336.628 205.383L336.271 206.17C335.842 207.315 335.341 208.888 334.84 210.891C333.839 212.107 332.838 212.464 331.979 212.107C331.049 210.748 330.406 210.033 329.977 209.89C330.477 208.674 332.48 202.093 335.913 190.149C336.557 190.149 337.057 190.149 337.344 190.22L337.415 190.292Z" fill="#040000"/>
</svg>
