<svg width="305" height="97" viewBox="0 0 305 97" fill="none" xmlns="http://www.w3.org/2000/svg">
<path d="M160.631 5.25964C146.703 5.97393 132.846 4.33108 118.846 5.83108C112.489 6.54537 106.131 8.1168 99.7743 8.90251C90.8458 9.97394 81.7743 8.61681 72.8458 8.68824C46.6315 8.75966 22.4172 10.5454 6.48861 34.6882C-1.86853 47.3311 4.84576 63.4739 10.8458 75.5453C16.8458 87.6168 34.1315 89.4025 46.2743 90.9025C87.56 96.1168 130.06 93.5454 171.417 91.7596C187.56 91.0454 203.56 90.4739 219.631 88.3311C235.703 86.1882 252.631 87.0453 267.56 81.4739C280.774 76.5453 289.131 68.6168 297.917 57.6882C304.346 49.6882 302.56 37.5453 299.56 28.6168C296.06 18.2596 287.06 17.0453 278.131 13.1168C270.846 9.83106 262.489 8.61679 254.846 7.33108C238.274 4.47393 223.631 3.04533 206.917 2.61676C192.203 2.25962 177.417 4.04538 162.703 5.11681C161.989 5.11681 161.274 5.18821 160.56 5.25964H160.631Z" fill="white" stroke="#040000" stroke-width="5.14286" stroke-linecap="round" stroke-linejoin="round"/>
<path d="M39.9196 30.123H41.1339C42.5625 30.123 43.2054 32.623 43.2054 37.623V38.123C43.2054 40.7659 41.4197 42.123 37.7768 42.123C34.4197 43.7659 32.2054 44.623 31.1339 44.623C30.3482 44.623 29.7054 40.7659 29.0625 33.123C29.3482 32.5516 29.4911 31.7659 29.4911 30.623H30.7768L32.0625 31.623C36.4911 30.623 39.1339 30.123 39.9911 30.123H39.9196ZM41.6339 47.123V47.623L42.4911 47.123H45.8482V49.623C45.8482 50.123 45.2768 50.623 44.2054 51.123L41.7054 50.623L41.2768 51.623C41.8482 55.5516 42.1339 58.0516 42.1339 59.123C41.8482 59.7659 41.7054 60.2659 41.7054 60.623H40.4196C39.7054 59.623 39.1339 59.123 38.7768 59.123V55.623L38.3482 53.123H38.7768C38.4911 52.4801 38.3482 51.9802 38.3482 51.623C34.5625 51.9802 31.8482 52.123 29.9911 52.123C29.4197 50.7659 29.1339 49.7659 29.1339 49.123C29.7768 48.4802 30.3482 48.123 30.7768 48.123L31.6339 48.623C32.1339 48.2659 32.5625 48.123 32.8482 48.123V48.623C33.7768 48.2659 36.7054 47.7659 41.6339 47.123ZM31.9911 35.623V37.623L32.4197 40.123H33.2768C37.9196 38.9801 40.2768 37.9802 40.3482 37.123V34.623L39.9196 33.623L31.9911 35.623ZM32.4197 55.5516L34.4911 56.0516V61.5516L34.9197 62.5516C39.3482 61.9087 41.9911 61.1944 42.8482 60.5516C43.3482 60.9087 43.9196 61.0516 44.4911 61.0516V64.0516C44.4911 64.9802 40.7768 65.9802 33.2768 67.0516C32.4196 65.7659 31.9911 64.2659 31.9911 62.5516V58.0516L32.4197 55.5516Z" fill="black"/>
<path d="M60.06 32.1192C60.4886 32.4763 61.2028 32.6192 62.1314 32.6192L59.6314 41.1191C60.06 41.1191 61.7743 43.1192 64.6314 47.1192L67.1314 48.1192V50.1192C67.1314 50.6192 66.7028 51.1192 65.8457 51.6192H65.06L58.7743 45.1192H58.3457C56.7029 49.6192 55.8457 52.6191 55.8457 54.1191V55.1192H54.2028C53.4886 55.1192 53.06 54.4763 52.9171 53.1191L57.06 42.1191C57.06 40.9049 57.6314 38.5477 58.7028 35.1192H58.2743C55.6314 35.762 53.56 36.1192 51.9885 36.1192H48.6314C48.2028 36.1192 47.8457 35.6192 47.3457 34.6192V33.1192H48.2028C54.4886 33.1192 58.3457 32.762 59.8457 32.1192H60.06ZM72.1314 29.1191H72.9886C73.8457 29.1191 74.2743 32.1192 74.2743 38.1192V38.6192C74.3457 39.262 74.6314 39.6191 75.06 39.6191H79.6314L81.7029 40.1191C81.1314 41.4763 80.8457 42.4763 80.8457 43.1192H77.4886L74.56 43.6192V53.6191H73.2743C71.9171 53.6191 71.2028 48.762 71.2028 39.1192H71.6314L71.2028 38.1192V34.1192L70.7743 31.6192H71.2028L70.7743 30.6192C70.7743 30.1192 71.2028 29.6191 72.06 29.1191H72.1314Z" fill="black"/>
<path d="M86.4208 69.6172H86.8493C87.9922 70.1886 88.4922 71.3315 88.4922 73.1172C87.9207 74.6172 87.4207 75.4743 86.8493 75.6172C85.3493 75.6172 84.2065 74.6172 83.4922 72.6172C83.9208 70.6172 84.9208 69.6172 86.4208 69.6172Z" fill="black"/>
<path d="M93.2079 69.6172H93.6364C94.7793 70.1886 95.2793 71.3315 95.2793 73.1172C94.7079 74.6172 94.2079 75.4743 93.6364 75.6172C92.1364 75.6172 90.9936 74.6172 90.2793 72.6172C90.7079 70.6172 91.7079 69.6172 93.2079 69.6172Z" fill="black"/>
<path d="M112.564 31.1133H113.85C118.278 31.1133 120.493 32.7561 120.493 36.1133C120.493 39.8275 118.85 42.3276 115.493 43.6133H115.064V44.1133C116.421 44.1133 117.135 46.4704 117.135 51.1132V52.1132L121.278 51.6132H124.207L125.493 52.6132L124.635 34.6133L125.493 34.1133C126.207 34.3276 126.921 35.1847 127.564 36.6133V41.6132L130.493 42.1132H131.778V36.1133L132.207 33.6133H133.85L134.707 34.1133C134.421 35.9704 134.278 37.2561 134.278 38.1133C134.278 38.9704 134.421 41.399 134.707 45.6133H134.278L134.707 46.6133C134.707 46.6133 134.564 47.1133 134.278 47.1133C134.564 47.8276 134.85 50.0418 135.135 53.6132C134.921 55.3275 134.135 56.1133 132.635 56.1133C131.993 51.0419 131.493 47.399 130.993 45.1133C130.778 45.1133 129.635 45.2561 127.635 45.6133L129.278 55.6133V56.1133C129.278 56.6133 128.85 57.1133 128.064 57.6133H127.207C126.564 57.6133 126.135 56.4704 125.921 54.1132L122.993 56.1133V55.1133H120.064L112.135 58.1133C111.493 57.4704 110.921 57.1133 110.493 57.1133V56.1133C110.493 55.4704 111.921 54.6132 114.635 53.6132L115.064 52.6132H114.207V51.1132C114.207 50.399 114.064 49.6847 113.778 49.1133C113.778 48.7561 113.921 48.6133 114.207 48.6133L113.778 46.1133V45.1133L114.207 44.1133C110.635 42.8276 108.778 40.8275 108.778 38.1133C108.778 35.1847 109.993 32.8276 112.493 31.1133H112.564ZM111.778 37.6133C111.778 38.9704 112.993 39.9704 115.493 40.6132C117.135 39.6132 117.993 37.9704 117.993 35.6133C116.564 34.6133 115.278 34.1133 114.207 34.1133H113.778L112.135 37.1133C112.135 37.1133 111.707 37.2561 111.707 37.6133H111.778Z" fill="black"/>
<path d="M154.921 33.1211C156.779 33.9783 158.279 35.4783 159.493 37.6211V40.6211C159.493 43.264 157.993 44.9783 154.921 45.6211H153.636C150.279 45.6211 148.636 43.4782 148.636 39.1211C148.636 35.9068 150.707 33.9068 154.921 33.1211ZM151.564 41.1211L153.636 42.6211C154.493 42.6211 155.779 41.9782 157.35 40.6211C157.35 39.5497 156.207 38.1925 153.993 36.6211C152.85 36.6211 151.993 38.1211 151.493 41.1211H151.564ZM156.136 53.6211H158.207V62.6211C161.279 62.264 164.564 61.764 168.207 61.1211L168.636 63.1211C168.636 64.764 168.35 65.6211 167.779 65.6211L156.564 67.1211C156.564 66.6211 156.136 66.1211 155.279 65.6211C155.564 59.764 155.85 55.764 156.136 53.6211ZM167.85 29.6211C168.421 30.6925 168.707 31.6926 168.707 32.6211V37.1211C168.779 37.764 169.064 38.1211 169.564 38.1211L175.421 37.6211C175.421 40.3354 174.136 41.6211 171.636 41.6211H169.136L169.564 46.6211L169.136 48.6211C167.493 48.6211 166.636 47.1211 166.636 44.1211C166.064 37.8354 165.85 33.8354 165.85 32.1211C166.136 30.4783 166.779 29.6211 167.921 29.6211H167.85Z" fill="black"/>
<path d="M195.919 28.1172C198.419 30.5457 199.705 32.4029 199.705 33.6172C199.705 37.0458 197.348 39.0458 192.633 39.6172H191.419C190.348 38.6172 189.49 38.1172 188.919 38.1172V37.1172C189.705 31.1172 192.062 28.1172 195.99 28.1172H195.919ZM198.49 48.6172H200.133C201.276 48.9743 201.776 50.76 201.776 54.1172C201.776 55.4743 200.276 57.4743 197.205 60.1172C196.919 60.6886 196.776 61.3315 196.776 62.1172V63.1172C200.562 60.76 202.919 59.6172 203.848 59.6172C204.99 60.1172 205.49 60.6172 205.49 61.1172V61.6172C204.919 62.4029 204.633 63.1172 204.633 63.6172H203.348C202.633 63.6172 200.276 64.76 196.276 67.1172C194.848 67.1172 194.062 64.9743 193.776 60.6172C193.776 58.6886 195.419 56.6886 198.776 54.6172V54.1172L198.348 51.6172C194.919 53.26 192.99 54.1172 192.49 54.1172C191.776 54.1172 191.419 53.4743 191.276 52.1172C191.562 51.4743 191.705 50.9743 191.705 50.6172H192.99C192.99 50.6172 195.062 49.9743 198.419 48.6172H198.49ZM192.633 36.6172C193.776 36.6172 195.419 36.1172 197.633 35.1172C196.49 32.7601 195.633 31.6172 195.133 31.6172H194.705C193.705 31.6172 193.062 33.2601 192.633 36.6172ZM210.562 46.6172C211.49 46.6172 212.205 47.76 212.633 50.1172H212.205C212.848 54.3315 213.419 56.8315 213.848 57.6172C213.848 59.9744 212.99 61.1172 211.348 61.1172C210.419 59.5458 209.776 56.0458 209.276 50.6172L205.133 52.1172H204.705C204.133 52.1172 203.848 51.76 203.848 51.1172V50.6172C204.776 49.1886 206.99 47.9029 210.49 46.6172H210.562ZM208.848 25.6172C209.348 25.6172 210.062 29.76 210.919 38.1172L209.276 39.6172H208.848C207.705 39.6172 207.205 35.1172 207.205 26.1172C207.705 25.76 208.276 25.6172 208.848 25.6172Z" fill="black"/>
<path d="M216.92 38.6113C219.92 38.9684 222.563 39.1113 224.849 39.1113L226.492 38.6113V39.1113L227.349 38.6113H228.992L229.42 41.1113C229.42 41.6827 228.849 42.897 227.706 44.6113C227.92 44.6113 230.135 46.9684 234.42 51.6113L233.563 53.1113C233.563 53.1113 233.992 53.2542 233.992 53.6113H232.778C231.563 53.6113 229.349 51.7542 226.063 48.1113C224.206 54.4685 223.135 57.6113 222.706 57.6113H221.92C221.349 57.6113 221.063 57.2542 221.063 56.6113V55.1113C221.778 51.6828 223.135 47.5399 225.206 42.6113H224.349C218.492 42.6113 215.635 42.1113 215.635 41.1113V40.1113C215.635 39.6113 216.063 39.1113 216.92 38.6113ZM241.92 33.6113C242.492 35.9685 242.92 40.7542 243.135 48.1113H242.706C243.563 52.1113 243.992 54.7542 243.992 56.1113C243.563 57.4685 243.135 58.1113 242.706 58.1113H242.278C240.92 58.1113 240.063 50.1113 239.778 34.1113L241.849 33.6113H241.92Z" fill="black"/>
<path d="M248.705 69.6172H249.134C250.276 70.1886 250.776 71.3315 250.776 73.1172C250.205 74.6172 249.705 75.4743 249.134 75.6172C247.634 75.6172 246.491 74.6172 245.776 72.6172C246.205 70.6172 247.205 69.6172 248.705 69.6172Z" fill="black"/>
<path d="M255.492 69.6172H255.921C257.063 70.1886 257.563 71.3315 257.563 73.1172C256.992 74.6172 256.492 75.4743 255.921 75.6172C254.421 75.6172 253.278 74.6172 252.563 72.6172C252.992 70.6172 253.992 69.6172 255.492 69.6172Z" fill="black"/>
<path d="M266.922 29.1191C271.279 29.1191 273.779 31.762 274.422 37.1192V38.1192C274.422 41.1906 272.636 46.5477 268.993 54.1191C268.993 55.762 268.565 56.6192 267.708 56.6192H267.279C266.708 56.6192 266.422 56.262 266.422 55.6192V54.6191C266.422 53.1191 268.065 48.6191 271.422 41.1191C271.422 39.762 271.565 38.4049 271.851 37.1192C271.851 35.3334 270.565 33.8335 268.065 32.6192H265.993C263.636 32.6192 262.136 34.262 261.422 37.6192H260.208C259.636 37.6192 259.351 37.262 259.351 36.6192C260.779 31.6192 263.136 29.1191 266.422 29.1191H266.851H266.922ZM265.636 64.1192H268.136V67.1191L266.065 67.6192C265.493 66.7621 265.208 66.1191 265.208 65.6191C265.493 64.9763 265.636 64.4763 265.636 64.1192Z" fill="black"/>
</svg>
