<svg width="550" height="620" viewBox="0 0 550 620" fill="none" xmlns="http://www.w3.org/2000/svg">
<g clip-path="url(#clip0_39_2457)">
<path d="M184.271 520.054C173.47 515.977 154.874 519.696 142.214 503.961C140.569 501.887 137.279 500.313 136.063 497.881C130.198 486.294 123.832 473.062 126.121 459.902L128.768 444.882C121.901 443.094 118.254 438.23 116.823 431.793C114.963 423.424 118.54 415.7 126.837 412.481C131.271 410.765 137.494 409.692 142.214 411.48C147.722 413.554 150.44 419.133 152.371 424.426L158.093 423.21C167.677 421.136 177.333 423.067 187.275 425.427C187.275 416.916 186.702 409.334 188.347 401.609C190.708 390.595 194.212 380.295 198.218 369.71C191.495 369.71 185.415 367.349 180.48 362.915L166.318 350.184C162.241 346.536 159.738 341.958 157.806 336.88C157.02 334.877 155.518 332.302 155.303 330.157C154.516 321.717 154.588 313.706 155.518 305.409C156.448 297.112 161.812 295.038 161.883 290.103C161.883 286.598 163.886 285.025 165.746 282.45L171.539 274.439C178.62 264.64 201.293 257.917 212.809 256.487C219.246 255.628 225.54 256.415 231.262 259.205C234.981 261.064 239.13 261.779 242.921 263.21C254.436 267.644 261.374 277.944 267.024 288.243C270.744 294.967 273.604 300.832 273.39 308.914C273.175 318.355 271.888 327.439 268.383 336.522L277.252 335.879C280.113 335.664 283.046 335.163 285.692 336.308C289.125 337.881 292.487 338.453 296.135 338.096C301.356 337.667 305.862 338.382 311.942 339.169L304.217 330.3C293.202 317.711 294.633 282.951 309.724 267.072C317.735 258.561 313.944 257.059 324.244 252.267C328.035 250.479 331.611 248.905 335.902 248.404C350.35 246.902 349.206 244.614 363.082 248.762C374.096 252.052 385.397 254.269 395.339 260.635C401.633 264.64 406.783 271.864 409.143 278.802C410.645 283.38 412.004 286.813 414.15 291.033C416.01 294.609 416.367 299.187 417.726 303.12C422.804 317.998 422.089 321.288 416.653 336.022C415.008 340.456 412.076 343.603 408.571 346.893C411.933 348.824 415.437 349.54 417.44 351.9C423.376 358.552 426.81 366.634 431.888 373.787C436.966 380.939 441.115 387.09 442.688 395.745L448.553 427.287C449.125 430.505 450.055 433.581 449.841 436.871C449.125 448.744 453.56 444.667 450.341 462.048L447.981 474.779C446.98 480.215 443.976 484.792 439.827 488.369C426.595 499.741 412.076 506.607 396.34 514.403C394.052 515.548 391.262 516.263 388.83 516.835L374.239 520.125C383.323 532.213 399.487 560.465 393.551 574.055C390.69 580.706 380.39 589.647 371.807 588.646C370.663 598.373 365.227 605.74 357.503 611.176C345.701 619.401 336.188 620.188 322.742 616.612C319.094 615.61 315.589 615.11 313.157 611.39C305.79 617.112 296.993 620.331 287.909 619.973C281.973 619.759 276.322 617.899 270.672 616.469C263.019 614.609 257.225 610.246 252.433 604.167L245.495 595.441C244.637 594.296 243.85 592.365 242.849 590.791C232.764 592.937 222.894 587.215 220.319 576.773C217.959 567.117 219.532 555.744 224.253 546.875L233.765 528.994C227.114 529.137 221.463 528.637 215.169 527.707C212.737 527.349 209.519 527.85 207.087 527.707C198.647 527.421 192.138 523.058 184.342 520.125L184.271 520.054ZM132.988 448.1L130.985 459.401C128.696 472.419 134.633 484.649 140.641 496.093L146.22 501.171C148.723 503.46 150.654 506.25 153.801 507.68C169.179 514.69 163.958 510.756 178.835 513.903C181.91 514.546 185.129 514.761 187.99 516.12C210.091 526.92 204.87 520.555 222.393 523.702C230.761 525.204 239.702 522.2 248.142 524.989C257.511 528.065 253.149 524.131 264.736 524.274C286.479 524.488 327.033 525.204 346.917 520.268C351.709 519.052 355.714 517.622 360.721 517.193C368.231 516.549 375.527 514.475 382.894 513.116C387.829 512.186 392.406 511.113 396.769 508.753L419.8 496.594C425.737 493.447 430.887 489.513 435.965 485.15C445.263 477.211 446.98 454.108 446.765 452.392L444.977 439.875C444.333 435.655 444.619 431.936 443.832 427.787C441.615 415.771 439.756 404.041 436.752 392.24C435.106 385.946 431.03 381.511 427.668 376.147C423.019 368.78 419.014 361.27 413.435 354.475L405.782 350.756C404.852 350.255 403.493 348.467 403.207 347.537C402.42 344.39 408.428 340.599 409.787 338.31C412.791 333.161 414.579 327.51 415.866 321.645C416.725 317.711 415.938 313.277 414.651 309.415C412.791 304.122 412.004 298.4 409.858 293.393C407.927 288.816 406.139 285.168 404.637 280.304C402.706 274.01 397.699 267.644 392.12 264.14C382.679 258.346 372.237 256.415 361.937 253.268C348.991 249.334 350.779 251.48 337.261 252.91C333.256 253.339 329.894 254.842 326.318 256.415C322.742 257.989 320.668 259.777 318.665 263.067C312.013 274.082 309.009 270.219 303.502 289.96C299.997 302.62 300.998 315.637 307.793 326.938C311.012 332.302 321.669 338.811 320.095 342.459C319.881 342.96 318.808 343.889 318.164 344.032C309.367 345.534 306.649 341.529 296.421 342.745C291.486 343.317 287.552 342.173 282.974 340.313C281.043 339.526 277.753 340.671 275.607 340.671C271.602 340.671 268.312 341.171 264.736 343.103C263.162 343.961 260.372 344.533 259.085 343.103C256.367 340.17 263.162 336.022 264.592 332.302C267.453 324.506 268.526 316.209 268.526 308.056C268.526 300.903 265.737 296.04 262.518 290.175C257.44 280.805 251.432 271.507 240.989 267.501C237.556 266.214 233.622 265.499 230.261 263.782C218.03 257.702 206.443 261.851 193.783 265.856C185.987 268.288 178.406 272.365 173.613 279.088L167.033 288.315C165.531 290.461 166.318 294.466 164.244 296.755C161.24 300.116 159.738 304.622 159.595 309.2C159.38 315.423 159.38 321.216 159.523 327.51C159.523 329.799 161.097 332.445 161.883 334.591C163.6 339.169 165.889 343.246 169.608 346.536L183.841 359.339C193.426 367.993 203.01 362.843 205.013 365.99C206.372 368.136 202.366 370.639 200.077 377.792L195.071 393.527C191.852 403.755 191.137 413.84 192.067 424.497C192.21 425.928 191.065 428.217 190.136 428.932C189.134 429.79 186.702 430.148 185.272 429.719C176.403 427.358 160.524 425.069 152.442 429.647C148.222 451.104 134.203 440.161 132.916 447.886L132.988 448.1ZM312.371 339.169C312.371 339.169 312.228 338.883 312.085 338.883C311.942 338.883 311.799 339.026 311.799 339.169C311.799 339.312 311.942 339.455 312.085 339.455C312.228 339.455 312.371 339.312 312.371 339.169ZM302.071 612.392C310.44 609.388 310.153 604.667 313.229 605.311C316.519 605.955 317.163 610.103 320.167 610.89L329.823 613.322C335.473 614.752 342.268 613.679 347.704 611.39C351.638 609.745 354.999 607.027 358.289 604.453C367.158 597.515 368.374 586.142 366.515 575.771L365.37 569.62C365.156 568.619 366.372 566.974 367.445 566.902C368.517 566.831 370.019 567.975 370.162 568.905L371.235 574.985C371.736 577.917 372.022 580.42 372.38 583.782C378.173 584.926 387.042 576.987 389.188 572.338C394.552 560.322 377.029 530.353 368.732 520.912C364.297 521.842 360.721 522.271 356.43 522.7C353.211 523.058 350.064 524.918 346.845 525.49C333.971 527.707 321.383 528.923 308.222 528.923L264.95 529.066C255.938 529.066 255.437 532.785 248.499 530.139C245.853 529.137 241.991 528.279 239.344 528.923L234.409 538.221L228.33 549.665C224.181 557.461 223.108 567.045 225.111 575.557C226.899 583.424 234.91 587.859 242.277 585.999C241.776 584.283 240.918 574.341 241.061 573.554C241.204 572.767 242.706 571.48 243.421 571.194C244.136 570.908 246.068 571.837 246.068 572.696C246.783 591.078 247.784 590.863 258.227 603.38C261.159 606.884 264.879 609.459 269.17 610.89C282.903 615.467 289.411 617.041 302.214 612.463L302.071 612.392Z" fill="#2B201D" stroke="#231815" stroke-width="2.14573" stroke-miterlimit="10"/>
<path d="M132.99 448.106C134.349 440.382 148.296 451.253 152.516 429.867C160.67 425.361 176.548 427.579 185.345 429.939C186.776 430.297 189.208 430.011 190.209 429.152C191.067 428.365 192.212 426.077 192.14 424.718C191.21 413.989 191.926 403.904 195.144 393.748L200.151 378.012C202.44 370.86 206.517 368.357 205.086 366.211C203.083 363.064 193.499 368.213 183.915 359.559L169.682 346.756C166.034 343.466 163.745 339.389 161.957 334.812C161.17 332.666 159.668 330.019 159.597 327.731C159.454 321.365 159.454 315.643 159.668 309.42C159.811 304.843 161.313 300.337 164.317 296.975C166.391 294.686 165.605 290.681 167.107 288.535L173.687 279.309C178.479 272.514 186.061 268.508 193.857 266.077C206.517 262.071 218.103 257.923 230.334 264.002C233.696 265.719 237.63 266.363 241.063 267.722C251.505 271.727 257.513 281.025 262.592 290.395C265.739 296.26 268.6 301.195 268.6 308.276C268.6 316.43 267.527 324.655 264.666 332.523C263.307 336.242 256.441 340.39 259.159 343.323C260.446 344.682 263.235 344.11 264.809 343.323C268.385 341.392 271.604 340.963 275.681 340.891C277.826 340.891 281.045 339.675 283.048 340.533C287.625 342.393 291.631 343.538 296.494 342.965C306.722 341.749 309.44 345.683 318.238 344.253C318.881 344.181 319.954 343.251 320.169 342.679C321.742 339.032 311.014 332.523 307.867 327.158C301.072 315.786 300.07 302.84 303.575 290.18C309.083 270.44 312.087 274.302 318.738 263.287C320.741 259.997 322.958 258.209 326.391 256.635C329.825 255.062 333.329 253.488 337.335 253.131C350.853 251.772 349.065 249.555 362.011 253.488C372.31 256.635 382.753 258.567 392.194 264.36C397.844 267.865 402.779 274.23 404.711 280.525C406.213 285.388 408.001 289.107 409.932 293.614C412.078 298.62 412.864 304.342 414.724 309.635C416.083 313.426 416.798 317.86 415.94 321.866C414.653 327.731 412.864 333.381 409.86 338.531C408.501 340.82 402.422 344.61 403.28 347.757C403.495 348.687 404.854 350.475 405.855 350.976L413.508 354.695C419.087 361.49 423.092 369 427.741 376.367C431.103 381.732 435.252 386.166 436.825 392.46C439.829 404.262 441.689 415.992 443.906 428.008C444.693 432.156 444.478 435.947 445.05 440.095L446.838 452.612C447.053 454.329 445.336 477.431 436.038 485.37C430.96 489.662 425.81 493.667 419.874 496.814L396.843 508.973C392.48 511.262 387.831 512.407 382.967 513.336C375.529 514.695 368.305 516.77 360.795 517.413C355.788 517.842 351.783 519.273 346.99 520.489C327.178 525.424 286.552 524.709 264.809 524.494C253.222 524.423 257.585 528.285 248.215 525.209C239.704 522.42 230.763 525.424 222.467 523.922C204.943 520.775 210.164 527.141 188.063 516.34C185.274 514.981 181.984 514.767 178.908 514.123C164.031 510.976 169.252 514.91 153.875 507.901C150.728 506.47 148.796 503.681 146.293 501.392L140.714 496.314C134.706 484.87 128.77 472.639 131.058 459.622L133.061 448.321L132.99 448.106Z" fill="#C6E5EF" stroke="#231815" stroke-width="1.14439" stroke-miterlimit="10"/>
<path d="M302.069 612.391C289.266 616.969 282.757 615.324 269.024 610.818C264.733 609.387 261.014 606.812 258.081 603.307C247.639 590.791 246.566 591.077 245.922 572.624C245.922 571.837 243.991 570.907 243.276 571.121C242.56 571.336 240.987 572.623 240.915 573.482C240.844 574.34 241.63 584.282 242.131 585.927C234.764 587.715 226.753 583.352 224.965 575.484C223.034 566.973 224.107 557.389 228.184 549.593L234.263 538.149L239.199 528.851C241.774 528.207 245.707 529.065 248.354 530.067C255.292 532.784 255.792 529.065 264.804 528.994L308.077 528.851C321.237 528.851 333.825 527.563 346.7 525.417C349.918 524.845 353.137 522.986 356.284 522.628C360.575 522.199 364.152 521.77 368.586 520.84C376.883 530.281 394.406 560.178 389.042 572.266C386.968 576.986 378.027 584.926 372.234 583.71C371.876 580.348 371.59 577.845 371.09 574.912L370.017 568.833C369.874 567.831 368.3 566.759 367.299 566.83C366.297 566.902 365.081 568.475 365.225 569.548L366.369 575.699C368.3 586.07 367.013 597.442 358.144 604.38C354.925 606.955 351.492 609.673 347.558 611.318C342.122 613.607 335.327 614.68 329.677 613.249L320.021 610.818C317.017 610.031 316.373 605.882 313.083 605.239C310.079 604.666 310.365 609.387 301.926 612.32L302.069 612.391Z" fill="#C6E5EF" stroke="#231815" stroke-width="1.14439" stroke-miterlimit="10"/>
<path d="M312.084 339.457C312.242 339.457 312.37 339.329 312.37 339.171C312.37 339.013 312.242 338.885 312.084 338.885C311.926 338.885 311.798 339.013 311.798 339.171C311.798 339.329 311.926 339.457 312.084 339.457Z" fill="#FEFEFE" stroke="#231815" stroke-width="1.14439" stroke-miterlimit="10"/>
<path d="M295.347 401.674C294.417 404.606 281.615 399.456 278.754 410.114C278.324 411.759 277.752 412.975 276.107 412.975C274.891 412.975 273.532 410.9 273.818 409.47C276.894 396.095 293.774 397.239 295.133 399.027C295.562 399.6 295.49 400.958 295.276 401.674H295.347Z" fill="#291F1C" stroke="#231815" stroke-width="1.14439" stroke-miterlimit="10"/>
<path d="M326.248 407.398C319.525 398.028 311.228 403.464 310.799 399.101C310.298 394.38 323.602 395.31 330.468 404.823C331.04 405.681 330.468 408.113 329.61 408.471C328.465 408.9 326.963 408.399 326.248 407.326V407.398Z" fill="#291F1C" stroke="#231815" stroke-width="1.14439" stroke-miterlimit="10"/>
<path d="M240.347 437.297C238.202 435.581 234.125 437.369 232.766 435.08C230.549 431.218 238.702 425.496 241.134 424.28C243.28 423.135 244.853 422.778 247.5 422.349C253.007 421.419 259.444 418.915 265.023 419.631C271.532 420.417 269.529 424.923 265.81 428.07C263.879 429.716 260.946 431.218 259.516 433.363C258.3 435.151 257.728 437.655 256.583 439.586C254.009 443.663 250.504 447.454 249.359 452.317C248.501 455.679 247.214 458.898 246.785 462.331C246.284 466.551 246.785 470.699 246.928 474.847C247.071 477.923 247.857 480.426 246.57 483.43C245.64 485.648 243.924 487.364 243.137 489.653C242.493 491.513 241.921 494.517 240.705 496.019C237.701 499.881 235.341 493.944 235.126 490.726C234.84 485.004 235.198 479.711 235.913 474.061C236.557 468.839 236.557 463.475 237.343 458.325C237.844 454.964 238.559 451.03 239.561 447.811C240.562 444.593 243.494 441.374 240.92 437.869C240.777 437.655 240.633 437.512 240.419 437.369L240.347 437.297Z" fill="white"/>
<path d="M360.721 442.442C363.081 441.083 366.872 443.515 368.517 441.441C371.306 437.936 364.154 431.07 361.936 429.496C359.934 428.066 358.503 427.493 356 426.635C350.707 424.847 344.771 421.414 339.049 421.271C332.468 421.056 333.756 425.777 336.974 429.496C338.62 431.427 341.266 433.358 342.41 435.647C343.34 437.578 343.483 440.153 344.413 442.227C346.344 446.662 349.205 450.953 349.634 455.888C349.849 457.963 349.563 459.894 350.207 461.825C351.279 465.044 354.14 468.262 357.931 466.188C368.231 460.538 354.14 448.808 360.291 442.871C360.435 442.728 360.649 442.585 360.864 442.442H360.721Z" fill="white"/>
<path d="M538.007 516.722C540.002 516.262 541.426 517.185 542.279 519.491C542.634 520.452 542.034 521.756 540.479 523.404C538.255 523.512 536.843 523.131 536.243 522.26L535.894 521.317C535.067 519.081 535.771 517.549 538.007 516.722Z" fill="#040000"/>
<path d="M528.103 520.386C530.097 519.926 531.521 520.85 532.374 523.155C532.729 524.116 532.13 525.421 530.574 527.068C528.35 527.176 526.938 526.795 526.338 525.924L525.989 524.981C525.162 522.745 525.867 521.213 528.103 520.386Z" fill="#040000"/>
<path d="M505.81 490.562C507.486 490.637 508.517 490.981 508.902 491.593L511.732 499.244L513.261 501.926C513.453 503.682 513.279 504.66 512.737 504.86L511.296 505.393C509.859 505.428 508.689 504.223 507.784 501.777L506.902 499.393C504.221 500.682 502.958 501.696 503.111 502.433C504.139 503.225 504.756 503.9 504.963 504.459C505.12 505.851 504.395 506.844 502.788 507.438C502.614 506.967 501.091 506.259 498.219 505.315C497.713 505.503 497.608 507.18 497.906 510.347L495.993 511.054C495.786 510.495 495.166 509.811 494.132 509.002L491.931 510.382C489.38 509.499 487.642 509.228 486.716 509.571C487.421 513.302 487.118 515.41 485.808 515.894C484.417 516.051 483.543 515.65 483.188 514.689C482.8 513.641 482.692 510.424 482.864 505.038L482.68 504.54L482.209 504.714C479.583 506.42 477.632 507.509 476.357 507.981L474.208 506.601L474.024 506.103C473.694 505.212 476.373 503.139 482.06 499.884L483.973 499.176C485.563 498.588 486.535 498.774 486.891 499.735L495.45 494.93C496.9 494.93 497.715 495.175 497.896 495.664L498.245 496.607L498.665 499.193C501.431 497.435 503.705 496.226 505.487 495.567L505.076 493.008L504.605 493.183C504.476 492.138 504.878 491.264 505.81 490.562ZM487.773 502.12C487.685 502.847 487.705 503.386 487.834 503.735C487.996 504.172 489.527 504.877 492.429 505.849L492.604 506.32L493.075 506.146C493.791 505.881 494.056 504.154 493.87 500.966L493.398 501.141L491.188 502.495L487.773 502.12ZM508.921 512.26C510.528 511.665 512.942 514.754 516.162 521.527L516.52 522.496C516.695 522.968 516.232 523.676 515.131 524.619C513.227 525.323 511.165 523.186 508.947 518.208C508.219 518.12 507.689 518.137 507.357 518.26L499.269 522.89C497.813 522.873 496.998 522.628 496.823 522.157L496.29 520.715C495.902 519.667 500.113 516.849 508.921 512.26Z" fill="#040000"/>
<path d="M478.629 538.687C480.624 538.227 482.048 539.15 482.901 541.456C483.256 542.417 482.656 543.721 481.101 545.369C478.877 545.477 477.465 545.096 476.865 544.225L476.516 543.282C475.689 541.046 476.393 539.514 478.629 538.687Z" fill="#040000"/>
<path d="M468.725 542.351C470.719 541.891 472.143 542.814 472.996 545.12C473.352 546.081 472.752 547.385 471.196 549.033C468.972 549.141 467.56 548.76 466.96 547.889L466.611 546.946C465.784 544.71 466.489 543.178 468.725 542.351Z" fill="#040000"/>
<path d="M440.56 507.042C441.381 506.739 443.495 510.495 446.903 518.31C446.961 520.453 446.675 521.641 446.046 521.874L445.103 522.223C444.282 522.526 443.115 521.33 441.601 518.633C439.283 520.205 436.683 521.525 433.8 522.591C431.564 523.418 430.152 523.037 429.564 521.447C428.976 519.857 432.036 517.822 438.744 515.34C438.621 515.008 439.04 514.665 440.001 514.309L439.827 513.838C439.594 513.209 439.155 513.014 438.508 513.253C432.842 515.706 429.075 517.279 427.205 517.97L425.057 516.59L424.882 516.119C424.288 514.512 429.091 511.821 439.293 508.047C439.177 507.733 439.599 507.398 440.56 507.042ZM450.729 521.244C452.12 521.087 453.052 521.646 453.524 522.921C453.259 524.191 453.229 525.105 453.436 525.664L451.523 526.372C450.807 526.637 450.111 526.715 449.436 526.608C448.993 527.129 448.414 527.522 447.698 527.787L446.256 528.32L447.148 530.731L447.62 530.556C448.354 530.285 448.942 529.889 449.384 529.367C452.553 529.129 454.81 530.826 456.154 534.46L456.861 536.373C457.927 539.255 455.272 541.876 448.896 544.234C448.384 544.781 447.961 545.116 447.629 545.239L448.163 546.68C448.5 547.27 448.931 547.468 449.455 547.275L450.424 546.916C453.447 545.798 455.819 544.374 457.543 542.644C458.999 542.662 459.814 542.906 459.989 543.378L460.347 544.348C461.291 546.898 458.732 549.294 452.67 551.537L449.316 552.778C446.938 553.22 445.29 552.201 444.372 549.721L443.48 547.31C442.065 543.484 445.192 540.153 452.861 537.316C452.467 536.25 451.573 535.31 450.179 534.495C447.239 536.318 444.485 537.704 441.917 538.654L440.475 539.187C438.955 538.995 438.02 538.427 437.671 537.484C437.531 536.086 438.256 535.093 439.846 534.505C440.16 534.388 440.379 534.496 440.501 534.828C440.868 534.315 441.767 533.794 443.2 533.264L442.318 530.879C438.084 532.803 435.426 533.965 434.343 534.366C432.566 534.447 431.419 533.789 430.902 532.391C430.744 531 431.469 530.007 433.076 529.412L434.989 528.705L450.729 521.244Z" fill="#040000"/>
<path d="M106.306 365.648C108.07 366.688 108.468 368.337 107.499 370.597C107.096 371.539 105.763 372.072 103.501 372.197C101.813 370.745 101.051 369.496 101.215 368.452L101.611 367.528C102.55 365.336 104.115 364.71 106.306 365.648Z" fill="#040000"/>
<path d="M96.5988 361.49C98.3623 362.529 98.76 364.179 97.7918 366.439C97.3884 367.381 96.0556 367.914 93.7933 368.039C92.1055 366.587 91.3435 365.338 91.5072 364.294L91.9033 363.369C92.8421 361.178 94.4073 360.551 96.5988 361.49Z" fill="#040000"/>
<path d="M100.951 324.509C102.116 325.717 102.627 326.676 102.485 327.385L99.2727 334.884L98.5358 337.881C97.4672 339.288 96.6675 339.877 96.1368 339.65L94.7243 339.045C93.6578 338.081 93.638 336.401 94.6648 334.004L95.666 331.667C92.8337 330.758 91.2195 330.623 90.8234 331.264C91.0241 332.546 91.0072 333.461 90.7725 334.008C89.9288 335.126 88.7195 335.348 87.1443 334.673C87.3423 334.211 86.7246 332.649 85.291 329.988C84.7945 329.776 83.5644 330.921 81.6009 333.423L79.7261 332.62C79.9608 332.072 79.9815 331.149 79.7881 329.85L77.242 329.337C75.9992 326.94 74.9241 325.547 74.0166 325.159C71.9603 328.351 70.29 329.672 69.0059 329.121C67.8881 328.278 67.5309 327.385 67.9343 326.444C68.3744 325.416 70.5104 323.008 74.3423 319.219L74.5513 318.731L74.089 318.533C71.0098 317.964 68.8452 317.411 67.5954 316.876L66.986 314.396L67.195 313.908C67.5691 313.035 70.9394 313.374 77.3058 314.926L79.1806 315.73C80.7386 316.397 81.316 317.202 80.9126 318.143L90.4293 320.548C91.4811 321.546 91.9043 322.285 91.6989 322.764L91.3029 323.689L89.8284 325.853C93.0446 326.481 95.5259 327.169 97.2723 327.918L98.7357 325.779L98.2735 325.581C98.8995 324.734 99.7921 324.377 100.951 324.509ZM79.9114 320.48C79.3465 320.948 78.9907 321.352 78.844 321.695C78.6606 322.123 79.287 323.688 80.723 326.39L80.525 326.853L80.9873 327.051C81.6892 327.351 83.0697 326.281 85.1286 323.84L84.6664 323.642L82.1313 323.103L79.9114 320.48ZM88.2754 342.392C89.8506 343.066 89.4757 346.969 87.1509 354.098L86.7438 355.048C86.5458 355.511 85.7228 355.705 84.2749 355.632C82.4087 354.833 82.3838 351.864 84.2002 346.725C83.733 346.16 83.3368 345.808 83.0115 345.668L73.957 343.461C72.9125 342.446 72.4893 341.708 72.6874 341.246L73.2925 339.833C73.7325 338.806 78.7269 339.659 88.2754 342.392Z" fill="#040000"/>
<path d="M48.1115 340.719C49.875 341.758 50.2727 343.408 49.3045 345.668C48.9011 346.609 47.5683 347.143 45.306 347.268C43.6182 345.815 42.8562 344.567 43.0199 343.522L43.416 342.598C44.3548 340.406 45.92 339.78 48.1115 340.719Z" fill="#040000"/>
<path d="M38.4035 336.559C40.167 337.598 40.5647 339.247 39.5965 341.507C39.1931 342.449 37.8603 342.982 35.598 343.108C33.9102 341.655 33.1482 340.407 33.3119 339.362L33.708 338.438C34.6468 336.246 36.212 335.62 38.4035 336.559Z" fill="#040000"/>
<path d="M42.271 291.56C43.0757 291.904 42.0247 296.084 39.1179 304.099C37.685 305.694 36.6603 306.36 36.0439 306.095L35.1194 305.699C34.3147 305.355 34.2912 303.683 35.0489 300.684C32.2852 300.23 29.4908 299.398 26.6658 298.187C24.4743 297.249 23.7123 296 24.3797 294.442C25.0472 292.884 28.6682 293.513 35.2427 296.33C35.3821 296.004 35.9226 296.044 36.8643 296.447L37.0623 295.985C37.3263 295.368 37.1416 294.924 36.5081 294.653C30.709 292.533 26.8934 291.081 25.0615 290.296L24.4521 287.817L24.6501 287.354C25.3249 285.779 30.6617 287.133 40.6605 291.417C40.7925 291.109 41.3294 291.156 42.271 291.56ZM39.8744 308.861C40.9922 309.705 41.2834 310.751 40.748 312.001C39.6817 312.74 39.0313 313.383 38.7966 313.931L36.9218 313.128C36.2198 312.827 35.6609 312.405 35.2451 311.863C34.5652 311.936 33.8742 311.822 33.1722 311.522L31.7597 310.917L30.7476 313.279L31.2098 313.477C31.9289 313.785 32.6284 313.903 33.3083 313.829C35.7715 315.837 36.2403 318.621 34.7147 322.182L33.9115 324.057C32.7013 326.882 28.9716 326.956 22.7223 324.279C21.9739 324.323 21.4371 324.276 21.1118 324.136L20.5067 325.549C20.3454 326.209 20.5215 326.649 21.0352 326.869L21.9854 327.276C24.9474 328.545 27.6488 329.145 30.0896 329.076C31.1341 330.091 31.5573 330.83 31.3593 331.292L30.9522 332.242C29.8813 334.742 26.3754 334.719 20.4343 332.174L17.147 330.766C15.1169 329.45 14.6226 327.577 15.6641 325.146L16.6763 322.783C18.2825 319.034 22.8438 318.769 30.36 321.989C30.8074 320.944 30.806 319.647 30.3557 318.096C26.9683 317.395 24.0162 316.505 21.4994 315.427L20.0869 314.822C19.1157 313.636 18.8282 312.58 19.2243 311.656C20.085 310.545 21.2944 310.324 22.8524 310.991C23.1606 311.123 23.245 311.352 23.1056 311.677C23.7244 311.557 24.7357 311.798 26.1397 312.4L27.1409 310.063C22.7456 308.544 20.0173 307.558 18.9558 307.103C17.6104 305.939 17.2312 304.672 17.8179 303.303C18.6615 302.185 19.8709 301.963 21.4461 302.638L23.3208 303.441L39.8744 308.861Z" fill="#040000"/>
</g>
<defs>
<clipPath id="clip0_39_2457">
<rect width="550" height="620" fill="white"/>
</clipPath>
</defs>
</svg>
