<svg width="550" height="620" viewBox="0 0 550 620" fill="none" xmlns="http://www.w3.org/2000/svg">
<path d="M218.427 419.895C215.923 422.255 212.633 422.255 209.558 423.399C205.838 424.83 202.191 427.548 199.044 429.979C195.038 432.983 192.678 434.915 190.89 439.707C189.531 443.426 188.816 446.359 188.816 450.364C188.816 457.516 187.385 466.099 190.246 472.751C194.108 481.692 198.901 486.984 208.985 489.13C213.348 490.06 215.923 489.345 220.143 488.558C224.363 487.771 228.726 489.488 232.66 488.558C236.236 487.7 241.314 484.195 243.317 481.119C245.32 478.044 247.895 474.682 248.896 471.034C249.54 468.746 250.899 466.099 250.398 463.667C249.826 460.949 249.039 458.017 248.252 455.371C247.537 453.01 246.893 450.578 245.892 448.29C244.819 445.715 242.316 442.854 242.03 439.993" fill="#C7E6F0"/>
<path d="M216.138 417.609C213.634 419.612 209.772 419.683 206.911 421.042C203.764 422.473 201.046 424.476 198.257 426.55C193.607 430.054 189.888 433.345 187.742 438.852C185.382 445.146 185.597 451.583 185.311 458.235C185.025 464.887 185.597 470.895 188.601 476.903C193.321 486.416 202.977 493.354 213.992 492.638C217.139 492.424 220.215 491.422 223.433 491.565C226.938 491.708 230.371 492.424 233.804 491.494C239.312 489.992 243.818 485.915 246.965 481.266C250.898 475.401 254.618 468.177 253.044 460.953C252.114 456.948 251.042 452.942 249.611 449.08C248.395 445.647 245.749 442.643 245.105 439.067C244.318 434.99 238.167 436.706 238.882 440.783C239.312 443.143 240.456 445.146 241.672 447.149C243.317 450.01 244.175 453.014 245.105 456.089C245.892 458.736 247.179 461.811 247.251 464.601C247.251 467.176 245.677 470.752 244.604 473.041C242.172 477.833 238.954 482.267 233.947 484.627C231.515 485.772 229.084 485.629 226.437 485.343C223.576 485.128 220.93 485.128 218.069 485.629C208.055 487.417 199.401 483.483 194.68 474.471C192.034 469.393 191.605 464.386 191.819 458.807C192.034 453.228 191.748 447.578 193.464 442.214C195.324 436.492 199.544 433.416 204.265 430.126C206.839 428.338 209.414 426.764 212.418 425.906C215.422 425.048 218.069 424.261 220.644 422.258C223.862 419.683 219.285 415.106 216.066 417.681L216.138 417.609Z" fill="#231815"/>
<path d="M401.526 344.297C403.815 346.729 408.178 347.945 410.896 350.162C414.258 352.88 419.765 356.885 423.914 358.173C429.278 359.889 433.641 363.251 439.005 365.253C443.511 366.899 448.089 368.401 452.595 369.974C456.386 371.262 458.96 372.478 463.037 372.621C466.828 372.692 470.547 373.622 472.407 377.055C474.267 380.488 474.982 385.137 476.126 388.857C476.842 391.145 478.058 393.434 478.701 395.651C479.488 398.226 479.917 398.083 477.128 399.871C475.626 400.801 473.194 401.516 471.406 401.945C468.688 402.589 466.9 403.161 464.325 404.306C460.319 406.022 456.386 407.954 452.166 409.312C444.369 411.887 436.43 413.819 428.777 416.679C425.988 417.752 423.27 419.397 420.266 419.97C417.476 420.542 413.686 419.97 410.825 419.97C407.821 419.97 405.389 421.043 402.528 421.186C400.31 421.329 392.014 418.325 391.871 421.114C393.373 422.616 395.375 423.331 396.734 424.976C398.451 426.979 398.808 429.339 399.738 431.7C401.669 436.42 403.171 440.855 402.456 446.148C401.884 450.439 401.741 455.303 399.953 459.237C398.093 463.528 395.232 467.533 391.942 470.823C389.224 473.613 386.792 477.618 383.717 479.764C379.998 482.339 374.991 483.34 370.699 483.912C365.907 484.628 361.401 487.131 356.538 487.417C354.177 487.56 351.96 487.202 349.6 487.632C347.239 488.061 347.168 487.775 344.665 487.274C341.947 486.702 338.513 487.56 335.724 487.417C333.864 487.346 332.291 486.559 330.431 486.273C328.5 485.915 326.497 486.416 324.566 486.058C318.773 484.985 312.908 483.769 306.828 483.769C299.318 483.769 291.737 482.053 284.441 480.193C280.507 479.192 276.502 478.62 272.568 477.69C269.135 476.903 265.845 475.33 262.483 474.4C255.402 472.54 249.394 469.751 243.1 465.96C239.166 463.599 234.374 461.597 231.513 457.806C229.797 455.517 228.795 452.799 227.436 450.296C226.506 448.579 225.076 447.077 224.289 445.289C220.784 437.779 215.134 430.698 210.914 423.403C207.839 418.038 204.477 412.817 202.331 406.952C201.115 403.734 199.828 399.943 196.108 398.87C192.389 397.797 188.598 398.012 184.879 397.583C177.083 396.724 168.142 394.364 160.918 391.002C154.267 387.927 148.688 383.993 142.68 380.059C138.746 377.484 136.1 375.553 133.239 371.762C131.665 369.688 129.948 368.401 129.877 365.611C129.877 363.465 130.592 360.533 131.164 358.387C131.737 356.528 131.88 355.669 132.023 353.81C132.094 352.093 132.166 348.874 133.668 347.659C135.456 346.228 139.39 347.802 141.464 347.873C143.538 347.945 145.827 347.873 147.973 347.873C152.908 347.873 157.485 349.089 162.492 349.089C167.07 349.089 171.719 349.089 176.296 349.089C186.667 349.089 196.895 348.374 207.052 346.872C211.844 346.157 216.278 345.656 220.856 344.082C223.288 343.224 225.577 343.009 227.937 342.08C229.725 341.364 233.015 339.147 234.732 340.864" fill="#C7E6F0"/>
<path d="M399.238 346.586C401.313 348.446 403.673 349.662 406.105 351.021C408.537 352.38 410.825 354.311 413.186 355.956C418.621 359.818 424.701 361.75 430.495 364.825C436.789 368.187 443.512 370.333 450.235 372.621C453.025 373.551 455.814 374.767 458.747 375.339C461.679 375.911 465.255 375.339 467.83 376.913C470.763 378.701 471.335 383.278 472.122 386.425C472.909 389.573 473.91 392.863 475.412 395.795C475.555 396.081 475.912 398.442 476.27 396.868C476.485 395.795 476.27 396.796 475.555 397.011C474.053 397.583 472.765 398.155 471.192 398.585C468.045 399.371 465.041 400.444 462.037 401.732C454.67 404.879 447.374 407.382 439.65 409.671C436.216 410.672 432.855 411.674 429.493 412.889C425.917 414.177 422.412 416.466 418.621 416.823C415.26 417.181 411.97 416.394 408.608 416.823C405.246 417.252 402.958 417.968 399.739 417.324C396.091 416.609 390.155 415.178 388.867 420.042C388.581 421.115 388.867 422.402 389.726 423.189C390.87 424.19 392.229 424.977 393.373 425.907C395.233 427.48 395.734 429.412 396.52 431.629C397.951 435.563 399.596 439.354 399.524 443.573C399.381 452.085 397.236 459.738 391.657 466.247C386.65 472.183 382.502 477.977 374.634 479.765C367.267 481.41 359.971 483.77 352.461 483.985C351.031 483.985 349.672 484.414 348.242 484.414C346.811 484.414 345.452 483.913 344.093 483.77C342.305 483.556 340.588 483.77 338.8 483.913C336.369 484.056 334.437 483.627 332.077 483.126C328.358 482.34 324.567 482.554 320.776 481.911C316.771 481.195 312.694 480.552 308.617 480.408C291.88 479.836 274.858 475.259 259.051 469.894C252.041 467.534 245.461 463.743 239.167 459.881C235.734 457.807 233.659 455.303 231.871 451.727C230.083 448.151 227.938 444.932 226.078 441.428C222.216 434.061 217.137 427.48 212.989 420.328C211.058 416.966 209.055 413.676 207.339 410.172C205.765 406.953 204.907 403.305 203.047 400.301C199.042 394.079 191.532 394.865 185.023 394.15C176.583 393.22 168 390.789 160.49 386.926C153.481 383.35 146.042 378.915 140.034 373.909C137.888 372.121 135.313 369.617 133.955 367.185C132.166 364.11 134.455 360.033 135.099 356.886C135.385 355.384 135.099 353.596 135.6 352.165C136.458 349.376 137.745 350.52 139.963 350.806C144.04 351.379 148.116 350.806 152.265 351.164C162.135 352.094 171.862 352.308 181.733 352.094C191.603 351.879 200.472 350.949 209.77 349.59C214.491 348.875 218.926 347.874 223.432 346.586C225.291 346.086 227.222 345.728 229.082 345.013C230.012 344.655 232.587 342.939 233.445 343.439C236.95 345.657 240.24 340.078 236.663 337.86C233.874 336.144 231.228 337.002 228.438 338.218C224.433 339.935 219.927 341.079 215.707 342.009C206.051 344.226 195.895 345.013 186.024 345.442C176.154 345.871 165.997 346.3 156.27 345.156C151.621 344.584 147.187 344.798 142.538 344.512C139.462 344.369 136.029 342.867 133.096 344.298C130.664 345.442 129.806 347.874 129.377 350.377C128.805 354.168 128.018 357.816 127.303 361.607C126.015 368.759 130.307 373.98 135.528 378.415C142.108 384.065 150.334 389 158.058 392.863C165.783 396.725 174.223 399.157 182.806 400.301C186.883 400.873 193.963 399.8 197.111 402.805C199.757 405.379 200.687 410.815 202.332 414.105C206.48 422.402 211.702 430.055 216.708 437.78C219.069 441.499 220.928 445.505 223.36 449.224C225.577 452.657 227.008 456.662 229.583 459.881C234.303 465.818 243.172 469.751 249.896 472.898C257.549 476.475 266.346 479.407 274.643 481.124C283.798 483.055 293.025 485.701 302.394 486.488C307.544 486.917 312.622 486.846 317.701 487.704C319.846 488.062 321.921 488.562 324.066 488.848C326.498 489.206 328.858 488.848 331.219 489.349C338.514 490.78 345.953 490.35 353.32 490.35C357.897 490.35 361.76 489.564 366.123 488.205C370.486 486.846 375.421 486.488 379.855 484.986C387.866 482.197 393.731 474.543 398.666 467.892C404.174 460.453 406.748 450.583 406.033 441.285C405.676 436.779 403.888 432.702 402.386 428.482C401.67 426.479 400.955 424.476 399.524 422.76C398.094 421.043 396.091 420.042 394.375 418.54L395.233 421.687C394.804 423.189 394.017 422.116 395.233 422.903C395.519 423.118 396.377 423.118 396.735 423.118C397.808 423.332 398.881 423.547 399.954 423.761C402.672 424.262 405.032 423.761 407.678 423.332C411.111 422.688 414.402 423.332 417.835 423.189C421.268 423.046 424.057 421.973 427.061 420.686C434.5 417.467 442.368 415.536 450.092 413.104C457.817 410.672 464.683 406.738 472.408 404.736C476.056 403.806 482.707 402.018 482.636 397.226C482.636 394.722 480.991 392.004 480.132 389.716C478.845 386.426 478.273 382.921 477.128 379.559C475.269 373.766 471.836 370.046 465.613 369.26C458.389 368.33 452.023 366.113 445.157 363.752C440.723 362.25 436.646 360.391 432.497 358.173C429.136 356.457 425.631 355.312 422.269 353.667C418.908 352.022 416.118 349.805 413.186 347.588C410.253 345.371 406.534 344.155 403.816 341.723C400.74 338.933 396.163 343.511 399.238 346.3V346.586Z" fill="#231815"/>
<path d="M467.614 369.111C472.049 364.534 476.412 362.817 482.849 363.175C488.643 363.461 497.082 366.965 500.73 371.686C505.665 377.909 506.452 387.35 503.949 394.574C501.588 401.512 497.154 405.016 490.574 407.448C480.417 411.168 463.466 405.088 459.461 394.574C456.314 386.349 459.175 376.478 465.254 370.327" fill="#C7E6F0"/>
<path d="M469.904 371.402C472.98 368.327 476.413 366.467 480.776 366.396C485.139 366.324 489.287 367.54 493.006 369.614C496.726 371.688 499.515 374.549 500.946 378.698C502.376 382.846 502.591 387.567 501.446 391.858C499.515 399.368 493.006 404.804 485.21 405.305C478.129 405.734 470.262 402.944 465.326 397.795C458.532 390.714 461.25 379.127 467.472 372.618C470.333 369.614 465.827 365.108 462.895 368.041C455.313 375.837 451.808 389.14 457.959 398.796C463.109 406.95 473.552 411.456 482.993 411.742C492.935 412.028 502.591 406.235 506.381 396.936C510.673 386.494 508.456 372.833 499.086 365.895C494.294 362.319 488 360.101 481.992 359.887C475.411 359.744 469.833 362.176 465.183 366.825C462.251 369.757 466.829 374.335 469.761 371.402H469.904Z" fill="#231815"/>
<path d="M390.87 419.896C385.291 416.821 381.142 412.028 374.347 411.599C369.555 411.242 362.975 415.104 360.186 418.68" fill="#C7E6F0"/>
<path d="M392.516 417.109C389.727 415.536 387.223 413.533 384.506 411.888C381.573 410.028 378.354 408.741 374.85 408.455C368.699 407.883 361.618 411.745 357.898 416.466C356.826 417.824 356.54 419.684 357.898 421.043C359.043 422.187 361.332 422.402 362.476 421.043C365.265 417.538 370.415 414.32 374.993 414.964C380.5 415.679 384.649 420.185 389.298 422.76C392.945 424.762 396.164 419.183 392.516 417.181V417.109Z" fill="#231815"/>
<path d="M393.228 316.763C394.373 317.335 395.303 317.836 396.375 318.622C397.52 319.481 398.521 319.981 399.809 320.339C401.096 320.696 402.169 321.126 403.456 321.626C404.601 322.055 406.246 321.912 405.674 323.486C405.244 324.702 404.172 325.918 403.385 326.848C402.312 328.135 401.525 329.565 400.524 330.924C398.807 333.213 397.877 336.003 396.089 338.22C395.088 339.507 381.856 355.028 380.855 356.316C379.567 357.961 378.065 359.32 376.635 360.822C374.489 363.11 372.272 365.256 369.84 367.259C368.481 368.403 367.408 369.691 365.978 370.692C365.334 371.193 364.905 371.908 364.333 372.48C363.474 373.338 362.544 374.197 361.615 375.055C360.47 376.199 359.111 377.129 358.038 378.274C356.751 379.561 355.535 380.92 354.176 382.136C352.674 383.423 350.814 384.353 349.312 385.712C347.31 387.429 345.164 388.859 343.09 390.361C339.585 392.936 336.581 396.369 332.862 398.586C328.713 401.09 325.209 404.666 321.275 407.527C319.701 408.743 317.913 409.887 316.197 410.889C313.836 412.248 311.405 413.32 309.116 414.823C306.326 416.611 303.394 418.113 300.533 419.686C297.243 421.403 293.881 422.976 290.662 424.764C288.517 425.98 286.299 427.125 284.082 428.341C281.293 429.986 278.217 431.059 275.285 432.274C272.996 433.204 270.85 434.563 268.418 435.207C265.772 435.922 263.054 436.637 260.408 437.424C255.329 438.855 250.18 440.142 244.958 441C242.67 441.358 240.381 442.216 238.092 442.574C236.018 442.86 234.087 443.432 232.012 443.647C229.938 443.861 227.864 444.148 225.79 444.362C223.716 444.577 221.856 444.577 219.853 444.72C218.208 444.863 216.42 444.577 214.775 444.434C213.702 444.362 211.843 444.434 210.841 443.861C210.484 442.86 212.987 440.571 213.774 439.785C214.346 439.141 215.133 438.712 215.776 438.139C216.563 437.567 217.135 436.78 217.851 436.137C219.424 434.778 220.998 433.705 222.5 432.203C223.501 431.202 224.788 430.129 225.504 428.913C224.002 428.698 222.786 429.556 221.355 429.771C220.64 429.843 219.996 429.556 219.281 429.628C218.065 429.628 216.921 429.628 215.705 429.628C213.559 429.628 211.485 429.27 209.411 428.77C207.337 428.269 205.048 427.983 202.831 427.625C201.4 427.411 199.683 427.268 198.324 426.767C196.107 425.837 199.111 423.62 199.97 422.547C201.686 420.401 204.404 419.4 206.192 417.254C207.337 415.895 208.982 415.109 210.341 413.964C211.7 412.82 213.202 412.462 214.561 411.532C217.278 409.744 220.426 408.314 223.43 406.812C224.288 406.383 225.218 406.24 226.076 405.81C227.149 405.31 228.079 404.595 229.152 404.094C230.081 403.665 231.083 403.379 232.012 402.949C233.157 402.449 234.516 402.02 235.589 401.447C238.736 399.659 241.954 398.014 245.245 396.441C246.747 395.725 248.32 395.01 249.822 394.367C250.752 394.009 251.467 393.58 252.325 393.079C253.541 392.364 254.9 392.149 256.188 391.506C256.975 391.148 257.547 390.576 258.333 390.218C259.12 389.86 259.979 389.574 260.765 389.145C262.196 388.359 263.555 387.572 265.128 386.928C268.561 385.569 271.995 384.21 275.07 382.207C277.073 380.92 279.29 379.99 281.364 378.846C282.294 378.345 283.295 377.988 284.225 377.415C284.654 377.129 284.797 376.843 285.298 376.629C285.799 376.414 286.299 376.342 286.8 375.985C288.302 375.055 289.876 374.197 291.378 373.338C292.236 372.838 292.951 372.48 293.81 372.051C294.882 371.55 295.741 370.62 296.742 370.12C298.53 369.262 300.461 368.475 302.035 367.402C302.822 366.83 303.68 366.257 304.467 365.757C305.396 365.185 306.398 364.899 307.328 364.326C311.118 362.038 314.838 359.677 318.7 357.531C320.56 356.53 322.491 355.6 324.35 354.742C325.423 354.241 326.568 353.884 327.712 353.455C329.071 352.882 329.5 351.881 330.645 351.094C331.217 350.665 331.86 350.451 332.433 350.021C333.577 349.163 335.008 348.376 336.08 347.447C338.155 345.587 339.442 342.941 341.588 341.152C342.589 340.294 343.733 339.65 344.52 338.578C345.45 337.433 346.237 336.289 347.167 335.216C348.669 333.428 348.883 331.139 350.171 329.279C351.959 326.705 355.249 324.487 357.538 322.342C362.544 317.692 367.623 313.043 372.558 308.18C379.853 310.54 386.362 313.115 393.085 316.62L393.228 316.763Z" fill="#FFF59A" stroke="#040000" stroke-width="6.43719" stroke-linecap="round" stroke-linejoin="round"/>
<path d="M403.242 150.968C404.887 153.757 410.609 148.75 412.683 148.035C418.119 146.033 422.339 144.316 426.988 140.811C431.995 136.949 436.501 135.662 438.933 129.51C441.079 124.075 442.509 118.353 444.226 112.702C447.587 101.902 445.513 89.6714 442.795 79.0143C441.078 72.291 433.926 65.7822 428.633 61.5623C422.911 57.0563 416.975 53.5516 410.251 50.5476C407.39 49.3316 403.957 48.3303 400.81 48.1872C397.377 48.0442 394.159 47.1859 390.725 46.9713C384.074 46.6137 377.708 45.8984 370.913 45.8269C367.337 45.8269 364.619 45.8985 361.186 46.9713C358.539 47.8296 355.392 47.6866 352.889 48.831C346.738 51.5489 341.803 55.1966 337.011 59.9888C329.214 67.7849 326.425 78.2275 321.919 88.0263C316.984 98.7549 314.766 109.126 319.845 120.284C321.275 123.431 322.062 125.577 324.565 127.937C326.139 129.439 329.858 131.656 327.498 134.016C325.638 135.876 318.057 134.446 315.696 134.446C311.762 134.446 307.829 134.446 303.895 134.446C296.456 134.446 289.018 135.662 281.722 137.092C276.358 138.165 270.85 140.954 265.272 140.811C264.342 138.666 266.631 132.801 267.489 130.655C269.277 126.077 270.85 122.072 272.209 117.351C273.568 112.631 275.5 107.696 276.429 102.689C277.502 96.8238 278.647 89.5998 277.931 83.6633C276.93 74.9373 275.213 65.3531 270.779 57.7C266.344 50.0469 259.12 40.8202 250.752 36.4572C246.032 34.0254 241.812 31.6651 236.519 30.8068C231.655 30.02 226.935 29.3048 222.071 29.3764C217.207 29.4479 212.63 29.0903 207.981 29.3764C201.4 29.6624 194.963 30.9499 188.669 32.6665C186.094 33.3817 184.091 34.24 181.588 35.3129C179.299 36.3142 176.796 36.4572 174.507 37.4586C169.501 39.8189 165.638 44.7541 161.776 48.5449C155.196 54.9821 151.047 63.9226 146.756 71.9333C145.683 73.936 144.252 75.7241 143.18 77.7268C141.964 80.0156 141.606 82.3759 140.605 84.6646C138.674 88.8846 136.099 91.9601 134.668 96.4662C132.165 104.191 129.018 112.13 129.089 120.284C129.089 127.937 128.875 136.734 131.95 143.958C135.026 151.182 139.675 159.122 145.54 164.057C148.758 166.775 152.692 168.491 155.982 171.138C158.629 173.283 160.631 176.359 163.349 178.29C164.351 179.005 166.425 179.22 166.354 180.793C166.282 182.939 161.275 184.441 159.988 185.586C158.557 186.873 157.771 188.733 156.34 190.02C154.552 191.665 152.335 193.167 150.403 194.669C142.893 200.82 137.243 208.402 132.594 216.913C128.517 224.423 127.587 232.362 125.227 240.445C124.226 244.021 123.296 248.026 123.153 251.674C123.01 255.751 122.437 259.399 122.008 263.404C121.722 266.122 120.935 268.768 120.792 271.486C120.649 273.274 121.079 275.134 120.936 276.994C120.721 279.068 119.72 280.856 119.577 282.93C119.433 285.648 120.506 288.008 120.864 290.655C121.436 294.374 121.651 298.165 122.867 301.813C123.94 305.174 126.085 307.821 127.945 310.682C130.019 313.829 131.164 317.119 133.81 319.837C136.885 322.984 140.104 325.916 142.965 329.278C148.115 335.429 156.054 341.58 163.349 344.942C166.568 346.444 170.788 347.874 174.364 348.232C179.085 348.661 183.519 349.519 188.24 350.235C191.387 350.735 194.462 350.235 197.681 350.449C199.898 350.592 201.758 351.45 203.904 351.737C206.05 352.023 208.338 351.737 210.484 351.737C214.775 351.737 218.638 351.951 222.786 352.666C225.147 353.024 227.292 352.881 229.652 352.881C233.157 352.881 236.304 353.954 239.737 354.168C248.106 354.669 256.689 354.168 265.129 354.168C269.349 354.168 273.139 353.954 277.216 353.239C281.293 352.523 285.227 353.31 289.232 352.38C293.238 351.45 297.386 351.45 301.391 350.878C305.039 350.378 308.83 350.592 312.549 350.592C316.912 350.592 320.775 350.449 324.994 349.662C327.14 349.305 329.071 349.376 331.217 349.448C334.65 349.448 337.654 348.375 341.016 348.16C348.669 347.731 355.964 348.089 363.403 346.801C370.412 345.585 377.708 345.299 384.646 343.797C392.156 342.152 399.594 340.579 407.104 338.791C415.544 336.716 423.269 332.997 431.852 331.424C436.644 330.565 441.15 330.708 446.014 330.565C450.162 330.422 454.382 329.206 458.459 328.491C461.964 327.847 465.039 326.703 468.401 325.559C470.69 324.772 473.05 324.557 475.339 323.556C478.7 322.125 480.846 319.622 483.564 317.333C487.927 313.614 491.432 308.75 494.007 303.601C495.795 299.953 496.295 295.733 497.511 291.799C498.942 287.15 500.229 283.431 500.158 278.567C500.158 273.99 500.158 269.841 499.299 265.335C498.298 260.328 497.583 256.109 495.723 251.388C494.293 247.74 494.221 244.092 492.218 240.731C491.432 239.372 490.359 238.514 489.5 237.298C487.927 235.009 487.641 233.221 485.137 231.576C482.205 229.645 478.629 227.999 475.41 226.712C469.044 224.209 461.177 220.275 454.167 220.776C445.584 221.348 438.074 226.855 430.35 229.931C428.276 228.357 427.989 220.203 427.56 217.915C426.988 214.911 426.058 211.62 425.772 208.545C425.272 202.394 422.983 197.172 421.338 191.379C420.336 187.731 419.907 184.084 418.405 180.579C417.189 177.718 415.83 175.358 414.901 172.354C413.971 169.349 411.968 166.703 410.752 163.842C409.822 161.553 409.107 159.622 407.462 157.691C406.389 156.404 404.458 155.331 404.529 153.471" fill="#C7E6F0"/>
<path d="M400.952 153.185C403.885 156.475 408.105 154.329 411.18 152.541C415.973 149.68 421.408 148.321 426.129 145.246C430.277 142.528 435.356 139.667 438.646 135.876C442.723 131.298 444.082 124.504 445.727 118.782C447.658 112.13 449.303 105.764 449.16 98.7547C449.017 92.246 447.872 85.7373 446.299 79.4432C443.366 67.8562 432.495 59.3448 422.767 53.3368C417.618 50.1182 411.824 46.8996 405.816 45.6121C399.093 44.1101 391.869 43.824 385.003 43.3233C372.2 42.3935 358.467 41.6783 346.88 48.2585C335.293 54.8388 328.641 64.0654 323.706 75.5808C318.771 87.0963 312.191 99.3269 314.193 112.487C315.195 118.782 317.913 126.005 322.633 130.44C322.919 130.726 323.349 131.227 323.706 131.37C324.064 132.157 324.493 132.3 324.994 131.727C325.637 131.37 325.709 131.298 325.137 131.513C323.992 131.656 322.919 131.656 321.775 131.584C319.415 131.513 317.126 131.155 314.837 131.084C306.612 130.941 298.387 131.084 290.161 132.228C286.084 132.8 281.864 133.516 277.859 134.588C273.639 135.733 269.634 137.378 265.271 137.521L268.346 139.881C267.703 137.378 269.705 133.73 270.564 131.441C272.28 127.007 273.925 122.644 275.284 118.138C278.002 109.34 280.434 100.829 281.149 91.6023C282.437 74.7941 276.572 57.7713 265.843 44.9684C260.407 38.4597 253.827 33.8822 246.174 30.449C238.521 27.0158 229.008 26.1575 220.282 26.0145C210.269 25.8714 200.684 26.086 190.957 28.5178C186.665 29.5907 182.803 31.5219 178.655 32.7378C174.506 33.9537 171.073 35.2411 167.64 38.1021C161.417 43.3234 155.695 49.7605 151.476 56.6269C149.258 60.2031 147.327 63.9224 145.396 67.6416C143.465 71.3609 140.961 74.4364 139.459 78.0842C136.026 86.5956 131.735 94.4633 128.945 103.261C126.156 112.058 125.512 120.641 126.013 129.868C126.871 146.318 135.669 161.839 149.687 170.565C153.264 172.782 155.839 175.572 158.843 178.504C159.272 178.934 161.775 181.651 162.776 181.508C163.778 181.365 162.991 180.507 162.347 180.435C161.918 180.364 160.273 181.508 159.844 181.794C156.84 183.511 155.409 186.444 152.906 188.661C149.544 191.593 145.968 194.025 142.821 197.244C137.028 203.252 131.806 210.476 128.373 218.129C124.94 225.782 122.937 235.08 121.078 243.52C120.076 247.883 120.005 252.318 119.576 256.752C119.075 261.687 117.788 266.622 117.573 271.558C117.501 273.918 117.859 276.064 117.358 278.424C116.858 280.57 116.286 282.358 116.429 284.575C116.643 288.938 118.002 293.587 118.717 297.95C119.433 302.313 120.792 305.746 123.152 309.322C125.512 312.899 127.3 316.618 129.732 319.908C132.164 323.198 135.597 326.059 138.53 329.135C141.677 332.496 144.681 336.001 148.257 339.005C154.766 344.369 162.347 349.161 170.716 350.95C174.864 351.879 179.227 352.094 183.447 352.809C188.096 353.596 192.531 353.381 197.18 353.811C201.328 354.24 204.833 355.169 209.053 355.026C213.63 354.883 218.136 355.384 222.714 355.885C227.577 356.457 232.441 356.457 237.305 357.172C242.168 357.887 246.746 357.673 251.467 357.601C256.187 357.53 260.979 357.387 265.771 357.387C270.564 357.387 275.57 356.457 280.505 356.171C289.589 355.742 298.53 353.739 307.613 353.811C312.334 353.811 317.054 353.954 321.703 353.453C326.066 352.952 330.429 353.095 334.721 352.452C343.948 351.093 353.246 351.593 362.472 350.234C381.999 347.373 401.31 344.512 420.121 338.075C424.556 336.573 429.061 335.071 433.711 334.427C438.789 333.712 443.939 334.213 449.017 333.569C457.6 332.568 465.754 329.778 473.979 327.347C480.988 325.272 487.211 318.907 491.574 313.256C497.153 306.032 498.798 298.236 501.373 289.725C503.948 281.213 503.733 272.273 502.016 263.69C501.158 259.184 500.085 254.892 498.583 250.529C497.081 246.166 496.652 241.589 493.863 237.87C491.86 235.152 490.215 231.79 487.568 229.573C484.278 226.783 479.915 225.138 475.981 223.493C468.4 220.418 460.461 216.484 452.021 217.628C443.581 218.773 436.715 223.565 429.205 226.712L432.352 227.57C430.993 226.14 431.064 222.492 430.85 220.632C430.564 218.343 430.206 216.126 429.705 213.837C428.847 209.761 428.561 205.684 427.559 201.607C426.701 198.031 425.414 194.597 424.412 191.093C423.34 187.23 422.767 183.297 421.265 179.577C419.906 176.287 418.476 172.997 417.117 169.707C415.83 166.631 414.113 163.77 412.754 160.766C411.967 159.05 411.252 157.405 410.036 155.903C409.178 154.83 407.676 153.9 407.39 152.47C406.674 148.393 400.452 150.109 401.167 154.186C401.739 157.405 404.529 158.835 406.031 161.553C407.747 164.629 409.321 168.205 410.823 171.352C412.539 175 414.256 179.005 415.615 182.796C417.117 186.944 417.689 191.379 419.048 195.599C421.408 203.18 422.982 210.976 424.198 218.773C424.913 223.136 424.484 228.714 427.774 232.076C428.489 232.791 429.92 233.364 430.921 232.934C437.859 230.002 444.439 225.424 451.949 224.137C460.246 222.635 469.759 227.57 477.126 230.932C480.917 232.648 483.563 234.222 485.852 237.798C486.853 239.372 488.212 240.731 489.214 242.304C490.644 244.593 490.93 247.382 491.645 249.886C494.22 258.969 496.652 267.338 496.724 276.85C496.724 280.999 496.08 284.718 494.864 288.723C493.505 293.086 492.861 297.807 491.002 301.955C487.926 308.607 482.133 315.545 475.838 319.479C472.548 321.553 468.257 322.125 464.538 323.341C460.461 324.7 456.241 325.558 452.021 326.417C443.652 328.133 435.141 326.989 426.844 329.135C418.047 331.352 409.75 334.785 400.881 336.859C392.012 338.933 382.428 341.151 373.058 342.224C364.404 343.225 356.035 344.441 347.309 344.655C343.375 344.727 339.585 344.942 335.794 345.585C332.003 346.229 327.926 345.943 323.992 346.515C315.195 347.802 306.326 347.159 297.457 348.017C288.588 348.875 280.362 349.877 271.779 350.592C263.197 351.307 253.612 351.236 244.6 351.093C240.595 351.093 236.804 350.449 232.799 349.877C228.436 349.304 223.93 349.448 219.567 348.947C215.847 348.518 212.128 348.375 208.337 348.518C204.046 348.661 200.184 347.23 195.964 347.159C187.81 346.944 178.941 346.372 170.93 344.298C162.49 342.081 154.837 336.788 148.686 330.708C145.897 327.99 143.465 324.915 140.675 322.125C137.457 318.907 134.667 315.974 132.379 311.969C130.447 308.536 127.729 305.46 126.227 301.884C124.439 297.521 124.511 292.729 123.51 288.151C123.009 285.791 122.437 283.931 122.937 281.428C123.295 279.64 123.867 278.066 123.939 276.207C124.01 274.204 123.724 272.273 123.939 270.199C124.225 267.91 124.725 265.621 125.011 263.261C125.512 259.112 125.87 254.892 126.227 250.672C126.585 245.809 128.159 241.231 129.303 236.582C131.377 228.285 133.451 220.704 138.029 213.408C142.607 206.113 148.042 200.176 154.766 195.026C155.982 194.097 157.269 193.238 158.342 192.166C159.629 190.878 160.416 189.018 161.847 187.874C163.778 186.229 166.424 185.871 168.069 183.797C169.428 182.081 169.786 179.792 168.427 177.861C167.855 177.002 167.068 176.573 166.21 176.073C164.207 174.785 162.776 173.498 161.131 171.781C155.91 166.202 148.615 163.484 143.608 157.619C132.522 144.602 129.231 126.149 133.523 109.698C134.596 105.478 136.026 101.258 137.457 97.1812C138.887 93.1043 141.534 89.6711 143.25 85.7373C144.752 82.2326 145.825 79.014 147.828 75.7239C149.973 72.2907 151.762 68.5714 153.693 64.9952C157.77 57.5567 162.705 51.5486 168.641 45.6121C171.574 42.6796 174.506 40.3909 178.583 39.318C182.66 38.2451 186.594 36.2424 190.742 35.098C199.897 32.6662 208.767 32.2371 218.208 32.3801C227.649 32.5232 236.375 32.8808 244.672 36.8861C259.763 44.2532 269.777 58.272 273.067 74.651C276.5 92.1745 271.994 108.768 265.771 125.219C263.912 130.082 260.479 136.162 261.838 141.526C262.195 142.885 263.554 143.958 264.913 143.887C270.921 143.744 276.357 141.312 282.222 140.024C289.231 138.522 296.384 137.521 303.536 137.521C308.471 137.521 313.478 137.306 318.413 137.736C321.918 138.022 326.639 138.808 329.428 136.09C332.218 133.373 331.073 129.868 328.713 127.436C324.564 123.216 321.775 118.925 320.488 112.988C317.698 100.328 325.065 87.3108 330.072 76.0815C334.721 65.639 343.304 54.9103 354.748 51.3341C366.192 47.7579 378.565 48.9738 390.438 49.9751C396.876 50.5473 403.813 51.048 409.75 53.6944C415.687 56.3408 421.051 59.6309 426.058 63.5647C430.063 66.7118 434.14 70.288 437.001 74.508C440.577 79.8723 441.507 87.5969 442.151 93.9626C442.866 101.187 442.007 107.695 439.933 114.633C438.217 120.498 437.072 128.58 432.209 132.729C427.989 136.377 422.624 139.881 417.546 142.242C414.9 143.457 412.11 144.173 409.535 145.603C408.749 146.032 407.962 146.604 407.175 147.034C406.603 147.391 406.031 147.677 405.458 147.963C404.314 148.178 404.243 148.321 405.244 148.393C402.454 145.317 397.948 149.823 400.666 152.97L400.952 153.185Z" fill="#231815"/>
<path d="M481.132 207.614C486.497 213.05 489.858 221.418 487.069 228.857C485.567 232.719 484.923 235.58 481.132 238.083C478.486 239.871 474.838 239.943 471.763 239.585C462.322 238.513 452.737 225.066 457.172 215.911C458.674 212.835 462.822 207.9 465.683 206.327C468.687 204.681 480.131 204.968 481.132 208.83" fill="#231815"/>
<path d="M478.915 209.906C481.418 212.481 483.349 215.628 484.351 219.133C485.352 222.638 484.851 225.785 483.564 229.146C482.562 231.793 481.49 234.511 478.7 235.798C475.911 237.086 472.263 236.799 469.617 235.798C464.61 233.795 460.461 228.36 459.46 222.995C458.459 217.631 462.607 212.267 467.042 209.263C467.185 209.119 467.971 208.833 467.113 209.191C467.328 209.119 467.542 209.048 467.828 208.976C468.115 208.905 468.401 208.833 468.615 208.833C469.545 208.619 467.971 208.833 468.973 208.833C470.403 208.69 471.834 208.69 473.264 208.833C474.48 208.905 475.553 209.119 476.912 209.477C476.912 209.477 477.913 209.906 477.27 209.62C477.556 209.763 477.842 209.906 478.128 210.121C478.343 210.264 477.913 209.62 478.128 210.121C478.486 210.908 477.699 209.048 477.985 209.835C479.201 213.769 485.423 212.123 484.207 208.118C483.206 204.828 479.773 203.326 476.626 202.754C473.336 202.182 469.76 202.039 466.469 202.754C462.893 203.541 460.032 206.545 457.815 209.334C455.097 212.696 452.951 216.272 452.808 220.706C452.522 228.789 458.173 237.014 465.039 240.876C472.835 245.168 483.993 243.666 488.07 235.083C490.359 230.219 491.789 225.212 490.931 219.848C490.072 214.484 487.14 209.406 483.349 205.543C480.488 202.539 475.911 207.117 478.772 210.121L478.915 209.906Z" fill="#231815"/>
<path d="M337.008 199.459C335.149 197.313 333.718 194.023 331.215 192.02C329.427 190.59 327.424 189.445 325.278 188.516C320.844 186.584 313.763 184.367 310.044 188.873C308.899 190.232 308.756 192.092 310.044 193.451C311.188 194.595 313.477 194.81 314.621 193.451C314.764 193.308 314.907 193.165 315.05 193.022C315.336 192.807 315.265 192.807 314.907 193.165L315.05 193.022C315.265 193.022 315.551 192.879 315.766 192.807C316.481 192.592 315.551 192.807 315.766 192.807C315.98 192.807 316.266 192.807 316.481 192.807C316.695 192.807 316.981 192.807 317.196 192.807C317.268 192.807 318.126 192.879 317.625 192.807C317.124 192.735 317.983 192.807 318.054 192.879C318.34 192.879 318.627 193.022 318.984 193.093C319.485 193.236 320.057 193.379 320.558 193.522C321.058 193.665 321.631 193.88 322.131 194.094C322.775 194.381 321.702 193.88 322.346 194.166C322.56 194.309 322.846 194.381 323.061 194.524C323.991 194.953 324.849 195.453 325.707 195.954C326.065 196.169 326.423 196.383 326.78 196.669C326.923 196.741 327.138 196.884 327.209 197.027C326.637 196.383 326.852 196.741 327.066 196.955C328.211 198.1 328.711 198.672 329.498 199.959C330.428 201.39 331.358 202.82 332.502 204.108C333.647 205.395 335.864 205.252 337.08 204.108C338.367 202.82 338.224 200.889 337.08 199.53L337.008 199.459Z" fill="#231815"/>
<path d="M289.731 193.523C287.371 190.948 284.152 191.02 281.076 191.95C278.144 192.879 275.068 193.094 272.279 194.31C269.49 195.526 267.129 197.242 265.127 199.388C263.124 201.534 262.194 204.538 260.406 206.469C259.261 207.757 259.118 209.759 260.406 211.047C261.622 212.263 263.768 212.334 264.983 211.047C266.7 209.115 267.63 206.827 269.06 204.681C270.205 202.964 271.993 201.534 273.924 200.604C276.141 199.46 278.788 199.245 281.291 198.601C282.221 198.387 283.151 197.958 284.152 197.743C284.152 197.743 285.01 197.529 284.724 197.6C284.581 197.6 284.581 197.6 284.724 197.6C284.939 197.6 284.939 197.6 284.653 197.6C284.796 197.6 285.153 197.743 284.796 197.6C285.225 197.815 284.867 197.6 285.225 198.029C286.369 199.317 288.586 199.245 289.802 198.029C291.09 196.742 290.947 194.811 289.802 193.452L289.731 193.523Z" fill="#231815"/>
<path d="M298.531 315.474C297.029 322.269 290.234 327.275 283.224 325.916C280.292 325.344 278.289 324.057 276.358 321.911C275.571 321.053 274.856 320.194 274.284 319.193C273.998 318.764 273.783 318.12 273.497 317.691C272.853 316.904 273.926 316.618 272.996 317.691L267.632 314.544C266.345 320.767 256.546 325.773 250.824 322.912C246.032 320.552 242.312 311.111 246.032 306.676C248.678 303.529 244.172 298.952 241.454 302.099C238.021 306.176 237.306 311.469 238.951 316.475C240.453 321.053 243.099 326.059 247.534 328.42C256.617 333.283 271.637 326.489 273.783 316.189C274.355 313.328 270.636 310.396 268.419 313.042C262.697 319.837 273.64 329.35 279.577 331.424C290.234 335.072 302.393 327.991 304.753 317.047C305.611 313.042 299.46 311.254 298.531 315.331V315.474Z" fill="#231815"/>
<path d="M57.7087 243.589C51.4861 246.307 45.0488 257.25 43.4753 263.544C41.1865 272.699 44.3337 281.497 42.1879 290.652C40.7574 296.803 41.6872 304.456 44.3336 310.464C47.123 316.973 50.5562 315.256 55.5629 317.831C59.0676 319.619 57.351 319.047 58.9961 323.267C61.0703 328.846 65.7909 334.997 69.5102 339.646C76.0904 347.943 83.672 341.434 91.9688 344.581C95.1159 345.797 99.0497 350.732 102.34 352.306C108.133 355.167 109.206 355.524 112.21 361.962C113.855 365.466 112.997 369.615 114.499 372.976C115.572 375.408 117.646 377.196 118.576 379.986C120.364 385.35 120.507 392.002 125.156 395.936C127.731 398.153 131.379 400.299 134.74 400.799C137.315 401.157 139.819 400.37 142.179 399.727C146.041 398.654 151.906 398.01 155.268 396.007C159.13 393.647 162.063 384.849 161.204 380.272C160.704 377.84 158.916 375.265 157.628 373.263C153.623 366.968 146.9 364.465 142.179 359.244C140.105 356.883 139.175 352.807 137.673 350.017C136.171 347.228 134.383 344.295 132.666 341.434C129.519 336.356 127.516 330.562 125.514 324.984C124.012 320.835 121.794 317.259 122.581 312.681C123.44 307.46 126.372 302.954 126.587 297.447C126.944 288.22 130.091 277.992 126.229 269.123C123.153 262.114 119.22 253.96 114.07 248.381C111.066 245.162 107.347 242.23 105.129 238.296C101.338 231.573 101.768 228.497 92.7556 228.998C83.1713 229.57 66.3631 239.154 57.7802 243.517L57.7087 243.589Z" fill="#E6BA62" stroke="#040000" stroke-width="6.43719" stroke-linecap="round" stroke-linejoin="round"/>
<path d="M63.4297 287.293C64.8602 282.715 69.5807 279.783 72.6563 276.493C74.5159 274.49 75.3742 272.988 76.4471 269.841C77.7345 266.05 77.4484 264.191 77.3053 260.9" fill="#E6BA62"/>
<path d="M63.4297 287.293C64.8602 282.715 69.5807 279.783 72.6563 276.493C74.5159 274.49 75.3742 272.988 76.4471 269.841C77.7345 266.05 77.4484 264.191 77.3053 260.9" stroke="#040000" stroke-width="6.43719" stroke-linecap="round" stroke-linejoin="round"/>
<path d="M94.6875 277.637C97.1909 279.496 99.9803 280.14 103.199 279.925Z" fill="#E6BA62"/>
<path d="M94.6875 277.637C97.1909 279.496 99.9803 280.14 103.199 279.925" stroke="#040000" stroke-width="6.43719" stroke-linecap="round" stroke-linejoin="round"/>
<path d="M89.6805 303.096C91.4686 306.815 93.9004 312.322 92.3983 315.899C91.4685 318.187 88.9652 320.19 87.9639 322.693" stroke="#040000" stroke-width="6.43719" stroke-linecap="round" stroke-linejoin="round"/>
<path d="M129.806 336.073C134.67 336.788 140.678 339.649 144.04 343.082C146.4 345.442 147.044 349.734 148.403 352.666C149.833 355.813 149.905 357.601 149.905 361.106C149.905 364.611 150.405 367.329 148.76 370.261C146.972 373.408 144.612 374.839 141.608 376.77C135.6 380.632 129.163 383.207 122.153 383.207C119.435 383.207 116.789 383.708 114.429 382.134C113.141 381.276 112.283 379.774 110.996 378.773C109.35 377.557 107.705 376.627 106.203 374.982C101.268 369.546 97.549 362.251 97.9066 354.884C98.2642 348.017 103.986 343.01 109.422 339.506C116.217 335.143 122.01 334.785 129.806 334.785" fill="#C7E6F0"/>
<path d="M128.947 339.145C133.382 339.86 137.959 341.72 141.249 344.795C142.608 346.083 143.252 347.728 143.896 349.516C144.611 351.59 145.541 353.593 146.185 355.667C146.757 357.455 146.685 359.243 146.757 361.103C146.757 363.32 147.186 365.823 146.399 367.969C144.897 371.903 139.747 374.406 136.243 376.266C131.88 378.626 127.159 379.914 122.224 380.057C120.293 380.057 117.861 380.557 116.144 379.413C115.286 378.841 114.642 377.768 113.927 377.053C112.926 376.123 111.638 375.336 110.566 374.549C103.842 369.471 98.1203 357.598 103.055 349.802C105.63 345.725 110.279 342.435 114.642 340.432C119.435 338.215 124.727 338.072 129.949 338.072C134.097 338.072 134.097 331.635 129.949 331.635C124.012 331.635 118.076 331.992 112.497 334.353C107.49 336.498 102.555 340.003 99.1216 344.295C91.0394 354.379 95.6885 367.898 103.485 376.695C105.416 378.841 107.991 380.2 109.993 382.202C112.282 384.491 114.142 386.065 117.503 386.422C123.583 387.066 130.092 385.993 135.671 383.633C140.606 381.559 146.328 378.626 149.832 374.478C153.766 369.829 153.552 364.107 153.194 358.385C153.051 355.381 152.05 353.021 151.048 350.231C150.047 347.442 149.332 344.581 147.615 342.22C144.039 337.142 136.743 333.924 130.807 332.994C126.73 332.35 125.013 338.573 129.09 339.216L128.947 339.145Z" fill="#231815"/>
<path d="M253.613 101.402C253.613 101.402 246.389 93.4627 241.597 73.722C240.453 70.0743 236.018 55.9125 240.668 53.123C248.106 56.4847 254.615 61.7059 261.982 65.3537C264.843 66.7126 269.635 70.8611 272.782 69.5021C276.501 67.857 279.577 62.6357 282.795 60.1324C287.373 56.6277 292.451 53.7667 296.814 49.9759C299.961 47.258 303.251 44.8977 306.398 42.2513C307.614 41.2499 308.759 40.0341 310.261 39.3188C311.119 38.8897 317.485 46.2566 318.2 47.1149C322.992 52.4793 327.713 57.8436 332.362 63.351C334.221 65.5682 336.224 67.7855 337.726 70.3604C338.584 71.7908 339.443 74.1512 341.445 74.3658C343.162 74.5803 345.522 71.7193 347.31 70.718C349.384 69.5021 351.673 68.5007 353.533 66.9272C357.896 63.2795 362.473 59.9894 367.194 56.7708C373.631 58.9165 369.769 82.448 367.123 87.5262C363.832 93.7488 359.684 99.0417 357.181 105.836C336.439 107.41 315.697 109.341 294.883 107.768C285.299 107.052 274.355 106.695 264.986 104.549C262.84 104.048 253.47 101.545 253.47 101.545L253.613 101.402Z" fill="#FFF59A" stroke="#040000" stroke-width="6.43719" stroke-linecap="round" stroke-linejoin="round"/>
</svg>
