<svg width="436" height="86" viewBox="0 0 436 86" fill="none" xmlns="http://www.w3.org/2000/svg">
<path d="M250.749 5.28613C234.178 4.7147 215.963 2.14327 199.535 4.00042C188.32 5.28613 176.821 5.00041 165.535 5.35755C127.249 7.50041 88.6776 1.42897 50.2491 3.28611C33.1062 4.07183 8.53477 10.3576 3.96334 32.3576C-0.679518 55.1433 10.7491 67.429 29.0348 72.7861C45.6776 77.7147 61.5348 81.929 78.8205 82.7147C99.3919 83.6433 120.32 81.7861 140.892 80.929C186.178 78.929 231.249 79.5004 276.606 77.929C302.249 77.0004 327.892 77.1433 353.535 76.429C361.392 76.2147 369.178 77.5719 377.035 78.2861C384.892 79.0004 392.892 77.6433 400.82 78.2147C412.749 79.0718 429.963 75.3576 432.249 58.7861C433.892 46.8575 427.678 26.429 418.392 19.5004C407.178 11.2147 390.463 8.35754 377.463 6.71468C357.749 4.28611 338.035 4.78611 318.249 5.57183C306.821 6.0004 295.535 4.5004 284.035 4.92897C272.535 5.35754 261.963 5.71469 250.892 5.35755L250.749 5.28613Z" fill="white" stroke="#040000" stroke-width="5.85714" stroke-linecap="round" stroke-linejoin="round"/>
<path d="M42.1762 25.9883L44.2476 26.4883C44.2476 27.6311 44.1048 28.4168 43.8191 28.9883L44.6762 38.9883C44.1048 43.3454 43.3905 45.4883 42.6048 45.4883C39.9619 46.4883 36.8191 47.274 33.0333 47.9882C32.4619 47.5597 31.8191 42.774 30.9619 33.4882C31.2476 30.1311 31.6762 28.4883 32.2476 28.4883H33.5333C33.5333 29.6311 33.6762 30.4168 33.9619 30.9883C33.6762 31.6311 33.5333 32.1311 33.5333 32.4883C33.6762 35.4883 33.9619 36.9882 34.3905 36.9882C39.3905 36.9882 41.8905 36.4882 41.8905 35.4882C41.8905 34.9882 41.7476 32.6311 41.4619 28.4883C42.0333 27.4168 42.3191 26.5597 42.3191 25.9883H42.1762ZM34.2476 40.9883L34.6762 43.4883H35.1048C39.5333 43.4883 41.7476 42.4883 41.7476 40.4883V39.4883C40.6762 39.4883 38.1762 39.9883 34.2476 40.9883ZM52.9619 26.9883H54.2476C54.8191 31.6311 55.3905 39.3454 55.8905 49.9882L54.2476 51.4883H53.8191C52.9619 49.5597 52.5333 48.0597 52.5333 46.9882C52.5333 46.6311 52.6762 46.1311 52.9619 45.4883L52.1048 39.9883L52.5333 38.9883C52.2476 38.3454 52.1048 37.8454 52.1048 37.4882H52.5333L52.1048 36.4882C52.1048 36.4882 52.2476 35.9882 52.5333 35.9882L52.1048 34.9882V34.4882C52.1048 34.4882 52.2476 33.9882 52.5333 33.9882C52.3191 33.1311 52.0333 31.1311 51.6762 27.9883L52.8905 26.9883H52.9619Z" fill="black"/>
<path d="M71.8206 45.9941C73.7492 46.3513 74.7492 46.8512 74.7492 47.4941V49.4941L61.392 50.9941H59.3206C58.6777 50.3513 58.1063 49.9941 57.6777 49.9941C58.2492 48.9227 58.5349 48.0655 58.5349 47.4941H60.6063C62.3206 47.4941 66.0349 46.9941 71.892 45.9941H71.8206ZM58.9635 26.9941H59.8206L61.1063 27.9941L60.6777 30.4941C61.2492 34.2084 61.5349 36.2084 61.5349 36.4941C63.392 36.4941 68.0349 36.137 75.3206 35.4941V38.4941C74.7492 38.4941 74.4635 38.8513 74.4635 39.4941H74.0349C74.0349 39.4941 73.6063 39.3513 73.6063 38.9941C70.7492 39.637 66.1063 40.137 59.8206 40.4941C58.6777 35.4227 58.1777 31.9227 58.1777 29.9941V27.9941C58.2492 27.3513 58.5349 26.9941 59.0349 26.9941H58.9635ZM64.3206 51.9941H65.1777C65.6777 51.9941 66.1777 54.3513 66.8206 58.9941C71.2492 57.9941 73.892 57.4941 74.7492 57.4941L76.8206 57.9941V59.9941C76.8206 60.4941 76.392 60.9941 75.5349 61.4941H74.6777C74.6777 61.4941 74.2492 61.3512 74.2492 60.9941C68.5349 62.9941 65.1777 63.9941 64.2492 63.9941C63.7492 63.5656 63.3206 59.9227 62.9634 52.9941L64.2492 51.9941H64.3206Z" fill="black"/>
<path d="M97.4629 22.4941C99.9629 23.5656 101.249 25.2085 101.249 27.4942C101.249 30.2085 99.6057 32.0656 96.2486 32.9941H94.6057C91.82 32.5656 90.4629 31.4227 90.4629 29.4942V27.9942C90.4629 24.3513 92.82 22.4941 97.5343 22.4941H97.4629ZM92.8914 27.9942C92.8914 28.9227 93.82 29.7799 95.82 30.4942C97.7486 29.7084 98.7486 29.0656 98.7486 28.4942C98.3915 26.8513 97.9629 25.9942 97.4629 25.9942H95.82C94.6772 25.9942 93.6772 26.637 92.8914 27.9942ZM106.677 39.9942C108.034 42.2085 108.749 45.0656 108.749 48.4941C108.749 50.4227 106.249 51.5656 101.249 51.9942C101.249 52.3513 100.963 52.4942 100.391 52.4942V54.9942L100.82 55.9942C103.391 55.5656 105.106 55.2799 105.82 54.9942C106.106 54.9942 106.249 55.137 106.249 55.4942L108.32 54.9942C109.82 55.3513 110.606 55.4942 110.82 55.4942V57.4941C110.82 58.0656 109.963 58.7084 108.32 59.4941L106.677 58.9941C105.606 58.9941 103.534 59.3513 100.391 59.9941V59.4941L99.5343 59.9941C98.1057 59.137 97.4629 57.8513 97.4629 55.9942V53.9942C97.4629 49.9942 100.249 47.9941 105.82 47.9941V47.4941C105.82 45.137 105.534 43.9942 104.963 43.9942L98.32 44.9941C98.32 44.9941 98.1772 44.4941 97.8914 44.4941C97.8914 45.137 97.7486 45.4941 97.4629 45.4941C94.9629 44.7799 93.7486 43.9227 93.7486 42.9942V42.4942C93.7486 41.8513 94.1772 41.4942 95.0343 41.4942C98.4629 41.8513 100.463 41.9942 100.82 41.9942C103.32 40.637 105.249 39.9942 106.677 39.9942ZM108.32 20.9941H109.177C109.82 20.9941 110.463 24.9941 111.249 32.9941C110.677 32.9941 110.391 33.4941 110.391 34.4941H108.749L107.106 24.9941H107.534L107.106 23.9941C107.391 21.9941 107.82 20.9941 108.391 20.9941H108.32Z" fill="black"/>
<path d="M114.676 25.916C115.605 26.5589 116.462 26.916 117.176 26.916H118.033C124.319 26.2732 127.604 25.916 128.033 25.916H128.89C129.747 25.916 130.176 26.5589 130.176 27.916L126.819 42.916C127.104 43.4874 127.247 44.1303 127.247 44.916C126.462 46.6303 125.89 47.416 125.604 47.416C124.462 46.916 123.962 46.416 123.962 45.916V45.416C123.962 44.0588 124.89 38.5588 126.89 28.8446H126.462C121.676 29.4874 118.89 30.0588 118.104 30.3446C114.747 29.7017 113.104 28.916 113.104 27.8446V27.3446C113.104 26.8446 113.676 26.3446 114.747 25.8446L114.676 25.916ZM137.247 25.416H138.89C139.747 25.416 140.319 32.2731 140.533 45.9874C140.819 45.9874 140.962 46.9874 140.962 48.9874C140.39 48.9874 140.104 49.4875 140.104 50.4875C138.676 50.4875 138.033 48.4874 138.033 44.4874C137.176 34.2731 136.747 28.5589 136.747 27.416C137.033 26.8446 137.176 26.2017 137.176 25.416H137.247Z" fill="black"/>
<path d="M162.887 29.4902C164.816 30.2045 165.816 32.9188 165.816 37.4902C165.387 42.4902 163.887 44.9902 161.244 44.9902C158.173 44.9902 155.959 43.1331 154.602 39.4902L155.459 34.4902C155.459 34.4902 155.03 34.3473 155.03 33.9902C157.102 32.1331 158.816 30.6331 160.03 29.4902H162.959H162.887ZM157.53 36.4902V38.9902C157.53 39.4902 158.387 40.3474 160.03 41.4902H160.459C162.387 41.4902 163.316 40.133 163.316 37.4902V36.9902C163.316 36.2045 163.03 34.7045 162.53 32.4902C159.744 32.9902 158.316 34.3473 158.316 36.4902H157.459H157.53ZM176.673 26.4902H177.53C177.959 26.4902 178.387 26.9902 178.816 27.9902V38.4902L179.244 44.4902C178.673 44.4902 178.387 44.8473 178.387 45.4902H177.173C176.316 45.1331 175.887 44.1331 175.887 42.4902V40.4902H175.459C172.959 41.4902 170.887 41.9902 169.173 41.9902L168.316 40.4902C168.316 38.9902 170.816 37.8473 175.816 36.9902V33.4902L171.602 33.9902H167.887V31.9902C167.887 31.2759 170.673 30.4188 176.244 29.4902L176.673 26.4902ZM182.887 27.4902H183.316C184.459 27.9188 184.959 29.4188 184.959 31.9902V42.9902L184.53 45.4902C182.887 45.4902 182.03 44.4902 182.03 42.4902V34.9902C182.03 33.6331 181.887 31.7759 181.602 29.4902C182.03 28.1331 182.459 27.4902 182.887 27.4902Z" fill="black"/>
<path d="M198.817 22.9902C198.817 23.9902 199.245 24.4902 200.102 24.4902V25.4903C200.102 26.9188 200.817 32.276 202.174 41.4903C202.174 42.7045 199.102 43.5617 193.031 43.9903C193.031 44.6331 192.031 44.9902 190.102 44.9902H188.817C187.459 38.8474 186.745 33.9903 186.745 30.4903C187.031 29.8474 187.174 29.3474 187.174 28.9903H188.817V29.4903C189.102 32.4188 189.245 34.276 189.245 34.9902H189.674C191.531 34.9902 194.317 34.1331 198.031 32.4902C197.459 27.9902 197.174 25.2045 197.174 23.9902V23.4902C197.174 23.4902 197.888 23.3474 198.817 22.9902ZM194.674 44.9902H196.317C196.959 50.6331 197.531 53.4903 197.959 53.4903C198.459 53.8474 198.888 53.9903 199.245 53.9903C200.102 53.6331 202.102 53.4903 205.031 53.4903C205.317 54.0617 205.459 54.7045 205.459 55.4903V55.9903C205.459 56.4903 205.031 56.9902 204.245 57.4902H203.817C201.531 57.4902 197.317 57.8474 191.317 58.4902C190.174 58.1331 189.674 57.4903 189.674 56.4903C189.674 55.1331 191.459 54.3474 195.102 53.9903C194.531 50.4903 194.174 48.3474 193.817 47.4902C194.388 46.4188 194.674 45.5617 194.674 44.9902ZM190.102 38.9903V41.4903C193.031 40.4903 195.245 39.9903 196.745 39.9903H198.817V39.4903C198.817 37.1331 198.531 35.9902 197.959 35.9902L190.031 38.9903H190.102Z" fill="black"/>
<path d="M226.888 30.9922H228.531C228.531 33.7065 228.817 40.5636 229.388 51.4922C229.102 52.1351 228.959 52.6351 228.959 52.9922H228.102C227.031 52.9922 226.245 48.8493 225.602 40.4922H225.174C221.388 40.8493 219.031 40.9922 218.102 40.9922C218.102 40.6351 217.959 40.4922 217.674 40.4922C216.745 44.1351 215.102 45.9922 212.674 45.9922C209.102 45.0636 207.245 43.0636 207.245 39.9922C207.245 34.7779 208.745 31.9922 211.817 31.4922C215.674 31.4922 217.602 33.3493 217.602 36.9922H218.888C220.388 36.9922 222.745 37.135 225.959 37.4922V35.4922L225.531 31.9922L226.817 30.9922H226.888ZM211.459 34.4922C211.459 34.9207 210.888 36.1351 209.817 37.9922V38.9922C209.817 40.4922 210.674 41.8493 212.317 42.9922C214.245 42.9922 215.388 41.4922 215.602 38.4922C215.602 36.3493 214.388 35.135 211.888 34.9922C211.888 34.635 211.745 34.4922 211.459 34.4922ZM233.102 29.9922H233.959C235.174 29.9922 236.317 36.635 237.317 49.9922L236.031 50.9922C234.531 50.9922 233.317 44.135 232.317 30.4922L233.174 29.9922H233.102Z" fill="black"/>
<path d="M255.464 26.4961H257.536C259.107 27.5676 260.25 28.7104 260.821 29.9961V32.9961C259.964 37.3533 258.107 39.4961 255.393 39.4961C252.821 39.4961 251.321 37.139 250.821 32.4961V31.4961C251.393 29.9247 252.893 28.2819 255.393 26.4961H255.464ZM253.75 35.4961L255.821 35.9961H256.678C258.036 34.9961 258.75 33.639 258.75 31.9961C258.678 31.139 257.964 30.2818 256.678 29.4961C255.107 29.4961 254.107 31.4961 253.75 35.4961ZM262.536 43.9961C265.036 43.9961 266.321 47.139 266.321 53.4961C266.321 58.139 265.036 60.4961 262.536 60.4961C261.536 60.8532 260.25 60.9961 258.821 60.9961C256.321 60.9961 255.036 57.639 255.036 50.9961V46.9961H256.678C257.321 46.9961 257.75 48.639 257.893 51.9961H262.893L262.464 45.9961V43.9961H262.536ZM258.393 56.4961V56.9961H262.107C262.678 56.9961 262.964 56.639 262.964 55.9961V54.4961H262.536C259.75 55.139 258.393 55.8533 258.393 56.4961ZM271.678 24.4961H272.107L274.178 24.9961V25.4961C274.178 31.7104 274.607 35.7104 275.464 37.4961L275.036 38.4961V39.9961L273.75 40.9961C272.536 40.9961 271.536 38.139 270.821 32.4961H269.964C269.393 32.4961 267.464 32.8533 264.107 33.4961C263.036 33.139 262.464 32.139 262.464 30.4961C264.536 29.8533 266.536 29.4961 268.321 29.4961H271.25C271.25 28.139 271.393 27.4961 271.678 27.4961C271.393 26.8533 271.25 26.3533 271.25 25.9961C271.536 25.3533 271.678 24.8532 271.678 24.4961ZM270.821 43.9961L272.893 44.4961V48.9961C277.036 51.9961 279.178 54.4961 279.178 56.4961L277.107 56.9961H276.678C274.036 54.3533 272.107 52.9961 270.821 52.9961C270.678 55.9961 270.25 57.4961 269.607 57.4961H269.178L267.107 56.9961C267.25 54.9961 268.464 50.639 270.821 43.9961Z" fill="black"/>
<path d="M286.39 22.998H286.819C289.319 22.998 290.962 24.3552 291.819 26.9981C291.105 32.3552 289.462 34.998 286.819 34.998H285.533C282.462 34.498 280.962 33.6409 280.962 32.4981V30.9981C280.962 28.2838 282.748 25.6409 286.39 22.998ZM286.819 25.4981C284.748 28.4981 283.676 30.4981 283.462 31.4981C284.819 31.4981 285.533 31.8552 285.533 32.4981C287.462 32.4981 288.819 31.3552 289.676 28.9981V28.4981C289.676 27.9266 288.748 26.9267 286.819 25.4981ZM289.319 44.4981H290.605V44.9981C290.605 46.2123 290.033 47.7123 288.962 49.498C288.962 49.9266 291.033 51.7838 295.248 54.9981C297.819 48.0695 299.319 44.5695 299.819 44.4981H300.248C300.819 44.4981 301.105 44.9981 301.105 45.9981L299.89 50.4981C304.319 53.8552 306.533 56.2123 306.533 57.4981V57.9981C306.533 58.6409 306.248 58.998 305.676 58.998H305.248C303.89 58.998 301.676 57.3552 298.605 53.9981C298.105 53.9981 297.39 55.4981 296.533 58.4981C296.819 58.4981 296.962 58.6409 296.962 58.998C296.533 58.998 295.962 59.498 295.319 60.498H294.462V57.4981L294.89 56.4981C292.819 56.4981 290.462 55.4981 287.819 53.4981H287.39C287.39 55.1409 287.105 55.9981 286.533 55.9981L286.962 56.9981C286.39 58.4981 285.89 59.3552 285.319 59.498H284.462C283.89 59.498 283.605 59.1409 283.605 58.4981C284.89 53.4981 286.819 48.7838 289.39 44.4981H289.319ZM303.462 21.998H304.748C305.033 24.9266 305.176 26.5695 305.176 26.9981L304.748 27.9981L305.962 35.998C305.533 37.6409 304.676 38.4981 303.462 38.4981C302.962 37.7838 302.605 35.2838 302.176 30.9981H294.676C294.248 30.9981 293.819 30.4981 293.39 29.4981C293.676 28.1409 294.39 27.4981 295.462 27.4981V27.9981L296.319 27.4981H298.819C298.819 27.4981 299.248 27.6409 299.248 27.9981L300.105 27.4981H302.176C302.176 23.8552 302.605 21.998 303.462 21.998Z" fill="black"/>
<path d="M314.887 25.5H316.959C319.387 25.5 321.03 27.6428 321.959 32V34.5C320.244 37.8571 317.53 39.5 313.601 39.5H313.173C313.173 39.5 312.744 39.3571 312.744 39L311.887 39.5C310.387 39 309.173 37.7142 308.173 35.5C308.173 32.2142 309.244 29.5 311.53 27.5C312.459 26.1428 313.601 25.5 314.887 25.5ZM326.53 52.5C326.53 53.5 326.673 54 326.959 54C326.53 55.3571 326.101 56 325.744 56C323.887 56 320.101 56.3571 314.459 57C313.887 56.6428 313.53 56.5 313.173 56.5L312.316 57C309.53 57 308.173 56.3571 308.173 55C308.601 53.6428 309.03 53 309.459 53H310.316C310.316 53 310.744 53.1428 310.744 53.5L311.601 53H319.53C321.03 53 323.387 52.8571 326.601 52.5H326.53ZM311.101 34.5V35.5C312.887 36.5 314.244 37 315.244 37H316.101C316.101 36.3571 317.03 35.6428 319.03 35C319.316 34.3571 319.459 33.8571 319.459 33.5C319.101 30.1428 317.816 28.5 315.744 28.5C312.887 28.5 311.316 30.5 311.173 34.5H311.101Z" fill="black"/>
<path d="M329.602 30.4961C330.745 30.8532 331.245 31.8532 331.245 33.4961V33.9961C331.245 33.9961 331.102 34.4961 330.817 34.4961C331.674 38.8532 332.102 42.2104 332.102 44.4961V45.9961C333.817 45.9961 337.602 45.1389 343.317 43.4961L344.174 44.9961C343.888 45.5675 343.745 46.2104 343.745 46.9961L330.388 49.9961L329.96 48.9961V44.4961L329.531 41.9961C329.531 41.9961 329.96 41.8532 329.96 41.4961C329.388 41.4961 328.96 39.3532 328.674 34.9961H329.102L328.674 33.9961V32.9961C328.674 31.2818 329.031 30.4961 329.531 30.4961H329.602ZM348.317 27.4961C349.96 27.4961 350.817 33.9961 350.817 46.9961C351.102 46.9961 351.245 47.9961 351.245 49.9961C350.817 49.9961 350.245 50.3532 349.602 50.9961C349.102 50.639 348.674 50.4961 348.317 50.4961C348.317 48.4961 347.888 40.9961 347.031 27.9961C347.602 27.6389 348.031 27.4961 348.317 27.4961Z" fill="black"/>
<path d="M375.25 29.7793C375.75 30.1364 376.178 30.2793 376.535 30.2793C375.964 40.2079 375.678 46.7793 375.678 49.9221L374.821 50.4221H373.964C373.393 50.4221 372.964 49.2793 372.678 46.9222L373.535 32.8507H373.107L366.821 34.3507C366.321 33.9936 365.893 33.8507 365.535 33.8507C365.321 37.565 365.035 39.3507 364.678 39.3507L365.107 40.3507L363.393 50.4221C363.393 50.4221 363.821 50.565 363.821 50.9221C363.393 50.9221 362.821 51.4221 362.107 52.4221C361.393 52.4221 360.964 51.7793 360.821 50.4221C361.964 41.4221 362.535 35.7079 362.535 33.3507H362.107L355.821 34.3507C354.678 33.7079 353.75 33.3507 352.893 33.3507V31.8507L353.321 30.8507L355.393 31.3507H356.678C356.678 31.3507 358.535 30.9935 361.321 30.3507H364.25C364.821 30.3507 365.107 30.8507 365.107 31.8507C368.678 30.4936 372.035 29.8507 375.178 29.8507L375.25 29.7793ZM380.75 28.7793H381.607C382.678 29.3507 383.25 30.4936 383.25 32.3507V36.8507C383.964 36.8507 386.035 36.4936 389.535 35.8507C389.535 36.3507 389.821 37.065 390.393 37.8507C390.393 38.7793 388.893 39.4221 385.821 39.8507C385.821 40.1364 385.25 40.4221 384.178 40.8507C384.178 42.565 384.464 45.9221 385.035 50.9221L383.75 51.9221C382.321 51.9221 381.321 46.565 380.821 35.8507C380.464 35.8507 380.178 33.8507 379.964 29.8507C380.535 29.8507 380.821 29.4935 380.821 28.8507L380.75 28.7793Z" fill="black"/>
<path d="M395.03 63H395.459C396.53 63.5714 397.102 64.7143 397.102 66.5C396.602 68 396.03 68.8571 395.459 69C393.959 69 392.816 68 392.102 66C392.53 64 393.53 63 395.03 63Z" fill="black"/>
<path d="M401.888 63H402.316C403.388 63.5714 403.959 64.7143 403.959 66.5C403.459 68 402.888 68.8571 402.316 69C400.816 69 399.673 68 398.959 66C399.388 64 400.388 63 401.888 63Z" fill="black"/>
</svg>
