<svg width="443" height="317" viewBox="0 0 443 317" fill="none" xmlns="http://www.w3.org/2000/svg">
<path d="M220.296 65.4963C217.792 64.5665 216.219 61.8485 213.286 58.773C207.922 53.1226 198.695 43.8959 191.185 41.3211C186.178 39.6045 182.531 38.3171 177.596 35.5276C165.651 28.8043 156.353 16.7167 143.908 11.7815C141.404 13.9272 144.051 17.575 145.052 19.9353C148.056 27.0162 149.487 34.3832 153.277 41.1065C157.64 48.6881 162.575 55.4113 166.438 63.2075C170.872 72.2195 174.735 81.5177 179.598 90.3867C160.358 100.543 134.967 96.1801 113.867 95.2503C92.7678 94.3205 71.0959 95.2503 49.7102 95.1788C38.91 95.1788 28.7536 95.4649 18.025 96.7524C13.3044 97.3246 5.29375 97.3245 1.57449 100.615C-4.79117 106.337 9.94283 113.918 13.8767 116.994C27.2517 127.293 46.0625 128.366 58.7223 139.166C73.4563 151.683 95.3427 154.544 109.218 168.777C109.218 168.777 109.075 168.777 109.218 168.92C100.349 174.928 92.6963 182.081 83.5412 187.588C69.1648 196.314 52.2136 200.105 36.8359 206.471C27.4662 210.404 19.1693 217.128 11.5162 223.493C9.58509 225.067 4.07773 228.357 5.93736 231.433C6.86718 233.006 13.4474 232.72 15.0925 232.863C21.7442 233.435 28.2531 232.648 34.9048 232.362C55.7899 231.289 75.888 235.009 96.6301 235.009C111.078 235.009 125.24 230.86 139.688 230.145C142.763 230.002 145.767 229.644 148.056 232.005C136.755 249.6 118.946 263.761 110.434 283.145C107.788 289.224 105.928 295.518 103.568 301.669C101.78 306.247 98.6329 311.468 97.9177 316.189C100.206 313.471 105.714 312.827 108.861 311.039C116.228 306.891 123.094 302.241 129.603 296.877C139.759 288.58 151.704 285.004 164.149 281.142C182.102 275.563 199.482 268.124 215.718 258.683C218.293 257.181 220.868 255.679 222.871 253.677C222.584 270.413 225.946 287.436 227.52 304.03C237.676 301.312 246.044 292.371 253.697 285.505C264.641 275.634 275.87 267.123 287.528 258.04C293.679 253.247 301.547 244.593 308.342 242.662C313.062 241.374 323.076 245.308 327.796 246.524C331.015 247.382 334.162 248.384 337.309 249.385C344.176 251.388 351.113 253.748 357.98 255.679C370.64 259.327 384.873 265.764 397.962 266.766C398.248 262.617 396.889 260.972 394.386 257.896C387.305 249.171 380.152 240.588 373.071 231.862C367.135 224.566 360.34 217.843 354.475 210.547C352.401 207.901 348.396 204.682 349.397 201.249C373.644 202.751 397.962 202.108 422.28 202.108C426.357 202.108 444.381 205.469 442.164 195.956C440.948 190.735 433.581 185.657 430.148 182.081C425.928 177.646 421.994 173.069 417.631 168.849C407.331 158.907 392.812 149.966 380.081 143.887C380.081 142.885 380.367 142.599 380.367 141.67C380.367 139.023 386.518 133.23 388.235 130.941C390.952 127.436 393.67 124.003 396.245 120.355C401.61 112.702 406.974 106.122 413.196 99.2556C421.35 90.3151 433.938 80.5879 438.659 69.0725C429.361 65.4963 420.993 66.2115 411.265 66.5691C404.328 66.7837 397.39 66.9267 390.523 67.0697C379.366 67.2843 368.136 67.0697 357.05 67.6419C353.974 67.785 343.46 70.2884 340.528 68.2857C346.035 60.275 349.397 50.5477 352.83 41.4641C356.835 30.9501 361.771 20.2929 365.061 9.56429C367.278 2.26881 365.204 -1.8796 356.979 0.838319C345.749 4.6291 335.02 9.49282 323.505 12.6399C314.779 15.0002 305.553 17.1459 297.327 20.8651C289.102 24.5844 281.377 29.8057 273.724 34.3117C262.924 40.6774 253.554 49.0456 243.112 55.912C237.676 59.4882 232.026 62.7068 225.874 64.8525C223.371 65.7108 221.655 65.7823 220.153 65.2101L220.296 65.4963Z" fill="#2AB4E9"/>
<path d="M215.003 212.698C214.932 215.345 214.431 219.851 213.573 226.359C213.144 230.222 210.783 231.652 207.994 233.011C204.203 234.799 199.626 234.799 194.19 232.868C191.901 232.224 191.83 229.506 191.615 226.216C191.615 224.214 191.472 217.991 191.329 216.132C191.114 212.698 189.541 210.91 186.608 210.696C182.245 210.481 177.954 210.267 173.662 209.98H165.58C164.722 220.351 164.221 225.787 164.15 226.359C163.649 229.292 164.936 232.654 163.291 234.585C161.002 236.731 154.637 237.517 151.061 236.087C147.699 235.515 144.337 236.087 144.337 231.295C144.123 223.856 144.123 217.705 144.337 212.841C144.552 208.621 140.761 209.265 136.613 209.051C134.11 208.908 131.749 208.836 129.317 208.765C122.809 208.621 118.16 207.763 117.802 201.827C117.158 193.959 118.303 180.942 123.095 179.296C124.168 178.867 127.958 179.225 134.467 180.441C141.047 181.657 144.552 182.229 145.124 182.229C163.22 182.229 161.718 182.229 173.019 180.87C180.529 179.94 181.172 180.012 188.325 179.511C194.118 179.082 198.767 179.153 204.06 179.869C206.206 180.298 211.713 180.012 214.002 180.226C215.719 180.226 240.037 181.371 241.61 181.442C243.542 181.657 244.686 183.159 245.187 185.877C246.617 195.819 244.257 202.542 238.177 206.19C236.461 207.191 233.099 208.121 228.164 208.907C223.157 209.694 219.509 210.052 217.149 209.909C215.361 209.909 214.86 210.41 214.86 212.627L215.003 212.698ZM197.909 86.0289C214.217 87.817 226.876 95.6131 235.817 109.274C237.033 111.205 237.891 114.066 238.249 117.786C239.036 124.509 237.963 132.448 235.102 141.532C231.955 151.33 225.804 157.339 216.577 159.627C209.925 161.344 202.773 162.202 195.048 162.202C190.9 162.202 174.091 163.061 169.728 162.917C157.927 162.131 147.913 159.556 139.545 155.193C131.32 151.116 125.312 143.034 126.456 129.73C127.315 119.931 131.463 110.49 138.973 101.335C146.197 92.6806 155.066 88.8183 167.297 86.1004C170.158 85.3851 173.09 85.099 176.595 84.956C178.455 84.956 179.742 84.813 180.529 84.6699C191.472 85.3136 197.265 85.7428 197.909 85.8858V86.0289ZM193.904 141.031C197.981 140.459 204.847 135.452 205.276 130.803C206.563 119.216 202.63 113.852 194.619 111.492C184.963 108.631 176.237 108.488 168.584 110.991C164.793 112.278 162.576 113.351 161.861 114.424C159.787 117.5 157.498 122.077 154.994 128.085C153.206 132.663 154.494 135.81 159 137.455C165.508 140.101 166.224 140.816 173.162 141.889C176.094 142.318 178.741 142.462 181.172 142.247C189.04 141.46 193.26 141.031 193.832 141.031H193.904Z" fill="#F4F2A5" stroke="#040000" stroke-width="8.58291" stroke-linecap="round" stroke-linejoin="round"/>
<path d="M303.84 81.7305C308.274 81.8736 313.71 82.4459 320.076 83.5902C324.439 84.3055 324.868 86.5228 325.082 92.3162C325.225 94.0328 325.941 105.906 325.941 107.837C325.941 117.135 324.868 128.507 319.933 131.011C317.572 132.227 313.352 132.656 307.273 132.298C304.555 132.298 281.596 133.586 279.236 133.8C278.592 137.376 279.378 144.815 282.239 144.529C284.814 144.314 291.109 144.672 301.122 145.53C311.135 146.46 317.215 146.818 319.432 146.746C320.505 151.038 320.863 153.97 320.505 155.544C320.147 157.046 318.717 159.191 316.142 161.766C315.784 162.338 312.709 162.982 311.851 162.982C306.987 164.556 298.261 164.556 285.673 162.982C275.016 161.623 268.507 160.693 266.146 160.264C262.141 159.477 259.709 158.619 258.779 157.689C257.85 156.76 257.349 154.471 257.134 150.823C256.92 146.46 254.846 140.237 254.273 136.304C253.773 132.441 254.703 128.436 256.991 124.359C259.28 120.282 262.141 118.136 265.646 117.922C269.293 117.707 299.62 116.992 303.268 116.777L304.269 115.204C302.982 110.626 303.482 106.406 299.477 105.119C298.404 104.761 296.902 104.618 294.971 104.618C282.454 104.618 272.369 104.904 264.787 105.477C257.993 105.906 254.989 103.331 256.419 94.8911C256.991 91.4579 259.066 90.3135 260.425 87.7387C261.283 86.1651 262.642 85.3068 264.573 85.1638C268.793 84.7346 285.029 83.5902 289.034 83.0895C291.037 83.0895 301.622 81.5876 303.84 81.5876V81.7305ZM273.943 182.723C273.943 182.723 276.374 181.865 280.451 180.577C284.457 179.29 287.461 178.646 289.32 178.646C291.609 178.646 293.469 179.504 296.044 179.504C297.331 179.504 301.265 179.147 302.552 179.147C303.697 179.147 307.63 179.504 308.775 179.504C319.289 179.504 328.873 175.427 339.101 175.427C341.676 175.427 357.483 176.643 359.915 176.643C360.416 176.643 360.702 176.858 360.916 177.359C363.133 182.651 364.349 191.306 364.349 199.388C364.349 207.113 363.491 216.196 363.062 223.492C362.847 225.28 360.201 234.363 357.34 236.366C356.267 237.081 355.409 237.51 354.694 237.653L351.475 238.154C347.541 238.44 347.398 238.869 343.393 239.442C340.675 239.871 339.745 240.371 337.742 240.371C335.74 240.371 334.81 238.941 334.738 236.08C334.452 224.135 334.309 215.696 334.309 210.76C334.238 206.97 332.807 205.11 330.161 205.11C327.944 205.11 320.29 207.184 318.216 207.47C314.139 208.185 308.06 209.687 303.554 209.687C299.834 209.687 292.324 209.115 281.024 207.971C280.237 207.828 278.02 206.683 278.02 205.611C277.376 202.893 275.159 198.387 275.159 194.667C275.159 193.595 273.299 188.945 274.157 187.3C274.229 186.943 274.3 186.585 274.3 186.299C274.3 185.298 273.871 183.653 273.871 182.723H273.943ZM379.012 147.39C378.726 150.895 378.082 153.469 377.581 156.76C376.723 160.693 375.722 162.625 372.718 163.912C370.715 164.699 366.567 166.987 363.92 166.987C361.703 167.417 361.131 166.129 360.63 164.055C360.63 163.626 360.63 162.839 360.487 161.695C360.487 161.123 360.487 160.336 360.344 159.334L360.201 156.974C357.125 156.402 352.548 155.973 348.972 155.973C345.038 155.687 342.463 155.114 341.962 151.038C341.605 150.036 341.104 146.603 340.961 145.244C340.675 143.885 340.532 142.884 340.532 142.169C339.888 133.371 349.544 135.016 356.052 134.158C358.055 134.158 359.557 134.015 360.487 132.942C360.558 132.727 360.702 132.513 360.916 132.227C360.916 130.939 361.059 130.653 361.059 127.292V118.423C361.059 118.423 360.702 118.566 360.487 118.566H359.915C359.915 118.566 359.557 118.709 359.343 118.709C357.626 119.066 356.41 119.209 355.623 119.209C351.046 119.567 348.471 119.782 347.899 119.925C347.613 119.925 346.325 120.282 346.039 120.282C345.181 120.425 344.537 120.425 344.179 120.282C341.104 120.282 340.246 111.914 340.46 107.622C340.46 104.261 341.247 101.114 343.321 100.255C343.893 100.041 345.395 99.8262 347.756 99.5401C349.043 99.5401 354.765 99.1825 355.981 99.1825C357.483 99.0394 358.985 98.8964 360.415 98.6819C360.415 97.7521 360.416 96.6791 360.559 95.4632C360.559 88.3823 361.989 83.3756 364.421 79.0842C365.351 77.5822 366.567 76.8669 368.855 77.3676C369.642 77.5821 370.5 77.7968 371.43 77.8683C371.788 77.8683 372.074 77.8683 372.288 78.0114C372.646 78.0114 373.075 78.1543 373.29 78.3689C377.009 78.3689 378.869 81.0154 379.155 85.0207C379.155 92.8169 379.727 101.4 380.013 109.625C380.156 111.413 380.728 116.921 380.728 118.136C380.8 119.638 380.871 121.069 380.871 122.428C380.871 130.582 379.012 139.522 379.012 147.39Z" fill="#F4F2A5" stroke="#040000" stroke-width="8.58291" stroke-linecap="round" stroke-linejoin="round"/>
</svg>
