<svg width="194" height="78" viewBox="0 0 194 78" fill="none" xmlns="http://www.w3.org/2000/svg">
<path d="M0 0V77.8571H193.571V0H0ZM49.7857 58.9286C49.7857 60.3572 49.2857 61.0714 48.3571 61.1429C45.5 61.4286 43.2143 61.5714 41.6429 61.5714C41.0714 61.5714 40.2143 61.5714 38.9286 61.4286C37.6429 61.3572 36.6429 61.3572 35.9286 61.4286C33.5714 61.5714 30.5714 61.8571 27.0714 62.3571C26.7857 62.3571 24.4286 62.7857 20 63.5714C20.2857 57.7143 20.5 54.5714 20.5 54.2143C21 48.7143 21.5 44.3571 22 41.0714C22.4286 38.2857 22.6429 34.3571 22.7143 29.2857C22.7143 24.2143 22.7857 20.8571 22.9286 19.2857C22.9286 19.2143 22.9286 19.1429 22.9286 19C23 17.2857 23.2143 16.2857 23.5 16C23.7857 15.7143 24.6429 15.5714 26.2143 15.5714C30.5 15.5714 33.5 15.5714 35.2857 15.5714C36 15.5714 36.4286 15.7143 36.7143 16.0714C36.9286 16.4286 37.0714 17 37 17.8571C37 18.5 36.9286 19.3571 36.7857 20.5714C36.7143 21.7143 36.5714 22.7857 36.5 23.7143C36.5 24.6429 36.3571 25.5714 36.2857 26.4286C36.2143 28.4286 36.0714 31.2143 35.9286 34.9286C35.7857 38.6429 35.6429 41.1429 35.5714 42.5714C35.5714 43.2857 35.5714 43.7857 35.7857 44.0714C35.9286 44.3571 36.2857 44.5 36.8572 44.5C37.3572 44.5 38.8571 44.7143 41.4286 45C45 45.4286 47.3571 45.7143 48.3571 45.8571C49.3571 46 49.9286 46.7857 49.8571 48.0714C49.8571 49.7857 49.8571 53.3571 49.8571 58.7857L49.7857 58.9286ZM86.6429 61.6429C86.6429 61.6429 86.1429 61.9286 85.7143 62C80.8572 62.2857 77.6429 62.5 76.2143 62.5714C73.7857 62.7857 70.8571 63 67.5 63.3572C67.2143 63.3572 66.4286 63.5714 65.1429 63.8572C64.4286 64 64 63.7143 63.9286 62.9286C63.7143 61.6429 63.6429 60.7857 63.5714 60.5C63.3572 58.2143 63.2857 56.5714 63.2857 55.5714C63.2857 54.7857 63.2857 54.2857 63.5714 54C63.7857 53.7143 64.2143 53.5 64.8572 53.4286C65.0714 53.4286 66.2857 53.3572 68.5 53.1429C68.7143 46.3572 68.9286 38.5 69.2143 29.6429H63.3571C62.9286 24.2857 62.7143 21.4286 62.6429 20.9286C62.5714 20 62.5 18.7857 62.5 17.3571C62.5 16.2857 62.9286 15.6429 63.9286 15.5714C69.8571 15.2143 73.6429 15.0714 75.2857 15.0714C76.7143 15.0714 79.8572 15.2143 84.5714 15.5714C84.7143 15.5714 84.8572 15.7143 85.0714 15.9286C85.2857 16.1429 85.3571 16.2857 85.3571 16.4286C85.5 17.6429 85.6429 19.3571 85.7857 21.5714C85.9286 23.7857 86.0714 25.1429 86.0714 25.7857C86.1429 26.7857 85.7857 27.3572 85 27.5714C84.9286 27.5714 84.0714 27.7857 82.4286 28.2857V52.7143L86.7143 52.5V53.9286C86.8572 57.6429 86.9286 59.8571 86.9286 60.5714C86.9286 61.1429 86.9286 61.5 86.6429 61.7143V61.6429ZM134.5 17.7857C133.857 19.8571 133 22.7857 131.857 26.5C130.714 30.2143 129.643 33.5714 128.714 36.6429C127.786 39.7143 126.929 42.5714 126.143 45.2857C125.643 47.0714 124.429 51.8572 122.571 59.5714C122.429 60.2143 122.214 60.6429 121.929 61C121.643 61.3572 121.214 61.6429 120.571 61.8571C120 62.0714 119.429 62.2857 118.714 62.4286C118 62.5714 117.429 62.7143 117 62.7857C116.571 62.8572 115.857 62.9286 115.071 63.0714C114.214 63.2143 113.643 63.2857 113.286 63.2857C112 63.5 110.786 62.9286 109.643 61.5C109.071 60.7143 108.5 59.8572 108.071 59C107.643 58.0714 107.214 56.8572 106.714 55.4286C106.214 53.9286 105.929 53 105.786 52.5714C104.929 50.2857 103.643 46.5714 101.929 41.4286C101.786 41.0714 101.643 40.5 101.5 39.7143C101.357 38.9286 101.214 38.3572 101.071 37.9286C100.643 36.7857 99.8572 34.6429 98.6429 31.5C97.4286 28.3571 96.5 25.9286 95.9286 24.2143C95.7857 23.7143 95.6429 23.0714 95.5714 22.1429C95.5 21.2143 95.4286 20.5714 95.3571 20.2857C95.3571 20.0714 94.9286 18.7857 94.2857 16.4286H106.214L114.786 43.5C115 43 115.286 42.3571 115.643 41.5714C116 40.7857 116.357 40.0714 116.571 39.4286C116.786 38.8572 117 38.2857 117.214 37.7143C117.214 37.6429 118.857 32.2143 122.071 21.4286C122.071 21.2143 122.286 20.9286 122.5 20.4286C122.714 19.9286 122.857 19.5714 122.857 19.2143C123.143 17 124.286 15.8571 126.143 15.7857C126.429 15.7857 129.357 15.6429 135 15.2857C134.786 16.8571 134.643 17.5714 134.643 17.6429L134.5 17.7857ZM172.714 58.0714C172.571 60.2143 171.643 61.5714 170 62.0714C167.143 62.9286 163.714 63.3572 159.714 63.2143C159.143 63.2143 155.857 63.1429 149.857 63.0714C148.286 63.0714 147.143 62.7143 146.5 62.0714C145.857 61.4286 145.429 60.1429 145.143 58.2143C144.714 54.4286 144.429 51.2143 144.286 48.5714C144.071 44.1429 144.071 40.7857 144.286 38.5714C144.5 36 145.214 30.9286 146.357 23.4286C146.5 22.5714 146.857 21.2143 147.429 19.2857C147.786 18.2143 148.286 17.6429 149 17.5714C149.5 17.5714 150.357 17.5 151.643 17.3571C152.929 17.2143 153.929 17.1429 154.571 17.1429C157.714 17.1429 160.714 16.7143 163.571 15.7857C164.143 15.7857 164.571 15.7857 164.643 15.7143C164.714 15.7143 165.143 15.7143 165.786 15.8571C166.429 16 166.786 16 166.929 16C167.429 16.0714 167.929 16.1429 168.5 16.2143C169.071 16.2857 169.643 16.4286 170.357 16.5C171.071 16.5714 171.571 16.7143 171.929 16.7857C172.643 16.9286 173 17.4286 173 18.3571C173 19.2143 173 20.5 173 22.0714V25.8571C173 26.7143 172.786 27.3571 172.286 27.9286C171.786 28.4286 171.214 28.7143 170.5 28.7143C170.5 28.7143 169.429 28.7143 167.429 28.6429C165.429 28.5714 164.429 28.6429 164.429 28.6429C162.857 28.7857 161.143 29.1429 159.286 29.7143C159.071 29.7857 158.786 30.4286 158.571 31.6429C158.571 31.7857 158.571 31.9286 158.786 32.1429C158.929 32.3571 159.071 32.5 159.214 32.5C161.071 33 162.5 33.2143 163.429 33.2857C164.429 33.4286 165.857 33.5 167.643 33.6429C169.429 33.7857 170.714 33.8571 171.357 33.8571C171.929 33.8571 172.357 34.0714 172.643 34.3572C172.857 34.6429 173 35.1429 172.929 35.8572C172.929 39.0714 172.929 41.3571 172.786 42.7143C172.786 43 172.643 43.2857 172.5 43.6429C172.357 44 172.071 44.2143 171.857 44.3572C171.071 44.7857 170.214 45.0714 169.357 45.1429C168.143 45.2857 167 45.2857 165.786 45.2857C163.571 45.2857 161.357 45.0714 159.071 44.7143C159.071 44.7143 158.429 44.5 157.214 44.1429C157.5 47.8572 157.643 50.0714 157.786 50.7143C157.786 50.9286 158 51.0714 158.286 51.2857C158.571 51.5 158.857 51.5714 159.143 51.5714C160.5 51.5714 162.5 51.5714 165.071 51.5C167.643 51.4286 169.429 51.3572 170.429 51.3572C171 51.3572 171.857 51.5 172.929 51.7143C173.571 51.8571 173.786 52.2857 173.643 53.1429C173.286 55.3572 173.071 57 173 58.1429L172.714 58.0714Z" fill="white"/>
</svg>
