<svg width="76" height="86" viewBox="0 0 76 86" fill="none" xmlns="http://www.w3.org/2000/svg">
<path d="M31.6749 4.23475C30.9225 8.90939 31.8251 13.439 33.9392 17.5818C35.1222 19.9289 36.0453 21.9504 37.8465 24.0706C39.4969 25.9821 41.1473 27.8937 42.7057 29.8472C44.1133 31.5919 45.6038 32.9102 47.1532 34.4791C48.3929 35.8563 49.4489 37.3174 50.7556 38.7196C52.305 40.2885 53.0773 42.1013 54.3261 43.8631C56.3712 46.7604 58.0645 49.374 58.6144 53.0097C58.8344 54.464 58.6698 55.9273 58.3044 57.3157C57.8562 59.1307 57.7766 61.388 56.8849 62.9613C55.8184 65.0031 53.7571 67.055 52.2472 68.8551C50.0032 71.6012 46.7553 73.9729 43.3545 74.9153C40.4799 75.6728 36.8204 76.8999 33.8359 76.9303C31.3948 76.9347 26.7599 75.0535 24.7011 73.8283C22.3577 72.3443 19.9553 70.6097 18.0871 68.4645C16.1101 66.2024 13.4288 62.7629 12.7212 59.7545C12.4513 58.4341 12.2154 57.4313 11.7867 56.1279C11.2991 54.5738 11.7563 53.1434 11.6782 51.5133C11.5921 50.1089 11.0715 48.8475 11.0773 47.4012C11.124 45.4365 11.706 43.6715 12.0453 41.7397C12.6911 38.1688 13.9561 34.9813 15.2291 31.5681C16.5021 28.1549 17.7502 24.8087 19.6924 21.6451C21.6347 18.4815 22.9248 15.2272 25.2436 12.2803C27.2539 9.75194 29.1053 7.24061 31.2245 4.82913" fill="#F9DADB"/>
<path d="M29.9158 4.03456C28.4391 15.1478 35.2355 24.315 42.3972 32.0939C46.0745 36.1336 49.6259 39.8977 52.652 44.4569C54.2615 46.8868 56.0547 49.2328 56.6534 52.1244C57.2521 55.0159 56.5088 60.0751 54.9 62.7532C49.257 72.16 36.8614 78.2097 26.5437 72.7605C21.3973 70.0025 15.912 64.6786 14.4219 58.8626C13.7823 56.4895 13.5363 54.4918 13.465 52.0257C13.4346 49.0412 12.8449 46.5343 13.5167 43.5067C16.4762 29.4398 23.4592 16.6447 32.8366 5.81005C34.3216 4.07686 31.5006 2.03367 30.0156 3.76686C21.0636 14.0741 13.5373 26.8952 10.6436 40.3768C9.34999 46.298 9.25195 52.284 10.7171 58.1669C12.1822 64.0498 15.3002 68.5671 19.8215 72.388C23.5306 75.5247 28.736 78.5335 33.7271 78.6416C38.7183 78.7498 45.6618 76.6892 49.8615 73.6052C54.5954 70.1106 58.574 64.962 59.7259 59.2166C60.3307 56.1641 60.8028 53.6719 59.9364 50.6806C59.1289 47.9399 57.6533 45.5599 56.0608 43.2888C51.8698 37.1516 46.9199 32.0273 42.1447 26.4345C36.808 20.0987 32.3732 13.1845 33.5366 4.54643C33.8419 2.29702 30.3719 1.99387 30.0666 4.24328L29.9158 4.03456Z" fill="#231C1C"/>
</svg>
