<svg width="862" height="279" viewBox="0 0 862 279" fill="none" xmlns="http://www.w3.org/2000/svg">
<path d="M126.357 102.077C124.286 99.148 122.786 97.0051 122 93.8622C121 89.7908 118.071 87.0051 116 83.148C113.786 79.148 113.286 74.648 111.143 70.5051C108.643 65.7908 105.929 61.4337 102.929 56.8622C100.5 53.2194 99.2857 49.5051 98.2857 45.5765C97.7143 43.3622 95.7857 38.7908 97.6428 36.8622C100.286 34.0765 104.214 36.2908 107.857 37.3622C113.857 39.0765 120.143 40.2194 126.143 42.0051C131.714 43.648 136.357 45.7194 142.286 46.9337C148.214 48.148 154.5 49.4337 160.571 50.7194C172.643 53.2908 184.643 55.2194 196.5 58.5765C199.357 59.3622 203.571 61.7194 206.357 62.0051C211.214 62.5051 211.429 58.8622 211.643 56.2908C211.929 52.8622 211.571 49.2908 212.143 45.9337C212.714 42.5765 214.643 39.0051 215.786 35.5765C218.286 27.9337 219.071 19.7194 222.571 12.3622C223.929 9.5051 226.286 6.07653 231.143 5.5051C233.643 5.21938 239.5 6.07653 242.286 6.79081C246.5 7.86224 250.357 10.5051 254.214 12.0765C258.643 13.8622 263.143 15.0051 267.5 17.0051C271.857 19.0051 276.643 20.148 281.143 21.9337C287.5 24.4337 293.286 27.5765 299.5 30.2194C308.429 34.0051 318.786 37.9337 326.714 42.7908C331.429 45.7194 335.929 48.2908 341.571 50.2908C347.714 52.5051 349.857 52.2194 354.357 48.3622C357.214 45.8622 360.571 43.5051 363.786 41.2194C367.5 38.648 370.857 35.8622 374.5 33.2908C382.786 27.4337 391.5 21.3622 400.357 15.9337C405.643 12.648 409.857 8.29081 415.429 5.29081C416.929 4.5051 418.643 4.07653 420.143 3.29081C421.857 2.5051 423.571 0.719386 425.571 0.219386C431.857 -1.35204 435.857 5.93367 438.357 8.86224C440.857 11.7908 443.357 15.0765 445.929 18.148C452.429 26.148 459 33.9337 465 42.0765C467.286 45.2194 469.857 48.2194 472.214 51.2908C474.571 54.3622 476.143 57.7908 478.429 60.9337C482.286 61.7194 487.214 58.0051 490.429 56.648C494.786 54.7908 498.786 52.648 503.071 50.648C513.286 45.7908 524.071 41.4337 534.857 37.2908C540 35.2908 544.429 32.5051 549.786 30.7908C555.143 29.0765 560.714 27.5051 565.929 25.3622C576.286 21.0051 588.143 18.7194 598.929 15.0765C606.429 12.5765 614.286 11.3622 622.286 9.93367C625.143 9.43367 627.714 8.5051 630.357 10.2908C633.786 12.648 631.571 17.0765 631.571 19.9337C631.571 22.4337 632.857 24.7194 632.929 27.2194C633 29.7194 632.5 32.2908 632.357 34.8622C632.214 37.4337 631.571 40.2194 631.786 42.8622C632 46.0051 633.143 48.8622 633 52.0765C632.786 56.7194 630.571 63.0765 633.143 67.5765C636.357 73.2194 644.429 70.5051 650.714 70.0765C661.143 69.3622 671 68.2194 681.357 66.9337C695.929 65.148 711.214 64.648 726 63.7908C732.643 63.4337 739.286 63.7908 745.929 63.648C751.571 63.5051 757 62.3622 762.714 62.5051C772.286 62.8622 781.571 62.5051 791.071 63.148C797.714 63.5765 803.857 65.148 810.429 65.5051C817 65.8622 821.643 68.148 818.929 73.4337C817.857 75.5051 815.214 77.2908 813.857 79.2908C812.357 81.5051 810.357 83.2908 808.571 85.4337C803.5 91.3622 798.929 97.7194 794.214 103.791C792.5 106.005 791.929 108.291 789.857 110.362C787.929 112.219 785.357 113.577 783.643 115.577C778.571 121.291 786.429 122.934 792.857 125.148C808.714 130.719 824.929 136.148 839.429 143.577C845.214 146.505 850.929 149.434 856.143 152.862C861.643 156.577 864.357 160.077 856.5 163.005C850.714 165.148 844.5 167.077 838.143 167.934C827.5 169.434 818 174.148 807.571 176.362C798.357 178.291 790.429 182.291 781.071 183.934C778.5 184.362 775.929 184.791 773.429 185.434C768.571 186.648 769.071 187.791 771.643 190.791C776.429 196.362 783.143 201.934 789.143 206.862C794.857 211.505 799.714 216.434 805.071 221.148C808.857 224.505 813.286 228.291 816.571 231.862C817.857 233.291 819.714 235.862 820.214 237.434C821.286 240.862 819.286 241.577 815.286 242.219C808.786 243.291 802.857 242.219 796.572 240.934C791.072 239.862 784.929 239.577 779.286 238.719C772.714 237.719 765.929 236.505 759.286 235.934C744.643 234.719 730.143 233.005 715.5 232.077C710.143 231.791 704.786 231.505 699.5 231.148C693.071 230.648 686.929 229.219 680.5 228.719C672.214 228.077 663.357 227.219 655.071 227.148C648.071 227.148 645.143 230.005 643.143 234.719C640.786 240.148 637.714 245.005 634.714 250.148C633.071 252.934 631 255.219 629.786 258.148C628.714 260.862 627.786 263.934 626.071 266.505C622.929 271.362 617.357 274.862 610.5 271.219C604.429 267.934 599.286 263.791 593.643 260.077C577.571 249.505 557.071 243.719 538.214 236.505C530.857 233.719 523.071 231.505 515.286 229.505C509.714 228.077 504.071 225.362 498.357 224.577C493.857 223.934 488.714 222.648 485.857 225.577C483.214 228.291 480.929 231.791 479.214 234.862C476.143 240.577 472.786 245.648 468.786 251.077C464.786 256.505 461.929 262.862 457.071 267.791C454.5 270.434 448.929 278.505 443.714 278.791C440.786 278.934 435.714 275.005 433.643 273.648C429.857 271.005 426.214 268.291 422.357 265.719C415.929 261.291 408.214 258.934 401.071 255.291C397.429 253.434 394.643 251.077 390.786 249.291C386.286 247.219 383.357 244.648 379.571 242.077C376.571 240.005 372.857 238.577 369.786 236.505C366.714 234.434 363.786 232.719 360.643 230.862C355.357 227.791 350.643 224.934 344.714 222.505C339.786 220.505 336 218.934 330.786 221.291C327.786 222.648 326.643 224.862 324.5 226.862C321.214 229.934 317.5 232.577 314.429 235.719C309.571 240.791 303.643 245.362 298.571 250.434C294.643 254.362 289.643 259.934 283.143 262.077C275.786 264.505 268.429 255.791 263.5 252.648C257 248.362 251.143 243.648 244.929 239.148C241.714 236.862 238.5 234.577 235.286 232.291C232.071 230.005 227.857 228.934 224.643 226.719C221.429 224.505 218.929 222.148 215.429 220.148C211.571 217.934 207.643 215.862 204.286 213.219C198.714 208.862 191.786 206.362 185.857 202.362C182.5 200.077 177.929 193.791 172.429 196.291C170 197.362 169.571 200.648 167.714 202.291C165.429 204.362 163.357 206.434 161.143 208.505C155.643 213.719 148.357 217.077 141.429 221.148C134.5 225.219 127.429 229.862 119.786 233.362C115.143 235.434 111.357 238.148 107 240.505C102.643 242.862 97.4286 244.648 92.7857 246.862C87.2143 249.505 81.3571 252.362 75.5 254.719C67 258.219 67.0714 248.577 67.2857 244.505C67.8571 233.434 70.3571 222.577 74.6428 212.077C76 208.719 77 205.577 78.9285 202.434C80.8571 199.291 81.5 196.005 83.5 193.077C87.6428 186.934 93.5714 181.291 97.5 175.077C99 172.719 100 171.005 102.357 168.862C103.714 167.577 107.643 165.434 106.286 163.719C104.357 161.148 92.0714 161.791 88.7143 161.577C71.2143 160.505 52.6428 159.291 35.8571 154.791C28.1428 152.719 20.7143 150.219 13.1428 148.005C9.35712 146.934 1.57143 144.934 0 141.934C2.57143 138.434 11.2857 138.934 15.9285 137.934C20.5714 136.934 26.7857 135.077 31.0714 133.291C34.2143 132.005 36.5 130.077 39.8572 129.005C43 128.005 46.3571 127.148 49.5714 126.148C55.5 124.219 61.5 122.505 67.5714 120.791C79.5 117.291 91.4286 114.434 102.714 110.005C107.5 108.148 112.714 107.505 117.429 105.648C119.857 104.648 122.286 103.219 125.071 102.719C127.071 102.362 128.786 103.005 130.429 101.648" fill="white"/>
<path d="M172.998 144.077C178.498 148.649 184.284 154.291 189.713 159.22C192.213 161.506 188.998 164.72 187.57 166.006C186.998 166.577 184.213 169.077 179.213 173.506C173.57 169.863 169.927 167.577 168.427 166.649C165.356 164.649 161.07 160.291 159.856 159.077C158.57 157.72 154.356 153.077 152.998 151.72C150.284 149.006 147.498 146.434 144.713 144.006C143.141 142.649 143.07 141.506 144.498 139.934C146.141 137.934 148.498 135.434 150.07 133.434C150.784 132.577 151.356 131.72 151.927 131.006C153.998 128.006 157.427 124.291 162.141 119.863C166.856 115.434 170.141 112.149 171.927 109.934C171.998 109.863 172.356 109.577 172.427 109.506C172.57 108.434 172.927 106.934 173.927 107.506C174.641 107.863 174.927 108.363 175.498 109.077C178.07 111.863 181.141 115.506 184.713 119.934C184.927 120.149 184.998 120.577 184.998 121.149C184.998 121.72 184.927 122.22 184.713 122.506C182.213 127.291 179.713 130.934 177.07 133.363C175.07 135.149 173.784 136.791 171.856 139.077L169.498 141.934C171.713 143.434 172.856 144.22 172.998 144.22V144.077Z" fill="#FFF799" stroke="#040000" stroke-width="4.5" stroke-linecap="round" stroke-linejoin="round"/>
<path d="M244.855 171.425H244.998C246.355 171.425 247.069 172.067 247.069 173.282V173.71C246.641 176.425 246.284 178.567 245.926 179.996C245.141 183.139 243.641 183.71 240.069 183.71H239.212C233.141 183.496 223.712 182.21 217.926 182.639C214.355 182.853 209.569 182.639 206.641 181.853C201.641 180.639 200.212 177.282 200.212 170.21C200.212 170.067 200.212 169.425 200.284 168.139C200.355 164.067 201.855 163.21 205.426 163.067C212.569 162.853 221.998 162.425 233.712 161.853C235.212 161.853 235.926 161.21 235.926 159.996V159.567C235.926 159.567 235.926 158.853 235.926 158.496V158.067C235.926 158.067 232.426 157.782 230.855 157.853C223.069 158.21 212.998 158.996 204.498 159.425C204.212 159.425 202.426 159.639 202.141 159.639C200.284 159.639 199.284 158.496 199.069 156.425C198.998 155.567 198.569 152.996 198.569 151.996C198.569 149.782 198.998 147.353 200.926 147.353C207.426 147.353 214.141 147.353 220.926 147.425C220.641 147.139 219.498 145.925 219.212 145.71C216.784 143.71 214.855 140.782 212.355 138.067C210.998 136.567 210.284 135.496 209.212 134.21C208.426 133.282 207.712 135.067 207.284 135.567C205.998 137.282 201.212 142.996 199.855 144.639C198.498 146.425 197.355 146.353 196.069 144.567C195.141 143.353 194.069 142.282 192.855 141.567C191.641 140.782 190.784 140.282 190.569 138.567C190.569 137.853 190.712 137.067 191.284 136.282C191.855 135.282 193.569 131.496 194.212 130.496C195.426 128.567 196.784 126.782 198.284 125.139C201.855 121.139 202.569 115.782 201.998 107.853C201.784 105.21 201.569 103.925 201.284 103.996C201.284 103.282 201.355 102.925 201.426 102.925C203.426 101.639 205.141 100.353 208.069 100.353C209.926 100.353 210.641 100.853 212.569 101.353C215.212 101.996 217.569 102.282 217.212 105.782C216.926 109.567 215.926 116.496 215.641 120.21C215.641 120.353 215.498 121.639 215.141 124.067C216.141 124.996 217.926 126.425 220.569 128.21C223.212 129.996 224.569 130.996 224.784 131.21C226.855 132.782 228.069 133.567 229.212 135.71C230.426 137.996 229.498 140.067 228.284 141.996C226.641 144.853 225.141 146.71 223.998 147.496C233.069 147.71 239.355 147.925 242.926 148.21C245.498 148.425 248.284 148.853 248.784 150.853C248.998 152.067 249.141 153.282 249.141 154.567C249.141 156.067 248.998 157.853 248.641 159.925C248.069 163.353 246.569 165.853 244.141 167.282C241.784 168.639 236.355 169.21 231.498 169.353C229.141 169.353 227.498 169.496 226.498 169.639C226.284 169.639 211.141 169.782 210.069 170.139V172.567C210.069 172.567 229.998 172.21 230.212 172.21C232.212 172.21 233.998 172.21 235.569 172.139C237.355 172.139 243.355 171.639 245.069 171.496L244.855 171.425ZM238.998 124.639C239.141 122.782 239.284 118.925 239.355 112.925V103.425C239.355 102.496 239.784 101.782 240.712 101.282C242.641 100.282 246.926 99.7102 253.498 99.5674C253.498 99.5674 253.712 99.6388 254.069 99.8531C254.641 111.996 255.284 112.567 254.212 126.996C254.069 128.925 253.284 136.353 253.141 138.21C252.998 139.639 252.355 140.353 251.141 140.353C250.569 140.353 248.926 140.282 246.069 140.282C243.212 140.282 241.426 140.282 240.569 140.282C238.641 140.282 238.498 135.353 238.498 132.71C238.498 132.282 238.569 130.496 238.569 130.067C238.569 128.282 238.926 126.567 238.926 124.782L238.998 124.639Z" fill="#FFF799" stroke="#040000" stroke-width="4.5" stroke-linecap="round" stroke-linejoin="round"/>
<path d="M267.071 115.778V114.635C270.428 113.493 274.071 113.35 278.071 114.207C279.714 114.564 280.999 118.564 280.714 120.993C280.714 121.493 280.428 124.993 280.142 131.493C280.142 132.635 280.571 132.707 281.428 132.85C286.785 133.707 290.928 135.064 293.857 136.85C295 137.493 295.642 137.993 295.857 138.421C296.071 138.85 296 139.707 295.714 141.207C295.214 143.707 295.142 149.421 294.499 151.85C294.142 153.278 293.642 154.707 292.357 154.207C291.5 153.85 289.499 153.064 288.142 153.064C287.857 153.064 287.571 152.778 287.357 152.635C282.928 150.421 279.999 148.421 278.714 146.564C278.071 145.635 276.785 144.635 275.928 143.993C272.285 150.921 269.857 155.35 267.285 159.278C265.928 160.921 264.928 163.421 263.571 164.993C263.142 165.493 262.214 166.564 261.5 166.564C261.214 166.564 260.857 166.493 260.5 166.278C257.214 163.778 255.214 159.707 254.499 153.993C254.428 153.064 254.714 151.993 255.357 150.778C256.928 148.135 259.5 143.921 263.071 138.135C263.642 137.135 264.357 136.207 265.071 135.35C267.071 132.921 266.928 129.564 267.285 124.707C267.499 122.278 267.642 120.35 267.714 118.993C267.714 117.778 267.285 116.635 267.142 115.707L267.071 115.778ZM316.928 178.421C313.714 178.421 309.357 178.993 308.357 176.207C306.928 171.921 306.142 168.635 306.071 166.35C305.785 158.921 305.571 122.35 305.357 114.921C305.357 111.421 305.071 108.564 304.714 105.064L304.285 100.564C307.142 100.35 308.642 100.278 308.785 100.278C311.714 100.35 315.214 101.064 317.928 101.35C319.357 101.493 320.071 102.493 320.142 104.207C320.357 113.493 321.142 123.207 321.071 132.921C321.071 137.278 321.071 140.278 321.071 141.921C321.071 145.064 321.071 168.35 321.071 171.564V171.707C321.071 175.421 319.785 178.564 317.071 178.493L316.928 178.421Z" fill="#FFF799" stroke="#040000" stroke-width="4.5" stroke-linecap="round" stroke-linejoin="round"/>
<path d="M336.856 122.855C332.642 122.855 329.07 121.783 326.07 119.997C325.213 119.355 325.213 116.212 324.927 114.855C324.856 114.283 324.427 111.569 323.785 106.64C323.285 106.64 324.07 104.64 324.142 104.569C324.642 103.783 325.856 103.355 327.213 103.355C332.356 103.283 349.713 102.997 354.856 102.926C359.213 102.783 360.57 104.712 361.642 108.997C362.856 113.712 363.499 116.855 363.57 118.569C363.713 122.283 363.642 122.14 363.356 125.712C362.999 129.712 362.499 138.855 362.499 139.14C362.427 143.426 359.642 146.355 356.142 146.64C352.856 146.783 350.427 146.069 348.856 144.355C347.856 143.212 347.356 142.212 347.285 141.355C347.213 139.569 346.999 134.64 346.785 126.497C346.785 123.283 346.285 122.855 343.642 122.855C342.07 122.855 338.427 122.926 336.785 122.926L336.856 122.855ZM343.427 154.069C343.427 155.283 343.999 159.14 344.213 161.783C344.285 162.926 344.427 163.997 344.642 164.855L353.785 164.212C370.856 162.997 368.713 163.283 379.856 161.926C381.07 161.783 382.07 161.712 382.785 161.712C384.499 161.712 385.07 165.926 385.07 169.712C385.07 171.712 384.642 173.783 383.713 175.926C383.427 176.498 382.785 176.926 381.713 177.14C381.07 177.283 361.427 178.64 360.713 178.783C360.499 178.783 360.213 178.855 359.927 178.855C357.499 178.855 345.356 179.14 342.999 179.283C342.213 179.283 339.142 179.569 338.356 179.569C336.142 179.569 334.142 178.997 333.285 177.283C332.999 176.783 332.856 176.212 332.856 175.783C332.57 172.069 332.142 158.497 331.999 154.783V153.497C331.999 152.64 331.927 151.783 331.927 150.926V149.712C331.927 149.712 334.213 149.069 334.356 148.997C334.927 148.855 336.07 148.783 337.927 148.783C340.642 148.783 342.927 148.569 342.927 150.497C342.927 150.783 343.427 153.712 343.427 154.069ZM371.427 104.212C371.427 101.355 372.642 100.712 374.356 99.7118C376.142 98.6404 377.785 97.2832 380.499 97.5689C382.642 97.7118 384.07 98.3546 384.07 100.712C384.07 101.783 384.499 117.355 384.57 118.14C384.642 118.855 385.142 119.283 385.999 119.355C389.57 119.64 391.57 119.855 391.999 119.997C395.07 120.855 393.927 127.712 392.642 130.212C392.356 130.783 391.499 131.212 390.142 131.426H384.285V142.926C384.285 143.855 384.213 145.64 383.999 148.14C383.856 149.569 383.142 150.283 381.927 150.355C379.285 150.355 377.07 150.355 375.142 150.283C372.999 150.14 371.213 148.14 371.142 145.64C371.142 140.498 371.142 134.069 371.142 126.426C371.142 126.14 371.499 104.355 371.499 104.212H371.427Z" fill="#FFF799" stroke="#040000" stroke-width="4.5" stroke-linecap="round" stroke-linejoin="round"/>
<path d="M412.141 128.143C412.57 119.571 412.927 114.857 413.284 114.143C413.713 113 414.427 112.357 415.356 112.071C420.856 110.714 425.07 109.786 427.927 109.214C432.356 108.357 436.427 108.357 440.213 109.071C442.999 109.071 443.856 110.357 444.57 113.143C447.427 123.928 446.999 134.357 445.784 147.571C445.642 148.786 445.499 151.5 445.284 155.714C445.07 159.928 444.784 163.214 444.427 165.428C443.927 167.857 443.356 169.5 442.642 170.428C441.356 172.143 433.999 172.214 431.07 171.928C428.427 171.786 429.499 168.5 429.927 166.428C431.356 154.857 431.213 148 430.713 132.928C430.713 131.714 430.57 130.786 430.356 130.286C429.713 128.857 428.284 128.5 426.142 129.143C423.713 129.928 419.356 130.143 412.927 129.857C412.141 129.857 412.07 129.214 412.141 128.143ZM480.213 136.643C480.213 139.5 480.213 148.786 480.142 164.5C480.142 170.5 477.427 171.357 473.213 172.571C471.356 173.143 470.213 172.071 469.927 169.571V168.714C470.284 165.928 470.141 162.071 469.499 157.143C468.856 152.214 467.999 148.643 466.927 146.571C465.927 146.786 465.713 147.071 464.642 147.214C463.142 147.428 462.427 148.143 462.427 150.214C462.427 151.357 462.427 168.428 462.499 169.571C462.499 172 461.784 173.571 460.213 174.214C459.641 174.428 457.856 175.428 457.213 175.643C455.57 176.286 454.356 175.643 453.499 173.5C451.356 168.143 450.713 161.143 450.713 152.143C450.713 148.571 450.713 145.857 450.57 144.071C449.642 132.357 449.713 121.571 450.784 111.857C450.784 110.857 450.927 109 451.284 108.428C451.713 107.786 452.213 107.214 452.999 106.857C454.641 106 456.784 105.428 459.356 105C460.856 104.714 461.784 105.714 461.999 107.928C462.356 110.928 462.427 115.714 462.499 121.714C462.499 125.5 462.499 127.857 462.642 128.857C462.856 131.143 463.999 132.5 466.141 132.143C466.856 132 466.642 131.643 467.427 131.786C468.856 131.928 469.356 131.143 469.284 129.357C469.284 117.857 469.284 111.571 469.213 110.5C469.213 108.857 469.713 107.928 470.784 107.857C473.927 107.428 476.213 107.286 477.641 107.357C479.356 107.357 479.427 109.5 479.427 111.5C479.427 111.5 479.57 115.928 479.856 124.571C479.856 126.071 480.213 135 480.213 136.643Z" fill="#FFF799" stroke="#040000" stroke-width="4.5" stroke-linecap="round" stroke-linejoin="round"/>
<path d="M499.284 166.214C499.355 164.928 500.141 161.714 500.284 160.428C500.355 157.428 500.498 155.5 500.569 154.571C500.641 153.071 501.641 152.143 502.927 152.286C504.355 152.286 505.998 152.5 507.784 152.714C508.427 152.857 508.784 153.286 508.784 154.143C508.712 160 508.641 160 509.284 164.928C509.427 165.857 510.212 165.857 511.069 166.286C513.784 167.643 515.212 167.571 519.284 166.786C519.641 166.643 519.998 165.571 520.069 165C520.141 163.5 520.498 158.5 520.712 157.071C520.855 155.857 521.284 154.643 521.927 153.571C522.069 153.357 522.998 153 524.712 152.571C528.641 151.571 528.998 156.714 528.712 161.786C528.569 163.857 541.427 165.5 542.998 165.5H546.212C546.784 165.5 547.141 165.857 547.355 166.357C548.212 169.071 548.712 170.928 548.855 171.857C549.212 174.928 547.569 176.5 545.212 176.857C544.784 176.857 543.284 176.928 540.712 176.928C537.641 176.928 530.712 176.857 528.141 176.857C525.641 177 513.141 177.071 510.498 177.143C509.427 177.214 505.569 177.643 504.498 177.786C502.498 177.786 495.855 177.428 484.712 176.643C484.498 176.643 484.212 176.571 484.069 176.571C482.141 176.786 481.855 176.5 481.784 174.357C481.784 172.786 481.784 170.714 481.784 168.214C481.927 166.643 483.498 165.714 484.998 165.714C487.855 165.714 496.498 166.143 499.355 166.143L499.284 166.214ZM488.141 145.714C488.141 144.428 487.998 141.428 487.998 140.071C487.998 136.928 488.998 133.786 490.212 132.714C491.212 131.857 492.784 131.286 494.927 130.928C496.141 130.714 498.355 130 501.784 128.786C502.141 128.571 502.712 127.928 502.712 127.286C502.784 126.428 502.855 125.5 502.855 124.643C502.855 122 502.855 119.643 500.569 119.786C499.427 119.786 497.855 119.857 495.784 119.857H490.927C489.641 119.857 489.212 119.357 489.212 117.786C489.212 116.643 489.284 115.071 489.284 112.928V108.071C489.284 107.071 488.212 105.071 487.427 105.071V104.214C489.355 103.786 490.427 103.571 490.569 103.571C505.855 103.857 509.712 104.286 527.855 105.928C532.712 106.357 537.212 106.571 542.141 106.857C542.569 106.928 543.284 107.714 543.427 108.214C544.069 113.143 543.641 118.286 542.141 123.714C541.569 125.857 540.855 126.071 539.927 124.428C539.641 123.714 538.141 123.643 537.284 123.643C535.927 123.357 535.069 123.214 534.712 123.214C534.212 123.286 533.284 123.857 533.141 124.357C532.927 125.357 532.212 128.714 531.141 134.286H535.855C537.855 134.286 539.784 134.5 541.784 134.643C543.498 134.786 544.569 136.214 544.212 138.5C543.784 141.571 543.784 144.214 542.498 145.571C541.712 146.357 540.284 146.786 538.212 146.786C522.498 147.143 511.069 147.286 503.998 147.214C499.069 147.214 492.784 146.286 488.141 145.786V145.714ZM519.927 127.071C520.569 124.214 519.212 122.286 517.212 122.071H514.927C512.569 122.071 512.569 121.857 511.569 122.643C511.284 122.857 511.069 123.143 511.069 123.357C510.784 125.428 510.712 127.571 510.712 129.786C510.712 130.357 511.284 131.214 511.569 131.357C512.927 131.714 517.569 132.214 518.569 131.357C518.998 130.928 519.498 129.571 519.998 127.286V127.071H519.927Z" fill="#FFF799" stroke="#040000" stroke-width="4.5" stroke-linecap="round" stroke-linejoin="round"/>
<path d="M581.928 102.785C584 101.5 585.571 100.285 588.571 100.142C589.214 100.142 589.857 100.214 590.428 100.428C591.428 100.714 594.643 101.571 595.643 101.857C597.214 102.357 597.928 103.571 597.714 105.571C597.428 109.357 596.428 116.285 596.143 120C596.143 120.142 596 121.428 595.643 123.857C596.643 124.785 598.428 126.214 601.071 128C603.714 129.785 605.071 130.785 605.286 131C607.357 132.571 608.5 133.357 609.714 135.5C610.928 137.714 610 139.928 608.785 141.857C606.285 146 604.214 148.071 602.571 148.071C601.643 148.071 600.428 146.071 599.786 145.642C597.357 143.642 595.428 140.714 592.928 138C591.571 136.5 590.857 135.428 589.785 134.142C589 133.214 588.286 135 587.857 135.5C586.571 137.214 581.785 142.928 580.428 144.571C579.071 146.357 577.928 146.285 576.643 144.5C575.714 143.285 574.643 142.214 573.428 141.5C572.214 140.714 571.357 140.214 571.143 138.5C571.143 137.785 571.285 137 571.857 136.214C572.428 135.214 574.143 131.428 574.786 130.428C576 128.5 577.357 126.714 578.857 125.071C582.428 121.071 583.143 115.714 582.571 107.785C582.357 105.142 582.143 103.857 581.857 103.928C581.857 103.214 581.928 102.857 582 102.857L581.928 102.785ZM600.786 181.785C599.428 181.785 598.143 181.642 597.071 181.428C596.785 181.428 596.5 181.428 596 181.285C591.714 180.428 590.714 180.428 587.286 178.642C584.286 177.071 580.357 172.785 580.357 168.928C580.357 164.785 580.857 161.714 581.857 159.714C584.643 154.142 590.285 150.785 598.928 149.785C600.071 149.571 601.214 149.5 602.428 149.5C608.285 149.5 617.643 151 622.285 152.5C627.714 154.428 630.071 157.571 630.071 164C630.071 168 628.786 171.142 626.143 173.5C622.714 176.571 621.357 178 617.285 179.928C615.5 180.785 613.714 181.214 611.928 181.285C610.928 181.285 601.785 181.928 600.714 181.928L600.786 181.785ZM617.714 164C617.714 161.5 616.571 160 614.285 159.357C611.857 158.785 607.071 158.5 599.857 158.5H599.786C596.786 158.5 596.214 161.142 595.571 164C595.5 164.428 595.428 164.785 595.428 165.142C595.428 168.642 598.928 168.857 601.785 169.214C605.214 169.642 609.571 169.714 613.071 170.071H613.286C615.857 170.071 617.714 167.142 617.714 163.928V164ZM631.286 132.285C631.286 133.214 631.214 135 631 137.5C630.857 138.928 630.143 139.642 628.928 139.714C626.286 139.714 624 139.714 622.071 139.642C619.928 139.5 618.143 137.5 618.071 135C618 127 618.071 113.071 618.428 104.214C618.428 101.357 619.643 100.714 621.357 99.6424C623.143 98.571 624.785 97.2139 627.5 97.4996C629.643 97.6424 631.071 98.2853 631.071 100.642C631.071 103.142 631.214 106.285 631.571 110.071C631.643 110.785 632.143 111.214 633 111.285C636.571 111.571 638.571 111.785 639 111.928C642.071 112.785 640.928 119.642 639.643 122.142C639.357 122.714 638.5 123.142 637.143 123.357H631.286V132.142V132.285Z" fill="#FFF799" stroke="#040000" stroke-width="4.5" stroke-linecap="round" stroke-linejoin="round"/>
<path d="M681.928 148.073C678.142 148.573 669.785 148.644 656.713 148.359C655.356 148.359 650.713 148.502 642.928 148.716C639.856 148.859 638.356 146.216 638.928 142.287C638.928 141.787 638.999 141.287 639.071 140.787C639.071 139.859 639.285 139.93 639.928 139.43C640.142 139.216 640.285 139.144 640.428 139.073L654.642 137.002C654.999 135.502 655.499 134.144 656.142 132.93C652.285 132.073 648.856 130.287 646.785 127.359C644.142 123.93 646.071 119.716 648.713 117.787L650.428 116.716L643.142 116.002C643.142 112.216 643.142 110.002 643.142 109.359C643.142 108.787 644.499 108.216 644.928 108.216C646.499 108.216 651.999 108.573 653.571 108.573C656.356 108.43 659.713 108.073 663.642 107.502L653.928 106.859C653.856 106.002 653.785 104.93 653.785 103.502C653.785 102.073 653.785 100.93 653.642 100.002C656.928 99.3588 658.642 99.0016 658.928 99.0016C660.928 98.7873 662.856 98.6445 664.785 98.5731C668.213 98.4302 669.213 99.7159 669.285 103.716C669.428 104.216 669.428 104.573 669.356 104.93C669.142 105.573 669.356 105.716 668.928 106.002C668.285 106.43 668.213 106.287 667.285 106.644C666.785 106.859 666.285 107.073 665.785 107.43C671.142 108.359 674.142 108.93 674.856 109.002C675.856 109.144 676.428 109.716 676.642 110.716C677.356 114.002 676.499 116.216 673.928 117.359C673.928 117.359 673.285 117.716 672.071 118.216L673.142 119.002C677.499 121.787 677.928 126.644 673.999 130.502C671.999 132.43 669.499 133.502 666.356 133.644H664.642C665.213 136.43 665.571 136.573 668.928 137.002C670.999 137.287 673.213 137.502 675.571 137.573C677.928 137.644 679.285 137.787 679.713 137.859C682.499 138.787 683.856 138.859 683.856 142.644C684.285 146.502 684.356 148.073 681.785 148.073H681.928ZM669.071 181.787C667.713 181.787 666.428 181.644 665.356 181.43C665.071 181.43 664.785 181.43 664.285 181.216C659.999 180.359 658.999 180.359 655.571 178.573C652.571 176.93 648.642 172.716 648.642 168.859C648.642 164.716 649.142 161.644 650.142 159.644C652.928 154.073 658.571 150.716 667.213 149.716C668.356 149.502 669.499 149.43 670.713 149.43C676.571 149.43 685.928 150.93 690.571 152.43C695.999 154.359 698.356 157.502 698.356 163.93C698.356 167.93 697.071 171.073 694.428 173.43C690.999 176.502 689.642 177.93 685.571 179.859C683.785 180.716 681.999 181.144 680.213 181.216C679.213 181.216 670.071 181.859 668.999 181.859L669.071 181.787ZM659.642 125.93C661.785 126.43 664.428 126.359 664.785 124.144C664.928 123.502 664.071 122.502 663.642 122.287C662.642 121.716 661.928 121.359 661.499 121.144C659.999 120.43 658.213 121.144 657.285 122.359C657.213 125.002 657.642 125.573 659.642 125.93ZM686.071 164.002C686.071 161.502 684.928 160.002 682.642 159.359C680.213 158.787 675.428 158.502 668.213 158.502C665.213 158.502 664.642 161.144 663.999 164.002C663.928 164.43 663.856 164.787 663.856 165.144C663.856 168.644 667.356 168.859 670.213 169.216C673.642 169.644 677.999 169.716 681.499 170.073H681.713C684.285 170.073 686.142 167.144 686.142 163.93L686.071 164.002ZM699.571 118.716C699.713 119.43 701.928 120.502 703.356 120.859C705.499 121.43 707.071 121.716 706.428 125.002C705.785 128.073 704.213 130.002 701.785 130.716C701.142 130.859 700.071 130.787 699.785 130.43C699.356 129.93 699.356 130.859 699.571 131.502C699.785 134.502 700.142 138.287 700.142 141.93C700.142 144.073 699.928 145.502 699.571 146.216C698.928 147.43 698.356 148.287 697.928 148.644C695.642 150.144 693.428 150.287 691.356 149.216C690.213 148.644 690.071 146.644 690.428 144.859C690.428 144.002 689.571 130.716 689.571 129.93C689.642 117.859 689.856 109.502 690.213 104.93C690.499 101.644 692.928 102.144 695.571 101.787C697.785 101.359 698.356 101.43 698.571 103.216C698.642 103.93 698.785 104.43 698.856 104.644C699.142 106.359 699.356 114.073 699.071 115.93C699.071 116.359 699.571 118.43 699.571 118.716Z" fill="#FFF799" stroke="#040000" stroke-width="4.5" stroke-linecap="round" stroke-linejoin="round"/>
<path d="M723.212 138.928C721.355 136.642 719.998 135.071 717.998 133.214C715.355 130.785 712.855 127.142 710.355 122.357C710.14 122.071 710.069 121.642 710.069 121C710.069 120.357 710.14 120 710.355 119.785C713.926 115.357 716.998 111.714 719.569 108.928C720.141 108.285 720.498 107.785 721.14 107.357C722.14 106.785 722.498 108.214 722.64 109.357C722.712 109.428 723.069 109.714 723.141 109.785C724.926 112.071 728.212 115.357 732.926 119.714C737.64 124.071 741.069 127.785 743.14 130.857C745.426 133.857 748.212 136.928 750.569 139.785C751.998 141.357 751.855 142.5 750.355 143.857C746.069 147.571 742.64 150.857 738.64 155.357C734.569 159.857 734.426 159.928 729.14 164.785C728.498 165.357 727.712 165.928 726.712 166.571C725.783 167.142 722.14 169.428 715.926 173.428C710.926 169.071 708.14 166.571 707.569 165.928C706.14 164.642 702.926 161.428 705.426 159.142C707.355 157.428 713.998 151.214 715.783 149.571C717.64 147.928 719.712 146.071 722.14 144.071C722.212 144.071 723.426 143.214 725.64 141.785L723.283 138.928H723.212Z" fill="#FFF799" stroke="#040000" stroke-width="4.5" stroke-linecap="round" stroke-linejoin="round"/>
</svg>
