<svg width="250" height="89" viewBox="0 0 250 89" fill="none" xmlns="http://www.w3.org/2000/svg">
<path d="M131.441 7.0187C112.799 7.94727 94.1558 8.73297 75.5843 10.233C54.8701 11.8758 15.1557 7.73301 5.08426 31.5902C-0.487164 44.6616 3.94146 68.1616 18.0843 74.3044C33.87 81.233 53.0128 84.233 70.1557 84.8044C87.2986 85.3758 104.799 86.3758 121.941 86.0901C139.084 85.8044 157.513 82.0902 175.227 80.3044C187.656 79.0902 199.013 75.5187 210.941 72.3759C223.656 69.0187 234.441 66.233 242.441 56.0902C251.37 44.733 246.084 22.233 233.156 14.4473C227.084 10.733 216.299 9.66157 209.227 8.09014C202.799 6.66157 196.156 5.44728 189.656 4.51871C180.441 3.16157 172.37 1.66154 163.299 3.87583C154.227 6.09011 144.013 6.23301 134.37 6.87587C133.441 6.87587 132.513 7.0187 131.584 7.0187H131.441Z" fill="white" stroke="#040000" stroke-width="5.5" stroke-linecap="round" stroke-linejoin="round"/>
<path d="M36.7236 31.3078C38.0093 31.3078 39.0093 33.1649 39.6522 36.8077V37.8077C39.6522 42.4506 37.7235 44.8078 33.8664 44.8078H33.4378C32.1521 44.8078 30.8665 43.6649 29.7236 41.3078V38.3077C29.7236 33.6649 31.9379 31.3078 36.3664 31.3078H36.795H36.7236ZM32.1522 38.7363V40.2363C33.5093 40.2363 34.2236 40.5935 34.2236 41.2363C36.1521 40.8078 37.1522 39.6649 37.1522 37.7363C37.1522 36.0221 36.7235 35.022 35.8664 34.7363C33.6521 34.7363 32.3665 36.0935 32.1522 38.7363ZM41.7236 51.3077L43.3664 52.8077L42.9379 56.3078V57.8078C43.0093 58.4506 43.295 58.8078 43.795 58.8078H44.2236L46.295 58.3078V58.8078L47.1521 58.3078H52.9379C53.2951 58.3078 53.7236 58.8077 54.2236 59.8077V61.3077L53.3665 62.8077L51.295 62.3077C45.0093 62.9506 41.7236 63.3077 41.295 63.3077C40.6522 60.6649 40.2235 59.3077 40.0093 59.3077C40.295 53.9506 40.8665 51.3077 41.6522 51.3077H41.7236ZM53.0093 28.2363H53.8664C54.295 28.2363 54.6521 28.7363 55.0807 29.7363V31.2363C55.0807 34.9506 55.3665 38.9506 55.9379 43.2363H55.5092L55.9379 44.2363C55.9379 45.9506 55.5093 46.9506 54.6521 47.2363C53.7236 47.2363 53.0093 45.8792 52.5808 43.2363H51.295C50.4378 43.2363 50.0093 43.0935 50.0093 42.7363L47.9378 43.2363H46.6522C45.0093 43.2363 44.1521 42.3792 44.1521 40.7363L45.4379 39.7363H51.2236C51.795 39.7363 52.0807 39.3792 52.0807 38.7363V35.2363C51.2236 35.2363 50.2235 35.0934 49.1521 34.7363C47.7235 35.0934 46.2951 35.2363 45.0093 35.2363C43.6522 34.3792 42.9379 33.6649 42.9379 33.2363C43.3664 31.8792 44.3665 31.2363 45.8665 31.2363H52.1522C52.1522 29.2363 52.4379 28.2363 53.0093 28.2363Z" fill="black"/>
<path d="M66.8665 29.8125C68.0808 29.8125 68.7236 31.6696 68.9379 35.3125C68.9379 40.9553 66.8664 43.8125 62.6521 43.8125L62.2236 47.3125V48.3125H63.5093C64.3665 48.3125 67.5807 47.6696 73.0807 46.3125L73.5093 47.3125C72.2236 49.9553 70.0093 51.3125 66.8665 51.3125C66.8665 51.6696 66.4379 51.8125 65.6522 51.8125H61.5093C60.1522 51.1696 59.4378 49.3125 59.4378 46.3125C59.4378 43.0982 60.8664 40.9553 63.5807 39.8125C63.8664 39.8125 64.0093 39.9553 64.0093 40.3125C65.2236 39.9553 66.0807 39.1696 66.5093 37.8125L66.0808 35.3125V33.3125C63.8665 33.9553 61.2236 34.3125 58.1522 34.3125L57.7236 31.8125C62.3665 31.0982 65.4379 30.3839 66.8665 29.8125ZM78.9379 55.7411C79.8665 56.3839 80.4379 59.2411 80.5808 64.2411C80.0093 64.2411 79.7236 64.7411 79.7236 65.7411H79.295C77.9378 64.9554 77.2236 63.3125 77.2236 60.741V59.741C73.5093 60.0982 70.7236 60.241 68.8665 60.241H67.2236C66.6522 60.241 66.3664 59.8839 66.3664 59.241V58.241C66.3664 57.4553 68.1522 56.9553 71.7951 56.7411V57.241L78.8664 55.7411H78.9379ZM77.7235 30.7411C78.7235 30.7411 79.5807 33.2411 80.2236 38.2411C81.795 38.2411 82.795 38.3839 83.1522 38.7411L84.0093 38.2411L86.0808 38.7411V40.2411C86.0808 40.7411 85.6522 41.2411 84.795 41.7411H80.2236V42.2411L80.6521 44.741H80.2236L80.6521 45.741C80.0807 47.0982 79.795 48.0982 79.795 48.741C77.8665 48.741 76.8664 45.5982 76.8664 39.2411H77.295L76.0093 32.241V31.241C76.0093 31.241 76.7236 31.0982 77.6522 30.7411H77.7235Z" fill="black"/>
<path d="M93.6521 35.3136C98.0807 35.885 100.295 38.2422 100.295 42.3136C100.295 46.3851 98.0807 49.6707 93.6521 52.3136C90.8664 52.3136 88.9378 50.9565 87.7949 48.3136V46.8136C87.7949 39.1708 89.7235 35.3136 93.6521 35.3136ZM90.3664 45.8136C90.9378 47.8136 92.0092 48.8136 93.7235 48.8136C95.5806 48.8136 96.9378 46.9565 97.8664 43.3136C97.5092 40.3136 96.2235 38.8136 94.1521 38.8136C92.2235 40.0279 91.2235 41.3851 91.2235 42.8136C90.9377 42.8136 90.6521 43.8136 90.3664 45.8136ZM108.652 32.7422H110.295C111.152 32.7422 111.938 39.5994 112.795 53.2422C112.509 53.8851 112.366 54.3851 112.366 54.7422H111.938C110.295 54.7422 109.438 53.2422 109.438 50.2422C109.438 46.7422 109.009 41.7422 108.223 35.2422C108.509 34.6707 108.652 33.8136 108.652 32.7422Z" fill="black"/>
<path d="M132.655 26.7422C136.012 26.7422 137.655 28.385 137.655 31.7422C137.655 33.0279 136.512 35.2422 134.298 38.2422V39.7422L134.726 43.2422H139.298C140.941 43.4565 141.798 43.9565 141.798 44.7422V45.7422C141.798 46.2422 141.369 46.7422 140.583 47.2422L136.798 46.7422C131.655 48.0993 128.369 48.7421 126.798 48.7421L126.369 46.2422C129.655 44.885 131.441 44.2422 131.798 44.2422C131.798 40.2422 131.369 38.2422 130.583 38.2422C129.583 38.2422 128.298 37.0993 126.798 34.7422V33.2422C127.083 29.2422 128.441 27.2422 130.941 27.2422C131.441 26.885 132.012 26.7422 132.583 26.7422H132.655ZM129.298 33.8136C130.298 34.8136 131.298 35.3136 132.226 35.3136H132.655C133.798 34.6707 134.583 33.5993 135.155 32.3136V31.3136C135.155 30.6708 134.869 30.3136 134.369 30.3136H131.441C130.083 31.3136 129.369 32.4565 129.369 33.8136H129.298ZM135.155 52.7422C136.298 53.0279 136.798 53.385 136.798 53.7422L136.369 55.7422C136.655 57.1707 138.44 58.6707 141.798 60.2422C142.869 60.2422 144.083 57.7422 145.583 52.7422H147.655C147.655 54.3136 149.298 56.1707 152.655 58.2422C153.512 59.0993 153.869 60.0993 153.869 61.2421C153.869 61.7421 153.441 62.2422 152.655 62.7422C148.941 60.0993 146.869 58.7422 146.369 58.7422C145.012 62.385 144.012 64.2422 143.441 64.2422H142.226C142.226 62.885 140.726 62.2422 137.655 62.2422C137.655 62.0279 136.941 61.385 135.583 60.2422H134.369C134.012 64.2422 133.298 66.2422 132.298 66.2422H131.869C131.298 66.2422 131.012 65.885 131.012 65.2422V64.2422C131.012 61.1708 132.369 57.3136 135.155 52.7422ZM147.655 28.2422H149.298C149.298 33.2422 149.869 35.7421 150.94 35.7421C153.44 35.9564 154.655 36.5993 154.655 37.7422L154.226 40.2422H150.083V44.2422C149.512 45.0993 149.226 45.7422 149.226 46.2422H148.369C148.369 45.7422 147.94 45.0993 147.155 44.2422V41.7422C147.155 40.385 147.012 38.5279 146.726 36.2421C147.012 35.6707 147.155 35.0279 147.155 34.2422C146.869 33.5993 146.726 33.0993 146.726 32.7422L147.155 31.7422C146.869 31.1707 146.726 30.4565 146.726 29.7422V29.2422C146.798 28.5993 147.083 28.2422 147.583 28.2422H147.655Z" fill="black"/>
<path d="M161.937 26.7372H162.366C164.866 26.7372 166.509 28.0943 167.366 30.7372C166.652 36.0943 165.009 38.7372 162.366 38.7372H161.08C158.009 38.2372 156.509 37.38 156.509 36.2372V34.7372C156.509 32.0229 158.294 29.3801 161.937 26.7372ZM162.366 29.3086C160.294 32.3086 159.223 34.3086 159.009 35.3086C160.366 35.3086 161.08 35.6657 161.08 36.3086C163.009 36.3086 164.366 35.1658 165.223 32.8086V32.3086C165.223 31.7372 164.294 30.7372 162.294 29.3086H162.366ZM164.794 48.2372H166.08V48.7372C166.08 49.9514 165.509 51.4515 164.437 53.2372C164.437 53.6658 166.509 55.5229 170.723 58.7372C173.294 51.8086 174.794 48.3086 175.294 48.2372H175.723C176.294 48.2372 176.58 48.7372 176.58 49.7372L175.366 54.2372C179.795 57.5943 182.009 59.9514 182.009 61.2372V61.7372C182.009 62.38 181.723 62.7372 181.152 62.7372H180.723C179.366 62.7372 177.152 61.0943 174.08 57.7372C173.58 57.7372 172.866 59.2372 172.009 62.2372C172.294 62.2372 172.437 62.3801 172.437 62.7372C172.009 62.7372 171.437 63.2372 170.795 64.2372H169.937V61.2372L170.366 60.2372C168.294 60.2372 165.937 59.2372 163.294 57.2372H162.866C162.866 58.88 162.58 59.7372 162.009 59.7372L162.437 60.7372C161.866 62.2372 161.366 63.0943 160.794 63.2372H159.937C159.366 63.2372 159.08 62.8801 159.08 62.2372C160.366 57.2372 162.294 52.5229 164.866 48.2372H164.794ZM179.009 25.8086H180.294C180.58 28.7372 180.723 30.3801 180.723 30.8086L180.294 31.8086L181.509 39.8086C181.08 41.4514 180.223 42.3086 179.009 42.3086C178.509 41.5943 178.152 39.0943 177.723 34.8086H170.223C169.794 34.8086 169.366 34.3086 168.937 33.3086C169.223 31.9515 169.937 31.3086 171.009 31.3086V31.8086L171.866 31.3086H174.366C174.366 31.3086 174.794 31.4515 174.794 31.8086L175.652 31.3086H177.723C177.723 27.6658 178.152 25.8086 179.009 25.8086Z" fill="black"/>
<path d="M184.584 37.3156C185.369 37.3156 186.155 41.4584 187.084 49.8156L187.941 50.3156C191.869 49.6727 194.512 49.3156 195.869 49.3156V51.8156C195.869 52.387 192.798 53.2442 186.726 54.3156C185.369 53.3156 184.655 51.9584 184.655 50.3156L185.084 49.3156C184.226 44.387 183.798 40.5299 183.798 37.8156L184.655 37.3156H184.584ZM202.012 36.8156C202.012 36.8156 202.726 37.4584 203.298 38.8156L202.869 43.3156C202.869 45.5299 203.155 49.1728 203.726 54.3156L202.869 54.8156H201.584C201.012 53.1728 200.512 50.0299 199.941 45.3156L195.798 45.8156H194.584C192.941 45.8156 192.084 45.1727 192.084 43.8156C192.369 43.1727 192.512 42.6728 192.512 42.3156C193.369 42.3156 193.798 42.4585 193.798 42.8156L195.869 42.3156H199.655C200.226 42.3156 200.584 40.5299 200.941 36.8156H202.155H202.012ZM206.655 36.2441H207.512C208.512 36.2441 209.512 42.7442 210.441 55.7442C210.155 56.3156 210.012 56.9584 210.012 57.7442C209.584 57.387 208.798 57.2442 207.512 57.2442L207.941 56.2442L205.869 37.2442C205.941 36.6013 206.226 36.2441 206.726 36.2441H206.655Z" fill="black"/>
<path d="M213.01 28.2363H213.439C214.296 28.2363 214.939 31.8792 215.51 39.2363L216.368 47.2363L215.082 48.2363H214.225C213.368 48.2363 212.725 42.7363 212.153 31.7363V29.2363C212.225 28.5935 212.51 28.2363 213.01 28.2363ZM213.868 56.8078H215.939V60.3077C215.296 60.3077 214.725 60.4506 214.296 60.8077C213.796 60.4506 213.368 60.3077 213.082 60.3077V57.8078C213.153 57.1649 213.439 56.8078 213.939 56.8078H213.868Z" fill="black"/>
</svg>
