<svg width="181" height="94" viewBox="0 0 181 94" fill="none" xmlns="http://www.w3.org/2000/svg">
<path d="M87.947 3.04654C86.0899 3.04654 84.3043 3.04654 82.4471 3.04654C73.5185 3.04654 64.5185 4.11797 55.7328 4.04654C46.8042 3.97511 37.3042 2.97511 28.7328 6.61797C21.1614 9.76083 10.09 13.6179 6.08995 22.3322C0.947097 33.5465 1.23275 49.9037 3.23275 61.9751C4.73275 71.2608 7.44711 75.8322 14.8042 80.2608C22.1614 84.618 30.0899 88.0465 38.1613 89.9036C49.5185 92.5465 62.3042 90.5465 73.8756 90.6179C90.8042 90.7608 107.304 85.5465 124.233 85.0465C131.304 84.8322 138.59 85.5465 145.447 83.4037C150.376 81.8323 155.018 79.0465 159.947 77.2608C168.018 74.2608 176.661 72.0465 178.233 60.8322C181.09 40.5465 175.733 22.8322 160.661 12.1179C143.876 0.189321 122.518 2.7608 103.59 1.90366C99.9471 1.7608 96.4471 3.04654 92.9471 3.04654C91.3043 3.04654 89.5899 3.04654 87.947 3.04654Z" fill="#F4F2A5" stroke="#040000" stroke-width="3.78571" stroke-linecap="round" stroke-linejoin="round"/>
<path d="M67.4484 58.191C68.5199 58.191 69.2341 58.548 69.6627 59.1195C70.0198 59.6909 70.377 60.9052 70.5913 62.6195C70.7342 63.9052 70.5199 65.3338 69.8056 66.9053C75.3056 66.7624 78.877 66.6195 80.5199 66.5481C82.5199 66.4767 84.0912 66.5481 85.1627 66.5481C85.4484 66.5481 86.377 66.8338 87.877 67.5481C87.9484 67.5481 88.3056 67.9053 88.3056 68.1195C88.2341 69.191 88.5199 71.0481 88.4484 72.1909C88.4484 73.6909 87.5913 75.3337 86.7341 75.6194C86.5198 75.6194 81.1627 76.691 81.1627 76.4767H54.377C52.877 76.4767 47.7342 76.6909 46.1627 76.6909C45.1627 76.6909 44.1627 76.4766 43.2341 75.9766L42.5913 71.2624L43.2341 68.9766C43.4484 68.2624 43.877 67.8338 44.4484 67.8338L48.5199 67.3338C52.5913 67.3338 56.9485 67.191 61.5913 67.1195C60.7342 65.9053 60.877 64.8338 60.8056 62.4766C60.8056 61.1195 60.8055 60.1909 60.7341 59.6909C60.7341 58.6195 60.9485 58.191 61.8056 58.191C62.6628 58.191 66.5199 58.191 67.377 58.191H67.4484ZM55.877 53.9052C52.8056 53.9052 50.7341 53.9052 49.6627 54.1195C48.4484 54.3338 47.5913 54.3338 47.1627 53.9052C46.0199 52.9766 45.5199 48.7623 45.377 46.1909C45.3056 43.6909 45.4484 37.9052 45.4484 35.6195C45.4484 34.7624 45.5912 33.0481 45.877 30.4767C46.2341 27.9052 47.5198 25.9052 49.6627 25.5481C50.877 25.3338 52.1627 25.0481 53.4484 24.9052C54.0198 24.9052 54.4484 24.9052 54.7341 24.9052C57.877 25.1909 61.8055 25.8338 64.7341 26.3338C65.2341 26.4052 65.5199 26.3338 65.6627 26.1195C66.2341 24.9766 67.2342 24.5481 68.5913 25.0481C69.877 25.2624 72.6628 25.6909 77.0913 26.3338C78.6628 26.5481 79.0198 25.9052 80.1627 25.7623C82.2341 25.5481 83.7341 26.691 85.0913 27.6196C85.0913 27.6196 85.5199 27.8337 86.2342 28.1909V35.191C84.3056 36.2624 82.3056 36.1909 79.7341 35.8338C77.0199 35.4767 76.877 35.2624 73.9484 35.8338C73.6627 35.9052 73.2342 36.8338 73.1627 37.3338C73.0199 38.3338 73.3055 39.691 73.4484 41.1195C73.5198 42.0481 73.5913 43.4052 74.0198 43.5481C74.5198 43.7624 75.5913 43.9766 76.1627 43.9766C76.4484 43.9766 78.2342 43.9766 78.5199 43.9766C78.877 43.9766 84.2341 43.8338 84.5912 43.9766C85.0198 43.9766 85.5198 45.4052 85.5198 45.9052C85.5198 47.0481 85.0913 48.3338 84.9484 49.2624C84.4484 52.1195 83.3056 53.691 80.7341 53.8338C79.3056 53.9053 73.5198 54.4767 71.877 54.4767C70.7341 54.4767 66.4484 53.9053 65.4484 53.8338C64.8056 53.8338 62.7341 54.0481 62.0913 54.0481C60.877 54.0481 56.9484 53.7623 55.7341 53.7623L55.877 53.9052ZM64.7341 41.2623V35.1195L52.5199 35.6909L54.0198 43.3338C56.5198 42.9767 57.877 42.7624 58.0199 42.7624C58.0199 42.7624 61.6627 42.3338 61.6627 42.4052C61.6627 42.4052 62.2341 42.4052 63.5198 42.4052C64.4484 42.4766 64.6627 42.3338 64.6627 41.1909L64.7341 41.2623Z" fill="white" stroke="#231C1C" stroke-width="3.57143" stroke-miterlimit="10"/>
<path d="M106.876 39.9002C104.304 39.3288 102.733 38.9717 102.09 38.9002C101.447 38.9002 99.3757 39.186 98.8042 39.186C97.3757 39.186 95.4471 39.186 93.1614 38.9717C92.2329 38.7575 92.0185 37.6145 92.0185 36.3288C91.8757 35.4717 91.8043 34.7575 92.0185 33.9718C92.3043 32.4718 92.59 31.5431 93.1614 30.3288C93.7329 29.1146 93.4471 29.0431 95.0185 28.7574C98.7328 28.0431 100.947 27.6146 101.733 27.5431C102.59 27.5431 105.59 28.0432 106.304 28.0432C107.161 28.0432 109.947 27.9003 110.804 28.0432C113.376 28.1146 115.519 29.4003 116.876 31.2574C117.661 32.3289 118.09 33.6146 118.019 34.9718C118.019 36.8289 118.376 46.4003 118.304 48.2575C118.304 50.1861 117.661 51.3289 117.019 52.6146C116.804 53.1146 116.447 53.4717 115.876 53.7574C112.876 55.186 110.376 55.6861 108.376 55.1861C106.947 54.9718 106.947 55.0431 105.519 55.3288C104.876 55.4717 104.376 55.5431 104.018 55.5431C104.018 55.8288 103.947 58.5432 103.947 58.7575C107.233 58.3289 110.947 58.4718 115.019 59.186C118.019 59.8289 115.519 65.5432 115.304 67.6861C114.733 69.9003 113.161 69.9003 110.804 70.686C108.161 71.5432 108.59 71.4003 106.018 71.9717C103.447 72.5431 101.019 72.5432 98.7328 71.686C97.9471 71.3289 94.8043 69.9003 93.9471 69.4718C92.9471 68.9718 92.4471 67.8288 92.5185 66.0431C92.5185 62.9003 93.5899 55.6146 93.6614 52.4717C93.5899 48.5432 94.5185 46.5432 96.4471 46.5432C98.3757 46.4717 102.161 47.0431 104.233 46.9717C105.447 46.9717 106.661 46.6146 107.733 46.1146C107.733 46.1146 107.733 45.6146 107.661 44.686C107.59 43.686 107.161 41.2574 107.161 40.4003C107.161 40.2574 106.876 39.8289 106.733 39.8289L106.876 39.9002ZM133.733 70.3289C133.733 71.9717 133.376 73.0431 132.59 73.6145C130.59 74.9717 129.09 75.6146 128.161 75.5431C124.804 75.5431 124.019 74.3288 123.804 70.4003C123.59 64.686 123.447 60.8288 123.447 58.686C123.447 55.686 123.59 46.2575 123.947 30.4003C124.09 28.4003 124.519 26.6146 124.947 24.9003C125.161 23.8289 125.661 23.9002 126.661 23.6145C127.804 23.2574 127.661 23.2575 128.804 23.0432C130.09 22.7575 131.161 23.0431 132.161 23.5431C133.161 24.1146 133.661 25.186 133.804 26.8289C133.804 27.5432 133.804 29.9718 133.876 34.186C133.947 38.4003 133.947 41.0431 134.09 42.0431C134.304 43.3288 135.376 44.686 136.161 45.6145C136.733 46.3288 137.804 47.686 138.447 48.3289C139.161 49.186 139.661 50.186 139.519 51.9003C139.376 53.7574 139.304 53.686 138.947 55.4717C138.661 56.9003 137.59 57.686 135.733 57.7574C133.733 57.7574 133.59 58.1861 133.661 60.7575C133.661 61.9718 133.804 69.1146 133.804 70.3289H133.733Z" fill="white" stroke="#231C1C" stroke-width="3.57143" stroke-miterlimit="10"/>
</svg>
