<svg width="550" height="620" viewBox="0 0 550 620" fill="none" xmlns="http://www.w3.org/2000/svg">
<g clip-path="url(#clip0_39_2609)">
<path d="M465.857 297.661L468.268 296.769C469.211 299.32 470.321 300.359 471.596 299.888L475.719 297.826C477.509 297.78 478.598 298.281 478.985 299.329C479.489 300.691 477.352 302.753 472.575 305.513L473.938 307.749L474.995 310.606C475.163 311.06 474.869 311.715 474.113 312.57C471.877 313.397 469.46 310.3 466.862 303.277L465.272 298.98C465.138 298.295 465.333 297.855 465.857 297.661ZM447.558 305.532L452.825 303.584C455.97 302.421 458.611 304.165 460.748 308.815C462.228 312.816 459.925 316.389 453.84 319.533C451.027 320.574 448.503 319.144 446.266 315.245C445.277 312.572 445.708 309.335 447.558 305.532ZM450.886 308.65C450.312 310.749 450.048 312.476 450.092 313.83C450.878 314.989 452.074 315.271 453.682 314.677C456.232 313.733 457.193 311.928 456.564 309.261L456.215 308.318C455.924 307.532 454.148 307.643 450.886 308.65ZM464.322 324.354C471.659 321.64 475.977 322.039 477.276 325.55L477.625 326.494C479.014 330.25 477.133 333.487 471.983 336.207C467.437 336.697 464.59 335.387 463.439 332.277L462.383 329.421C462.458 328.122 463.105 326.433 464.322 324.354ZM467.562 330.216L467.921 331.185C468.602 332.006 469.737 332.122 471.327 331.534C473.563 330.707 474.387 329.499 473.799 327.909C473.258 327.414 472.923 326.991 472.794 326.642L469.912 327.708C468.068 328.629 467.284 329.465 467.562 330.216Z" fill="#040000"/>
<path d="M429.033 316.734L429.504 316.56C430.465 316.204 431.81 317.881 433.54 321.591C433.452 322.318 433.472 322.857 433.601 323.206L436.335 323.268C437.948 322.314 439.331 321.623 440.484 321.197L442.869 320.315C443.536 320.187 443.97 320.394 444.171 320.935L444.519 321.879L444.93 324.438C439.27 326.908 436.26 328.568 435.899 329.417L439.996 336.063L440.17 336.535C440.803 338.247 440.579 339.601 439.498 340.597L439 340.781C437.096 341.485 433.549 334.824 428.36 320.796L427.827 319.355C427.64 318.848 428.042 317.975 429.033 316.734ZM411.991 323.574C416.219 322.01 419.812 323.402 422.77 327.749L424.011 331.103C424.465 336.734 423.016 340.17 419.661 341.411L417.749 342.118C415.006 343.133 412.327 341.77 409.713 338.031L409.354 337.061C408.492 329.039 409.371 324.544 411.991 323.574ZM413.005 335.174L413.18 335.646C414.083 337.497 414.919 338.28 415.687 337.995L419.041 336.755C420.532 334.932 420.951 333.139 420.298 331.374C419.006 327.881 416.927 326.664 414.062 327.723C412.802 331.188 412.45 333.672 413.005 335.174Z" fill="#040000"/>
<path d="M383.813 330.751L385.726 330.043C385.933 330.602 386.55 331.278 387.578 332.069C387.694 332.384 387.586 332.602 387.255 332.725L389.526 337.336L391.29 342.105C391.924 343.817 391.7 345.171 390.618 346.167L383.91 348.649C381.674 349.476 379.848 347.976 378.433 344.151C377.447 342.45 376.346 339.958 375.131 336.674C374.997 335.988 375.2 335.546 375.742 335.345L377.655 334.638C379.152 337.718 380.215 339.142 380.844 338.91C383.051 337.736 384.372 336.88 384.809 336.341L383.08 333.197L382.896 332.699C382.728 332.245 383.034 331.596 383.813 330.751ZM389.255 329.274L389.727 329.1C390.198 328.925 390.856 329.228 391.701 330.008L393.465 334.777L393.937 334.603C396.991 333.036 398.354 331.807 398.024 330.916L396.609 327.09L398.819 325.736L402.855 330.768L403.624 334.296C404.585 335.927 405.214 337.144 405.511 337.947C406.176 339.747 403.841 342.239 398.506 345.424C398.622 345.739 398.2 346.074 397.239 346.429C396.278 346.784 393.273 342.097 388.224 332.367C388.299 330.69 388.643 329.66 389.255 329.274ZM382.259 342.735L382.618 343.705C382.955 344.295 383.395 344.49 383.936 344.29L386.792 343.233C387.439 342.994 387.646 342.56 387.413 341.931L386.88 340.49L386.049 339.695C384.064 341.522 382.8 342.535 382.259 342.735ZM396.034 338.742L396.557 340.157C396.884 340.771 397.318 340.978 397.859 340.778L401.326 338.393L400.27 335.537L399.798 335.711C397.004 336.963 395.75 337.974 396.034 338.742ZM408.202 351.102C408.947 351.184 409.486 351.163 409.818 351.04L410.7 353.425C410.933 354.054 410.208 355.047 408.525 356.404C407.896 356.637 407.524 356.596 407.407 356.281C401.805 359.069 395.545 361.742 388.627 364.301L387.134 363.244L386.776 362.275C386.188 360.685 392.593 357.412 405.992 352.456C405.876 352.141 406.613 351.69 408.202 351.102Z" fill="#040000"/>
<path d="M317.025 313.324L318.384 328.272C318.599 330.346 317.526 333.064 317.24 335.21C317.025 337.141 317.526 340.074 317.168 341.933L313.807 357.597C318.67 364.249 325.394 359.457 333.476 363.82L345.277 370.257C348.853 372.188 352.358 374.978 355.148 377.982C357.365 380.413 359.94 382.988 361.728 385.635L366.52 392.859C368.737 396.22 371.097 399.94 372.456 403.873L374.531 409.881C375.389 412.456 376.963 414.316 377.535 417.034C378.322 421.039 379.394 425.259 378.965 429.336C378.393 434.2 377.964 438.849 376.82 443.569L373.887 455.585L372.313 453.654C369.882 450.65 362.586 449.792 359.225 450.436L348.138 452.438C344.061 453.154 340.199 454.441 336.48 456.229C327.253 460.664 319.028 466.171 311.375 472.894C302.863 480.404 295.854 486.484 293.065 497.785C291.706 503.292 289.059 515.237 290.704 519.886H274.54C263.668 519.886 267.173 521.173 259.591 521.245C256.086 521.245 253.011 521.888 249.506 522.318C243.355 522.961 237.132 522.532 230.838 522.318C226.618 522.175 222.613 523.176 218.393 523.534C212.457 524.034 206.234 524.249 200.369 523.677C195.934 523.247 191.929 521.602 187.495 522.103C179.841 522.961 172.403 522.461 164.75 521.316C153.521 519.6 147.87 521.03 139.287 517.311C142.077 515.737 144.008 513.306 144.294 509.801C146.082 488.057 134.638 464.955 115.541 454.298C106.529 449.291 96.6587 448.075 86.5022 447.074C77.9908 446.216 66.2609 444.714 61.0396 452.581C60.3959 453.511 59.8237 454.298 59.2515 454.942C55.1746 438.92 57.2487 422.684 62.9707 407.593C66.1177 399.224 70.2662 392.358 76.4173 385.921C79.8504 382.344 83.2836 379.054 87.1459 375.836C90.5791 373.046 93.7975 370.257 97.7314 368.326C101.308 366.538 104.526 364.821 108.245 363.176C113.681 360.816 121.549 361.531 121.692 358.813C121.835 354.951 122.05 350.23 121.406 346.582L119.976 337.713C119.046 331.848 118.473 326.198 118.76 320.19L119.332 308.317L119.976 308.889C121.549 314.826 124.982 319.975 130.49 322.765C138.786 326.913 148.871 323.981 154.236 316.328C161.531 319.975 170.257 322.121 176.623 315.326L179.555 316.9C185.921 320.404 193.717 318.831 197.722 312.537C198.009 312.036 198.652 311.321 199.01 311.035C199.224 312.751 199.225 314.325 199.153 315.97L198.795 331.562L198.652 344.15C198.652 345.724 199.511 347.87 200.583 348.585C203.945 350.945 206.592 348.871 209.166 348.37C214.888 347.226 220.324 348.513 225.903 349.3C237.991 351.017 235.058 354.164 241.996 352.733C243.57 349.229 240.28 342.648 240.065 337.785C239.707 330.132 239.922 322.765 240.494 315.183C240.709 312.108 241.352 309.032 241.424 305.957V297.803C241.424 297.803 242.282 299.305 242.425 299.948C242.997 304.669 244.857 309.39 248.505 312.68C256.229 319.689 264.741 317.257 272.68 311.607C277.758 320.619 288.272 320.762 295.711 315.112C296.569 314.468 298.071 314.539 298.786 315.255C303.865 320.261 311.303 319.761 315.809 314.539C316.095 314.253 316.882 313.61 317.097 313.395L317.025 313.324Z" fill="#FEFEFE"/>
<path d="M198.938 310.889C198.938 310.889 197.936 311.89 197.65 312.391C193.645 318.685 185.921 320.259 179.483 316.754L176.551 315.181C170.185 321.975 161.459 319.901 154.164 316.182C148.728 323.907 138.714 326.839 130.418 322.619C124.91 319.83 121.477 314.68 119.903 308.743L119.26 308.171C119.331 306.097 119.975 304.38 120.047 302.449L120.333 294.51C120.547 288.359 122.335 282.422 124.123 276.557L128.2 263.111C131.49 252.311 145.223 242.726 153.735 242.941L162.818 243.156C167.61 243.227 171.973 243.656 175.907 246.517C185.062 253.097 189.64 262.682 193.073 273.267C194.003 276.271 195.076 279.204 195.862 282.208L198.294 291.721C200.297 299.445 196.005 298.659 198.08 306.812C198.437 308.314 198.795 309.673 198.938 310.818V310.889Z" fill="#F1B2B0"/>
<path d="M317.024 313.324C317.024 313.324 315.951 314.11 315.736 314.468C311.159 319.689 303.72 320.19 298.714 315.183C297.998 314.468 296.496 314.396 295.638 315.04C288.271 320.691 277.686 320.619 272.607 311.535C264.668 317.186 256.157 319.618 248.432 312.608C244.784 309.318 242.996 304.526 242.352 299.877C242.281 299.233 241.709 298.017 241.494 297.731C242.639 293.869 242.352 290.364 242.639 286.43C243.068 280.494 244.57 274.557 246.143 268.764C249.004 257.964 255.656 245.161 266.742 241.155C270.819 239.653 275.754 238.795 279.903 239.868C286.34 241.585 292.205 243.516 298.428 245.59C301.718 246.734 304.722 249.238 306.224 252.385C308.513 257.32 310.372 261.969 312.303 267.047C313.376 269.765 313.376 272.769 313.662 275.773C314.306 282.64 315.737 289.148 316.952 296.015C317.954 301.88 316.595 307.816 317.095 313.395L317.024 313.324Z" fill="#F1B2B0"/>
<path d="M139.214 517.312C137.784 516.954 135.852 517.025 134.494 515.81C133.421 514.88 130.631 515.166 129.344 514.737L114.395 510.374C110.247 509.158 105.812 508.443 102.021 506.583L94.7976 503.007C92.7949 502.077 90.6491 500.503 88.9326 498.93C76.6304 487.987 70.1217 483.767 63.0408 468.46C60.9666 464.026 60.3229 459.305 59.25 454.871C59.7507 454.227 60.3944 453.44 61.0381 452.511C66.2594 444.643 77.9178 446.145 86.5008 447.003C96.6572 448.004 106.599 449.22 115.54 454.227C134.565 464.813 146.08 487.915 144.292 509.73C144.006 513.235 142.075 515.666 139.286 517.24L139.214 517.312Z" fill="#F1B2B0"/>
<path d="M373.815 455.513L370.954 471.391C370.524 473.894 369.165 476.612 367.735 478.686L361.87 487.341C357.507 493.778 349.139 500.573 342.773 505.222C340.413 506.939 337.838 509.013 335.12 510.086C330.471 511.874 325.965 513.519 321.173 514.806L306.725 518.597C301.146 520.099 295.925 519.813 290.56 519.813C288.915 515.164 291.562 503.219 292.921 497.712C295.71 486.411 302.719 480.332 311.231 472.821C318.884 466.098 327.109 460.591 336.336 456.156C340.127 454.368 343.917 453.152 347.994 452.366L359.081 450.363C362.371 449.791 369.666 450.577 372.17 453.581L373.743 455.513H373.815Z" fill="#F1B2B0"/>
<path d="M135.784 579.823C134.067 575.818 133.996 571.669 134.067 567.664C134.067 560.869 135.998 553.216 139.217 547.137L145.082 536.122L148.515 529.613L151.018 525.036C148.301 524.964 136.785 522.318 134.711 521.459C132.494 520.53 130.92 520.029 128.631 519.385L109.749 514.164C99.5925 511.303 90.7234 507.083 82.8557 500.074L74.2727 492.349C70.4819 488.916 67.4065 485.197 64.5455 481.048C60.0395 474.539 57.4647 467.816 55.462 460.235C50.7414 442.568 51.3851 424.472 58.1084 407.307C60.3972 401.442 62.5428 395.72 66.3336 390.713C70.1244 385.706 73.8437 380.914 78.6358 376.909L85.7883 370.901C88.3631 368.755 90.938 366.466 94.0135 364.893C103.455 360.029 106.03 357.812 116.901 356.095C117.76 349.443 116.401 346.296 115.256 338.5C114.469 332.778 113.683 327.271 113.969 321.406L114.684 307.101L115.542 300.306C116.186 295.586 115.757 291.151 116.973 286.573L121.98 267.333C125.27 254.674 133.209 244.517 145.726 240.154C154.237 237.222 154.38 238.581 164.179 238.509C167.111 238.509 170.33 238.652 173.048 239.725C185.493 244.732 193.003 257.535 196.937 269.765L200.227 280.136L203.231 291.652C203.946 294.37 203.732 297.159 202.874 299.877C201.014 305.742 204.089 305.456 203.946 313.967L203.589 333.35L203.446 344.937C213.316 341.576 218.609 343.507 227.836 344.723C231.126 345.152 233.915 345.939 237.348 347.298C235.06 340.646 234.774 334.352 235.131 327.7C235.417 322.979 235.346 318.33 235.918 313.753C236.49 309.175 236.776 305.384 236.633 300.878C236.562 297.946 237.921 295.085 237.849 292.081V285.358C237.706 280.065 239.709 275.201 240.925 270.123C242.784 262.327 245.717 255.103 250.366 248.451C257.018 238.938 268.39 233.145 280.048 235.219C286.986 236.435 293.423 238.938 300.075 241.227C304.939 242.944 308.944 246.448 310.947 251.24L316.812 265.331C318.171 268.692 318.314 272.197 318.6 275.845C319.387 288.505 322.748 292.939 322.176 307.387C321.962 312.608 322.033 317.758 322.748 322.908C323.249 326.556 323.464 329.774 322.605 333.35C321.246 339.144 323.249 337.928 320.96 347.87L319.101 356.095C325.538 358.098 328.47 355.594 335.766 359.528L347.567 365.894C351.358 367.897 355.149 370.758 358.01 373.833L363.446 379.698C365.377 381.772 366.664 384.347 368.309 386.565C370.169 389.139 371.743 391.357 373.03 394.289C374.318 397.222 376.32 400.226 377.465 403.301C380.969 413.1 380.468 407.736 382.757 418.107C385.046 428.478 382.471 440.708 379.825 451.079C376.177 465.527 377.894 473.61 369.382 484.839C366.736 488.344 364.662 492.492 361.515 495.568C355.006 502.005 347.496 508.156 339.771 513.02C336.338 515.165 332.046 516.31 328.184 517.526L318.672 520.53L305.797 524.106C304.51 524.463 302.865 524.535 301.506 524.535L290.205 524.821C297.143 534.906 302.006 544.276 305.654 555.219C307.728 561.37 308.944 567.664 306.941 574.101C306.155 576.533 304.009 578.965 302.221 580.825C297.5 585.76 292.494 589.193 285.413 588.978C283.911 595.201 282.051 601.495 277.33 605.93C273.111 609.935 268.247 613.726 262.739 616.015C256.66 618.59 249.364 619.662 243.07 618.16L233.486 615.943C230.983 615.371 228.909 613.726 227.12 611.437C219.324 617.946 206.95 621.522 197.009 619.376C186.208 617.087 176.124 615.299 168.971 606.645L162.105 598.348C160.317 596.202 159.101 594.057 157.813 591.339C155.596 591.339 152.807 591.339 150.446 591.124C143.866 590.48 138.502 585.688 135.927 579.537L135.784 579.823ZM241.425 297.66V305.814C241.282 308.889 240.638 311.965 240.424 315.04C239.852 322.55 239.566 329.989 239.995 337.642C240.209 342.506 243.499 349.086 241.926 352.59C234.988 354.021 237.92 350.874 225.833 349.157C220.182 348.371 214.747 347.155 209.096 348.227C206.521 348.728 203.803 350.731 200.513 348.442C199.512 347.727 198.582 345.581 198.582 344.008L198.725 331.419L199.083 315.827C199.083 314.253 199.083 312.68 198.94 310.892C198.797 309.676 198.439 308.317 198.081 306.886C196.007 298.733 200.299 299.519 198.296 291.795L195.864 282.282C195.077 279.278 194.005 276.346 193.075 273.341C189.713 262.756 185.136 253.172 175.909 246.591C171.975 243.73 167.612 243.373 162.82 243.23L153.736 243.015C145.297 242.801 131.492 252.385 128.202 263.185L124.125 276.632C122.337 282.497 120.549 288.433 120.334 294.584L120.048 302.523C119.977 304.455 119.405 306.171 119.262 308.245L118.69 320.118C118.403 326.126 118.904 331.705 119.905 337.642L121.336 346.511C121.908 350.159 121.765 354.879 121.622 358.742C121.551 361.459 113.611 360.673 108.175 363.105C104.456 364.75 101.238 366.466 97.6613 368.254C93.7275 370.257 90.5088 373.046 87.0756 375.764C83.2133 378.911 79.7802 382.202 76.347 385.849C70.1959 392.286 66.119 399.153 62.9004 407.521C57.1784 422.613 55.1043 438.849 59.1812 454.87C60.3256 459.305 60.9693 464.025 62.972 468.46C70.0529 483.766 76.5616 487.914 88.8638 498.929C90.5803 500.431 92.7261 502.005 94.7288 503.006L101.953 506.582C105.744 508.442 110.25 509.157 114.326 510.373L129.275 514.736C130.562 515.094 133.352 514.879 134.425 515.809C135.855 517.025 137.715 516.953 139.145 517.311C147.728 521.03 153.379 519.6 164.608 521.316C172.261 522.461 179.7 522.961 187.353 522.103C191.787 521.602 195.793 523.248 200.227 523.677C206.092 524.249 212.315 523.963 218.251 523.534C222.471 523.176 226.477 522.175 230.697 522.318C236.991 522.532 243.213 522.961 249.364 522.318C252.798 521.96 255.945 521.316 259.449 521.245C267.031 521.102 263.526 519.814 274.398 519.814H290.562C295.927 519.814 301.148 520.1 306.727 518.598L321.175 514.808C325.967 513.52 330.401 511.875 335.122 510.087C337.84 509.086 340.415 506.94 342.775 505.223C349.141 500.574 357.509 493.779 361.872 487.342L367.737 478.688C369.168 476.614 370.455 473.896 370.956 471.392L373.817 455.514L376.749 443.498C377.894 438.849 378.323 434.2 378.895 429.265C379.396 425.188 378.251 420.968 377.465 416.962C376.964 414.244 375.39 412.385 374.46 409.81L372.386 403.802C371.027 399.868 368.667 396.22 366.45 392.787L361.658 385.563C359.941 382.917 357.295 380.413 355.077 377.91C352.359 374.906 348.783 372.117 345.207 370.185L333.406 363.748C325.323 359.385 318.6 364.177 313.736 357.526L317.098 341.862C317.527 340.002 316.955 337.141 317.17 335.139C317.384 332.993 318.529 330.275 318.314 328.201L316.955 313.252C316.454 307.673 317.813 301.737 316.812 295.872C315.596 289.005 314.165 282.497 313.522 275.63C313.236 272.698 313.236 269.694 312.163 266.904C310.232 261.826 308.3 257.177 306.083 252.242C304.653 249.095 301.649 246.591 298.287 245.447C292.064 243.373 286.199 241.442 279.762 239.725C275.614 238.652 270.679 239.51 266.602 241.012C255.516 245.018 248.864 257.821 246.003 268.621C244.429 274.414 242.927 280.351 242.498 286.287C242.212 290.15 242.498 293.726 241.354 297.588L241.425 297.66ZM163.964 593.27L170.902 602.067C174.478 606.573 178.985 610.15 184.635 611.652L196.007 614.656C202.444 616.372 208.739 615.442 214.89 613.154C225.69 609.077 223.401 605.572 226.763 605.715C230.124 605.858 230.84 610.507 234.058 611.294L243.714 613.654C249.15 615.013 255.802 613.869 261.023 611.723C265.243 610.007 268.891 607.074 272.252 604.285C280.191 597.776 281.622 586.618 279.905 577.034L278.618 570.096C278.475 569.238 279.762 567.664 280.549 567.521C283.696 567.092 283.911 572.456 284.411 575.746L285.77 584.329C291.635 585.331 300.075 577.535 302.221 572.885C307.228 561.656 291.707 534.548 284.268 524.893L273.969 524.463C270.75 524.32 267.675 524.964 264.528 525.608C262.024 526.109 259.235 525.751 256.517 526.108L249.078 527.11C240.996 528.183 234.416 525.822 219.61 528.183C216.034 528.755 212.172 528.54 208.452 528.612C205.162 528.612 201.658 529.041 198.582 528.326C185.636 525.179 183.562 528.612 167.898 526.538L157.742 525.179C155.954 526.395 154.094 529.184 153.021 531.187L148.944 538.983L143.008 549.998C139.789 555.934 138.931 562.943 138.716 569.667C138.573 575.246 140.147 580.252 144.438 583.829C147.8 586.618 152.377 587.619 156.597 586.547C155.238 580.467 156.669 582.899 155.453 577.105C155.095 575.603 155.31 573.744 156.454 572.599C156.955 572.099 158.529 571.813 159.101 571.956C159.673 572.099 160.46 573.315 160.46 574.03V579.036C160.603 582.541 162.462 591.41 163.964 593.27Z" fill="#2B201D" stroke="#231815" stroke-width="2.14573" stroke-miterlimit="10"/>
<path d="M163.965 593.272C162.535 591.412 160.604 582.543 160.532 579.038V574.032C160.46 573.317 159.745 572.101 159.102 571.958C158.458 571.815 156.956 572.172 156.455 572.601C155.239 573.746 155.096 575.605 155.454 577.107C156.67 582.901 155.239 580.469 156.598 586.549C152.45 587.693 147.801 586.62 144.439 583.831C140.148 580.254 138.503 575.248 138.717 569.669C138.932 562.945 139.79 555.865 143.009 550L148.945 538.985L153.022 531.189C154.095 529.186 155.883 526.397 157.743 525.181L167.899 526.54C183.563 528.614 185.637 525.181 198.583 528.328C201.659 529.043 205.163 528.685 208.453 528.614C212.173 528.614 216.035 528.757 219.611 528.185C234.417 525.824 240.997 528.185 249.079 527.112L256.518 526.11C259.164 525.753 262.025 526.111 264.528 525.61C267.747 524.966 270.823 524.322 273.97 524.465L284.269 524.895C291.708 534.55 307.229 561.658 302.222 572.887C300.148 577.608 291.636 585.333 285.771 584.331L284.412 575.748C283.912 572.458 283.697 567.166 280.55 567.523C279.763 567.595 278.404 569.168 278.619 570.098L279.906 577.036C281.694 586.62 280.192 597.778 272.253 604.287C268.892 607.076 265.244 610.009 261.024 611.725C255.803 613.871 249.151 614.944 243.715 613.656L234.059 611.296C230.841 610.509 230.197 605.789 226.764 605.717C223.33 605.646 225.691 609.079 214.891 613.156C208.739 615.444 202.445 616.374 196.008 614.658L184.636 611.654C178.985 610.152 174.479 606.575 170.903 602.069L163.965 593.272Z" fill="#F1B2B0" stroke="#231815" stroke-width="1.14439" stroke-miterlimit="10"/>
<path d="M212.601 410.958C211.671 413.89 198.939 408.812 196.15 419.398C195.721 421.043 195.149 422.259 193.503 422.259C192.288 422.259 190.929 420.185 191.286 418.754C194.362 405.451 211.17 406.595 212.529 408.383C212.958 408.955 212.886 410.314 212.672 411.029L212.601 410.958Z" fill="#291F1C" stroke="#231815" stroke-width="1.14439" stroke-miterlimit="10"/>
<path d="M243.356 416.607C236.704 407.309 228.407 412.674 227.978 408.382C227.478 403.733 240.638 404.591 247.504 414.104C248.076 414.962 247.504 417.394 246.646 417.752C245.502 418.181 244.071 417.68 243.284 416.607H243.356Z" fill="#291F1C" stroke="#231815" stroke-width="1.14439" stroke-miterlimit="10"/>
<path d="M157.168 436.774C155.094 435.058 151.017 436.846 149.658 434.557C147.441 430.695 155.523 425.044 157.955 423.828C160.101 422.684 161.674 422.398 164.249 421.897C169.685 420.967 176.122 418.536 181.701 419.179C188.138 419.966 186.207 424.401 182.488 427.548C180.557 429.193 177.696 430.695 176.194 432.769C174.978 434.485 174.477 437.06 173.261 438.992C170.687 443.068 167.253 446.859 166.037 451.651C165.251 455.013 163.892 458.232 163.462 461.593C162.962 465.742 163.463 469.89 163.606 474.038C163.749 477.114 164.535 479.546 163.248 482.55C162.318 484.767 160.673 486.412 159.886 488.701C159.242 490.561 158.67 493.565 157.454 495.067C154.45 498.929 152.09 492.992 151.947 489.774C151.661 484.123 152.018 478.831 152.734 473.18C153.377 467.959 153.378 462.666 154.164 457.516C154.665 454.155 155.38 450.292 156.31 447.074C157.24 443.855 160.244 440.708 157.598 437.203C157.455 436.989 157.311 436.846 157.097 436.703L157.168 436.774Z" fill="#98C6EA"/>
<path d="M276.9 441.925C279.26 440.566 282.98 442.998 284.625 440.924C287.414 437.491 280.262 430.624 278.116 429.051C276.185 427.62 274.683 427.048 272.179 426.19C266.887 424.402 261.022 421.04 255.371 420.825C248.862 420.611 250.15 425.331 253.297 428.979C254.942 430.91 257.588 432.77 258.661 435.13C259.591 437.061 259.734 439.636 260.593 441.711C262.524 446.145 265.313 450.365 265.742 455.3C265.957 457.374 265.671 459.234 266.314 461.237C267.387 464.455 270.248 467.674 273.968 465.6C284.196 460.021 270.248 448.362 276.328 442.426C276.471 442.283 276.685 442.14 276.9 441.997V441.925Z" fill="#98C6EA"/>
</g>
<defs>
<clipPath id="clip0_39_2609">
<rect width="550" height="620" fill="white"/>
</clipPath>
</defs>
</svg>
