<svg width="371" height="145" viewBox="0 0 371 145" fill="none" xmlns="http://www.w3.org/2000/svg">
<path d="M160.545 139.91C189.83 139.624 218.83 143.053 248.402 141.41C269.402 140.267 290.259 136.482 311.33 137.767C325.402 138.696 341.116 136.267 351.402 126.267C357.83 119.982 359.616 112.196 362.545 104.196C366.259 94.2672 369.116 85.2673 367.616 74.4816C366.688 67.6958 364.902 61.4816 364.259 54.6244C363.545 46.9101 357.616 43.053 353.045 37.1244C349.33 32.3387 345.759 27.6244 341.33 23.4101C331.473 14.053 317.688 8.41012 304.545 5.05298C291.402 1.69583 276.188 3.48155 262.473 3.26726C221.616 2.6244 180.688 3.05298 139.83 3.26726C119.83 3.41012 100.116 3.98155 80.1875 3.26726C58.6161 2.55298 40.4019 14.553 26.3304 29.1958C18.8304 36.9815 12.3304 43.7673 8.75895 54.053C5.04466 64.6244 3.75897 78.053 2.97325 89.1244C2.33039 98.7672 8.75902 109.624 14.9733 116.767C26.4019 130.053 45.0447 140.339 63.1876 141.196C94.1162 142.624 125.259 140.624 156.188 139.91C157.688 139.91 159.188 139.91 160.688 139.839L160.545 139.91Z" fill="white" stroke="#040000" stroke-width="5.85714" stroke-linecap="round" stroke-linejoin="round"/>
<path d="M105.255 32.9102H106.112C110.255 32.9102 112.398 34.9102 112.398 38.9102C112.398 43.6245 111.112 46.7673 108.612 48.4102H108.184C104.684 48.4102 102.47 46.2673 101.541 41.9102V38.9102C101.541 36.6959 102.827 34.6959 105.327 32.9102H105.255ZM104.041 40.4102C104.041 43.053 105.541 44.4102 108.612 44.4102L109.898 42.4102V37.4102L106.97 36.4102H106.541C104.898 38.553 104.041 39.9102 104.041 40.4102ZM125.684 30.4102H126.898C126.898 31.553 127.041 32.3388 127.327 32.9102C127.041 34.6959 126.898 36.1959 126.898 37.4102V41.9102C127.755 43.1244 128.184 46.6245 128.184 52.4102C127.898 53.7673 127.327 54.4102 126.541 54.4102C125.112 53.9816 124.47 51.1245 124.47 45.9102C122.47 45.9102 120.97 46.1959 119.898 46.9102C118.755 46.4102 118.255 45.9102 118.255 45.4102C118.255 43.4102 120.327 42.4102 124.541 42.4102V37.4102L122.47 36.9102C121.612 36.9102 119.827 37.2673 117.041 37.9102C116.47 37.553 116.112 37.4102 115.827 37.4102V36.4102C115.827 34.9102 118.755 33.7673 124.541 32.9102C124.755 31.2673 125.184 30.4102 125.827 30.4102H125.684Z" fill="black"/>
<path d="M139.544 24.4121C140.115 24.7693 140.473 24.9121 140.83 24.9121V27.9121C140.83 27.9121 140.115 28.0549 139.544 28.4121L137.901 27.9121C134.973 28.555 132.758 28.9121 131.258 28.9121C131.258 28.2692 130.83 27.9121 129.973 27.9121V27.4121L130.401 24.9121H130.83C131.687 24.9121 132.044 25.055 132.044 25.4121C134.401 24.7692 136.901 24.4121 139.544 24.4121ZM140.758 29.9121H141.616V32.9121C138.687 34.2693 136.33 34.9121 134.544 34.9121C132.616 34.4835 131.616 33.7693 131.616 32.9121C131.901 32.3407 132.044 31.6264 132.044 30.9121H136.258C138.973 30.2692 140.544 29.9121 140.83 29.9121H140.758ZM138.758 35.8407H139.187C141.687 36.2692 142.901 37.7693 142.901 40.3407V41.3407C142.901 44.9836 141.116 46.8407 137.473 46.8407H137.044C134.758 46.8407 133.33 45.3407 132.901 42.3407V40.8407C132.901 40.2693 134.116 38.9121 136.616 36.8407C136.616 36.2692 137.33 35.9121 138.687 35.8407H138.758ZM135.83 42.9121C135.83 42.9121 136.83 43.0549 138.33 43.4121C139.758 42.8407 140.401 41.9835 140.401 40.9121C140.116 40.2692 139.973 39.7692 139.973 39.4121H139.116C136.973 40.7692 135.83 41.9121 135.758 42.9121H135.83ZM150.83 49.4121C154.687 50.7693 156.687 53.1264 156.687 56.4121V57.4121C156.687 60.6978 154.33 63.1978 149.616 64.9121C146.616 64.9121 144.83 62.555 144.187 57.9121V55.4121C146.473 51.4121 148.687 49.4121 150.83 49.4121ZM149.973 53.4121C149.33 54.3407 148.473 56.3407 147.473 59.4121C148.401 60.055 149.187 60.4121 149.973 60.4121H151.258C151.616 60.4121 152.473 59.4121 153.758 57.4121V56.4121C152.758 54.4121 151.544 53.4121 150.044 53.4121H149.973ZM158.33 24.8407C159.187 26.1264 159.616 27.6264 159.616 29.3407V30.3407C159.616 30.3407 159.473 30.8407 159.187 30.8407C159.973 36.9121 160.401 40.6978 160.401 42.3407C159.973 42.3407 159.401 42.6978 158.758 43.3407C157.687 43.3407 157.116 41.3407 157.116 37.3407V36.8407H156.687C153.616 37.4835 151.973 37.8407 151.687 37.8407C152.258 40.6978 152.544 42.3407 152.544 42.8407C152.116 42.8407 151.544 43.1978 150.901 43.8407C149.544 43.8407 148.616 39.1978 147.973 29.8407V27.3407C148.044 26.6978 148.33 26.3407 148.83 26.3407H150.116C150.544 26.3407 150.973 26.9836 151.401 28.3407L150.973 29.3407C151.258 31.1978 151.401 32.4835 151.401 33.3407H155.973C156.544 33.3407 156.83 32.9835 156.83 32.3407V30.8407L156.401 25.8407C157.258 25.1978 157.973 24.8407 158.473 24.8407H158.33Z" fill="black"/>
<path d="M169.257 26.9082C172.043 27.7653 173.471 29.4797 173.471 31.9082C173.471 35.9082 171.114 38.6225 166.4 39.9082V39.4082L165.543 39.9082C163.328 38.6225 162.186 36.9797 162.186 34.9082V32.9082C162.186 31.3368 162.9 29.9796 164.257 28.9082C164.257 27.9796 165.9 27.3368 169.257 26.9082ZM178.043 45.9082C178.4 45.9082 178.828 46.4082 179.328 47.4082C179.328 48.9082 176.828 49.6939 171.828 49.9082C171.828 50.6225 169.471 51.1225 164.757 51.4082C163.686 50.9082 163.114 50.4082 163.114 49.9082V48.4082C163.114 47.7654 163.471 47.4082 163.971 47.4082H167.685C172.971 46.4082 176.4 45.9082 178.114 45.9082H178.043ZM164.257 33.9082C164.257 34.5511 164.971 35.5511 166.328 36.9082C169.4 36.6225 170.9 34.9082 170.9 31.9082C170.114 30.9082 169.043 30.2653 167.543 29.9082C166.686 29.9082 165.9 31.2654 165.043 33.9082H164.186H164.257ZM182.614 28.4082H183.043C184.043 28.4082 184.757 35.0511 185.114 48.4082C185.4 48.4082 185.543 49.0511 185.543 50.4082C185.543 51.7654 184.686 52.4082 183.043 52.4082C183.043 52.1225 182.757 51.9082 182.185 51.9082C182.185 51.5511 182.328 51.4082 182.614 51.4082C182.328 49.5511 182.185 48.2654 182.185 47.4082C182.185 44.7654 182.043 38.6225 181.757 28.9082L182.614 28.4082Z" fill="black"/>
<path d="M211.114 40.4121H211.543C212.114 40.4121 212.614 43.9121 213.186 50.9121C212.9 50.9121 212.757 51.055 212.757 51.4121L213.614 51.9121L216.114 51.4121C216.114 51.4121 216.543 51.6264 216.543 51.9121L218.614 51.4121H219.472C220.043 51.555 220.329 51.8407 220.329 52.4121V55.4121H214.9C214.9 55.4121 214.472 55.2692 214.472 54.9121C214.257 54.9121 210.257 55.9121 202.4 57.9121C200.686 57.1978 199.614 56.9121 199.043 56.9121V55.4121C199.043 54.4121 200.114 53.9121 202.4 53.9121C202.114 53.5549 201.686 50.1978 201.114 43.9121L202.4 42.9121H202.829C202.829 42.9121 203.9 45.9121 204.9 51.9121C205.472 51.9835 205.757 52.3407 205.757 52.9121H204.9V53.4121H206.114L209.043 52.4121V52.9121C209.614 52.6264 209.972 52.4121 210.329 52.4121V50.9121L209.9 47.9121L210.329 46.9121L209.9 43.4121C210.186 41.4121 210.614 40.4121 211.114 40.4121ZM210.329 24.4121C211.543 24.4121 212.543 25.4121 213.257 27.4121C212.543 34.055 211.686 37.4121 210.757 37.4121C210.257 37.7693 209.686 37.9121 209.114 37.9121V37.4121L208.257 37.9121H204.114C203.472 37.9121 202.972 38.055 202.472 38.4121C201.329 37.7692 200.472 37.4121 199.972 37.4121C199.686 34.1264 199.543 31.6264 199.543 29.9835V25.9835C199.972 25.9835 200.543 25.6264 201.186 24.9836C201.757 25.1264 202.043 25.4121 202.043 25.9835C204.543 25.3407 207.257 24.8407 210.4 24.4836L210.329 24.4121ZM201.972 28.9121V31.9121C201.972 33.555 202.329 34.4121 202.829 34.4121C203.4 34.1264 203.757 33.9121 204.114 33.9121V34.4121L204.972 33.9121H206.186C206.186 33.9121 206.614 34.055 206.614 34.4121L207.472 33.9121L209.543 34.4121C210.114 32.055 210.4 30.1978 210.4 28.9121L209.543 28.4121H204.114L202.043 28.9121H201.972Z" fill="black"/>
<path d="M231.254 29.416C232.897 30.2017 233.754 30.8446 233.754 31.4161V43.416C233.183 45.0589 230.04 45.916 224.183 45.916H223.754C222.968 45.916 222.397 43.7732 222.111 39.416L222.54 38.416L222.111 36.416C222.111 32.0589 223.397 29.916 225.897 29.916C227.683 29.916 229.468 29.7017 231.326 29.416H231.254ZM225.04 33.916V38.916C225.183 40.916 225.611 41.916 226.326 41.916H227.54C229.754 41.916 230.897 40.916 230.897 38.916V33.416H230.468C227.04 33.7018 225.254 33.916 225.04 33.916ZM244.968 28.416H245.397C245.826 28.416 246.254 28.916 246.683 29.916V30.416C246.683 35.3446 247.111 40.2018 247.968 44.9161C247.468 46.4161 246.897 47.2732 246.326 47.416H245.468C244.897 47.416 244.611 47.0589 244.611 46.416C244.04 37.0589 243.754 31.7017 243.754 30.416C244.183 29.0589 244.611 28.416 245.04 28.416H244.968Z" fill="black"/>
<path d="M263.898 46.4102C265.826 46.7673 266.826 47.2673 266.826 47.9102V49.9102L253.469 51.4102H251.398C250.755 50.7673 250.183 50.4102 249.755 50.4102C250.326 49.3387 250.612 48.4816 250.612 47.9102H252.683C254.398 47.9102 258.112 47.4102 263.898 46.4102ZM250.969 27.4102H251.826L253.112 28.4102L252.683 30.9101C253.255 34.6244 253.541 36.6245 253.541 36.9102C255.398 36.9102 260.041 36.6245 267.326 35.9102V38.9102C266.755 38.9102 266.469 39.2673 266.469 39.9102H266.041C266.041 39.9102 265.612 39.7673 265.612 39.4102C262.683 40.053 258.112 40.553 251.826 40.9102C250.755 35.8387 250.183 32.3387 250.183 30.4101V28.4102C250.255 27.6959 250.541 27.4102 251.041 27.4102H250.969ZM256.398 52.4102H257.255C257.683 52.4102 258.255 54.7673 258.898 59.4102C263.326 58.4102 265.969 57.9102 266.826 57.9102L268.898 58.4102V60.4102C268.898 60.9102 268.469 61.4102 267.612 61.9102H266.826C266.826 61.9102 266.398 61.7673 266.398 61.4102C260.683 63.4102 257.326 64.4102 256.398 64.4102C255.898 63.9816 255.469 60.3387 255.112 53.4102L256.398 52.4102Z" fill="black"/>
<path d="M52.0415 82.4902C53.9701 83.2045 54.9701 85.9188 54.9701 90.4902C54.5415 95.4902 53.0415 97.9903 50.3987 97.9903C47.3272 97.9903 45.113 96.1331 43.7559 92.4902L44.613 87.4903C44.613 87.4903 44.1844 87.3474 44.1844 86.9903C46.2558 85.1331 47.9701 83.6331 49.1844 82.4902H52.113H52.0415ZM46.6843 89.4902V91.9902C46.6843 92.4902 47.5415 93.3474 49.1844 94.4902H49.6129C51.5415 94.4902 52.4702 93.1331 52.4702 90.4902V89.9902C52.4702 89.2045 52.1844 87.7045 51.6844 85.4903C48.8987 85.9903 47.4701 87.3474 47.4701 89.4902H46.613H46.6843ZM65.8273 79.4902H66.6844C67.1129 79.4902 67.5416 79.9902 67.9701 80.9902V91.4902L68.3987 97.4903C67.8273 97.4903 67.5416 97.8474 67.5416 98.4903H66.3272C65.4701 98.1331 65.0415 97.1331 65.0415 95.4902V93.4902H64.613C62.113 94.4902 60.0415 94.9902 58.3272 94.9902L57.4701 93.4902C57.4701 91.9902 59.9702 90.8474 64.9702 89.9902V86.4903L60.7558 86.9903H57.0416V84.9903C57.0416 84.276 59.8273 83.4188 65.3987 82.4902L65.8273 79.4902ZM72.0415 80.4902H72.4701C73.6129 80.9188 74.113 82.4188 74.113 84.9903V95.9902L73.6844 98.4903C72.0416 98.4903 71.1844 97.4902 71.1844 95.4902V87.9903C71.1844 86.6331 71.0416 84.7759 70.7559 82.4902C71.1844 81.1331 71.6129 80.4902 72.0415 80.4902Z" fill="black"/>
<path d="M86.7577 74.4805C87.3291 74.8376 87.6863 74.9805 87.972 74.9805C87.972 75.2662 87.8291 75.4805 87.5434 75.4805L87.972 76.4805C87.972 77.0519 86.972 77.4805 85.0434 77.9805C84.472 77.6233 84.1148 77.4805 83.7577 77.4805C83.2577 77.8376 82.8292 77.9805 82.472 77.9805V77.4805C82.1149 77.909 80.1863 78.2662 76.6863 78.4805L75.8291 76.9805V76.4805C75.8291 75.5519 79.472 74.909 86.6863 74.4805H86.7577ZM86.7577 82.4804C87.3291 82.5519 87.6149 82.909 87.6149 83.4804V84.4804L87.1863 85.4805C92.472 88.1948 95.1149 89.9805 95.1149 90.9805V91.9804C95.1149 92.6947 94.4006 93.1947 93.0434 93.4804C89.972 90.8376 87.6148 89.4805 85.9719 89.4805C84.4719 91.8376 83.6149 92.9804 83.472 92.9804L83.9006 93.9804C83.9006 94.4804 83.472 94.909 82.6149 95.4804H81.7577C81.1863 95.4804 80.9006 95.1233 80.9006 94.4804V93.4804C80.9006 92.8376 81.8292 90.3376 83.8292 85.9805H83.4006C81.8292 86.6233 79.6149 86.9805 76.7577 86.9805L75.9006 85.4805V84.9805C75.9006 84.2662 79.5434 83.409 86.7577 82.4804ZM94.6862 99.4805C94.6862 100.052 95.1149 100.909 95.9006 101.98V102.98C95.9006 102.98 95.472 103.766 94.6862 104.48C92.0434 103.838 89.972 103.48 88.4006 103.48C85.0435 104.48 82.472 104.98 80.9006 104.98C79.7577 104.48 79.2578 103.98 79.2578 103.48V102.48C79.2578 101.48 84.4005 100.48 94.6862 99.4805ZM93.0434 108.48V119.48C93.0434 120.266 92.3292 120.766 90.972 120.98L90.1148 119.48V112.48C87.3291 112.766 85.2577 112.98 83.8292 112.98H82.972C82.6148 112.98 82.1863 112.48 81.7577 111.48V110.98C81.7577 109.838 85.5434 108.98 93.0434 108.48Z" fill="black"/>
<path d="M107.681 74.9805C107.681 74.9805 108.11 75.4805 108.967 75.4805V77.9805C105.61 79.3376 102.539 79.9804 99.8243 79.9804L97.7529 79.4804V77.4805C97.7529 76.9805 100.824 76.1233 106.896 74.9805C106.896 74.6233 107.181 74.4805 107.753 74.4805V74.9805H107.681ZM109.396 80.4804C109.396 81.1233 109.824 81.4804 110.681 81.4804V82.9804C110.039 82.9804 109.467 83.6233 109.039 84.9805C108.396 84.9805 107.896 84.8376 107.396 84.4804C104.539 84.7661 102.324 84.9805 100.753 84.9805H99.4673C98.8958 84.9805 98.61 84.6947 98.61 83.9804L99.0386 81.4804H99.4673C99.4673 81.4804 99.8958 81.6233 99.8958 81.9804C104.253 80.9804 107.396 80.4804 109.467 80.4804H109.396ZM106.896 86.4805C109.396 87.4805 110.681 88.9805 110.681 90.9805V91.9804C110.681 95.5519 108.61 97.6948 104.396 98.4805H103.539C101.539 96.9805 100.324 95.4804 99.7529 93.9804C99.7529 91.909 101.681 89.6233 105.61 86.9805C105.896 86.9805 106.324 86.8376 106.824 86.4805H106.896ZM103.11 93.9804L103.967 94.4804H106.039C107.467 93.6233 108.11 92.2662 108.11 90.4805C107.539 90.1233 107.182 89.9805 106.824 89.9805C105.324 90.5519 104.11 91.909 103.039 93.9804H103.11ZM118.539 99.4805C119.967 101.052 120.61 103.052 120.61 105.48V106.98C120.61 110.623 118.11 112.48 113.11 112.48C113.11 114.123 113.396 114.98 113.967 114.98C115.896 114.98 117.824 114.48 119.824 113.48C120.324 113.838 120.896 113.98 121.467 113.98V117.48L112.753 119.48C111.681 119.48 110.682 117.338 109.824 112.98C110.253 109.98 111.539 108.48 113.539 108.48V108.98C115.967 108.409 117.396 107.552 117.681 106.48C117.396 105.98 117.253 104.98 117.253 103.48C116.467 103.48 113.681 104.123 108.896 105.48L107.61 102.48C108.396 101.48 111.967 100.48 118.467 99.4805H118.539ZM120.181 77.4805C121.467 77.4805 122.181 79.8376 122.253 84.4804C123.11 84.4804 123.467 84.6233 123.467 84.9805C123.61 84.6948 124.896 84.4804 127.253 84.4804C127.253 84.7661 127.681 84.9805 128.539 84.9805C128.539 86.409 128.253 87.7662 127.682 88.9805L125.61 88.4805C123.61 88.8376 122.539 88.9805 122.253 88.9805C122.61 89.5519 122.896 91.1947 123.11 93.9804C122.682 95.3376 122.253 95.9804 121.824 95.9804H120.967C119.896 95.9804 119.324 92.3376 119.324 84.9805V81.4804C119.324 80.6947 119.181 80.0519 118.896 79.4804C119.324 78.1233 119.753 77.4805 120.11 77.4805H120.181Z" fill="black"/>
<path d="M163.395 98.9894L163.824 99.9894V101.489C163.824 102.418 161.181 103.061 155.895 103.489V104.989C155.895 106.632 156.038 109.132 156.324 112.489L155.038 113.489C153.609 112.918 152.967 111.418 152.967 108.989V104.989L152.538 103.989C149.824 104.989 147.609 105.489 145.895 105.489H143.395C142.967 105.489 142.538 104.847 142.109 103.489C142.395 102.847 142.538 102.347 142.538 101.989H144.181C155.681 99.9894 162.109 98.9894 163.324 98.9894H163.395ZM149.181 78.9894V81.4894L148.752 82.4894C156.252 86.2751 159.967 88.7751 159.967 89.918V91.918C159.967 92.5608 159.681 92.918 159.109 92.918H157.467C157.467 92.2037 155.395 90.3466 151.252 87.418C149.824 86.7751 148.609 86.418 147.467 86.418C146.324 91.2751 145.824 94.418 145.824 95.918H143.752C143.752 95.2751 143.609 94.918 143.324 94.918C143.324 92.1323 144.681 86.8465 147.467 78.918H149.109L149.181 78.9894Z" fill="black"/>
<path d="M181.901 79.4805H183.972C185.543 80.5519 186.686 81.6947 187.329 82.9804V85.9805C186.472 90.3376 184.615 92.4805 181.901 92.4805C179.329 92.4805 177.829 90.1233 177.329 85.4805V84.4804C177.901 82.909 179.401 81.2662 181.901 79.4805ZM180.258 88.4805L182.329 88.9805H183.186C184.543 87.9805 185.258 86.6233 185.258 84.9805C185.186 84.1233 184.472 83.2662 183.186 82.4804C181.615 82.4804 180.615 84.4805 180.258 88.4805ZM188.972 96.9804C191.472 96.9804 192.758 100.123 192.758 106.48C192.758 111.123 191.472 113.48 188.972 113.48C187.972 113.766 186.686 113.98 185.258 113.98C182.758 113.98 181.543 110.623 181.543 103.98V99.9805H183.186C183.829 99.9805 184.258 101.623 184.401 104.98H189.401L188.972 98.9805V96.9804ZM184.829 109.48V109.98H188.543C189.115 109.98 189.401 109.623 189.401 108.98V107.48H188.972C186.186 108.123 184.829 108.838 184.829 109.48ZM198.186 77.4805H198.615L200.686 77.9805V78.4805C200.686 84.6948 201.115 88.6948 201.972 90.4805L201.543 91.4805V92.9805L200.258 93.9805C199.043 93.9805 198.043 91.1233 197.329 85.4805H196.472C195.9 85.4805 193.972 85.8376 190.615 86.4805C189.472 86.1948 188.972 85.1233 188.972 83.4804C191.043 82.8376 193.043 82.4804 194.829 82.4804H197.758C197.758 81.1233 197.901 80.4805 198.186 80.4805C197.901 79.8376 197.758 79.3376 197.758 78.9805C198.043 78.3376 198.186 77.8376 198.186 77.4805ZM197.329 96.9804L199.401 97.4805V101.98C203.543 104.98 205.686 107.48 205.686 109.48L203.615 109.98H203.186C200.543 107.338 198.615 105.98 197.329 105.98C197.186 108.98 196.758 110.48 196.115 110.48H195.686L193.615 109.98C193.758 107.98 194.972 103.623 197.329 96.9804Z" fill="black"/>
<path d="M226.613 90.9863H227.47V91.9863C227.47 94.272 225.827 95.4863 222.47 95.4863C219.898 95.4863 215.684 95.8434 209.97 96.4863H207.898C207.898 96.4863 207.755 95.6291 207.47 94.9863C207.755 94.4149 207.898 93.7006 207.898 92.9863C219.255 92.3434 225.47 91.6292 226.613 90.9863ZM218.755 72.4863H219.613C221.97 72.4863 223.184 74.4863 223.398 78.4863C223.398 81.9863 219.898 84.4863 212.97 85.9863V85.4863L212.113 85.9863C210.184 84.772 209.184 83.1291 209.184 80.9863V80.4863C209.184 79.0577 209.755 77.2006 210.827 74.9863V74.4863L211.684 74.9863C211.684 73.6292 214.041 72.8435 218.755 72.4863ZM222.47 98.9863C224.684 98.9863 225.827 100.629 225.827 103.986V108.486C225.827 110.701 224.327 112.058 221.255 112.486C217.398 113.486 214.827 113.986 213.327 113.986C212.113 113.986 211.47 112.343 211.255 108.986H211.684L211.255 107.986C211.47 103.629 211.898 101.486 212.541 101.486L214.184 101.986C217.184 99.9863 219.97 98.9863 222.541 98.9863H222.47ZM211.613 79.9863V80.9863C211.898 81.9863 212.684 82.4863 214.113 82.4863H214.97C217.041 82.4863 219.041 81.3434 220.755 78.9863V77.9863L220.327 75.4863H218.684C214.898 75.4863 212.541 76.9863 211.613 79.9863ZM213.755 107.486C213.755 109.129 214.613 110.129 216.255 110.486C220.398 109.486 222.541 108.486 222.541 107.486C222.827 107.486 222.97 106.986 222.97 105.986V102.986C222.041 102.986 221.327 102.843 220.898 102.486C216.184 103.486 213.827 105.201 213.827 107.486H213.755Z" fill="black"/>
<path d="M248.827 83.9766H250.47C250.47 86.6908 250.756 93.548 251.327 104.477C251.042 105.119 250.899 105.619 250.899 105.977H250.042C248.97 105.977 248.185 101.834 247.542 93.4766H247.113C243.327 93.7623 240.97 93.9766 240.042 93.9766C240.042 93.6194 239.899 93.4766 239.613 93.4766C238.685 97.1194 237.042 98.9766 234.613 98.9766C230.97 98.048 229.185 96.048 229.185 92.9766C229.185 87.8337 230.685 84.9766 233.756 84.4766C237.613 84.4766 239.542 86.3337 239.542 89.9766H240.827C242.256 89.9766 244.613 90.1909 247.899 90.4766V88.4766L247.47 84.9766L248.756 83.9766H248.827ZM233.399 87.4766C233.399 87.9052 232.827 89.1194 231.756 90.9766V91.9766C231.756 93.4766 232.613 94.8337 234.256 95.9766C236.185 95.9766 237.327 94.4766 237.613 91.4766C237.613 89.3337 236.399 88.1195 233.899 87.9766C233.899 87.6909 233.756 87.4766 233.47 87.4766H233.399ZM255.113 82.9766H255.899C257.113 82.9766 258.256 89.6194 259.256 102.977L257.97 103.977C256.47 103.977 255.256 97.1194 254.256 83.4766L255.113 82.9766Z" fill="black"/>
<path d="M278.61 76.4883H281.11C283.61 77.1311 284.824 78.774 284.824 81.4882V81.9882C284.824 85.7025 282.182 87.8454 276.896 88.4883C274.11 87.0597 272.753 84.8454 272.753 81.9882C272.753 79.4168 274.539 77.774 278.181 76.9883C278.181 76.6311 278.324 76.4883 278.61 76.4883ZM276.11 83.4882C277.539 84.8454 278.324 85.4883 278.61 85.4883C281.11 84.8454 282.324 83.7025 282.324 81.9882C282.181 80.9882 281.324 80.2025 279.824 79.4883C277.324 80.7025 276.11 82.0597 276.11 83.4882ZM295.324 96.9882V97.9883L294.467 101.488C298.324 105.203 300.324 107.131 300.324 107.488V109.488C299.753 109.488 299.467 109.845 299.467 110.488L298.61 109.988H297.324C296.039 108.417 294.467 106.917 292.753 105.488C292.039 108.703 291.253 110.488 290.253 110.988C289.181 110.988 286.253 108.845 281.467 104.488H280.682C279.753 109.488 278.896 111.988 278.181 111.988H276.539L276.967 110.988H276.11C278.824 102.345 280.753 97.9883 281.967 97.9883H282.824C283.11 98.6311 283.253 99.1311 283.253 99.4883V100.988L288.681 106.488H289.11C290.253 105.274 291.467 102.131 292.824 96.9882H295.324ZM295.324 72.9883H295.753C296.61 77.0597 297.039 79.5597 297.039 80.4882H296.61L297.824 86.9883L296.181 88.9883C294.753 88.9883 293.824 83.8454 293.253 73.4883L295.324 72.9883Z" fill="black"/>
<path d="M315.826 80.4805L316.683 81.9805L315.397 86.4805L323.754 90.9805C324.04 91.5519 324.183 92.2662 324.183 92.9805C323.468 93.6948 322.968 93.9805 322.54 93.9805C320.611 93.9805 317.54 92.6233 313.397 89.9805C310.897 94.1233 309.683 96.6234 309.683 97.4805L307.611 96.9805V94.4805C310.968 88.5519 312.611 85.4091 312.611 84.9805H311.754C308.611 85.6948 306.397 85.9805 305.111 85.9805H302.611L302.183 83.4805C302.468 82.8376 302.611 82.3376 302.611 81.9805H303.897C306.397 81.9805 310.397 81.4805 315.968 80.4805H315.826ZM319.611 95.9805H320.04C320.611 95.9805 321.326 98.9805 322.111 104.98V106.48H322.54L326.683 105.98L326.254 110.981H324.611C324.611 110.981 324.183 110.838 324.183 110.481C323.611 110.766 323.254 110.981 322.897 110.981C320.683 110.981 316.611 111.123 310.826 111.48C309.468 111.266 308.754 110.266 308.754 108.48C308.754 107.98 309.183 107.48 310.04 106.98H311.325L312.183 107.48V106.48C312.183 104.766 311.897 102.409 311.325 99.4805H311.754L311.325 98.4805C311.325 97.9805 311.754 97.4805 312.54 96.9805C313.968 96.9805 314.611 98.8376 314.611 102.48C314.968 105.48 315.397 106.98 315.897 106.98H319.611C318.754 104.766 318.326 102.48 318.326 99.9805V97.4805C318.326 96.9805 318.754 96.5519 319.611 95.9805Z" fill="black"/>
</svg>
