<svg width="459" height="274" viewBox="0 0 459 274" fill="none" xmlns="http://www.w3.org/2000/svg">
<path d="M222.076 238.417C225.652 240.062 228.012 243.638 230.444 246.499C234.521 251.291 240.601 254.08 246.68 255.153C248.182 255.439 264.99 255.654 262.916 252.364C259.626 247.071 254.047 242.994 251.043 237.487C249.756 235.198 246.752 227.187 247.467 224.755C247.896 223.468 251.901 221.894 252.974 221.322C255.478 219.963 258.339 219.534 260.985 218.461C266.135 216.387 271.07 213.884 276.077 211.595C283.801 208.019 291.74 204.8 299.68 201.653C307.619 198.506 316.488 196.217 324.642 192.713C329.863 190.495 335.013 188.135 340.305 186.061C352.321 181.412 362.263 172.686 374.351 168.18C382.648 165.104 391.088 162.172 398.955 157.952C408.039 153.088 417.051 148.224 425.705 142.646C434.36 137.067 442.37 129.127 447.234 119.686C454.887 104.881 455.745 89.4315 455.531 72.9809C455.459 64.4696 453.242 56.2443 451.526 47.9475C450.31 42.3686 448.021 35.5023 445.518 30.424C443.014 25.3458 437.292 21.9126 433.001 18.3364C429.425 15.3324 426.063 11.7562 421.843 9.75354C416.979 7.46476 411.472 6.17729 406.465 4.24614C401.029 2.17194 394.306 3.17326 388.584 3.17326C381.646 3.17326 374.708 3.17328 367.771 3.2448C358.472 3.38785 348.888 4.38922 339.948 6.67799C336.157 7.67933 332.652 9.39588 328.933 10.6118C320.922 13.3297 312.411 14.188 304.4 16.7629C295.889 19.4808 288.808 23.2716 280.869 27.2054C271.499 31.926 260.127 33.9287 250.328 37.7195C243.247 40.4374 237.239 43.1553 230.873 47.2322C224.579 51.3091 216.711 52.9542 209.702 55.386C201.62 58.247 193.609 61.251 185.67 64.5411C165.786 72.7664 145.044 78.7744 124.803 86.1414C107.351 92.5071 90.5426 100.375 73.3768 107.027C55.2096 114.107 40.3326 131.845 27.4582 145.721C20.5919 153.088 12.7242 163.674 8.64733 172.829C4.49893 182.198 2.35321 193.213 3.06845 203.513C3.64064 212.096 7.93209 221.68 12.2235 229.047C16.3004 236.056 20.0912 243.28 26.6715 248.144C32.8226 252.721 38.1869 259.588 45.4824 262.52C48.2003 263.593 72.1609 268.6 72.0178 269.1C85.822 271.961 99.9839 270.889 113.788 269.387C127.592 267.885 142.112 267.527 155.057 262.377C158.348 261.09 161.28 258.586 164.499 257.299C167.717 256.012 171.651 255.868 175.013 254.796C182.666 252.292 214.995 236.771 219.644 237.558C220.502 237.701 221.361 237.987 222.076 238.345V238.417Z" fill="white" stroke="#040000" stroke-width="5.86499" stroke-linecap="round" stroke-linejoin="round"/>
<path d="M40.5484 166.752C42.3365 166.394 43.3378 166.537 43.5524 167.038L43.8386 167.896C43.9816 168.325 43.6239 169.112 42.7656 170.185L41.4782 170.685C37.8305 172.044 36.1855 173.117 36.4716 173.904L37.6875 177.266C38.2597 177.981 39.261 178.124 40.6915 177.623C44.0531 176.05 45.9842 175.191 46.3418 175.048C47.5578 175.764 48.3445 176.622 48.7022 177.552L48.8452 177.981C47.0571 179.626 44.8398 180.913 42.1934 181.843C37.1152 182.63 34.0397 181.7 33.0383 179.054L33.1814 178.052C33.1814 178.052 32.8953 177.695 32.6092 177.766L31.9655 174.691L30.8926 171.758C30.8926 171.758 31.5364 171.329 31.9655 170.9C32.2516 170.757 32.7523 170.757 33.396 170.9C37.4013 168.468 39.7617 167.109 40.4769 166.895L40.5484 166.752ZM53.0651 182.558L54.7102 181.915C56.9274 181.056 58.5725 182.058 59.6454 184.847L60.8613 188.209C61.2189 189.21 58.9302 191.141 53.995 194.074V195.075C54.3526 195.504 54.6387 195.862 54.7818 196.22C56.3553 195.647 59.3593 193.859 63.7938 190.998C65.2958 190.426 66.4402 190.641 67.2985 191.571C67.9422 193.216 67.2985 194.431 65.2958 195.147C61.1474 197.936 57.8573 199.796 55.4255 200.726C52.4214 201.083 50.2757 199.653 49.0598 196.434C47.9154 193.359 48.9168 191.284 51.9923 190.14C54.4241 189.067 55.4969 188.137 55.2824 187.494L54.9963 186.635C53.5658 187.136 51.5632 188.066 48.8452 189.353C47.0571 188.781 45.9127 187.923 45.4836 186.778C46.0558 185.634 48.5591 184.204 52.9937 182.63L53.0651 182.558ZM48.1299 161.53C49.8465 160.887 51.9208 162.675 54.3526 166.823C56.856 165.893 59.0016 165.607 60.6467 165.893L61.2904 167.538C61.4334 167.968 61.1473 168.468 60.5036 169.255L56.3553 170.757L55.64 171.472L56.8559 173.403L56.999 173.832L57.285 177.051L56.8559 177.194C54.5671 177.909 53.0651 177.194 52.2784 175.12L52.7075 174.977C52.2068 174.548 51.9208 174.19 51.8492 173.904C50.8479 171.115 49.1313 167.467 46.8426 162.889L48.2015 161.459L48.1299 161.53Z" fill="#040000"/>
<path d="M69.8763 155.883C71.6644 155.526 72.6658 155.597 72.8803 156.169L73.1664 157.028C73.3094 157.457 72.9518 158.243 72.0936 159.316L70.8061 159.745C67.1583 161.104 65.5133 162.177 65.7994 163.036L67.0153 166.397C67.5875 167.112 68.5888 167.256 70.0193 166.755C73.3809 165.181 75.3121 164.323 75.7413 164.18C76.9572 164.895 77.7439 165.753 78.1016 166.683L78.2446 167.112C76.4565 168.758 74.2392 170.045 71.5928 170.975C66.5146 171.762 63.4391 170.832 62.4377 168.185L62.5808 167.184C62.5808 167.184 62.2947 166.826 62.0086 166.898L61.3649 163.822L60.292 160.89C60.292 160.89 60.9358 160.461 61.3649 160.032C61.651 159.889 62.1517 159.889 62.7954 160.032C66.8007 157.6 69.1611 156.241 69.8763 156.026V155.883ZM82.3931 171.69L84.0381 171.046C86.2553 170.188 87.9004 171.189 88.9733 173.979L90.1892 177.34C90.5468 178.342 88.258 180.273 83.3228 183.205V184.207C83.6804 184.636 83.9665 185.065 84.1096 185.351C85.6831 184.779 88.6872 182.991 93.1217 180.13C94.6237 179.558 95.768 179.772 96.6263 180.702C97.27 182.347 96.6263 183.563 94.6237 184.278C90.4752 187.068 87.1852 188.927 84.7534 189.857C81.7494 190.215 79.6035 188.784 78.3876 185.566C77.2432 182.49 78.2446 180.416 81.3201 179.272C83.752 178.199 84.8249 177.269 84.6103 176.625L84.3241 175.767C82.9652 176.268 80.891 177.197 78.1731 178.485C76.3849 177.913 75.2406 177.054 74.8114 175.91C75.3836 174.766 77.887 173.407 82.3215 171.762L82.3931 171.69ZM77.4579 150.733C79.1745 150.09 81.2486 151.878 83.6805 156.026C86.1838 155.096 88.3296 154.81 89.9746 155.096L90.6183 156.741C90.7614 157.171 90.4753 157.743 89.8315 158.458L85.6831 160.032L84.9679 160.747L86.1838 162.678L86.3268 163.107L86.613 166.326L86.1838 166.469C83.8951 167.184 82.3931 166.469 81.6063 164.323L82.0354 164.18C81.5348 163.751 81.2487 163.393 81.1772 163.107C80.1758 160.389 78.4592 156.67 76.1704 152.092L77.5294 150.662L77.4579 150.733Z" fill="#040000"/>
<path d="M95.5542 144.006C98.3436 143.005 100.346 144.149 101.562 147.439L102.778 149.371C102.778 149.371 102.421 149.657 102.492 149.943C103.136 150.014 103.636 150.014 103.922 149.943C104.137 149.943 104.924 149.442 106.283 148.584C108.429 148.441 109.859 149.156 110.431 150.873C110.574 152.089 110.217 152.875 109.358 153.161C100.847 156.952 96.1979 158.955 95.4111 159.241C93.1938 158.383 91.9064 157.453 91.5488 156.452L92.4786 155.164L97.0561 153.447C97.6283 153.233 97.6284 152.089 97.2708 150.086C96.1264 147.797 95.268 146.081 94.8389 144.793L95.5542 144.078V144.006ZM104.28 157.453L104.709 157.31C107.713 156.237 110.217 157.524 112.291 161.172C113.435 164.319 111.933 166.966 107.642 169.111C103.35 168.682 100.632 166.966 99.5595 164.033L99.9886 163.89L99.2735 163.246L98.7727 161.959C99.0588 161.101 99.1303 160.385 98.9873 159.956C99.2734 159.885 99.4165 159.956 99.5595 160.242C101.276 158.955 102.85 158.097 104.28 157.596V157.453ZM105.138 160.958C104.995 162.245 105.138 163.318 105.353 164.176C105.639 164.105 105.854 164.176 105.925 164.462C106.927 163.747 107.213 162.746 106.64 161.315L106.497 160.886C106.497 160.886 105.711 161.029 105.067 160.886L105.138 160.958ZM114.222 141.861C116.511 141.932 117.941 142.862 118.585 144.507L119.229 146.152L119.586 148.369C123.306 147.296 125.523 147.726 126.238 149.657C126.667 150.873 125.165 152.232 121.589 153.734L122.948 157.524C123.52 158.955 123.377 159.956 122.59 160.528L122.161 160.671C120.373 161.315 118.656 160.528 117.011 158.311C115.796 154.306 115.295 152.303 115.652 152.16C115.581 151.874 115.366 151.802 115.08 151.874L114.723 149.657L112.577 143.792C112.434 143.291 112.935 142.647 114.222 141.789V141.861Z" fill="#040000"/>
<path d="M130.74 123.417L135.389 121.701C137.321 120.985 140.754 127.351 145.761 140.726C145.475 140.798 145.474 141.155 145.689 141.727L143.615 142.514C142.184 143.015 139.109 137.794 134.46 126.85L133.458 126.707C133.029 126.85 129.453 129.139 122.658 133.574C120.369 133.359 118.939 132.644 118.51 131.285C124.661 126.779 128.809 124.133 130.812 123.417H130.74ZM131.956 139.582C132.815 139.296 133.959 139.796 135.389 141.155L135.747 143.373C137.178 146.377 138.394 149.094 139.323 151.598L139.61 152.456L140.468 152.17C148.478 148.594 152.841 146.663 153.557 146.377C155.059 146.949 155.917 147.664 156.346 148.665L156.489 149.094L156.132 150.668L152.198 151.669C145.26 155.174 139.824 157.677 135.962 159.108L133.888 159.895C132.672 160.324 130.812 160.395 128.237 160.109L127.736 158.822C127.593 158.393 127.88 157.82 128.523 157.105L134.388 154.959C134.96 154.745 135.103 154.387 134.889 153.815L133.816 150.883L132.6 148.951L133.029 148.808L132.314 148.165L130.597 143.516C129.882 141.584 130.383 140.297 132.028 139.653L131.956 139.582Z" fill="#040000"/>
<path d="M162.424 126.412C162.853 126.269 163.64 126.626 164.713 127.413L164.856 127.842C165.142 128.7 164.784 129.273 163.64 129.702C158.633 131.561 156.273 132.92 156.559 133.779L157.632 136.711C157.918 137.212 158.276 137.426 158.776 137.283L162.138 136.067C162.853 135.781 163.998 135.066 165.571 133.85C167.073 133.922 167.931 134.208 168.289 134.78L168.933 136.497C169.147 137.069 168.075 137.927 165.643 139.143L166 141.36L167.073 144.293C171.007 143.148 173.367 142.433 174.297 142.076L175.012 141.36C176.872 141.36 178.016 141.789 178.446 142.934L176.729 145.938C173.153 146.939 171.293 147.511 171.15 147.511C165.714 149.872 161.995 151.374 159.992 152.089C158.919 151.731 158.061 150.73 157.489 149.228C161.137 147.154 162.925 145.866 162.71 145.366L161.351 141.575L159.277 142.362C156.559 142.791 154.843 141.861 153.984 139.572L151.338 132.42C151.338 131.49 151.982 130.775 153.412 130.274L154.7 129.773C154.7 129.773 155.129 129.773 155.272 130.059C156.488 128.987 158.848 127.771 162.496 126.483L162.424 126.412Z" fill="#040000"/>
<path d="M182.449 116.615C185.096 115.972 186.526 116.043 186.812 116.902L189.459 124.054L192.534 123.41L193.822 122.91C194.394 122.695 194.465 122.194 194.179 121.336L190.317 114.684L191.247 113.397L191.676 113.254C194.179 112.324 196.468 114.541 198.399 119.834C201.117 127.13 201.904 130.92 200.76 131.349C197.97 132.995 194.823 134.497 191.461 135.712C189.816 136.356 186.598 130.205 181.806 117.402L182.449 116.687V116.615ZM191.461 128.059L192.391 130.563L196.182 129.132L195.538 127.487C195.324 126.915 194.966 126.772 194.394 126.986L191.461 128.059ZM200.545 108.962L200.974 108.819C202.905 108.104 204.193 108.462 204.693 109.821C206.768 114.613 207.984 117.474 208.341 118.475C208.913 118.26 209.199 118.332 209.343 118.618L210.058 117.903L212.561 116.973C214.063 116.401 215.279 116.615 216.137 117.545L216.924 119.619C215.494 120.12 214.921 120.692 215.136 121.265L212.847 121.622L210.773 122.409L210.129 123.124C210.129 123.124 210.558 123.768 210.988 124.197C211.917 127.344 212.06 129.061 211.417 129.275L210.988 129.418C208.77 130.277 207.268 129.561 206.41 127.273C206.338 126.986 206.41 126.843 206.696 126.7C205.766 125.985 205.194 125.27 204.908 124.483L203.191 119.906C203.191 119.906 203.191 119.405 203.478 119.333L202.762 118.618L199.83 110.679C199.687 110.25 199.973 109.678 200.617 108.962H200.545Z" fill="#040000"/>
<path d="M216.71 99.6681C218.784 99.3104 220 99.525 220.215 100.24L221.931 104.818L221.574 106.391L221.86 107.25C226.724 107.607 229.584 108.823 230.3 110.826L230.586 111.684C230.586 111.684 229.942 112.113 229.513 112.614C228.941 112.829 226.437 112.471 222.003 111.613C222.289 116.548 222.003 119.194 221.145 119.552L220.286 119.838C219.929 119.981 218.999 119.552 217.425 118.55L216.996 117.335C217.64 110.468 217.211 105.032 215.78 101.099L216.71 99.8111V99.6681ZM238.597 116.333L238.74 116.762L239.383 116.047L239.812 115.904C240.742 115.546 242.673 119.123 245.677 126.561C244.891 127.777 244.247 128.564 243.603 128.778C241.744 128.778 239.812 126.347 238.024 121.34C236.379 122.556 234.162 123.915 231.373 125.202C231.158 125.274 229.656 125.202 227.01 124.916L226.509 123.629C226.08 122.413 230.085 119.981 238.597 116.333ZM228.655 93.3739C230.3 92.7302 231.945 94.5183 233.447 98.7382C233.733 98.5952 234.162 99.2389 234.663 100.669L237.166 99.7395L242.03 97.4508C242.173 97.8799 242.673 98.3091 243.532 98.8097L243.818 99.6681C243.675 101.313 242.602 102.529 240.385 103.316L236.594 104.746L238.096 107.536L238.525 108.752C239.097 110.254 238.883 111.47 237.953 112.328C235.449 113.258 232.159 108.251 228.154 97.3793L227.081 94.4468C227.439 94.0176 228.011 93.66 228.583 93.4454L228.655 93.3739Z" fill="#040000"/>
<path d="M249.468 87.58C251.685 86.7218 253.401 87.8661 254.546 90.9417C255.19 92.5867 256.62 93.0159 258.837 92.2291L260.697 93.445C261.341 95.1616 260.482 96.3775 258.265 97.2358C257.335 97.5934 256.549 97.665 255.976 97.5934C254.617 98.4517 253.401 99.0239 252.4 99.4531L249.897 100.383C247.751 101.17 246.106 101.027 244.962 99.8107L244.461 98.5232C244.318 98.0941 244.604 97.5219 245.248 96.8067L250.684 94.804L249.468 91.4424C249.253 90.7986 248.896 90.298 248.466 89.9404C248.323 89.0105 248.681 88.2238 249.539 87.6516L249.468 87.58ZM252.257 100.311L255.19 99.2385C257.264 99.5246 259.195 100.383 260.912 101.885L261.841 104.388C262.771 106.82 261.555 108.823 258.337 110.468L257.907 110.611C254.331 111.183 251.828 109.681 250.541 106.176C249.539 103.387 249.968 101.67 251.899 100.884C251.828 100.597 251.899 100.383 252.186 100.311H252.257ZM263.486 85.6489C265.775 85.3628 267.134 85.5058 267.42 86.078C267.706 86.9363 268.708 88.6529 270.281 91.2278L273.571 90.0118C275.073 89.4396 276.504 89.7258 277.72 90.8702L278.22 92.1576C278.292 92.8013 277.791 93.5881 276.718 94.5894L274.859 94.804L274.215 95.5192C273.571 95.5192 273.071 95.5192 272.785 95.5192L273.428 97.1643C274 98.6663 273.786 99.8822 272.856 100.74C270.567 101.599 268.708 100.526 267.349 97.5219L267.778 97.3789L262.414 87.9377L262.27 87.5085C261.984 86.7933 262.414 86.1496 263.486 85.6489ZM263.916 107.392C266.633 106.391 269.28 108.394 271.926 113.472L272.785 113.186C275.073 111.684 276.79 110.754 277.934 110.325C279.079 109.896 280.295 110.253 281.654 111.326L282.083 112.542C282.44 113.472 280.223 115.117 275.359 117.406C275.502 117.763 274.501 118.479 272.355 119.48C269.995 120.338 267.706 118.049 265.489 112.542C265.274 112.614 264.345 111.541 262.843 109.252L264.059 107.392H263.916Z" fill="#040000"/>
<path d="M290.738 74.6287C295.745 73.6274 298.749 74.4141 299.678 76.989L300.322 78.634C301.467 82.997 300.68 85.6434 298.033 86.6448L297.175 86.9309C291.811 87.0739 288.592 85.5719 287.448 82.4964L287.305 82.0672C287.305 77.9188 288.449 75.487 290.738 74.6287ZM291.811 81.4235C293.456 82.997 294.529 83.7838 294.958 83.5692L296.245 83.0686C296.603 82.9255 296.889 81.9957 297.175 80.3506L296.245 77.8473L293.17 78.491L292.74 78.634C292.311 78.7771 292.025 79.7069 291.811 81.3519V81.4235ZM305.186 93.0819C305.329 93.5111 305.901 93.7256 306.902 93.8687L311.48 92.1521C312.624 91.723 313.769 93.225 314.985 96.5866L315.628 98.2317C316.415 100.377 315.199 102.595 311.909 104.883L309.835 105.67C305.615 106.242 302.968 105.027 301.824 101.951C301.323 101.522 301.037 101.164 300.966 100.807C300.966 96.6581 302.396 94.0833 305.257 93.0819H305.186ZM301.538 67.8339L303.183 67.2617C304.471 67.2617 305.4 68.0485 305.901 69.5505L306.402 70.8379L307.26 70.5518C310.335 69.4074 311.981 69.2644 312.338 70.1226L313.125 72.1969L309.12 74.1995L307.832 74.7002L308.619 76.7744L313.483 74.4856L313.912 74.3426C314.341 74.1996 314.913 74.4857 315.628 75.1294L316.272 76.7744C313.626 78.7056 311.981 79.7784 311.265 80.0645L309.978 80.5652L310.908 83.0686C311.051 83.4977 310.765 84.0699 310.121 84.7851L309.263 85.0712C308.905 85.2143 307.904 84.7851 306.402 83.7123L300.966 69.0498C300.823 68.4776 300.966 68.0485 301.538 67.9054V67.8339ZM306.33 98.8039C306.33 98.8039 306.044 98.4463 305.758 98.5178C305.686 99.1615 305.758 99.6622 305.758 99.9483C306.831 101.736 307.761 102.523 308.547 102.237C309.978 101.665 310.836 100.592 311.122 98.8754L310.479 97.2303L309.763 96.5866C309.406 97.0158 308.261 97.8025 306.33 98.8039Z" fill="#040000"/>
<path d="M315.56 66.9128C317.777 66.0545 320.137 68.844 322.498 75.2811L323.928 79.0719L328.077 77.4984C329.579 76.9262 330.723 77.1408 331.581 78.0706L331.724 78.4998L331.224 81.0746C335.444 78.8573 337.804 77.713 338.448 77.4269C339.878 77.9276 341.452 80.3594 343.097 84.7939C343.955 87.6548 344.17 89.1568 343.812 89.2999L344.527 89.9436C344.67 90.3728 344.313 91.1595 343.454 92.2324L342.167 92.7331C342.167 92.7331 341.666 92.7331 341.595 92.447C341.094 93.3768 339.163 94.5927 335.801 96.0232C333.369 96.3808 331.867 95.6656 331.224 93.949C329.078 89.729 327.719 86.9396 327.147 85.4376C327.934 84.5793 328.363 83.4349 328.291 82.1475L327.862 82.2905C327.862 82.2905 327.862 82.7912 327.576 82.8627L327.433 82.4336L326.718 83.2203L323.356 84.4362C321.425 84.3647 320.209 83.578 319.637 82.0044L318.993 80.2879C318.993 80.2879 318.993 79.8587 319.279 79.7157C318.135 78.2137 316.49 74.7089 314.415 69.13L313.986 67.9142C314.63 67.6996 315.131 67.342 315.488 66.9128H315.56ZM331.438 61.0478L333.155 60.4041C335.086 59.6888 337.375 62.8359 339.95 69.7738L340.736 71.848C341.094 72.9209 341.166 74.2798 340.88 76.0679L338.376 76.9977L336.803 75.2096V74.2083C336.445 73.7791 336.159 73.4215 336.016 73.1354L332.01 75.0666C331.796 74.4229 331.081 74.2083 329.865 74.4229C329.078 73.9222 328.577 73.4931 328.363 73.0639C328.22 71.848 328.577 71.0612 329.436 70.7751C327.934 70.2029 327.075 69.4162 326.646 68.4864L326.36 67.628C326.146 66.9843 328.077 65.7684 332.154 64.0518L331.438 63.4081L330.938 62.1207C330.795 61.5485 330.938 61.1909 331.51 60.9763L331.438 61.0478ZM332.511 85.8668C333.012 86.2959 333.298 86.6535 333.369 86.9396L332.94 87.0827L333.655 87.7979L334.871 91.1595L336.159 90.6589C338.233 89.8721 339.163 89.0853 339.02 88.1555L337.446 84.0071L336.731 83.2919L336.016 84.0071L335.158 84.2932C334.514 84.5078 333.942 84.5793 333.298 84.5078C332.583 85.08 332.225 85.5806 332.368 85.7952L332.511 85.8668Z" fill="#040000"/>
<path d="M344.023 51.1027C344.381 50.9597 345.382 51.3888 346.884 52.3902L348.315 56.1809C349.173 58.3982 350.818 59.5426 353.393 59.5426L354.609 61.4737C354.466 63.6195 354.466 65.05 354.752 65.6937L354.895 66.1228C354.895 66.1228 357.041 66.7665 361.046 67.1957L361.332 68.0539L361.69 70.2712C359.043 71.2726 356.898 71.4156 355.181 70.7719L353.894 71.2726C354.18 73.9905 353.965 75.4925 353.178 75.7786L352.749 75.9217C351.247 76.4939 349.817 76.2077 348.601 75.0633L348.315 74.205C348.029 73.3467 348.243 70.9149 348.958 66.838L348.458 65.5506L346.384 66.3374C343.165 67.5533 340.876 67.4103 339.589 65.9798C339.017 64.4778 339.732 63.3334 341.591 62.4036C343.165 62.1175 344.524 61.7598 345.525 61.4022L344.81 60.7585L344.524 59.9002C344.524 59.9002 344.524 59.4711 344.81 59.328L344.095 58.6843L342.092 53.2484C342.092 52.3186 342.736 51.6034 344.166 51.1027H344.023ZM358.257 51.0312C361.332 49.8868 363.693 51.5318 365.338 56.0379L367.054 60.687C367.269 61.3307 367.626 61.8313 368.055 62.189L367.912 63.1903C369.057 65.4791 369.915 67.4102 370.487 68.9123C370.63 69.3414 370.344 69.9136 369.701 70.6288C367.197 71.5586 365.051 69.7705 363.406 65.336C360.617 58.9704 358.686 54.8935 357.541 53.1769C357.541 51.8895 357.756 51.1742 358.185 51.0312H358.257Z" fill="#040000"/>
<path d="M371.702 44.7301L373.347 44.0864C375.851 43.1565 377.496 43.8003 378.354 46.0176L378.64 46.8758C378.64 46.8758 378.64 47.305 378.354 47.448C378.426 47.7341 378.64 47.8056 378.926 47.7341C379.856 57.5329 379.713 62.6827 378.426 63.1118L377.997 63.2549C376.065 63.9701 374.706 63.3979 373.991 61.3952L373.848 60.9661C373.562 60.3224 373.562 58.8919 373.705 56.7462L372.847 57.0323L370.057 58.5343L367.053 56.8177L366.266 54.7435C371.345 52.0971 373.705 50.452 373.419 49.6652C373.133 49.7368 372.918 49.6653 372.847 49.3792C372.346 49.8799 370.916 50.7381 368.555 51.954C367.125 51.954 365.837 51.4534 364.693 50.5236L363.906 48.4493C365.909 47.0904 368.484 45.803 371.559 44.6586L371.702 44.7301ZM381.501 63.4694L381.93 63.3264C384.72 62.3251 386.937 63.9701 388.582 68.4762L389.083 69.7636L389.512 69.6205C392.158 68.6192 394.232 67.4033 395.734 65.9013C397.308 65.3291 398.882 65.9013 400.598 67.4748L400.741 67.904C401.313 69.4775 398.095 71.9093 391.085 75.2709C389.154 75.9862 386.866 75.414 384.219 73.4828L382.789 69.6921L380.5 64.8284L381.43 63.541L381.501 63.4694ZM382.502 37.8638C385.149 37.3631 386.722 37.7207 387.223 39.0081C388.224 41.6545 389.297 44.2294 390.585 46.8043C391.014 48.7355 391.514 50.5951 392.158 52.3832C392.659 52.8123 392.945 53.17 393.017 53.4561L392.587 53.5991L393.303 54.3143L393.946 55.9594C394.089 56.3886 393.732 57.1753 392.873 58.2482L390.799 59.035C389.941 59.3211 388.725 57.7475 387.152 54.2428L387.581 54.0998L386.865 53.3845C386.865 53.3845 385.65 49.7368 383.575 43.2281C383.504 42.942 383.146 42.5844 382.717 42.1552V41.1539C382.359 40.7963 382.002 40.2956 381.787 39.6519C381.644 39.2943 381.93 38.722 382.574 37.9353L382.502 37.8638Z" fill="#040000"/>
<path d="M396.594 37.3684L398.239 36.7247C399.741 36.1525 401.6 36.5816 403.889 37.9406C404.89 43.3049 404.032 46.452 401.243 47.4533C400.098 47.8825 398.096 47.1672 395.235 45.3791C395.306 45.6652 395.235 45.8083 394.949 45.9513L394.233 45.3076L394.09 44.8785C394.09 44.8785 394.09 44.3778 394.376 44.3062L393.661 43.591C393.947 41.3022 394.662 39.8717 395.95 39.4426C395.664 38.2982 395.95 37.583 396.594 37.2969V37.3684ZM411.184 47.2388C412.686 47.2388 413.545 47.5964 413.902 48.0971C414.546 49.8137 410.255 52.8176 401.099 57.1091L399.025 57.8959C397.738 57.8959 396.808 57.1091 396.236 55.6071C396.45 54.8918 401.457 52.1024 411.184 47.2388ZM397.881 42.1605C398.739 43.0904 399.311 43.5195 399.741 43.3764L400.17 43.2334C400.027 42.8043 400.17 42.089 400.814 41.0877L400.17 39.4426L397.881 42.1605ZM410.899 29.7153L411.328 29.5723C413.545 29.5723 414.904 30.2875 415.476 31.861L417.192 36.5101C417.836 38.2267 418.48 40.3724 419.124 42.9473L422.128 48.5262L421.699 48.6692L422.414 49.313C422.414 51.2441 422.128 52.317 421.699 52.46L421.269 52.6031C418.909 52.2455 417.193 50.6004 416.191 47.811L416.62 47.6679L415.905 46.9527L414.475 43.1619C414.475 43.1619 414.475 42.6612 414.761 42.5897L414.045 41.946C414.045 41.946 413.902 41.1592 414.045 40.5155C413.187 39.085 412.615 37.9406 412.257 36.9393C412.186 36.6532 412.257 36.4386 412.543 36.367L411.828 35.6518C411.828 35.6518 411.685 34.8651 411.828 34.2214L410.469 31.861C410.469 30.5736 410.684 29.8584 411.113 29.7153H410.899Z" fill="#040000"/>
<path d="M113.719 199.726C115.65 199.655 116.866 200.012 117.367 200.727C118.01 204.232 118.511 206.378 118.869 207.308L124.376 208.166C124.877 208.524 125.163 209.024 125.377 209.668C125.52 210.169 124.734 210.884 122.946 212.028C120.156 211.814 118.439 211.814 117.724 212.028C117.581 215.533 117.152 217.393 116.508 217.75L116.079 217.893C114.577 218.465 113.361 218.251 112.503 217.321L112.36 216.892C112.145 216.32 112.36 213.387 112.932 208.094C113.004 207.522 112.932 206.878 112.718 206.235L108.14 207.951C107.711 208.094 106.924 207.737 105.851 206.879L105.351 205.591C104.993 204.661 106.924 203.374 111.001 201.586C110.786 201.014 111.645 200.37 113.647 199.655L113.719 199.726ZM121.3 221.612C123.875 220.683 126.665 223.114 129.74 228.979C134.819 225.189 138.109 222.971 139.682 222.399C141.256 223.186 142.186 224.044 142.615 225.117C143.044 226.262 140.684 228.05 135.605 230.553C135.391 231.554 133.317 232.842 129.383 234.272C127.165 235.131 124.161 231.268 120.442 222.828L121.372 221.541L121.3 221.612ZM123.947 194.004C126.665 193.003 129.883 196.579 133.603 204.733L133.889 205.591L133.46 205.734L134.175 206.378L135.605 210.169C135.462 211.528 134.819 212.386 133.674 212.815C133.531 212.457 132.673 212.243 131.099 212.314C130.67 211.957 130.313 211.456 130.098 210.812C128.024 205.162 125.592 200.37 122.874 196.364C122.731 195.435 123.089 194.719 123.947 194.076V194.004Z" fill="#040000"/>
<path d="M139.683 187.281C142.759 186.136 144.69 186.565 145.405 188.497C146.621 191 147.694 193.503 148.624 195.864L150.197 200.012L150.555 202.229L149.268 202.73C147.336 203.445 145.977 202.873 145.262 200.87L143.689 196.722C143.188 195.291 142.258 193.289 140.971 190.571C136.179 192.645 133.175 193.932 131.959 194.362L130.099 193.146L129.956 192.717C129.598 191.787 132.889 189.999 139.826 187.209L139.683 187.281ZM151.27 178.698L152.915 178.054C154.846 177.339 156.563 178.912 157.993 182.846C158.995 184.706 159.567 185.779 159.639 186.065C164.574 183.633 167.149 182.131 167.578 181.702C169.652 181.273 170.868 181.559 171.297 182.703C171.297 184.277 171.082 185.135 170.796 185.278C169.652 185.707 166.433 187.209 161.069 189.856L163.358 194.719L164.001 196.364C164.502 197.652 164.431 198.796 163.859 199.726C161.355 200.656 159.424 199.297 158.065 195.721L155.133 187.781C154.632 186.494 153.13 183.704 150.626 179.413L151.342 178.698H151.27Z" fill="#040000"/>
<path d="M179.378 172.626C182.453 171.482 184.384 171.911 185.1 173.842C186.315 176.346 187.388 178.849 188.318 181.209L189.892 185.358L190.249 187.575L188.962 188.004C187.031 188.719 185.672 188.147 184.957 186.144L183.383 181.996C182.882 180.566 181.952 178.563 180.665 175.845C175.873 177.919 172.869 179.207 171.653 179.636L169.793 178.42L169.65 177.991C169.293 177.061 172.583 175.273 179.521 172.483L179.378 172.626ZM190.965 164.044L192.61 163.4C194.541 162.685 196.257 164.258 197.688 168.192C198.689 170.052 199.261 171.124 199.333 171.411C204.196 168.979 206.843 167.477 207.201 167.048C209.275 166.618 210.491 166.904 210.92 168.049C210.92 169.622 210.705 170.481 210.419 170.624C209.275 171.053 206.056 172.555 200.692 175.201L202.981 180.065L203.624 181.71C204.125 182.997 204.053 184.142 203.481 185.072C200.978 186.001 199.047 184.642 197.688 181.066L194.755 173.127C194.255 171.84 192.753 169.05 190.249 164.759L190.965 164.044Z" fill="#040000"/>
<path d="M222.005 156.808L222.864 156.522C223.793 156.164 225.796 158.953 228.8 164.818L232.591 163.459C232.305 162.744 231.446 161.314 230.016 159.168C230.087 158.524 230.016 158.095 230.016 157.737C229.587 157.38 229.229 156.879 229.015 156.235L229.73 155.52L231.375 154.876C232.233 154.59 234.379 157.38 237.884 163.388C238.17 164.961 238.527 166.392 239.028 167.751L239.529 169.038V170.04L240.959 168.967C242.747 168.609 243.749 168.752 243.963 169.324L245.966 174.76L247.897 173.544L249.542 172.901L250.758 174.832C250.973 175.332 250.973 176.763 250.901 179.052C256.695 180.196 259.842 181.269 260.199 182.27L260.342 182.699C259.627 183.915 258.769 184.702 257.839 185.06C257.267 185.274 254.62 184.845 249.757 183.772C249.041 186.133 248.112 187.921 246.967 189.065L245.322 189.709C244.893 189.852 244.321 189.566 243.606 188.922L243.105 187.635C244.822 182.699 245.465 179.91 245.251 179.266C243.963 180.411 242.533 181.197 240.959 181.77C239.028 182.485 237.669 181.913 236.954 179.91C236.954 178.98 237.598 178.265 239.028 177.693L241.531 176.763L241.031 175.475L239.6 170.326C239.6 170.326 238.956 170.755 238.456 171.184C238.17 171.256 237.669 171.327 237.025 171.184C233.664 173.044 231.733 174.116 231.089 174.331C228.728 174.76 227.155 174.045 226.511 172.185L226.082 170.969C225.939 170.397 226.082 169.968 226.583 169.825C223.364 164.604 221.361 160.813 220.432 158.31L221.075 157.594C221.075 157.594 221.362 157.952 221.648 157.881C221.505 157.308 221.648 156.951 222.148 156.736L222.005 156.808ZM230.159 168.538L230.66 169.825L233.592 168.752C234.164 168.538 234.379 168.18 234.164 167.608L234.021 167.179L233.592 167.322L230.874 168.824C230.874 168.824 230.588 168.466 230.302 168.538H230.159ZM237.955 152.373L240.029 151.586C241.388 151.086 243.534 154.733 246.466 162.53C246.896 162.887 247.325 163.531 247.682 164.461C247.682 165.748 247.468 166.463 247.039 166.606L245.394 167.25C244.178 167.679 241.388 163.173 237.025 153.732L237.955 152.445V152.373Z" fill="#040000"/>
<path d="M247.751 149.158L249.825 148.371C250.54 148.085 252.185 149.873 254.688 153.735L257.764 162.103L267.348 157.097C268.779 156.739 269.852 157.383 270.352 158.885L270.495 159.314C269.065 161.388 265.417 163.963 259.624 167.182L257.549 167.968C257.12 168.111 256.119 167.539 254.545 166.18L251.756 158.67C250.683 155.809 249.253 153.163 247.393 150.731L247.25 150.302C247.107 149.73 247.25 149.301 247.751 149.158ZM266.347 138.93C268.493 138.143 270.71 139.859 272.999 144.079C274.215 145.867 275.001 146.654 275.359 146.511L277.29 145.295C279.793 144.365 281.438 144.866 282.154 146.797L282.297 147.226C282.511 147.799 280.652 149.229 276.789 151.661C276.861 151.947 276.789 152.09 276.503 152.233L277.219 152.948L278.291 155.881L279.507 157.812C278.935 159.314 278.148 160.244 277.219 160.53C275.573 160.315 274.429 159.457 273.857 157.955L270.781 149.587C268.063 144.938 266.275 142.148 265.274 141.147C265.131 139.931 265.489 139.144 266.347 138.858V138.93Z" fill="#040000"/>
<path d="M283.446 138.859C284.733 138.359 286.879 141.076 289.74 147.013L290.169 146.87C296.106 143.079 299.754 140.933 301.113 140.433L302.543 141.792C303.258 143.723 301.685 145.439 297.751 146.87C298.037 147.657 296.177 148.944 292.1 150.875C288.167 152.306 285.377 150.661 283.589 145.94C283.589 145.797 282.731 144.009 281.157 140.647C281.872 139.789 282.588 139.145 283.374 138.859H283.446ZM299.825 152.306L299.968 152.735L300.612 152.02C300.612 152.02 301.113 152.02 301.184 152.306L301.899 151.59L308.623 149.087C308.766 149.445 309.481 150.16 310.84 151.09L309.338 153.522L301.828 156.311C299.181 157.312 295.677 158.886 291.242 161.175C289.168 161.175 287.952 160.746 287.523 160.173L286.879 158.528C292.959 155.31 297.25 153.307 299.825 152.306ZM297.393 159.816L297.822 159.673C298.681 159.387 300.397 161.89 302.972 167.254C307.121 164.107 310.196 162.176 312.27 161.461C312.628 161.318 313.2 161.604 313.987 162.248L314.917 164.751L304.975 171.26L302.471 172.19C300.183 172.046 298.609 170.759 297.679 168.256L296.106 164.107L294.89 162.176C295.605 160.96 296.463 160.173 297.322 159.816H297.393Z" fill="#040000"/>
<path d="M318.493 124.49L319.781 123.989L322.999 123.703L324.859 132.5L325.86 132.643L326.719 132.357L325.503 130.426C326.504 129.425 328.65 128.352 331.868 127.136L332.297 126.993L330.009 120.699L331.654 120.055C333.585 119.34 335.015 120.198 335.945 122.773C338.306 129.997 339.664 134.145 340.022 135.075L340.737 135.719C340.88 137.579 340.237 138.794 338.735 139.295C336.804 138.222 335.445 136.863 334.801 135.004L333.37 131.213L332.655 131.928L328.864 133.359L327.863 133.216L328.006 133.645C331.153 134.503 333.013 135.576 333.513 136.863C333.657 137.292 333.37 137.793 332.727 138.58L331.868 138.866C330.652 139.295 328.221 138.651 324.43 136.863C325.074 140.439 325.002 142.371 324.215 142.657L322.141 143.443C321.998 143.086 321.283 142.371 319.924 141.369C319.638 140.726 319.566 138.365 319.709 134.288C319.28 128.853 318.994 125.92 318.851 125.562L318.422 124.347L318.493 124.49ZM334.515 117.552L335.731 117.123C338.52 116.121 340.809 118.052 342.669 123.131C342.955 122.988 343.884 124.704 345.53 128.28C345.601 128.566 345.53 128.709 345.243 128.853L346.459 130.784L348.748 137.078L346.817 138.294C344.886 139.009 342.812 136.434 340.594 130.569C339.665 127.994 337.662 123.846 334.586 118.052L334.443 117.623L334.515 117.552Z" fill="#040000"/>
<path d="M349.179 115.471L351.253 114.684C351.682 114.541 352.469 114.899 353.542 115.757L353.685 116.186C353.828 119.119 354.042 120.978 354.257 121.693C357.762 123.553 359.979 124.34 360.837 123.982L361.338 125.27C361.481 125.699 361.195 126.271 360.551 126.986L359.335 127.415C358.262 127.845 356.403 127.558 353.756 126.557C353.971 130.634 353.542 132.851 352.469 133.209C350.323 133.423 349.107 133.209 348.893 132.637L348.75 132.208C348.32 131.063 348.321 128.417 348.607 124.197C348.321 119.19 348.535 116.258 349.179 115.399V115.471ZM367.417 130.133L367.847 129.99C372.424 129.49 375.214 130.563 376.143 133.137L376.787 134.782C376.716 139.288 375.428 141.935 373.139 142.793C373.354 143.365 372.067 144.152 369.277 145.153L368.848 145.297C367.274 145.869 365.129 145.297 362.411 143.365L360.837 139.145C359.693 135.998 361.91 132.923 367.489 130.062L367.417 130.133ZM361.409 108.605C363.555 107.818 365.772 109.177 368.204 112.753C372.067 111.966 374.141 112.109 374.57 113.254L374.713 113.683C374.856 114.112 374.57 114.684 373.926 115.399L369.778 116.973L371.494 121.55C371.494 122.838 370.708 123.768 369.206 124.34C368.204 123.768 367.489 123.553 367.06 123.696L365.987 120.764C365.2 118.689 363.484 114.899 360.837 109.391L361.553 108.676L361.409 108.605ZM366.058 140.647L367.918 141.863C370.994 139.789 372.138 137.786 371.423 135.855L370.922 134.568C370.708 133.996 370.35 133.853 369.778 134.067L367.704 134.854C365.486 135.712 364.914 137.643 366.058 140.647Z" fill="#040000"/>
<path d="M371.489 90.5146L371.632 90.9437L372.276 90.2285C373.992 90.4431 375.137 90.9437 375.709 91.802C382.361 111.543 385.293 121.556 384.435 121.914L383.577 122.2C382.718 122.486 381.574 121.985 380.143 120.626C379.929 120.054 379.5 118.409 378.856 115.834C378.784 115.548 378.57 115.477 378.284 115.548C377.354 111.9 376.853 109.683 376.782 108.968C376.71 108.682 376.496 108.61 376.21 108.682L375.566 105.606L370.702 91.2299L371.417 90.5146H371.489ZM383.219 131.426C387.582 130.354 390.228 130.926 391.086 133.286L391.373 134.144C391.587 134.645 390.586 135.789 388.369 137.649L387.081 138.15C384.006 137.506 382.146 136.433 381.574 134.931C382.79 133.644 383.29 132.499 383.147 131.498L383.219 131.426Z" fill="#040000"/>
</svg>
