<svg width="550" height="620" viewBox="0 0 550 620" fill="none" xmlns="http://www.w3.org/2000/svg">
<g clip-path="url(#clip0_45_2)">
<path d="M128.692 478.908C126.69 483.772 124.544 494.715 124.544 503.87C124.544 516.458 127.548 529.118 126.833 541.778C126.69 544.711 126.117 547.643 126.117 550.647C126.117 561.733 125.045 582.261 130.838 592.274C132.841 589.771 162.023 608.367 163.811 608.725C212.161 618.524 226.18 616.593 275.389 619.811C291.196 620.884 334.826 617.165 350.346 614.59C369.229 611.443 385.536 607.437 396.551 597.209C397.123 588.126 397.91 572.319 397.982 563.092C397.982 549.073 399.984 539.632 399.77 525.828C399.627 517.245 398.84 510.379 399.627 501.867C400.056 497.576 400.199 486.49 395.55 483.056C392.045 480.482 377.669 481.125 372.948 480.911C365.724 480.482 358.5 480.339 351.276 480.267C336.828 480.052 322.38 480.267 307.932 480.052C271.598 479.409 234.763 478.336 198.143 478.336C175.112 478.336 152.939 479.48 128.692 478.908Z" fill="white" stroke="#040000" stroke-width="9.29817" stroke-linecap="round" stroke-linejoin="round"/>
<path d="M264.806 452.874C256.151 450.943 247.282 450.585 238.413 450.657C218.1 450.943 198.002 453.875 177.761 455.234C172.754 455.592 165.959 455.091 160.809 456.665C152.656 459.24 131.913 467.537 130.698 476.906C129.696 484.273 137.85 492.856 142.785 497.362C162.526 515.458 193.639 510.809 218.1 511.166C269.812 512.025 321.453 522.61 372.092 506.875C379.602 504.515 391.118 498.936 396.196 492.57C401.918 485.418 395.624 478.051 390.76 471.327C383.465 461.171 379.03 462.029 365.798 461.6C357.072 461.314 348.203 461.242 339.549 460.384C324.243 458.811 308.293 456.236 292.915 455.521C282.258 455.02 270.885 455.807 264.877 452.803L264.806 452.874Z" fill="white" stroke="#040000" stroke-width="9.29817" stroke-linecap="round" stroke-linejoin="round"/>
</g>
<defs>
<clipPath id="clip0_45_2">
<rect width="550" height="620" fill="white"/>
</clipPath>
</defs>
</svg>
