<svg width="423" height="82" viewBox="0 0 423 82" fill="none" xmlns="http://www.w3.org/2000/svg">
<path d="M194.688 76.7939C213.688 76.3653 232.617 77.8653 251.76 76.7224C260.474 76.2224 269.117 74.9368 277.831 74.3653C290.045 73.5796 302.402 74.7225 314.617 74.7939C337.045 74.8653 360.188 74.9368 382.545 73.5796C390.76 73.0796 402.545 71.0082 408.974 66.5796C421.331 58.151 422.474 35.5796 412.76 26.151C397.617 11.4368 371.474 7.93672 349.76 6.07958C293.331 1.29387 235.331 3.07962 178.831 4.22248C156.831 4.65105 134.974 5.00817 113.045 6.65102C91.1167 8.29388 67.9738 7.43672 47.6881 11.9367C29.6881 15.9367 7.68812 20.7939 3.90241 38.0082C2.61669 43.9367 1.90234 53.4367 6.40234 58.7225C12.2595 65.5082 25.3309 66.651 34.1881 69.0796C44.1881 71.8653 55.5452 73.0081 66.0452 74.151C88.6881 76.651 108.688 78.0796 131.545 78.5796C151.688 79.0082 171.831 77.651 191.902 76.9368C192.902 76.9368 193.831 76.9367 194.831 76.8653L194.688 76.7939Z" fill="white" stroke="#040000" stroke-width="5.85714" stroke-linecap="round" stroke-linejoin="round"/>
<path d="M35.186 32.5762H36.0432C40.1861 32.5762 42.3289 34.5762 42.3289 38.5762C42.3289 43.2905 41.0431 46.4333 38.5431 48.0762H38.1146C34.6146 48.0762 32.4003 45.9333 31.4717 41.5762V38.5762C31.4717 36.3619 32.7575 34.3619 35.2575 32.5762H35.186ZM33.9003 40.0762C33.9003 42.719 35.4003 44.0762 38.4718 44.0762L39.7574 42.0762V37.0762L36.8288 36.0762H36.4003C34.7574 38.2191 33.9003 39.5762 33.9003 40.0762ZM55.5432 30.0762H56.7575C56.7575 31.219 56.9003 32.0047 57.186 32.5762C56.9003 34.3619 56.7575 35.8619 56.7575 37.0762V41.5762C57.6146 42.7905 58.0431 46.2905 58.0431 52.0762C57.7574 53.4333 57.186 54.0762 56.4003 54.0762C54.9717 53.6476 54.3289 50.7904 54.3289 45.5762C52.3289 45.5762 50.8289 45.9334 49.7575 46.5762C48.6146 46.0762 48.1145 45.5762 48.1145 45.0762C48.1145 43.0762 50.186 42.0762 54.4003 42.0762V37.0762L52.3289 36.5762C51.4718 36.5762 49.686 36.9333 46.9003 37.5762C46.3288 37.2191 45.9717 37.0762 45.686 37.0762V36.0762C45.686 34.5762 48.6146 33.4333 54.4003 32.5762C54.6146 30.9333 55.0432 30.0762 55.6861 30.0762H55.5432Z" fill="black"/>
<path d="M61.5451 25.9286C62.4736 26.5714 63.2594 26.9286 64.0451 26.9286H64.9022C71.1879 26.2857 74.545 25.9286 74.9022 25.9286H75.7594C76.6165 25.9286 77.0451 26.5715 77.0451 27.9286L73.6879 42.9286C73.9736 43.5 74.1165 44.1429 74.1165 44.9286C73.3307 46.6429 72.7593 47.4286 72.4736 47.4286C71.4022 46.9286 70.8308 46.4286 70.8308 45.9286V45.4286C70.8308 44.0714 71.8308 38.5714 73.7594 28.8572H73.3307C68.545 29.5 65.7593 30.0714 64.9736 30.3571C61.6165 29.7143 59.9736 28.9286 59.9736 27.8572V27.3572C59.9736 26.8572 60.545 26.3572 61.6165 25.8572L61.5451 25.9286ZM84.1165 25.5H85.7594C86.6165 25.5 87.1879 32.3572 87.4022 46.0715C87.6879 46.0715 87.8308 47.0715 87.8308 49.0715C87.2594 49.0715 86.9736 49.5714 86.9736 50.5714C85.5451 50.5714 84.9022 48.5714 84.9022 44.5714C84.0451 34.3571 83.6165 28.6428 83.6165 27.5C83.9022 26.9286 84.045 26.2857 84.045 25.5H84.1165Z" fill="black"/>
<path d="M95.8979 28.5781V29.5781C95.3265 32.5781 95.0408 34.721 95.0408 36.0781C98.898 40.721 100.898 43.7924 100.898 45.0781C100.612 45.721 100.469 46.221 100.469 46.5782H99.6123C99.6123 46.5782 97.3266 44.221 93.8266 39.5781C92.898 46.5781 92.0408 50.0781 91.3265 50.0781H90.898C90.4694 50.0781 90.1123 49.5781 89.6123 48.5781L93.7551 29.5781C94.2551 29.5781 94.9694 29.221 95.8266 28.5781H95.8979ZM109.612 27.5781H110.041C110.041 28.221 110.327 28.5781 110.898 28.5781C110.898 28.9353 110.755 29.0781 110.469 29.0781L110.898 30.0781V31.0781C110.898 32.0781 110.755 32.5781 110.469 32.5781C110.827 38.0067 111.255 42.3638 111.755 45.5781C111.469 46.0781 111.327 47.0781 111.327 48.5781H110.898C109.398 48.5781 108.612 44.5781 108.398 36.5781H107.969C104.255 37.0067 101.755 37.5067 100.469 38.0781C99.8979 37.721 99.5409 37.5781 99.1837 37.5781V36.0781C99.1837 34.721 101.112 34.0782 105.041 34.0782H108.327L108.755 30.5781L108.327 29.5781C108.755 28.221 109.184 27.5781 109.541 27.5781H109.612Z" fill="black"/>
<path d="M132.332 29.5742V30.0742L133.189 29.5742H136.903C136.903 29.5742 137.046 30.4314 137.332 31.0742C137.046 34.1456 136.474 36.2885 135.689 37.5742V38.5742C138.117 43.5742 139.903 46.0743 141.117 46.0743V47.0743C140.546 47.9314 140.26 48.7885 140.26 49.5742H138.974C138.974 49.5742 136.974 47.4314 133.546 43.0742C132.546 47.3599 131.831 49.5742 131.474 49.5742C131.76 50.2171 131.903 50.7171 131.903 51.0742C131.474 52.4314 131.046 53.0742 130.617 53.0742H130.189C129.617 53.0742 129.332 52.7171 129.332 52.0742V51.5742C129.76 45.7171 131.403 39.86 134.332 34.0743V33.0742L125.974 34.0743L125.117 32.5742V31.5742C125.117 31.0028 127.474 30.3599 132.189 29.5742H132.332ZM147.76 29.5742H148.617C149.189 29.5742 149.617 30.9314 149.903 33.5743C149.617 34.2171 149.474 34.7171 149.474 35.0742C150.046 39.0742 150.332 42.2885 150.332 44.5742V46.5743C150.332 46.5743 150.189 47.0743 149.903 47.0743L150.332 48.0742V49.5742C150.332 50.0742 149.903 50.5742 149.046 51.0742H147.832C147.26 48.4314 146.974 45.5742 146.974 42.5742V40.0742C145.974 40.0742 143.617 40.4314 139.903 41.0742L138.617 38.5742C139.046 37.2171 139.474 36.5742 139.903 36.5742H141.546C141.546 36.5742 141.974 36.7171 141.974 37.0742C143.974 36.6457 145.617 36.2171 146.974 35.5742L146.546 33.0742C146.76 30.7885 147.117 29.5742 147.832 29.5742H147.76ZM153.617 30.5742H154.046C154.903 30.5742 155.332 31.2171 155.332 32.5742C155.617 41.0742 155.76 46.0743 155.76 47.5743C156.046 48.2171 156.189 48.7171 156.189 49.0742C155.617 49.0742 155.332 49.7171 155.332 51.0742H154.903C153.26 51.0742 152.403 45.9314 152.403 35.5742V31.5742L153.689 30.5742H153.617Z" fill="black"/>
<path d="M164.972 22.5781C167.472 23.6495 168.757 25.2924 168.757 27.5781C168.757 30.2924 167.115 32.1495 163.757 33.0781H162.115C159.329 32.6495 157.972 31.5067 157.972 29.5781V28.0781C157.972 24.4352 160.329 22.5781 165.043 22.5781H164.972ZM160.4 28.0781C160.4 29.0067 161.329 29.8638 163.329 30.5781C165.257 29.7924 166.257 29.1495 166.257 28.5781C165.9 26.9352 165.472 26.0781 164.972 26.0781H163.329C162.186 26.0781 161.186 26.721 160.4 28.0781ZM174.186 40.0781C175.543 42.2924 176.257 45.1495 176.257 48.5781C176.257 50.5067 173.757 51.6495 168.757 52.0781C168.757 52.4352 168.472 52.5781 167.9 52.5781V55.0781L168.329 56.0781C170.9 55.6495 172.614 55.3638 173.329 55.0781C173.614 55.0781 173.757 55.2209 173.757 55.5781L175.829 55.0781C177.329 55.4352 178.115 55.5781 178.329 55.5781V57.5781C178.329 58.1495 177.472 58.7924 175.829 59.5781L174.186 59.0781C173.115 59.0781 171.043 59.4353 167.9 60.0781V59.5781L167.043 60.0781C165.615 59.221 164.972 57.9352 164.972 56.0781V54.0781C164.972 50.0781 167.757 48.0781 173.329 48.0781V47.5781C173.329 45.221 173.043 44.0781 172.472 44.0781L165.829 45.0781C165.829 45.0781 165.686 44.5781 165.4 44.5781C165.4 45.2209 165.257 45.5781 164.972 45.5781C162.472 44.8638 161.257 44.0067 161.257 43.0781V42.5781C161.257 41.9352 161.686 41.5781 162.543 41.5781C165.972 41.9352 167.972 42.0781 168.329 42.0781C170.829 40.7209 172.757 40.0781 174.186 40.0781ZM175.829 21.0781H176.686C177.329 21.0781 177.972 25.0781 178.757 33.0781C178.186 33.0781 177.9 33.5781 177.9 34.5781H176.257L174.615 25.0781H175.043L174.615 24.0781C174.9 22.0781 175.329 21.0781 175.9 21.0781H175.829Z" fill="black"/>
<path d="M204.397 31.0801L204.825 32.0801C204.825 33.7944 204.397 36.4372 203.54 40.0801C203.54 41.0801 203.968 41.5801 204.825 41.5801L204.397 42.5801C206.897 46.5801 208.397 48.5801 208.968 48.5801V51.0801C208.968 51.723 208.54 52.0801 207.682 52.0801C207.254 52.0801 205.182 49.7229 201.468 45.0801C200.397 48.8658 199.682 52.2229 199.397 55.0801H197.325L196.897 52.5801C196.897 52.5801 197.039 52.0801 197.325 52.0801L196.897 51.0801L201.897 35.0801C201.897 35.0801 201.468 34.9373 201.468 34.5801C200.039 35.223 197.539 35.5801 193.968 35.5801C192.897 35.223 192.325 34.5801 192.325 33.5801C192.611 32.9373 192.754 32.4372 192.754 32.0801C193.611 32.0801 197.539 31.7229 204.397 31.0801ZM216.04 32.5801H216.468C217.325 32.7944 217.682 34.1515 217.682 36.5801H217.254L217.682 37.5801V41.0801C217.682 44.4372 217.968 48.5801 218.539 53.5801C218.182 53.5801 217.611 54.2229 216.897 55.5801C216.325 55.5801 215.825 54.5801 215.254 52.5801C215.254 52.223 215.397 52.0801 215.682 52.0801L214.825 43.0801L208.968 44.5801C207.325 43.7944 206.468 43.1515 206.468 42.5801V41.5801C206.468 41.0087 209.397 40.1515 215.182 39.0801L214.754 36.5801H215.182L214.754 35.5801C214.897 33.5801 215.325 32.5801 215.968 32.5801H216.04Z" fill="black"/>
<path d="M229.546 24.5801V25.0801L230.403 24.5801H232.904C233.618 24.5801 234.189 26.7229 234.546 31.0801C234.546 33.4372 232.332 35.4372 227.903 37.0801L227.046 38.5801V40.5801H233.689C234.475 40.5801 235.261 40.2229 236.189 39.5801C236.689 39.9372 237.118 40.0801 237.475 40.0801L237.046 41.0801C237.618 41.0801 237.904 41.2229 237.904 41.5801C237.904 42.5801 237.475 43.0801 236.618 43.0801L237.046 44.08H232.046C230.332 44.08 228.118 44.58 225.404 45.58C224.546 42.2943 224.118 40.3658 224.118 39.5801C224.118 36.4372 225.618 34.2943 228.689 33.08C229.761 33.08 230.903 32.2229 232.046 30.5801C231.475 29.5086 231.189 28.6515 231.189 28.0801C228.403 28.4372 226.332 28.5801 224.903 28.5801H222.832C221.189 28.5801 220.332 27.5801 220.332 25.5801L221.189 25.0801H227.403L229.475 24.5801H229.546ZM234.118 50.5801H235.761C236.332 50.6515 236.618 51.0086 236.618 51.5801C237.618 50.9372 238.761 50.5801 239.975 50.5801H247.046L247.475 53.0801V62.5801C247.475 63.5801 244.689 64.2229 239.118 64.5801C235.261 64.5801 233.261 62.5801 233.261 58.5801V58.08C233.832 53.7943 234.118 51.2944 234.118 50.5801ZM235.761 55.0801V56.58C235.761 59.08 236.332 60.3658 237.403 60.5801C237.975 60.5801 238.189 60.4372 238.189 60.0801L241.118 60.5801H244.475C244.475 60.1515 244.618 58.5086 244.903 55.5801C244.618 54.9372 244.475 54.4372 244.475 54.0801H240.261C240.261 54.0801 239.832 53.9372 239.832 53.5801C237.904 54.5801 236.475 55.0801 235.689 55.0801H235.761ZM247.832 25.0801H248.689C249.261 25.0801 249.761 28.5801 250.332 35.5801H249.903L250.332 36.5801V39.5801C250.332 40.2229 250.046 40.5801 249.475 40.5801H247.404C247.404 39.8658 247.261 39.1515 246.975 38.5801C247.261 38.0086 247.404 37.3658 247.404 36.5801C244.689 37.5801 241.904 38.0801 239.046 38.0801L238.189 36.5801V36.0801C238.189 35.4372 241.261 34.5801 247.404 33.5801C247.118 33.0087 246.975 32.2229 246.975 31.0801C245.689 31.7229 243.903 32.08 241.546 32.08H238.618C238.046 32.08 237.761 31.7229 237.761 31.0801V29.0801C239.689 29.0801 242.546 28.7229 246.475 28.0801V29.0801H246.903C246.903 26.4372 247.189 25.0801 247.689 25.0801H247.832Z" fill="black"/>
<path d="M262.971 21.5801C264.613 21.9372 265.471 22.4372 265.471 23.0801L265.042 25.5801C263.328 25.5801 259.828 26.58 254.613 28.58V28.08L253.756 28.58H252.899C252.328 28.58 252.042 28.2229 252.042 27.5801V25.5801C252.042 25.0086 254.685 24.2229 259.971 23.0801C259.971 22.7229 260.899 22.2944 262.899 21.5801H262.971ZM262.542 29.08H263.756C265.256 29.08 266.256 29.7229 266.685 31.08C266.399 31.6515 266.256 32.2943 266.256 33.08C265.971 33.08 265.828 32.9372 265.828 32.58L255.828 35.5801C254.756 35.2229 254.185 34.2229 254.185 32.58C254.185 32.08 256.828 31.08 262.113 29.58C262.113 29.2229 262.256 29.08 262.542 29.08ZM263.399 37.0801C265.613 37.5801 266.756 38.7229 266.756 40.58C265.899 45.2229 264.113 47.5801 261.328 47.5801C258.042 46.8658 256.328 45.0086 256.328 42.08C256.328 39.0086 258.685 37.3658 263.399 37.0801ZM259.256 42.58C259.542 43.58 260.328 44.08 261.756 44.08C263.113 43.5086 263.828 42.5086 263.828 41.08L262.971 40.58C260.471 41.2229 259.256 41.9372 259.256 42.58ZM265.471 51.5801C266.756 51.5801 267.613 54.0801 267.971 59.0801H268.828C271.613 59.0801 274.256 58.4372 276.756 57.08C276.756 57.4372 276.899 57.58 277.185 57.58C277.185 57.2229 277.328 57.08 277.613 57.08C278.185 58.8657 278.471 59.8658 278.471 60.0801L276.399 62.0801H275.971C275.971 62.0801 275.542 61.9372 275.542 61.5801C272.756 62.9372 269.399 63.5801 265.542 63.5801C264.971 62.5086 264.685 61.5086 264.685 60.5801V60.0801C264.685 60.0801 264.828 59.5801 265.113 59.5801C264.899 59.1515 264.613 56.7943 264.256 52.5801L265.471 51.5801ZM275.113 25.0086L276.756 26.0086C276.756 26.0086 276.613 26.8658 276.328 27.5086C276.542 31.5086 276.971 33.5086 277.613 33.5086H278.042C278.613 33.5086 279.971 33.1515 282.185 32.5086C283.542 32.5086 284.256 32.8658 284.256 33.5086C284.256 35.8658 282.613 37.0086 279.256 37.0086C279.256 37.3658 278.971 37.5086 278.399 37.5086V37.0086C277.542 37.3658 277.113 37.6515 277.113 38.0086C277.113 38.5086 277.542 40.5086 278.399 44.0086C278.042 44.0086 277.328 44.6515 276.328 46.0086C274.971 46.0086 274.185 41.6515 273.828 33.0086H274.256L273.828 32.0086V25.5086C273.828 25.5086 274.542 25.3658 275.113 25.0086Z" fill="black"/>
<path d="M298.615 44.58H306.543C308.758 44.58 311.401 44.7229 314.472 45.08L315.329 44.58C316.686 45.0086 317.401 45.5087 317.401 46.0801C317.401 46.6515 317.115 47.6515 316.543 49.0801L312.4 48.5801H309.901C309.615 50.3658 309.472 51.3658 309.472 51.5801C310.043 56.0086 310.329 58.2944 310.329 58.5801C310.043 59.2229 309.901 59.7229 309.901 60.0801H308.258C307.615 60.0801 307.115 56.0801 306.615 48.0801H306.186C305.543 48.0801 303.472 48.2229 299.9 48.5801C298.543 48.3658 297.829 47.3657 297.829 45.58C297.901 44.9372 298.186 44.58 298.686 44.58H298.615ZM307.401 21.5801C310.401 21.5801 312.186 24.4372 312.829 30.08C312.829 33.3658 310.186 35.6515 304.901 37.0801C301.186 37.0801 299.115 34.4372 298.686 29.08C298.686 24.08 301.615 21.5801 307.401 21.5801ZM301.543 31.58C303.186 32.9372 304.472 33.5801 305.329 33.5801C308.115 33.5801 309.758 32.2229 310.329 29.58C310.329 26.58 308.972 25.0801 306.186 25.0801C303.115 25.0801 301.615 26.9372 301.615 30.58V31.58H301.543Z" fill="black"/>
<path d="M324.542 23.5742C325.113 23.9314 325.471 24.0742 325.828 24.0742V25.0742C325.828 25.9314 325.399 27.9313 324.542 31.0742C327.613 34.4313 329.971 36.0742 331.613 36.0742V38.0742C331.613 38.7171 331.328 39.0742 330.756 39.0742C329.113 39.0742 326.471 37.7171 322.828 35.0742C322.185 39.4314 321.685 41.5742 321.185 41.5742C321.185 41.2171 321.042 41.0742 320.756 41.0742V41.5742C320.756 41.5742 321.185 41.7171 321.185 42.0742H320.328C319.828 42.0742 319.399 41.2171 319.042 39.5742C319.042 38.7885 320.756 33.4314 324.042 23.5742H324.471H324.542ZM325.042 49.5742H326.256C326.828 52.5028 327.256 56.0028 327.542 60.0742H327.971C331.899 60.0742 335.685 59.5742 339.256 58.5742H339.685L340.113 61.0742C339.828 61.6456 339.685 62.2885 339.685 63.0742L337.613 62.5742C333.328 63.5742 330.685 64.0742 329.685 64.0742H328.471C326.399 64.0742 325.328 63.5742 325.185 62.5742V56.0742C325.185 55.717 324.899 53.8599 324.328 50.5742C324.399 49.9314 324.685 49.5742 325.185 49.5742H325.042ZM336.256 23.5742H338.328L339.185 28.0742H338.756C338.756 30.0742 339.899 31.0742 342.113 31.0742L342.542 30.0742C344.756 30.0742 345.899 31.0742 345.899 33.0742C344.899 34.0742 343.899 34.5742 342.97 34.5742H339.613V35.0742L340.042 36.0742L339.613 37.0742V39.5742L337.971 40.0742C337.256 38.3599 336.685 35.217 336.328 30.5742C336.328 30.217 336.471 30.0742 336.756 30.0742L336.328 27.5742V23.5742H336.256Z" fill="black"/>
<path d="M354.329 25.584H356.4C358.757 25.584 360.472 27.7268 361.4 32.084V34.584C359.686 37.9411 356.9 39.584 353.043 39.584H352.614C352.614 39.584 352.186 39.4411 352.186 39.084L351.329 39.584C349.829 39.084 348.614 37.7983 347.543 35.584C347.543 32.2983 348.686 29.584 350.9 27.584C351.829 26.2268 352.972 25.584 354.257 25.584H354.329ZM365.972 52.584C365.972 53.584 366.115 54.084 366.4 54.084C365.972 55.4411 365.543 56.084 365.114 56.084C363.257 56.084 359.472 56.4411 353.9 57.084C353.329 56.7268 352.9 56.584 352.614 56.584L351.757 57.084C348.972 57.084 347.543 56.4411 347.543 55.084C347.972 53.7268 348.4 53.084 348.829 53.084H349.686C349.686 53.084 350.114 53.2268 350.114 53.584L350.972 53.084H358.9C360.4 53.084 362.757 52.9411 365.972 52.584ZM350.543 34.584V35.584C352.329 36.584 353.686 37.084 354.686 37.084H355.543C355.543 36.4411 356.543 35.7269 358.472 35.084C358.757 34.4411 358.9 33.9411 358.9 33.584C358.543 30.2269 357.257 28.584 355.186 28.584C352.257 28.584 350.757 30.584 350.614 34.584H350.543Z" fill="black"/>
<path d="M368.184 26.0723C368.755 26.0723 370.112 26.4294 372.398 27.0723C373.469 27.0723 375.969 26.7151 379.898 26.0723C382.112 27.6437 383.255 29.7865 383.255 32.5722C383.255 35.5008 380.183 37.6437 374.112 39.0723C373.541 40.1437 373.255 41.1437 373.255 42.0723V43.5722H376.184L378.255 43.0722V43.5722L382.398 42.5722C382.898 42.9294 383.326 43.0722 383.684 43.0722C383.684 42.4294 384.112 42.0723 384.898 42.0723C385.469 42.4294 385.826 42.5722 386.112 42.5722V44.5722C386.112 45.5722 384.469 46.2151 381.112 46.5723V53.5723C381.684 53.5723 381.969 53.7151 381.969 54.0723L389.469 52.5723L390.326 54.0723V56.0722C386.326 57.4294 380.898 58.0722 374.041 58.0722L371.969 57.5722V55.5722C372.041 54.9294 372.326 54.5723 372.826 54.5723H376.184L379.112 54.0723L378.255 49.5723H378.683C378.398 47.9294 378.112 47.0723 377.826 47.0723L372.826 47.5723C371.541 46.9294 370.898 46.2865 370.755 45.5722V43.0722C370.755 37.7151 372.541 35.0723 376.184 35.0723C378.184 35.0723 379.541 34.2151 380.326 32.5722V31.5722C379.755 30.2151 379.041 29.5723 378.255 29.5723C376.969 29.5723 375.184 29.7151 372.826 30.0722C372.469 30.0722 370.898 29.7151 368.255 29.0723V26.0723H368.184Z" fill="black"/>
</svg>
