<svg width="550" height="620" viewBox="0 0 550 620" fill="none" xmlns="http://www.w3.org/2000/svg">
<path d="M505.269 233.216C511.778 236.006 518.501 247.521 520.146 254.03C522.506 263.614 519.216 272.841 521.505 282.353C523.007 288.791 522.005 296.73 519.288 303.095C516.355 309.89 512.779 308.102 507.486 310.748C503.838 312.608 505.626 312.036 503.91 316.47C501.764 322.264 496.757 328.773 492.967 333.565C486.029 342.219 478.161 335.424 469.507 338.715C466.216 339.93 462.068 345.152 458.635 346.797C452.555 349.801 451.482 350.158 448.335 356.882C446.619 360.529 447.477 364.821 445.903 368.397C444.759 370.972 442.613 372.832 441.684 375.693C439.752 381.343 439.681 388.281 434.817 392.358C432.171 394.647 428.309 396.935 424.804 397.436C422.157 397.865 419.511 397.007 417.008 396.363C413.002 395.29 406.78 394.575 403.347 392.429C399.341 389.997 396.266 380.771 397.195 375.979C397.696 373.404 399.556 370.757 400.915 368.612C405.063 362.031 412.144 359.457 417.079 354.021C419.296 351.589 420.226 347.297 421.8 344.365C423.373 341.432 425.233 338.357 427.021 335.424C430.311 330.132 432.385 324.052 434.531 318.259C436.105 313.896 438.393 310.176 437.607 305.384C436.677 299.877 433.673 295.228 433.458 289.506C433.029 279.85 429.739 269.193 433.816 259.895C437.034 252.528 441.111 244.088 446.547 238.223C449.694 234.79 453.557 231.786 455.917 227.637C459.922 220.628 459.421 217.409 468.863 217.91C478.876 218.482 496.471 228.495 505.412 233.145L505.269 233.216Z" fill="#F76C3C" stroke="#040000" stroke-width="6.43719" stroke-linecap="round" stroke-linejoin="round"/>
<path d="M499.261 278.924C497.759 274.131 492.823 271.056 489.605 267.623C487.674 265.549 486.744 263.975 485.671 260.685C484.312 256.679 484.67 254.748 484.741 251.387" fill="#E6BA62"/>
<path d="M499.261 278.924C497.759 274.131 492.823 271.056 489.605 267.623C487.674 265.549 486.744 263.975 485.671 260.685C484.312 256.679 484.67 254.748 484.741 251.387" stroke="#040000" stroke-width="6.43719" stroke-linecap="round" stroke-linejoin="round"/>
<path d="M466.575 268.834C464 270.765 460.996 271.48 457.635 271.194Z" fill="#E6BA62"/>
<path d="M466.575 268.834C464 270.765 460.996 271.48 457.635 271.194" stroke="#040000" stroke-width="6.43719" stroke-linecap="round" stroke-linejoin="round"/>
<path d="M471.797 295.445C469.937 299.379 467.434 305.03 469.008 308.82C470.009 311.252 472.584 313.326 473.657 315.901" stroke="#040000" stroke-width="6.43719" stroke-linecap="round" stroke-linejoin="round"/>
<path d="M337.322 416.758C339.968 419.19 343.401 419.19 346.548 420.406C350.411 421.836 354.201 424.769 357.563 427.272C361.783 430.419 364.215 432.493 366.074 437.428C367.505 441.362 368.22 444.438 368.22 448.515C368.22 455.953 369.722 464.965 366.718 471.903C362.641 481.273 357.706 486.78 347.192 488.997C342.686 489.927 339.897 489.212 335.534 488.425C331.171 487.638 326.521 489.355 322.444 488.425C318.654 487.567 313.432 483.848 311.287 480.629C309.141 477.41 306.495 473.906 305.493 470.043C304.85 467.683 303.419 464.894 303.92 462.39C304.492 459.529 305.279 456.454 306.137 453.736C306.924 451.233 307.568 448.729 308.569 446.369C309.713 443.722 312.288 440.647 312.646 437.714" fill="#F4B3B1"/>
<path d="M335.034 419.042C339.468 422.618 345.334 422.833 350.126 425.908C354.203 428.483 359.209 431.63 361.713 435.85C364.788 441 364.788 446.865 365.003 452.658C365.217 458.452 366.004 464.603 364.001 470.11C360.64 479.337 352.7 486.704 342.329 486.346C339.611 486.275 337.037 485.416 334.319 485.202C331.315 484.987 328.311 485.702 325.307 485.631C319.656 485.488 315.293 481.053 312.432 476.69C310.501 473.829 309.214 471.111 308.141 467.821C307.497 465.819 306.925 464.317 307.354 462.171C307.712 460.454 308.141 458.809 308.641 457.164C309.571 453.874 310.358 450.298 311.86 447.222C313.291 444.361 315.222 441.93 315.794 438.711C316.509 434.634 310.358 432.918 309.571 436.994C308.999 440.141 306.782 442.716 305.494 445.649C303.992 449.153 302.991 453.016 301.99 456.735C301.06 460.097 300.201 463.315 300.988 466.748C301.775 469.967 302.919 473.4 304.564 476.333C307.64 481.983 311.502 486.99 317.296 489.994C323.661 493.356 330.313 490.995 337.037 492.14C348.48 494.071 359.71 489.851 366.147 479.98C369.652 474.616 371.511 468.751 371.726 462.314C371.797 458.881 371.583 455.448 371.44 452.086C371.297 448.724 371.44 445.077 370.653 441.643C369.151 434.777 366.004 429.842 360.497 425.55C357.421 423.19 354.274 420.758 350.841 418.899C347.408 417.039 342.616 416.968 339.612 414.536C336.393 411.961 331.815 416.467 335.034 419.113V419.042Z" fill="#231815"/>
<path d="M145.852 337.712C143.42 340.216 138.914 341.575 136.053 343.863C132.548 346.653 126.755 350.873 122.392 352.232C116.741 354.02 112.164 357.525 106.585 359.67C101.864 361.458 97.0722 362.96 92.3516 364.605C88.4177 365.964 85.6998 367.252 81.4084 367.323C77.403 367.395 73.5406 368.325 71.6094 371.972C69.6783 375.62 68.8916 380.412 67.6757 384.346C66.8889 386.707 65.673 389.138 64.9577 391.427C64.0994 394.073 63.7418 394.002 66.6028 395.862C68.1763 396.863 70.7512 397.578 72.6108 398.007C75.4718 398.651 77.3314 399.295 79.9778 400.439C84.1977 402.227 88.2746 404.23 92.6376 405.66C100.791 408.307 109.088 410.381 117.099 413.385C120.031 414.458 122.892 416.175 125.968 416.818C128.9 417.462 132.834 416.818 135.838 416.818C138.985 416.818 141.489 417.963 144.493 418.106C146.853 418.249 155.508 415.102 155.651 418.034C154.077 419.608 152.003 420.394 150.572 422.039C148.784 424.114 148.427 426.617 147.425 429.049C145.423 433.984 143.849 438.633 144.564 444.141C145.208 448.647 145.351 453.725 147.211 457.873C149.213 462.308 152.217 466.528 155.579 470.032C158.44 472.965 160.943 477.113 164.162 479.331C168.024 481.977 173.317 483.05 177.823 483.694C182.83 484.409 187.55 487.055 192.629 487.341C195.132 487.484 197.421 487.127 199.853 487.556C202.285 487.985 202.428 487.699 205.002 487.198C207.863 486.554 211.44 487.484 214.372 487.341C216.303 487.27 217.948 486.483 219.879 486.197C221.954 485.839 223.956 486.34 226.031 485.982C232.11 484.838 238.261 483.55 244.555 483.622C252.423 483.622 260.362 481.834 268.015 479.903C272.092 478.901 276.312 478.258 280.461 477.328C284.037 476.47 287.47 474.824 290.975 473.895C298.413 471.963 304.636 469.031 311.288 465.097C315.436 462.594 320.443 460.52 323.447 456.514C325.235 454.154 326.236 451.221 327.667 448.647C328.668 446.858 330.098 445.213 330.957 443.425C334.676 435.558 340.541 428.191 344.976 420.538C348.194 414.959 351.699 409.451 353.916 403.3C355.132 399.939 356.563 395.933 360.425 394.86C364.287 393.787 368.293 393.93 372.155 393.501C380.309 392.643 389.607 390.14 397.188 386.635C404.126 383.416 409.92 379.268 416.285 375.191C420.362 372.545 423.152 370.47 426.156 366.537C427.801 364.391 429.589 363.032 429.66 360.171C429.66 357.882 428.945 354.807 428.302 352.589C427.729 350.658 427.515 349.8 427.372 347.797C427.3 346.009 427.229 342.647 425.655 341.36C423.796 339.858 419.719 341.575 417.501 341.646C415.284 341.718 412.924 341.646 410.707 341.646C405.557 341.646 400.765 342.934 395.543 342.862C390.751 342.862 385.888 342.862 381.095 342.862C370.295 342.862 359.567 342.075 348.909 340.502C343.903 339.787 339.254 339.214 334.462 337.569C331.958 336.711 329.526 336.496 327.023 335.495C325.163 334.708 321.73 332.419 319.871 334.208" fill="#F4B3B1"/>
<path d="M143.633 335.427C141.129 337.715 137.768 338.788 134.978 340.719C132.189 342.651 129.685 344.796 126.753 346.584C123.82 348.373 120.602 349.374 117.455 350.804C113.807 352.45 110.445 354.595 106.798 356.169C102.864 357.814 98.7869 359.03 94.7815 360.389C91.2768 361.605 87.7006 363.178 83.9814 363.822C78.1164 364.823 72.3229 364.466 68.8897 370.331C67.3162 373.048 66.6009 376.267 65.8141 379.271C64.8128 383.133 63.2393 386.71 61.9519 390.5C60.2353 395.65 63.3823 398.225 68.103 399.942C71.107 401.015 74.3255 401.515 77.3295 402.66C81.0488 404.09 84.625 405.878 88.2728 407.38C96.0689 410.456 104.366 412.315 112.305 414.962C116.597 416.392 120.745 418.896 125.251 419.825C129.185 420.684 133.119 419.611 137.052 419.968C140.343 420.255 143.347 421.399 146.637 420.97C147.781 420.827 148.854 420.541 149.998 420.326C150.571 420.183 151.286 420.183 151.858 419.968H152.788C154.004 419.968 153.932 419.682 152.645 418.753L153.503 415.606C150.57 418.18 147.853 419.539 146.208 423.259C144.419 427.335 142.703 431.841 141.844 436.133C140.342 443.643 141.845 453.728 145.135 460.666C146.994 464.457 149.569 467.89 152.43 471.037C155.291 474.184 157.795 477.832 161.013 480.621C167.593 486.272 177.249 486.415 185.26 488.846C189.337 490.134 192.984 490.205 197.133 490.348C199.064 490.42 200.995 490.921 202.926 490.706C205.072 490.492 206.932 489.991 209.078 490.062C217.947 490.348 226.529 488.703 235.327 487.344C240.691 486.558 246.055 486.772 251.42 486.2C256.784 485.628 261.505 484.555 266.512 483.339C270.946 482.266 275.38 481.479 279.815 480.478C284.893 479.334 289.828 477.403 294.764 475.9C302.917 473.397 310.284 469.177 317.651 464.957C320.87 463.098 324.017 460.952 326.234 457.876C328.952 454.086 331.098 449.508 333.387 445.503C338.179 437.063 343.615 428.981 348.55 420.541C350.839 416.607 353.27 412.673 355.13 408.453C356.704 405.091 357.562 399.369 361.281 397.724C365.001 396.079 370.365 396.723 374.442 396.222C379.305 395.579 384.098 394.506 388.747 393.075C397.83 390.214 405.912 385.637 413.852 380.416C420.36 376.124 427.012 371.833 431.304 365.038C433.235 362.034 433.02 358.672 432.377 355.31C431.661 351.591 430.946 348.015 430.374 344.296C428.872 334.568 419.502 338.288 412.493 338.216C407.343 338.216 402.336 339.146 397.186 339.432C391.608 339.718 385.886 339.432 380.307 339.432C368.434 339.432 356.632 338.359 344.974 336.5C339.824 335.713 334.46 334.354 329.453 332.709C325.662 331.421 322.301 328.846 318.367 331.278C314.862 333.424 318.08 339.003 321.585 336.857C322.587 336.213 329.381 339.361 330.669 339.718C334.889 340.791 338.894 342.078 343.186 342.722C352.055 344.153 361.067 345.226 370.007 345.655C378.948 346.084 387.602 346.155 396.328 345.941C400.119 345.869 403.838 345.082 407.701 344.796C411.777 344.51 415.783 345.082 419.86 344.439C421.648 344.153 423.221 343.223 424.008 345.226C424.437 346.298 424.223 348.301 424.366 349.445C424.795 352.807 427.012 356.669 426.512 360.031C426.082 362.964 422.006 366.611 419.86 368.542C416.641 371.332 412.85 373.478 409.346 375.838C402.05 380.559 394.683 384.707 386.315 387.21C378.376 389.571 370.508 389.714 362.497 391.073C355.702 392.217 353.199 396.294 350.839 402.373C347.62 410.742 342.542 418.681 337.607 426.191C333.029 433.129 328.523 440.281 324.589 447.577C322.515 451.439 321.085 455.087 317.365 457.733C314.147 460.022 310.499 461.81 307.066 463.741C292.475 471.967 275.238 475.328 258.93 478.69C249.989 480.55 240.906 480.12 231.894 481.622C229.462 482.052 227.03 482.695 224.527 482.91C222.667 483.053 220.879 482.767 219.091 483.125C217.088 483.482 215.228 484.197 213.154 484.197C211.295 484.197 209.507 483.84 207.719 483.84C205.787 483.84 203.999 484.555 202.14 484.626C200.495 484.698 198.778 484.197 197.133 484.126C192.126 483.983 188.121 483.053 183.329 481.694C178.537 480.335 173.887 480.192 169.453 478.404C165.018 476.616 162.515 472.896 159.44 469.32C156.364 465.744 153.288 462.525 151.143 458.234C148.997 453.943 148.639 449.437 148.067 444.859C147.495 439.781 148.568 435.418 150.427 430.697C151.143 428.838 151.572 426.406 152.788 424.761C154.075 422.901 156.435 421.757 158.152 420.326C159.01 419.539 159.225 418.252 159.01 417.179C157.938 412.959 153.217 413.46 149.855 414.032C147.781 414.39 145.85 415.033 143.776 414.819C140.2 414.461 137.052 413.603 133.405 413.817C129.042 414.032 125.966 413.746 121.961 411.958C118.671 410.527 115.238 409.24 111.804 408.167C104.008 405.664 95.9974 403.804 88.4873 400.657C85.4118 399.369 82.3363 397.868 79.2607 396.652C76.1852 395.436 72.9665 395.15 70.034 393.934C69.3188 393.648 67.8883 393.075 67.4592 392.432C67.8168 392.861 67.8883 393.862 68.2459 392.861C68.7466 391.287 69.3903 389.714 70.034 388.14C71.393 384.707 72.1083 381.059 73.2527 377.554C74.3971 373.764 75.8276 371.403 79.8329 370.831C83.1231 370.402 86.2701 370.331 89.4887 369.258C96.2835 367.04 103.364 364.895 109.945 362.034C113.807 360.389 117.383 358.028 121.246 356.383C124.607 354.953 127.826 353.808 130.901 351.877C133.977 349.946 136.552 347.586 139.556 345.726C142.56 343.867 145.778 342.579 148.425 340.147C151.5 337.358 146.923 332.78 143.847 335.57L143.633 335.427Z" fill="#231815"/>
<path d="M76.7606 363.613C72.1116 358.82 67.534 357.032 60.8822 357.39C54.8027 357.676 46.0052 361.395 42.1429 366.259C36.9931 372.768 36.1349 382.638 38.7097 390.22C41.2131 397.515 45.8621 401.163 52.7285 403.666C63.3856 407.6 81.0521 401.163 85.2721 390.148C88.5622 381.494 85.6297 371.194 79.264 364.828" fill="#F4B3B1"/>
<path d="M78.9783 361.392C74.8299 357.244 69.8948 354.669 63.9583 354.24C58.0218 353.81 52.5144 355.527 47.4362 358.102C42.358 360.677 38.281 364.968 35.9922 370.547C33.7035 376.126 33.4174 382.635 34.7763 388.5C37.2082 399.085 46.0772 406.738 56.8773 407.883C66.5331 408.956 77.7625 404.95 84.1997 397.583C93.1402 387.427 90.2792 371.763 81.3387 362.536C78.4777 359.532 73.9001 364.11 76.7611 367.114C82.7692 373.337 85.8447 384.137 80.5519 391.79C76.4035 397.869 68.0351 401.231 60.8827 401.589C53.1581 401.946 45.1474 397.941 42.0719 390.645C38.7102 382.706 39.7115 371.191 47.0785 365.755C50.8693 362.966 55.876 360.891 60.5966 360.605C66.0325 360.319 70.3955 362.036 74.2578 365.898C77.1903 368.831 81.7679 364.253 78.8354 361.32L78.9783 361.392Z" fill="#231815"/>
<path d="M429.949 329.059C424.871 329.774 418.649 332.85 415.073 336.354C412.641 338.786 411.926 343.292 410.495 346.368C408.993 349.658 408.922 351.518 408.922 355.237C408.922 358.956 408.421 361.746 410.137 364.821C411.997 368.111 414.5 369.613 417.576 371.687C423.87 375.764 430.522 378.411 437.96 378.411C440.75 378.411 443.611 378.911 446.042 377.266C447.401 376.337 448.331 374.763 449.69 373.762C451.407 372.474 453.124 371.473 454.697 369.828C459.847 364.177 463.781 356.524 463.351 348.8C462.994 341.576 457.057 336.426 451.335 332.707C444.183 328.129 438.175 327.771 430.021 327.771" fill="#F4B3B1"/>
<path d="M429.089 325.918C423.296 326.847 416.859 329.78 412.782 334.071C410.994 335.931 409.993 338.22 409.134 340.652C408.204 343.226 406.988 345.801 406.345 348.448C405.701 351.094 405.773 353.812 405.701 356.53C405.701 359.534 405.558 362.466 406.845 365.256C409.277 370.692 414.928 374.053 420.006 376.771C425.656 379.775 431.593 381.42 438.03 381.635C441.034 381.707 444.253 381.993 446.97 380.491C448.186 379.847 449.188 378.846 450.189 377.844C451.477 376.485 452.836 375.555 454.266 374.483C463.493 367.545 470.145 352.453 464.566 341.438C461.633 335.716 455.768 331.21 450.118 328.349C443.752 325.131 436.957 324.63 430.019 324.559C425.871 324.559 425.871 330.996 430.019 330.996C434.811 330.996 439.604 331.067 444.11 332.712C448.616 334.357 452.764 337.218 455.983 340.509C463.493 348.376 459.416 359.606 453.05 366.901C451.405 368.761 449.331 369.977 447.471 371.479C445.325 373.267 444.467 375.198 441.392 375.269C436.313 375.412 431.307 374.769 426.586 372.838C422.438 371.121 417.717 368.618 414.642 365.399C411.28 361.966 411.995 356.745 412.281 352.382C412.424 350.021 413.426 348.09 414.212 345.944C414.999 343.799 415.5 341.295 416.859 339.364C419.791 335.216 426.157 332.927 430.878 332.14C434.954 331.496 433.238 325.274 429.161 325.918H429.089Z" fill="#231815"/>
<path d="M158.582 419.544C163.446 416.826 167.809 412.177 173.602 411.391C178.466 410.747 183.902 414.18 186.834 417.828C187.907 419.187 190.268 418.972 191.412 417.828C192.771 416.469 192.485 414.609 191.412 413.25C187.478 408.387 180.182 404.31 173.817 404.882C166.521 405.597 161.515 410.532 155.435 413.966C151.787 415.968 155.077 421.547 158.654 419.544H158.582Z" fill="#231815"/>
<path d="M143.709 324.705C142.636 325.563 141.849 326.279 140.92 327.352C139.99 328.496 139.06 329.211 137.772 329.855C136.485 330.499 135.484 331.214 134.339 331.929C133.266 332.644 131.55 332.859 132.48 334.361C133.195 335.505 134.554 336.507 135.627 337.293C136.986 338.366 138.13 339.654 139.489 340.798C141.778 342.729 143.28 345.376 145.64 347.235C146.999 348.308 179.185 367.405 180.544 368.478C182.26 369.837 184.049 370.91 185.837 372.197C188.555 374.057 191.273 375.774 194.205 377.204C195.85 378.062 197.209 379.135 198.926 379.85C199.712 380.208 200.285 380.852 201 381.352C202.073 382.068 203.217 382.711 204.362 383.355C205.792 384.213 207.366 384.929 208.796 385.858C210.37 386.931 211.943 388.004 213.588 388.934C215.376 389.935 217.522 390.436 219.382 391.437C221.814 392.725 224.317 393.726 226.82 394.799C230.969 396.659 234.759 399.448 239.122 400.879C243.915 402.452 248.349 405.385 252.927 407.459C254.858 408.317 256.86 409.175 258.863 409.819C261.581 410.677 264.299 411.25 266.945 412.251C270.164 413.467 273.526 414.325 276.816 415.255C280.535 416.328 284.326 417.115 288.045 418.259C290.548 419.046 293.052 419.618 295.555 420.476C298.774 421.549 302.135 421.907 305.426 422.479C308 422.908 310.432 423.838 313.079 423.981C315.94 424.124 318.872 424.267 321.733 424.41C327.241 424.768 332.748 424.911 338.255 424.553C340.687 424.41 343.19 424.768 345.622 424.553C347.768 424.41 349.914 424.553 352.059 424.267C354.205 423.981 356.422 423.838 358.64 423.623C360.857 423.409 362.717 422.908 364.791 422.622C366.507 422.336 368.295 421.692 369.941 421.192C371.013 420.834 372.945 420.548 373.803 419.761C373.946 418.617 370.87 416.9 369.941 416.256C369.225 415.756 368.295 415.47 367.509 415.04C366.579 414.611 365.864 413.968 364.934 413.467C363.074 412.466 361.143 411.679 359.283 410.534C357.996 409.748 356.422 408.961 355.493 407.816C356.995 407.244 358.425 407.816 359.927 407.745C360.642 407.673 361.286 407.244 362.001 407.101C363.217 406.887 364.433 406.601 365.649 406.314C367.866 405.814 369.869 404.955 371.872 403.954C373.874 402.953 376.163 402.166 378.309 401.308C379.668 400.736 381.456 400.235 382.672 399.377C384.746 397.946 381.17 396.301 380.025 395.443C377.737 393.655 374.804 393.225 372.515 391.437C371.013 390.293 369.225 389.864 367.58 389.006C365.935 388.147 364.362 388.147 362.716 387.503C359.498 386.288 355.993 385.501 352.632 384.714C351.702 384.499 350.701 384.499 349.699 384.285C348.483 383.999 347.339 383.498 346.123 383.212C345.05 382.998 343.977 382.854 342.904 382.64C341.617 382.354 340.115 382.282 338.899 381.853C335.251 380.709 331.675 379.779 327.884 378.921C326.168 378.563 324.451 378.134 322.734 377.848C321.733 377.633 320.875 377.419 319.873 377.132C318.443 376.632 317.012 376.775 315.582 376.417C314.724 376.203 313.937 375.773 313.079 375.559C312.22 375.344 311.291 375.201 310.361 374.987C308.716 374.486 307.142 373.985 305.426 373.699C301.635 373.056 297.772 372.483 294.196 371.124C291.836 370.266 289.332 369.837 286.972 369.122C285.899 368.764 284.827 368.621 283.754 368.264C283.253 368.12 283.038 367.834 282.466 367.691C281.894 367.548 281.393 367.62 280.821 367.405C279.105 366.761 277.316 366.261 275.528 365.76C274.598 365.474 273.669 365.259 272.739 365.045C271.523 364.759 270.45 364.044 269.306 363.757C267.303 363.257 265.157 362.971 263.226 362.184C262.296 361.826 261.295 361.397 260.365 361.111C259.292 360.753 258.22 360.682 257.147 360.324C251.353 358.322 244.415 357.177 239.838 353.029C235.26 348.88 228.894 347.092 223.459 344.66C218.881 342.586 213.66 341.656 209.654 338.438C207.866 337.007 206.722 335.005 204.934 333.503C202.43 331.428 199.212 330.284 196.422 328.639C190.2 324.991 168.742 315.192 162.663 311.33C155.725 315.407 149.717 319.484 143.637 324.562L143.709 324.705Z" fill="#FFF59A" stroke="#040000" stroke-width="6.43719" stroke-linecap="round" stroke-linejoin="round"/>
<path d="M118.751 162.33C117.32 161.114 116.462 156.322 116.248 154.391C115.961 151.744 116.605 149.169 116.033 146.523C115.318 142.804 115.032 139.943 115.103 136.08C115.103 124.708 115.818 113.55 117.464 102.392C118.107 97.8864 118.393 93.3088 119.395 88.8028C120.611 83.3669 122.613 79.5762 125.045 74.641C127.62 69.2767 128.55 63.8408 131.768 58.691C134.558 54.1135 139.207 50.2512 143.498 47.1756C151.509 41.3106 162.738 37.0192 172.108 41.9544C182.551 47.5333 190.633 56.6168 196.069 67.1309C201.505 77.645 205.367 89.518 207.513 101.749C208.514 107.542 209.015 113.193 209.015 119.058C209.015 124.923 209.587 131.002 208.085 136.724C207.513 138.941 206.94 141.302 205.796 143.304C205.152 144.52 202.077 147.238 202.792 148.812C204.437 152.173 216.167 148.883 218.885 148.383C228.398 146.594 239.842 147.31 248.639 151.673C248.639 147.81 246.636 143.948 246.136 140.086C245.778 137.368 246.136 134.65 245.921 131.932C245.564 127.569 244.991 123.349 244.848 118.986C244.634 112.835 243.275 106.612 242.417 100.533C241.558 94.4532 242.345 88.4452 242.345 82.5802C242.345 77.2159 243.06 72.3522 243.704 67.0594C244.634 59.9785 247.852 54.6142 250.284 48.0339C251.858 43.5994 253.288 39.2364 255.434 35.0165C257.58 30.7966 262.944 27.9356 267.092 25.8614C276.462 21.2123 288.121 22.2851 297.991 24.0017C302.926 24.86 307.861 30.0098 311.294 33.5145C313.083 35.3741 314.799 37.1622 316.802 38.7357C319.305 40.7384 320.736 42.8126 322.882 45.1729C326.386 49.0353 328.746 52.6115 331.25 57.189C333.896 62.0527 335.112 66.9879 337.472 71.9946C339.833 77.0013 339.761 81.9365 340.834 87.0862C342.193 93.738 342.408 99.746 342.408 106.469C342.408 113.55 342.908 120.631 341.192 127.569C339.547 134.006 338.688 140.801 337.472 147.31C336.471 152.889 335.255 158.038 333.467 163.403C332.037 167.623 329.176 171.485 327.96 175.776C329.104 177.565 333.181 177.922 335.112 178.494C337.544 179.281 339.976 179.782 342.479 180.282C348.058 181.355 352.993 182.929 358.214 185.218C370.66 190.654 381.031 198.092 390.686 207.819C398.697 215.902 407.995 224.413 412.573 235.142C414.862 240.577 415.005 246.586 416.507 252.164C418.367 259.245 417.508 265.253 416.507 272.263C415.863 276.769 414.933 281.06 413.431 285.495C412.573 288.07 411.285 290.358 410.284 292.933C409.283 295.508 408.997 298.012 407.638 300.3C406.279 302.661 403.919 304.806 402.202 307.024C400.128 309.742 398.268 312.889 395.55 314.963C393.547 316.608 391.402 318.038 389.328 319.683C386.037 322.33 382.962 326.407 379.386 328.481C377.455 329.625 375.023 329.768 373.02 330.77C370.159 332.272 368.299 333.845 365.152 334.847C359.073 336.778 353.065 338.852 346.985 340.712C341.478 342.357 335.684 343.93 329.962 344.645C327.387 344.932 324.884 344.645 322.309 345.003C318.59 345.647 315.3 346.004 311.509 345.933C298.778 345.933 286.046 345.933 273.315 345.933C268.308 345.933 263.588 344.788 258.724 344.645C253.217 344.502 247.709 344.645 242.202 344.645C230.114 344.645 217.955 345.146 205.939 344.645C202.935 344.502 200.289 343.573 197.285 343.286C193.851 343 190.204 343.286 186.77 343.286C179.332 343.286 171.321 344.073 164.026 342.643C158.59 341.57 152.94 341.641 147.504 340.855C142.068 340.068 136.489 338.995 130.91 338.28C119.108 336.778 108.666 332.129 97.8657 327.265C92.5014 324.833 86.4219 322.974 81.4152 319.826C76.4085 316.679 71.6163 314.677 66.6096 312.173C63.6771 310.671 62.7474 308.454 60.5301 306.237C58.3129 304.02 56.3817 302.303 54.379 299.8C49.5154 293.792 44.2225 288.284 39.5019 282.205C30.0607 270.046 30.2753 253.809 32.421 239.505C33.4938 232.066 36.1403 225.843 38.7152 218.834C40.2887 214.614 40.7178 210.609 43.0782 206.675C45.4385 202.741 47.5842 199.093 49.8015 195.374C52.4479 190.868 54.7366 184.932 59.6003 182.428C65.1076 179.639 70.615 176.849 76.2655 174.56C88.067 169.84 101.013 167.837 112.743 162.974" fill="white"/>
<path d="M120.966 160.048C118.319 156.972 119.607 150.821 119.249 147.316C118.677 141.451 118.105 136.087 118.248 130.15C118.534 118.134 119.821 106.261 121.538 94.3882C122.325 88.8093 123.97 83.9457 126.402 78.939C128.833 73.9323 130.407 68.2818 132.839 63.2036C137.202 54.0485 148.073 45.8947 157.944 43.6775C168.815 41.1741 178.185 48.8272 184.909 56.6234C192.061 64.9202 196.71 75.3627 200 85.7338C203.505 96.6055 205.436 107.763 205.579 119.136C205.579 124.786 206.08 130.437 204.792 135.944C204.292 138.233 203.648 140.521 202.289 142.453C201.216 144.026 199.714 145.385 199.428 147.316C197.926 155.828 211.086 153.396 215.449 152.466C225.963 150.249 236.835 149.82 246.777 154.54C248.78 155.47 251.784 154.397 251.641 151.751C251.355 146.673 249.066 142.023 248.994 136.945C248.851 131.509 248.279 126.145 247.921 120.709C247.206 109.551 244.917 98.8227 245.275 87.5219C245.633 76.221 246.062 66.0646 250.425 55.7651C254.216 46.8961 255.789 35.8813 264.658 30.7316C273.527 25.5818 283.397 25.1526 293.482 26.6546C298.775 27.4414 302.137 29.3726 305.999 33.0918C309.861 36.8111 313.581 40.0297 317.014 43.749C332.106 59.9135 338.614 81.5854 338.972 103.4C339.044 109.337 339.401 115.416 338.829 121.353C338.257 127.647 336.397 133.87 335.324 140.092C334.251 146.315 333.25 152.108 331.676 157.973C330.103 163.838 326.598 169.203 324.667 175.139C324.31 176.284 324.739 177.428 325.525 178.286C327.957 181.004 332.177 181.362 335.539 182.292C341.332 183.937 347.269 184.795 352.991 186.869C363.505 190.803 373.304 196.883 381.743 204.25C390.183 211.617 399.195 220.057 405.49 229.426C408.851 234.433 410.711 239.583 411.784 245.519C412.857 251.456 414.573 257.678 414.216 264.044C413.858 269.981 412.857 275.917 411.283 281.639C410.425 284.858 409.066 287.79 407.778 290.866C406.706 293.512 406.205 296.445 404.846 298.948C403.63 301.237 401.556 303.025 399.911 305.027C398.051 307.388 396.549 309.963 394.403 312.037C390.398 315.899 385.749 318.975 381.743 322.837C377.953 326.485 373.232 327.343 368.798 329.918C362.933 333.28 355.852 334.996 349.486 336.999C337.827 340.647 326.098 342.649 313.867 343.078C300.993 343.579 287.904 343.221 275.029 343.078C269.021 343.078 263.085 341.934 257.005 341.791C250.639 341.648 244.202 341.791 237.836 341.863C225.034 341.934 212.159 342.792 199.571 340.861C194.278 340.003 188.771 340.575 183.478 340.647C176.612 340.79 170.031 340.861 163.165 339.788C151.149 338 138.918 337.356 126.902 334.925C114.886 332.493 104.3 326.842 93.0711 322.336C87.9929 320.262 83.4154 317.616 78.6233 315.041C75.6908 313.467 72.6152 312.18 69.6827 310.606C66.8933 309.104 65.6773 307.674 63.6031 305.385C55.6639 296.445 45.9366 287.933 39.714 277.562C33.4914 267.191 33.5629 254.388 35.0649 242.73C35.9232 236.221 37.9259 230.07 40.2146 223.919C42.5034 217.768 43.9339 211.617 47.2956 205.966C50.4427 200.673 53.2321 194.737 56.8083 189.73C60.3846 184.723 67.537 182.292 73.1159 179.86C86.0618 174.066 100.295 171.992 113.384 166.628C117.175 165.126 115.53 158.832 111.667 160.405C99.2937 165.412 85.9903 167.486 73.6881 172.636C68.0377 174.996 61.815 177.428 56.6653 180.79C52.5168 183.508 50.2996 187.871 48.0109 192.091C45.0068 197.455 41.216 202.605 38.7842 208.255C36.3523 213.905 34.7789 220.057 32.7047 225.85C28.9139 236.507 27.1973 248.094 27.984 259.466C28.8423 271.626 33.4199 280.995 41.2876 290.15C45.5075 295.086 49.5844 300.164 54.0189 304.884C57.3805 308.461 60.7422 313.038 64.8906 315.47C70.4695 318.76 76.549 321.621 82.271 324.625C87.9929 327.629 94.5016 329.846 100.51 332.564C105.588 334.853 110.666 336.999 115.959 338.715C122.682 340.933 129.549 341.791 136.558 342.864C142.924 343.865 149.218 344.867 155.655 345.367C162.807 345.939 169.674 347.298 176.826 347.155C182.62 347.084 188.413 346.726 194.135 346.798C197.354 346.798 200.286 347.584 203.433 348.014C207.01 348.514 210.729 348.371 214.377 348.443C228.538 348.514 242.7 347.871 256.862 348.157C262.87 348.3 268.806 349.444 274.886 349.444C282.396 349.444 289.906 349.444 297.488 349.444C304.14 349.444 310.934 349.873 317.586 349.158C323.809 348.514 330.103 348.371 336.182 347.155C348.699 344.58 361.931 340.575 373.232 334.639C375.735 333.351 378.525 332.922 380.957 331.563C383.103 330.347 384.962 328.559 386.679 326.842C390.827 322.765 395.977 319.69 399.839 315.47C401.842 313.253 403.344 310.749 405.275 308.461C406.992 306.386 408.994 304.527 410.282 302.167C411.498 300.021 411.998 297.589 412.785 295.3C414.001 291.795 415.789 288.577 416.862 285.001C419.008 278.063 420.224 270.481 420.581 263.257C420.867 256.605 419.079 250.24 417.863 243.803C415.36 229.784 406.634 219.699 396.835 209.9C387.609 200.602 377.953 192.091 366.294 185.939C360.358 182.792 354.064 180.146 347.555 178.429C344.122 177.571 340.617 176.999 337.184 176.069C335.181 175.497 331.39 175.211 330.031 173.709L330.89 176.856C332.678 171.491 335.825 166.771 337.398 161.335C339.33 154.969 340.402 148.389 341.547 141.88C342.548 135.872 344.193 129.936 344.98 123.856C345.767 117.777 345.481 111.912 345.481 105.904C345.338 82.8013 339.401 59.6274 324.023 41.9609C320.59 38.0271 316.656 34.7369 313.009 30.9461C309.575 27.4414 305.856 23.6507 301.207 21.791C296.772 20.0744 291.337 19.7883 286.616 19.5022C281.109 19.2161 275.387 19.5022 270.094 21.2903C260.867 24.2943 254.001 29.5156 250.353 38.5277C246.205 48.8272 241.484 59.1983 240.054 70.2845C238.409 83.5881 238.623 96.6055 240.626 109.838C241.699 117.133 242.271 124.715 242.7 132.082C242.843 135.086 242.557 138.09 243.058 141.094C243.63 144.741 245.203 148.103 245.418 151.822L250.282 149.033C240.268 144.312 228.824 143.311 218.024 145.385C215.02 145.957 212.016 146.816 208.941 147.102C208.44 147.102 206.58 146.959 206.223 147.102H205.579C206.008 148.389 206.509 148.318 207.081 146.959C208.583 145.886 209.441 143.311 210.013 141.666C211.873 136.445 212.302 131.009 212.302 125.573C212.302 119.064 212.231 112.555 211.372 106.118C209.799 94.1736 206.509 82.4437 201.574 71.4289C193.777 53.8339 176.397 31.2322 154.367 38.0986C144.64 41.1026 134.412 48.5411 128.976 57.1956C125.901 62.1308 124.685 67.9242 122.253 73.1455C120.036 78.0807 117.533 82.8013 116.317 88.0941C113.17 101.898 112.311 116.918 111.954 131.08C111.811 137.947 112.955 144.598 113.026 151.322C113.026 155.828 113.527 161.12 116.531 164.625C119.249 167.772 123.755 163.195 121.109 160.048H120.966Z" fill="#231815"/>
<path d="M194.352 203.458C195.639 201.241 196.926 198.809 198.571 196.95C200.217 195.09 201.647 193.374 203.363 191.8C203.363 191.8 203.936 191.299 203.578 191.585C203.793 191.442 204.007 191.299 204.222 191.156C204.508 191.013 204.794 190.942 204.365 191.085C204.365 191.085 205.152 190.942 204.722 190.942C205.295 190.87 205.938 190.942 206.439 190.942C205.938 190.942 206.94 191.085 206.94 191.085C207.226 191.085 207.512 191.228 207.727 191.299C207.941 191.371 207.941 191.371 207.727 191.299L208.013 191.442C208.013 191.442 208.656 191.728 208.942 191.943C209.157 192.086 209.372 192.158 209.515 192.301C209.515 192.301 210.301 192.873 210.015 192.658C211.017 193.445 211.875 194.446 212.733 195.448C213.806 196.807 216.166 196.592 217.311 195.448C218.67 194.089 218.384 192.229 217.311 190.87C215.308 188.367 212.733 186.221 209.658 185.148C206.725 184.075 203.077 184.075 200.503 185.863C198.214 187.508 196.569 189.726 194.638 191.728C192.277 194.16 190.561 197.164 188.916 200.097C188.057 201.599 188.558 203.601 190.06 204.531C191.562 205.461 193.565 204.889 194.495 203.387L194.352 203.458Z" fill="#231815"/>
<path d="M237.698 193.517C239.271 192.516 240.702 191.3 242.347 190.299C242.776 190.013 243.133 189.798 243.562 189.584C243.777 189.441 243.992 189.369 244.206 189.297C243.992 189.369 244.063 189.297 244.421 189.297C244.85 189.154 245.279 189.011 245.708 188.94C245.422 188.94 245.494 188.94 245.851 188.94C246.066 188.94 246.28 188.94 246.566 188.94C246.209 188.94 247.282 189.083 247.353 189.154C247.711 189.297 247.711 189.297 247.353 189.154C247.496 189.226 247.639 189.297 247.782 189.369C247.21 189.083 247.568 189.226 247.782 189.44C247.997 189.727 247.997 189.655 247.711 189.297C247.782 189.44 247.854 189.584 247.997 189.655C248.927 191.157 249.856 192.659 251.144 193.875C251.716 194.376 252.288 194.876 252.861 195.449C253.147 195.735 253.433 196.021 253.647 196.307C253.361 195.878 254.005 196.951 254.076 197.094C254.363 197.737 254.506 198.953 254.649 199.812C255.078 202.529 255.507 206.606 258.726 207.465C260.371 207.894 262.23 206.892 262.659 205.247C263.089 203.602 262.087 201.743 260.442 201.314C261.014 201.457 261.444 201.886 261.801 202.315C261.515 201.957 261.801 202.1 261.801 202.458C261.658 201.957 261.444 201.457 261.372 200.956C261.158 199.883 260.943 198.81 260.8 197.737C260.371 195.091 259.369 192.731 257.295 190.871C256.866 190.442 256.437 190.084 256.008 189.727C255.793 189.512 255.579 189.297 255.364 189.083C255.293 189.011 254.72 188.368 254.863 188.582C254.005 187.509 253.504 186.293 252.646 185.221C250.572 182.646 246.924 182.073 243.849 182.717C240.272 183.432 237.483 186.007 234.479 187.938C233.048 188.868 232.405 190.799 233.334 192.373C234.193 193.803 236.267 194.447 237.769 193.517H237.698Z" fill="#231815"/>
<path d="M197.138 302.238C195.85 306.672 193.99 311.464 196.422 315.827C198.425 319.403 201.858 320.905 205.792 321.12C209.225 321.335 212.587 321.12 215.519 319.046C217.164 317.83 219.096 316.9 220.669 315.613C221.456 314.969 222.028 314.254 222.6 313.395C222.958 312.823 223.244 311.822 223.816 311.393L219.096 309.461C221.742 316.757 229.18 321.406 236.905 321.263C243.628 321.12 250.28 317.115 248.993 309.605C248.277 305.528 242.055 307.244 242.77 311.321C243.271 314.397 237.978 314.897 235.904 314.754C231.541 314.468 226.749 311.965 225.175 307.673C224.532 305.885 222.243 304.455 220.455 305.742C219.167 306.672 218.237 307.673 217.45 309.032C216.592 310.534 215.948 310.749 214.518 311.607C212.515 312.823 211.371 314.468 208.939 314.54C206.936 314.611 204.004 314.969 202.502 313.395C200.142 310.892 202.43 306.529 203.217 303.811C204.362 299.806 198.139 298.161 196.995 302.094L197.138 302.238Z" fill="#231815"/>
<g style="mix-blend-mode:darken">
<path d="M409.992 265.323C409.419 265.108 408.776 265.108 408.204 265.036C406.702 263.821 404.842 262.819 402.41 262.39C394.256 260.96 386.102 263.534 378.235 265.394C368.865 267.611 359.71 270.472 350.555 273.405C341.972 276.123 333.317 278.698 325.378 283.132C317.725 287.352 311.502 293.36 306.353 300.37C301.418 307.021 297.77 314.531 294.408 322.113C291.333 329.051 288.472 336.632 290.26 344.285C290.546 345.501 291.69 346.646 292.906 346.932C296.769 347.79 299.773 346.932 303.563 346.145C307.712 345.287 312.003 345.931 316.223 345.358C320.586 344.786 325.021 344.5 329.312 343.713C333.675 342.926 337.967 341.281 342.186 339.994C344.118 339.422 345.977 338.707 347.909 338.134C358.28 335.559 368.293 331.84 377.662 326.69C378.306 326.404 378.95 326.118 379.594 325.904C382.598 324.616 385.602 323.186 387.604 320.396C387.604 320.325 387.676 320.182 387.747 320.11C391.324 317.035 394.328 313.53 397.046 309.239C401.194 302.587 406.988 296.579 410.206 289.426C411.351 286.851 412.209 283.847 412.71 280.772C412.996 280.057 413.282 279.341 413.496 278.555C414.712 273.977 415.428 267.468 409.992 265.394V265.323Z" fill="#F4B3B1"/>
<path d="M142.279 307.034C140.563 296.949 134.912 286.149 128.547 278.21C122.467 270.628 114.599 264.691 105.73 260.901C99.9368 258.469 93.9287 256.466 87.9922 254.32C82.0557 252.175 76.1906 248.813 70.0395 247.597C59.3824 245.451 47.0803 247.311 37.496 252.461C37.2815 252.461 37.0668 252.389 36.7807 252.461L35.4218 252.604C33.7052 252.818 32.3462 253.605 31.8456 255.322C28.9846 264.906 35.994 273.56 40.2855 281.571C45.3637 290.941 51.5863 300.883 60.1692 307.534C68.6091 314.115 78.3364 320.123 88.2068 324.271C93.4281 326.417 98.7924 328.205 104.157 329.993C109.378 331.781 114.599 332.783 119.821 334.285C126.329 336.144 138.274 345.585 143.495 336.144C145.426 332.64 144.353 327.061 144.067 323.27C143.71 317.905 143.138 312.327 142.279 307.034Z" fill="#F4B3B1"/>
<path d="M195.777 72.6399C192.63 67.1325 191.7 60.8384 187.766 55.7602C181.973 48.3932 172.603 44.3163 163.305 43.601C162.303 42.1705 160.444 41.3123 158.441 42.1706C152.361 44.817 145.209 46.8196 140.56 51.7548C138.772 53.6144 137.413 55.8317 135.839 57.8344C133.765 60.3377 131.476 62.555 129.688 65.2729C122.75 75.5724 121.034 88.3753 119.031 100.32C118.173 105.327 116.528 110.405 119.389 115.125C122.178 119.703 126.541 122.349 131.977 121.706C137.556 121.062 142.706 117.343 145.423 112.551C145.853 111.835 146.425 110.977 146.782 110.19C147.426 112.193 150.216 114.625 151.432 115.483C155.866 118.702 162.804 120.204 168.025 118.272C172.031 116.842 174.605 113.552 176.751 110.047C179.255 112.264 181.257 115.054 184.762 116.127C189.411 117.557 194.99 116.985 199.21 114.553C209.438 108.617 207.149 96.0999 203.43 86.9448C201.356 81.795 198.566 77.3606 195.848 72.5684L195.777 72.6399Z" fill="#F4B3B1"/>
<path d="M304.424 109.048C305.997 108.046 307.356 106.973 308.501 105.543C309.216 104.685 310.003 103.254 310.933 102.181C315.796 108.69 320.946 115.842 330.316 112.981C340.329 109.906 340.258 98.1043 340.329 89.5929C340.329 83.6564 339.972 77.6484 337.611 72.141C335.036 66.3475 331.103 61.1978 327.741 55.905C324.594 50.8983 321.804 45.3909 317.513 41.171C313.436 37.2371 308.787 33.4463 304.281 30.0847C297.915 25.3641 290.047 22.9323 282.466 23.7905C281.679 23.2899 280.749 23.0753 279.533 23.576C273.668 26.0078 267.875 26.2224 262.797 30.4423C258.434 34.0901 255.287 39.2398 252.998 44.3895C250.566 49.8254 249.064 55.6189 247.562 61.3408C245.917 67.7065 243.771 73.9291 242.842 80.4378C241.268 91.3095 245.059 104.685 257.075 107.546C262.082 108.761 266.731 107.474 271.094 105.042C273.239 103.826 275.242 102.539 276.601 100.393C277.102 99.6779 277.531 98.5335 278.031 97.6037C281.608 103.326 285.398 109.548 292.05 111.837C296.413 113.339 300.848 111.336 304.496 108.904L304.424 109.048Z" fill="#F4B3B1"/>
</g>
<path d="M342.548 132.367C342.548 132.367 352.418 127.003 363.862 109.121C366.222 105.903 375.449 93.4576 371.801 89.0231C363.362 89.8814 355.065 92.7424 346.553 93.8153C343.263 94.2444 337.112 96.6762 334.466 94.1729C331.39 91.3119 330.103 85.0893 327.742 81.5131C324.452 76.5064 320.375 71.9288 317.3 66.7075C315.154 62.9883 312.651 59.4836 310.433 55.7643C309.575 54.3338 308.788 52.7603 307.644 51.6159C306.929 50.9006 298.203 55.9789 297.13 56.6226C290.55 60.2703 284.041 63.9896 277.604 67.8519C274.957 69.4254 272.311 70.999 269.951 72.9301C268.592 74.0745 266.947 76.0772 264.872 75.6481C263.084 75.2905 261.725 71.6427 260.295 69.9976C258.65 68.0665 256.719 66.2784 255.431 64.0611C252.356 58.9829 248.922 54.1192 245.346 49.3986C238.265 49.3271 234.045 73.8599 234.975 79.7964C236.12 87.0919 238.408 93.6722 238.552 101.254C258.507 109.908 278.319 118.849 299.49 124.356C309.218 126.931 320.161 130.293 330.103 131.366C332.391 131.58 342.476 132.295 342.476 132.295L342.548 132.367Z" fill="#FFF59A" stroke="#040000" stroke-width="6.43719" stroke-linecap="round" stroke-linejoin="round"/>
</svg>
