<svg width="550" height="620" viewBox="0 0 550 620" fill="none" xmlns="http://www.w3.org/2000/svg">
<g clip-path="url(#clip0_39_2581)">
<path d="M397.363 241.293L399.077 259.793C399.292 262.364 398.006 265.65 397.649 268.364C397.363 270.793 398.077 274.293 397.577 276.65L393.435 295.936C399.506 304.15 407.792 298.221 417.72 303.65L432.292 311.578C436.72 313.936 441.077 317.436 444.435 321.15C447.149 324.15 450.363 327.293 452.506 330.578L458.363 339.436C461.149 343.65 464.006 348.15 465.72 353.007L468.292 360.436C469.363 363.65 471.292 365.936 471.935 369.293C472.863 374.221 474.22 379.436 473.649 384.507C472.935 390.507 472.363 396.293 471.006 402.007L467.363 416.864L465.435 414.507C462.435 410.793 453.435 409.721 449.292 410.507L435.577 413.007C430.506 413.936 425.792 415.436 421.149 417.65C409.72 423.15 399.577 429.864 390.149 438.221C379.649 447.507 371.006 455.007 367.506 468.936C365.792 475.721 362.577 490.436 364.649 496.15H344.649C331.292 496.15 335.506 497.721 326.22 497.864C321.935 497.864 318.077 498.65 313.792 499.15C306.22 500.007 298.506 499.364 290.792 499.15C285.577 499.007 280.649 500.221 275.363 500.65C268.006 501.221 260.292 501.578 253.077 500.864C247.649 500.293 242.649 498.293 237.149 498.936C227.72 500.007 218.506 499.436 209.077 498.007C195.22 495.936 188.22 497.721 177.649 493.078C181.077 491.078 183.506 488.078 183.863 483.793C186.077 456.936 171.935 428.436 148.363 415.293C137.292 409.078 125.077 407.65 112.506 406.364C101.935 405.293 87.5774 403.436 81.0774 413.15C80.2917 414.293 79.5774 415.293 78.9345 416.078C73.8631 396.293 76.4345 376.293 83.506 357.65C87.4345 347.364 92.506 338.864 100.077 330.864C104.292 326.436 108.506 322.364 113.292 318.436C117.506 315.007 121.435 311.578 126.292 309.15C130.649 306.936 134.72 304.793 139.292 302.793C145.935 299.864 155.72 300.793 155.863 297.436C156.077 292.65 156.292 286.864 155.577 282.293L153.792 271.364C152.577 264.078 151.935 257.15 152.292 249.793L153.006 235.078L153.792 235.721C155.72 243.007 159.935 249.364 166.792 252.793C177.077 257.936 189.435 254.293 196.149 244.793C205.149 249.364 215.935 251.936 223.792 243.507L227.363 245.436C235.22 249.721 244.863 247.793 249.792 240.007C250.149 239.436 251.006 238.507 251.363 238.15C251.649 240.293 251.577 242.221 251.577 244.221L251.149 263.436L250.935 278.936C250.935 280.936 252.006 283.578 253.292 284.436C257.435 287.293 260.72 284.864 263.935 284.221C270.935 282.864 277.72 284.364 284.649 285.364C299.577 287.507 295.935 291.364 304.506 289.65C306.435 285.364 302.435 277.221 302.077 271.221C301.577 261.793 301.935 252.65 302.649 243.364C302.935 239.578 303.72 235.721 303.792 232.007L303.935 221.936C303.935 221.936 304.935 223.793 305.006 224.578C305.72 230.364 308.006 236.221 312.506 240.293C322.077 249.007 332.577 245.936 342.363 238.936C348.649 250.078 361.649 250.293 370.792 243.221C371.792 242.436 373.72 242.507 374.577 243.364C380.792 249.507 390.006 248.936 395.649 242.507C396.006 242.15 396.935 241.364 397.292 241.15L397.363 241.293Z" fill="#FEFEFE"/>
<path d="M251.578 238.226C251.15 238.583 250.364 239.44 250.007 240.083C245.078 247.869 235.507 249.797 227.578 245.512L224.007 243.583C216.15 252.012 205.364 249.369 196.364 244.869C189.721 254.369 177.293 258.012 167.007 252.869C160.15 249.44 156.007 243.083 154.007 235.797L153.221 235.154C153.364 232.654 154.078 230.512 154.15 228.083L154.507 218.297C154.793 210.726 157.007 203.369 159.221 196.154L164.293 179.511C168.364 166.226 185.293 154.369 195.793 154.583L206.935 154.797C212.864 154.94 218.293 155.369 223.15 158.869C234.507 167.011 240.15 178.869 244.293 191.869C245.507 195.583 246.793 199.226 247.721 202.94L250.721 214.654C253.15 224.226 247.935 223.226 250.435 233.297C250.864 235.083 251.293 236.797 251.435 238.226H251.578Z" fill="#F1B2B0"/>
<path d="M397.363 241.297C397.363 241.297 396.077 242.297 395.72 242.654C390.077 249.083 380.934 249.654 374.649 243.511C373.72 242.654 371.863 242.583 370.863 243.369C361.72 250.369 348.72 250.226 342.434 239.083C332.577 246.083 322.149 249.083 312.577 240.44C308.077 236.369 305.863 230.511 305.077 224.726C304.934 223.869 304.292 222.44 304.006 222.083C305.434 217.369 305.077 212.94 305.363 208.154C305.863 200.797 307.792 193.511 309.649 186.369C313.22 173.083 321.363 157.226 335.077 152.297C340.149 150.511 346.22 149.369 351.363 150.726C359.292 152.797 366.506 155.154 374.22 157.797C378.291 159.154 382.006 162.297 383.792 166.154C386.577 172.226 388.934 178.011 391.291 184.297C392.577 187.726 392.649 191.369 392.934 195.011C393.72 203.511 395.506 211.583 396.934 220.011C398.22 227.226 396.506 234.583 397.077 241.44L397.363 241.297Z" fill="#F1B2B0"/>
<path d="M177.863 493.014C176.078 492.586 173.72 492.657 172.006 491.157C170.72 490.014 167.292 490.371 165.649 489.871L147.22 484.443C142.149 482.943 136.577 482.014 131.935 479.729L123.006 475.371C120.577 474.157 117.863 472.229 115.792 470.371C100.649 456.8 92.5775 451.657 83.8632 432.8C81.3632 427.3 80.5061 421.514 79.1489 416.014C79.7918 415.229 80.5061 414.229 81.2918 413.086C87.7204 403.443 102.149 405.229 112.72 406.3C125.292 407.586 137.506 409.014 148.578 415.229C172.078 428.3 186.292 456.871 184.078 483.729C183.72 488.014 181.363 491.014 177.863 493.014Z" fill="#F1B2B0"/>
<path d="M467.361 416.73L463.861 436.301C463.29 439.444 461.647 442.801 459.933 445.373L452.719 456.016C447.361 463.944 437.004 472.301 429.147 478.087C426.219 480.23 423.076 482.801 419.719 484.087C413.933 486.23 408.433 488.373 402.504 489.944L384.647 494.659C377.719 496.516 371.29 496.159 364.719 496.159C362.647 490.444 365.933 475.659 367.576 468.944C371.076 455.016 379.647 447.444 390.219 438.23C399.719 429.873 409.861 423.159 421.219 417.659C425.861 415.444 430.576 413.944 435.647 413.016L449.361 410.516C453.433 409.801 462.433 410.801 465.504 414.516L467.433 416.873L467.361 416.73Z" fill="#F1B2B0"/>
<path d="M173.647 570.086C171.504 565.086 171.433 560.014 171.504 555.086C171.504 546.729 173.861 537.229 177.861 529.729L185.147 516.157L189.433 508.157L192.504 502.514C189.147 502.443 174.933 499.157 172.361 498.086C169.575 496.943 167.718 496.3 164.861 495.514L141.576 489.014C129.004 485.514 118.076 480.229 108.433 471.586L97.7898 462.086C93.0755 457.871 89.3612 453.3 85.7898 448.157C80.2184 440.086 77.0755 431.871 74.5755 422.443C68.7183 400.586 69.5041 378.3 77.8612 357.157C80.7184 349.943 83.3612 342.871 88.0041 336.657C92.6469 330.443 97.2898 324.514 103.147 319.657L112.004 312.3C115.218 309.586 118.433 306.871 122.147 304.943C133.79 298.943 137.004 296.229 150.361 294.086C151.433 285.871 149.718 282.014 148.361 272.371C147.361 265.371 146.433 258.514 146.79 251.3L147.647 233.586L148.718 225.157C149.504 219.3 149.004 213.8 150.433 208.229L156.575 184.443C160.647 168.871 170.433 156.229 185.933 150.871C196.433 147.229 196.647 148.943 208.718 148.871C212.361 148.871 216.29 149.086 219.647 150.371C235.004 156.586 244.29 172.371 249.076 187.443L253.147 200.229L256.861 214.443C257.718 217.8 257.504 221.229 256.433 224.586C254.147 231.871 257.933 231.443 257.718 241.943L257.29 265.871L257.075 280.157C269.218 275.943 275.79 278.371 287.147 279.871C291.218 280.443 294.647 281.371 298.933 283.014C296.147 274.8 295.79 267.014 296.218 258.871C296.575 253.086 296.433 247.3 297.147 241.657C297.861 236.014 298.218 231.3 298.004 225.8C297.933 222.157 299.576 218.657 299.504 214.943L299.361 206.657C299.29 200.157 301.718 194.157 303.218 187.871C305.504 178.229 309.147 169.371 314.861 161.157C323.075 149.371 337.075 142.3 351.504 144.8C360.075 146.3 368.004 149.371 376.218 152.229C382.218 154.3 387.147 158.729 389.576 164.586L396.79 182.014C398.504 186.157 398.718 190.514 398.933 195.014C399.861 210.586 404.075 216.157 403.361 233.943C403.147 240.371 403.218 246.8 404.076 253.157C404.718 257.657 404.933 261.586 403.861 266.014C402.147 273.157 404.647 271.657 401.861 283.943L399.575 294.086C407.504 296.514 411.147 293.514 420.147 298.3L434.718 306.157C439.361 308.657 444.075 312.086 447.647 316.014L454.361 323.3C456.718 325.871 458.361 329.014 460.361 331.8C462.647 335.014 464.575 337.729 466.218 341.3C467.861 344.871 470.29 348.657 471.647 352.443C475.933 364.514 475.361 357.943 478.147 370.729C480.933 383.586 477.79 398.586 474.575 411.371C470.075 429.229 472.147 439.157 461.647 453.014C458.361 457.371 455.79 462.443 451.933 466.229C443.933 474.157 434.647 481.729 425.147 487.729C420.861 490.443 415.576 491.8 410.79 493.3L399.076 497.014L383.218 501.443C381.647 501.871 379.576 501.943 377.861 502.014L363.933 502.371C372.504 514.8 378.504 526.443 383.004 539.871C385.576 547.443 387.076 555.229 384.576 563.229C383.647 566.229 380.933 569.229 378.718 571.514C372.861 577.586 366.718 581.8 358.004 581.586C356.147 589.3 353.861 597.014 348.004 602.514C342.79 607.514 336.79 612.157 330.004 615.014C322.504 618.157 313.504 619.514 305.718 617.657L293.933 614.943C290.861 614.229 288.218 612.229 286.075 609.443C276.433 617.514 261.218 621.871 248.861 619.229C235.576 616.371 223.147 614.229 214.29 603.443L205.861 593.229C203.718 590.586 202.147 587.943 200.504 584.586C197.718 584.514 194.361 584.586 191.433 584.371C183.361 583.586 176.718 577.657 173.504 570.086H173.647ZM304.004 221.943L303.861 232.014C303.861 235.8 303.004 239.586 302.718 243.371C302.004 252.657 301.718 261.871 302.147 271.229C302.433 277.229 306.504 285.371 304.575 289.657C296.075 291.371 299.647 287.514 284.718 285.371C277.79 284.371 271.075 282.871 264.004 284.229C260.79 284.871 257.504 287.371 253.361 284.443C252.075 283.586 251.004 280.943 251.004 278.943L251.218 263.443L251.647 244.229C251.647 242.3 251.647 240.3 251.433 238.157C251.218 236.729 250.861 235.014 250.433 233.229C247.933 223.157 253.147 224.157 250.718 214.586L247.718 202.871C246.79 199.157 245.433 195.514 244.29 191.8C240.147 178.729 234.504 166.943 223.147 158.8C218.29 155.3 212.861 154.8 206.933 154.729L195.79 154.514C185.361 154.3 168.361 166.086 164.29 179.443L159.218 196.086C157.004 203.3 154.79 210.657 154.504 218.229L154.147 228.014C154.075 230.443 153.361 232.586 153.218 235.086L152.504 249.8C152.147 257.229 152.79 264.086 154.004 271.371L155.79 282.3C156.504 286.8 156.29 292.657 156.076 297.443C155.933 300.8 146.147 299.871 139.504 302.8C134.933 304.8 130.933 306.943 126.504 309.157C121.647 311.586 117.647 315.014 113.504 318.443C108.718 322.371 104.504 326.371 100.29 330.871C92.7184 338.8 87.6469 347.3 83.7183 357.657C76.6469 376.3 74.0755 396.3 79.1469 416.086C80.5755 421.514 81.3612 427.371 83.8612 432.871C92.5755 451.729 100.647 456.943 115.79 470.443C117.861 472.3 120.575 474.229 123.004 475.443L131.933 479.8C136.575 482.086 142.147 483.014 147.218 484.514L165.647 489.943C167.218 490.443 170.718 490.086 172.004 491.229C173.718 492.729 176.076 492.657 177.861 493.086C188.504 497.657 195.433 495.871 209.29 498.014C218.718 499.443 227.933 500.014 237.361 498.943C242.861 498.3 247.79 500.371 253.29 500.871C260.504 501.586 268.218 501.3 275.575 500.657C280.79 500.229 285.718 499.014 291.004 499.157C298.718 499.371 306.433 500.014 314.004 499.157C318.218 498.657 322.147 497.943 326.433 497.871C335.79 497.729 331.504 496.157 344.861 496.157H364.861C371.504 496.157 377.861 496.514 384.79 494.657L402.647 489.943C408.576 488.371 414.075 486.3 419.861 484.086C423.218 482.8 426.361 480.229 429.29 478.086C437.218 472.3 447.504 463.943 452.861 456.014L460.075 445.371C461.79 442.8 463.433 439.443 464.004 436.3L467.504 416.729L471.147 401.871C472.575 396.086 473.147 390.371 473.79 384.371C474.361 379.3 473.004 374.086 472.076 369.157C471.433 365.8 469.504 363.514 468.433 360.3L465.861 352.871C464.218 348.014 461.29 343.514 458.504 339.3L452.647 330.443C450.504 327.229 447.29 324.086 444.575 321.014C441.218 317.3 436.861 313.871 432.433 311.443L417.861 303.514C407.861 298.086 399.575 304.014 393.575 295.8L397.718 276.514C398.218 274.229 397.504 270.657 397.79 268.228C398.075 265.586 399.433 262.229 399.218 259.657L397.504 241.157C396.861 234.3 398.575 226.943 397.361 219.729C395.861 211.3 394.076 203.229 393.361 194.729C393.004 191.086 393.004 187.371 391.718 184.014C389.361 177.729 387.004 172.014 384.218 165.871C382.433 162.014 378.718 158.871 374.647 157.514C366.933 154.943 359.718 152.586 351.79 150.443C346.647 149.086 340.575 150.229 335.504 152.014C321.79 156.943 313.575 172.8 310.075 186.086C308.147 193.229 306.29 200.514 305.79 207.871C305.433 212.657 305.79 217.086 304.433 221.8L304.004 221.943ZM208.433 586.657L216.933 597.514C221.361 603.086 226.933 607.514 233.861 609.371L247.933 613.086C255.861 615.229 263.575 614.086 271.218 611.229C284.504 606.229 281.718 601.871 285.861 602.014C290.004 602.157 290.861 607.943 294.861 608.943L306.718 611.871C313.433 613.514 321.647 612.157 328.076 609.514C333.29 607.371 337.79 603.729 341.933 600.3C351.718 592.3 353.504 578.514 351.361 566.657L349.79 558.086C349.575 557.014 351.218 555.086 352.218 554.943C356.076 554.443 356.29 561.014 356.933 565.086L358.576 575.657C365.79 576.871 376.218 567.3 378.861 561.514C385.076 547.657 365.861 514.229 356.718 502.3L343.933 501.729C340.004 501.586 336.218 502.371 332.218 503.157C329.147 503.8 325.647 503.371 322.361 503.8L313.218 505.014C303.29 506.371 295.147 503.443 276.861 506.3C272.433 507.014 267.718 506.729 263.075 506.871C259.075 506.943 254.647 507.371 250.933 506.514C235.004 502.657 232.433 506.8 213.075 504.3L200.575 502.657C198.361 504.086 196.075 507.586 194.79 510.086L189.79 519.729L182.433 533.3C178.504 540.586 177.361 549.3 177.147 557.586C176.933 564.443 178.933 570.657 184.218 575.086C188.361 578.514 194.075 579.8 199.218 578.443C197.575 571.014 199.361 573.943 197.79 566.8C197.361 564.943 197.576 562.657 199.076 561.229C199.647 560.657 201.575 560.229 202.361 560.443C203.147 560.657 204.004 562.157 204.076 563.014V569.157C204.218 573.514 206.575 584.443 208.361 586.729L208.433 586.657Z" fill="#2B201D" stroke="#231815" stroke-width="1.42857" stroke-miterlimit="10"/>
<path d="M208.433 586.654C206.647 584.368 204.29 573.439 204.219 569.082V562.939C204.147 562.082 203.219 560.582 202.433 560.368C201.647 560.154 199.718 560.582 199.147 561.154C197.647 562.582 197.504 564.868 197.861 566.725C199.433 573.868 197.647 570.939 199.29 578.368C194.147 579.725 188.433 578.439 184.29 575.011C178.933 570.582 177.004 564.368 177.219 557.511C177.433 549.225 178.576 540.511 182.504 533.225L189.861 519.654L194.861 510.011C196.147 507.511 198.433 504.082 200.647 502.582L213.147 504.225C232.433 506.725 235.004 502.511 251.004 506.439C254.79 507.368 259.147 506.939 263.147 506.797C267.79 506.725 272.504 506.939 276.933 506.225C295.218 503.368 303.29 506.225 313.29 504.939L322.433 503.725C325.718 503.297 329.218 503.725 332.29 503.082C336.218 502.297 340.004 501.511 344.004 501.654L356.79 502.225C365.933 514.154 385.147 547.582 378.933 561.439C376.361 567.225 365.861 576.797 358.647 575.582L357.004 565.011C356.361 561.011 356.147 554.368 352.29 554.868C351.29 555.011 349.647 556.939 349.861 558.011L351.433 566.582C353.576 578.368 351.79 592.154 342.004 600.225C337.79 603.654 333.361 607.297 328.147 609.439C321.718 612.082 313.504 613.439 306.79 611.797L294.933 608.868C290.933 607.868 290.147 602.082 285.933 601.939C281.718 601.797 284.576 606.154 271.29 611.154C263.719 614.011 255.933 615.154 248.004 613.011L233.933 609.297C227.004 607.439 221.361 603.082 217.004 597.439L208.504 586.582L208.433 586.654Z" fill="#F1B2B0" stroke="#231815" stroke-width="1.42857" stroke-miterlimit="10"/>
<path d="M268.432 361.729C267.289 365.3 251.575 359.015 248.147 372.157C247.647 374.157 246.932 375.729 244.861 375.657C243.361 375.657 241.647 373.086 242.075 371.3C245.861 354.872 266.575 356.3 268.29 358.515C268.79 359.157 268.718 360.872 268.432 361.729Z" fill="#291F1C" stroke="#231815" stroke-width="1.42857" stroke-miterlimit="10"/>
<path d="M306.36 368.722C298.146 357.222 287.931 363.937 287.36 358.58C286.788 352.794 303.003 353.865 311.503 365.651C312.217 366.651 311.503 369.722 310.503 370.151C309.074 370.722 307.288 370.008 306.36 368.794V368.722Z" fill="#291F1C" stroke="#231815" stroke-width="1.42857" stroke-miterlimit="10"/>
<path d="M294.005 449.224C294.648 448.438 295.005 446.009 295.648 445.438C296.362 444.724 298.862 445.081 299.434 445.867C301.719 449.152 299.648 453.724 296.291 455.438C290.862 458.152 284.648 457.367 279.719 453.724C275.791 455.795 271.434 457.938 267.005 457.867C261.219 457.795 257.791 453.081 257.148 447.652C256.934 445.938 258.005 444.081 259.577 444.009C263.719 443.652 262.291 448.938 264.862 451.152C265.862 452.009 268.791 451.938 270.291 451.581C278.434 449.438 274.791 446.295 278.148 445.438C279.219 445.152 281.291 446.224 281.934 447.224C284.362 451.081 290.934 453.152 294.076 449.367L294.005 449.224Z" fill="#291F1C" stroke="#231815" stroke-width="1.42857" stroke-miterlimit="10"/>
</g>
<defs>
<clipPath id="clip0_39_2581">
<rect width="550" height="620" fill="white"/>
</clipPath>
</defs>
</svg>
