<svg width="422" height="163" viewBox="0 0 422 163" fill="none" xmlns="http://www.w3.org/2000/svg">
<path d="M198.578 4.44838C171.053 -0.770567 141.884 9.45287 114.217 10.1678C95.3426 10.6682 76.8976 8.09449 58.667 15.1722C32.7868 25.2527 10.8386 46.2 4.61877 77.2992C-9.75121 149.363 71.1067 153.367 115.003 154.654C149.105 155.726 183.207 155.869 217.309 157.728C248.265 159.444 281.008 160.516 311.893 157.085C336.558 154.296 368.73 155.297 389.105 139.784C407.764 125.557 417.273 111.544 418.059 87.3081C418.774 66.9328 412.983 45.1991 398.113 30.6146C367.586 0.587816 325.763 12.8845 287.872 7.16512C259.632 2.87558 232.537 1.66021 198.506 4.37693L198.578 4.44838Z" fill="white" stroke="#040000" stroke-width="5.86238" stroke-linecap="round" stroke-linejoin="round"/>
<path d="M92.2024 54.3531C93.3462 54.9965 94.2042 55.354 94.7046 55.354V55.8545L94.2757 58.3567H89.2712C88.6993 58.4997 88.4133 58.7856 88.4133 59.3576V59.858C88.4133 60.6444 88.5562 61.2878 88.8422 61.8598C88.5562 63.5041 87.9843 64.3621 87.1979 64.3621C86.6975 64.0761 86.2685 63.8616 85.9825 63.8616V58.8571C85.1246 58.8571 84.6956 58.7141 84.6956 58.3567L83.8378 58.8571C81.3355 58.4282 80.1201 57.7847 80.1201 56.8553V54.8536H83.4803C83.4803 54.8536 83.9093 54.9965 83.9093 55.354L84.7672 54.8536H88.4848C89.4857 54.8536 90.701 54.7106 92.2024 54.3531ZM88.0558 37.3379C89.3426 37.3379 90.6295 38.3388 91.7734 40.3406V41.8419C90.987 45.8455 89.3427 47.8473 86.769 47.8473H85.9111C84.1238 47.8473 82.4794 46.4889 80.9065 43.8437V42.3424C80.9065 38.9822 83.2658 37.3379 87.9843 37.3379H88.0558ZM83.4803 42.8428C84.4812 43.8437 85.4821 44.3442 86.4115 44.3442H87.6984C88.1274 44.3442 88.6993 43.7007 89.3427 42.3424V41.3415L87.2694 40.8411C85.1246 40.8411 83.9093 41.4845 83.5518 42.8428H83.4803ZM103.069 41.3415C104.213 41.699 104.714 42.3424 104.714 43.3433C104.714 47.0609 105.143 51.2074 106 55.8545C105.429 56.4979 104.642 56.8553 103.498 56.8553C102.998 56.1404 102.497 53.9241 101.854 50.3495C98.2078 51.3504 95.7055 51.8509 94.3471 51.8509H93.4893C92.8458 51.2075 92.2738 50.85 91.8449 50.85L92.2739 48.3477H92.7029C99.0657 48.3477 102.283 47.3468 102.283 45.3451L101.854 42.3424C101.854 41.6275 102.283 41.3415 103.141 41.3415H103.069ZM94.2757 61.3593H95.1336C95.7055 61.4308 95.9914 61.7883 95.9914 62.3602V65.8634L96.4205 68.3656C101.353 68.0082 104.428 67.3647 105.572 66.3638C106.072 66.7213 106.501 66.8643 106.858 66.8643V67.8652C106.858 70.0814 105.214 71.4398 101.854 71.8687C99.0657 72.1547 96.9924 72.3692 95.6341 72.3692C94.4187 72.3692 93.5607 69.724 93.1318 64.3621H93.5607L93.1318 63.3612V62.8607C93.1318 62.3602 93.5607 61.8598 94.4186 61.3593H94.2757Z" fill="black"/>
<path d="M117.793 43.3418C118.937 44.4142 119.437 46.4874 119.437 49.3471C119.437 52.2068 117.078 54.7091 112.359 56.3534V57.3543C112.645 57.9977 112.788 58.4982 112.788 58.8556H112.359C112.574 60.214 112.86 60.8574 113.217 60.8574C116.506 60.5 118.794 59.9995 119.866 59.3561C120.295 59.642 121.081 59.8565 122.368 59.8565C122.368 62.5017 119.723 64.0031 114.433 64.3606C114.433 64.718 113.861 64.861 112.788 64.861H112.359C110.715 63.5027 109.857 61.7868 109.857 59.8565V56.3534C109.857 53.8512 111.787 52.2069 115.648 51.349C115.648 50.8485 116.077 50.348 116.935 49.8476C116.72 47.8458 116.506 46.8449 116.148 46.8449L112.359 47.3454L111.501 46.8449L110.644 47.3454C109.285 47.1309 108.57 46.13 108.57 44.3427L109.428 43.8422H110.286C110.286 43.8422 110.715 43.9852 110.715 44.3427C111.001 44.0567 113.36 43.6993 117.793 43.3418ZM133.593 44.8431H134.022C134.379 44.8431 134.808 45.3436 135.308 46.3445V49.3471C135.308 52.2068 135.451 56.7108 135.737 62.8592L134.879 63.3597H134.022C133.378 63.3597 132.806 60.7145 132.377 55.3525C129.804 55.7815 128.088 56.0674 127.373 56.3534C127.945 60.214 128.231 63.0737 128.231 64.861C127.73 65.2185 127.158 65.3615 126.586 65.3615H125.8C124.942 55.7815 124.227 49.9191 123.727 47.8458C124.013 47.2739 124.156 46.6304 124.156 45.844C126.086 45.844 127.087 46.9879 127.087 49.3471C127.087 51.7064 127.373 52.8503 127.945 52.8503H132.52V48.8467C132.52 46.4159 132.949 45.0576 133.736 44.8431H133.593Z" fill="black"/>
<path d="M159.26 34.3359H159.689C160.261 36.4807 160.547 37.6246 160.547 37.8391C160.118 39.1974 159.689 39.8409 159.26 39.8409L158.044 38.84L150.967 39.8409C149.894 39.3404 149.322 38.84 149.322 38.3395V37.3386C149.322 36.5522 150.037 36.1232 151.395 35.8373V36.3377C156.114 35.6943 158.759 34.9794 159.331 34.3359H159.26ZM161.404 43.8444C161.69 45.5603 161.833 46.5611 161.833 46.8471C160.833 47.4905 158.688 47.991 155.542 48.3484C155.542 47.991 155.399 47.848 155.113 47.848L154.684 48.8489C155.042 51.8516 155.471 53.3529 155.971 53.3529C157.115 53.3529 159.617 52.9955 163.478 52.3521C164.55 52.8525 165.122 53.3529 165.122 53.8534V54.3538C164.693 55.7122 163.835 56.5701 162.62 56.8561L161.762 56.3556C158.402 56.999 156.471 57.4995 155.9 57.8569C153.683 57.8569 152.539 56.2126 152.539 52.8525C152.539 49.4924 151.682 47.848 150.037 47.848L149.608 46.8471V44.8453C152.611 44.8453 156.543 44.4879 161.333 43.8444H161.404ZM161.833 62.8614H164.336C167.267 62.8614 169.197 65.8641 170.127 71.8695C168.983 75.873 166.623 77.8748 163.049 77.8748C159.403 76.5165 157.615 74.3717 157.615 71.369V68.3663C158.116 64.7202 159.474 62.8614 161.762 62.8614H161.833ZM160.118 69.8677C160.118 72.2984 161.547 73.7997 164.264 74.3717C165.694 74.3717 166.838 73.3708 167.624 71.369V70.3681C165.908 67.7229 164.479 66.3646 163.478 66.3646C161.261 66.3646 160.118 67.5084 160.118 69.8677ZM169.34 36.7667H169.769L171.056 44.7738H172.343C172.986 44.7738 173.487 44.9168 173.987 45.2743C174.488 44.9168 175.059 44.7738 175.631 44.7738C176.99 44.7738 177.705 45.7748 177.705 47.7765L175.631 49.2779C174.202 48.9919 173.558 48.6345 173.558 48.277L172.7 48.7774H172.271L171.413 48.277V48.7774C172.271 51.7801 172.7 53.7819 172.7 54.7828L171.413 55.7837H170.127L168.84 49.2779C168.84 49.2779 169.269 49.1349 169.269 48.7774C168.697 48.7774 168.411 48.42 168.411 47.7765V46.7756C168.411 46.7756 168.554 46.2752 168.84 46.2752L167.624 38.268L169.269 36.7667H169.34Z" fill="black"/>
<path d="M200.725 58.3472L201.154 59.3481V60.8494C201.154 61.7788 198.508 62.4222 193.218 62.8512V64.3526C193.218 65.9969 193.361 68.4991 193.647 71.8592L192.36 72.8601C191.002 72.2882 190.287 70.7869 190.287 68.3561V64.3526L189.858 63.3517C187.141 64.3526 184.925 64.853 183.209 64.853H180.707C180.278 64.853 179.849 64.2095 179.42 62.8512C179.706 62.2077 179.849 61.7073 179.849 61.3498H181.493C193.075 59.348 199.438 58.3472 200.653 58.3472H200.725ZM186.498 38.3293V40.8315L186.069 41.8324C193.575 45.6215 197.293 48.1238 197.293 49.2676V51.2694C197.293 51.9129 197.007 52.2703 196.435 52.2703H194.791C194.791 51.5554 192.718 49.6966 188.571 46.7654C187.141 46.1219 185.926 45.7645 184.782 45.7645C183.638 50.626 183.138 53.7716 183.138 55.273H181.064C181.064 54.6296 180.921 54.2721 180.635 54.2721C180.635 51.4839 182.065 46.1935 184.782 38.2578H186.426L186.498 38.3293Z" fill="black"/>
<path d="M219.172 49.3444H221.674V49.8448C221.674 51.8466 220.96 52.8475 219.601 52.8475V55.8502L219.172 59.3533C220.531 59.3533 221.246 61.3551 221.246 65.3587V69.3623C221.246 71.0781 220.817 72.079 220.03 72.3649H219.601C219.244 72.3649 218.672 71.507 217.957 69.8627C217.957 69.2193 218.1 68.8618 218.386 68.8618L217.957 65.3587V62.356H217.528C214.025 63.3569 211.38 63.8574 209.592 63.8574H207.948C207.591 63.8574 207.162 63.3569 206.661 62.356C206.947 61.7125 207.09 61.2121 207.09 60.8546H211.237V60.3542C210.021 60.3542 209.378 58.3524 209.163 54.3489L205.017 54.8493H204.159C203.73 54.8493 203.373 54.3489 202.872 53.348V52.8475C202.872 51.9896 207.448 50.9887 216.67 49.8448C216.67 49.4873 217.528 49.3444 219.172 49.3444ZM210.879 33.3301C213.739 33.3301 215.955 34.8314 217.528 37.8341C217.528 41.4087 214.883 43.911 209.592 45.3408H209.163C207.733 45.3408 206.59 44.4829 205.803 42.8386V37.3336C206.375 37.3336 207.59 35.9753 209.592 33.3301H210.879ZM208.377 40.3364V40.8368C208.448 41.4802 208.734 41.8377 209.235 41.8377H210.522C213.31 41.1228 214.668 40.3364 214.668 39.3355C214.668 38.835 213.81 37.9771 212.166 36.8332H210.522C210.093 36.8332 209.664 37.6911 209.235 39.3355C208.663 39.4785 208.377 39.7644 208.377 40.3364ZM212.095 53.8484V55.3498L212.523 57.852C212.523 57.852 212.095 57.995 212.095 58.3524H212.952L211.666 60.3542H212.095C214.883 59.7108 216.67 59.3533 217.528 59.3533V58.3524C216.67 58.3524 216.241 56.7081 216.241 53.348L212.095 53.8484Z" fill="black"/>
<path d="M239.332 53.3495V53.8499L240.19 53.3495H242.263C242.835 53.421 243.121 53.7784 243.121 54.3504V55.8517L242.263 57.353L238.117 56.8526C235.186 56.8526 230.753 57.0671 224.748 57.353C224.176 56.9956 223.818 56.8526 223.461 56.8526V54.3504C228.394 53.7069 233.684 53.3495 239.332 53.3495ZM233.112 33.832L233.97 34.3325L234.828 33.832C237.044 34.6899 238.188 36.1913 238.188 38.3361C237.473 43.3406 234.9 45.8428 230.682 45.8428C228.966 45.8428 227.465 44.6989 226.106 42.3396V41.3388C226.964 36.3343 229.323 33.832 233.184 33.832H233.112ZM228.465 59.8553H230.11L230.539 62.3575V69.3638C236.544 68.0054 239.761 67.362 240.119 67.362L240.977 68.8633V69.3638C240.977 70.7936 238.045 71.7945 232.183 72.3664C232.183 72.7239 231.468 73.0814 230.11 73.3673C229.752 73.3673 229.109 72.8669 228.036 71.866L228.465 68.3629V67.8624L228.036 64.8598L228.465 63.8589C228.179 63.2869 228.036 62.572 228.036 61.857L228.465 59.8553ZM228.465 41.8392L231.397 42.8401C233.398 42.8401 234.9 41.8392 235.972 39.8374V38.8365C235.972 38.3361 235.4 37.6211 234.328 36.8347C230.682 36.8347 228.894 37.9786 228.894 40.3379C228.608 40.3379 228.465 40.8383 228.465 41.8392Z" fill="black"/>
<path d="M263.351 36.332C263.709 36.332 264.138 36.8325 264.638 37.8334L264.209 38.8343C264.566 38.8343 268.57 42.1229 276.291 48.8432H276.72C275.648 50.7735 275.076 51.9174 275.076 52.3464L262.994 42.3374C260.491 48.8432 259.205 53.3472 259.205 55.8495H257.918C257.56 55.8495 257.131 55.349 256.631 54.3481C257.274 49.9871 258.847 44.8397 261.206 38.8343C261.206 38.4054 261.921 37.5474 263.28 36.332H263.351ZM264.995 54.3481H266.282C267.212 54.3481 267.784 58.2087 267.927 65.8584C267.641 65.8584 267.498 66.0014 267.498 66.3589L270.429 66.8593H272.931L275.004 66.3589V66.8593C275.362 66.5019 276.077 66.3589 277.078 66.3589C277.078 66.7163 277.507 66.8593 278.293 66.8593V69.3615C277.864 69.3615 277.292 69.719 276.649 70.3624H269.142C268.499 70.3624 267.927 70.5054 267.498 70.8629C267.212 70.8629 267.069 70.7199 267.069 70.3624L264.209 70.8629H259.634C259.634 70.2194 259.348 69.862 258.776 69.862V68.3607C258.776 67.3598 260.563 66.8593 264.209 66.8593H264.638C264.638 66.8593 264.781 64.4286 265.067 60.3535L264.638 55.8495C264.924 55.2061 265.067 54.7056 265.067 54.3481H264.995Z" fill="black"/>
<path d="M301.386 63.3612L302.243 64.8625V66.3638C302.243 67.0073 301.958 67.3647 301.386 67.3647L299.312 66.8643C291.806 68.2226 285.371 68.8661 280.152 68.8661V65.8634L282.226 65.363V65.8634L283.083 65.363H283.512C283.512 65.363 283.941 65.5059 283.941 65.8634C284.728 65.2915 288.588 64.5765 295.595 63.8616V64.3621C295.595 64.3621 297.882 63.7186 301.457 63.3612H301.386ZM288.874 37.3379C288.874 39.3397 291.091 42.4854 295.523 46.8464C297.525 49.4916 298.955 50.85 299.67 50.85C299.169 53.2093 298.597 54.3531 298.025 54.3531C296.238 53.1377 293.736 50.278 290.519 45.8455L287.659 42.8428C286.229 47.6328 284.299 52.6373 281.797 57.8562C281.368 57.8562 280.939 57.3558 280.51 56.3549V55.8545L283.87 46.3459C286.158 40.3406 287.73 37.3379 288.445 37.3379H288.874Z" fill="black"/>
<path d="M313.257 40.1184V40.6188L314.115 40.1184H317.905C318.476 40.2614 318.762 40.5473 318.762 41.1193V41.6197C316.618 48.1255 314.902 55.7037 313.758 64.2828V65.7841L311.685 66.2846C311.399 65.6411 311.256 65.1407 311.256 64.7832C311.399 59.7073 312.829 52.6295 315.474 43.6215H304.964C304.392 43.6215 304.106 43.264 304.106 42.6206V41.6197C304.178 40.9048 304.464 40.6188 304.964 40.6188H306.251C307.753 40.6188 310.112 40.4758 313.4 40.1184H313.257ZM330.058 40.1184H330.487C330.487 40.1184 330.916 40.2614 330.916 40.6188L331.774 40.1184C332.132 40.1184 332.56 40.6188 333.061 41.6197V47.1246H333.49C334.991 47.1246 336.922 46.7671 339.352 46.1237L340.21 47.6251V48.1255L339.781 50.6277C338.351 50.6277 336.278 50.7707 333.49 51.1282V52.6296C334.062 60.9942 334.348 65.3552 334.348 65.7126L333.061 66.7135H332.632C331.345 66.7135 330.487 59.6358 330.13 45.5518C329.844 43.693 329.701 42.3346 329.701 41.5482C329.987 40.9048 330.13 40.4043 330.13 40.0469L330.058 40.1184Z" fill="black"/>
<path d="M72.1107 87.4512C73.5406 87.4512 74.1841 88.8095 74.1841 91.4547V94.4575C74.2556 95.1009 74.5415 95.4583 75.0419 95.4583C74.5415 103.108 73.5406 106.969 72.1107 106.969C71.2528 106.969 68.5361 107.469 63.7461 108.47C61.2439 108.47 59.957 102.608 59.957 90.9543C60.8864 90.3109 61.5298 89.9534 62.0303 89.9534L62.4593 90.9543V97.4601C62.4593 96.7452 65.5335 96.0303 71.6103 95.4583V90.9543L72.0393 87.4512H72.1107ZM78.7596 113.474H79.1885V116.477C79.1885 117.263 76.8292 117.907 72.1107 118.479V118.979L72.5397 125.986C72.1107 127.344 71.6818 127.987 71.2528 127.987H70.8239C69.966 127.987 69.4655 125.986 69.1795 121.982H69.6085L69.1795 120.981V118.479H66.6773L64.604 118.979V118.479L63.7461 118.979H61.2438C60.8864 118.979 60.4575 118.479 59.957 117.478V115.977C60.0285 115.333 60.3145 114.976 60.8149 114.976H64.9615C65.6049 114.976 66.1053 114.833 66.6058 114.475C67.1062 114.833 67.6782 114.976 68.2502 114.976C71.1814 114.976 74.6129 114.475 78.688 113.474H78.7596ZM63.3172 99.9623C63.3172 99.9623 63.1742 99.4619 62.8882 99.4619V99.9623C62.8882 103.322 63.9606 104.967 66.2484 104.967C67.6782 104.323 69.537 103.823 71.6818 103.465V101.964C71.6818 101.249 71.8247 100.534 72.1107 99.9623C71.8247 99.3189 71.6818 98.8185 71.6818 98.461C68.2501 98.8185 65.462 99.3189 63.3172 99.9623Z" fill="black"/>
<path d="M83.4751 97.9618H84.6905C88.9085 99.8206 91.1963 100.964 91.3393 101.465L91.7682 102.466V105.969C91.4823 109.973 89.9809 111.974 87.1927 111.974C83.0462 111.402 80.9014 109.401 80.9014 105.969V101.965C82.1167 99.3202 82.9747 97.9618 83.4036 97.9618H83.4751ZM83.4751 102.966C83.4751 105.611 84.3331 107.399 85.9774 108.471H86.8352C88.7655 108.471 89.695 107.113 89.695 104.468V103.467C86.6208 103.252 85.1195 102.966 85.1195 102.466C84.6191 102.752 84.1185 102.966 83.4751 102.966ZM104.351 96.9609H104.78V97.4614L106.424 116.979C106.424 117.694 106.138 117.98 105.566 117.98H104.279C103.422 117.98 102.921 113.619 102.635 104.968C101.348 104.968 99.1319 105.326 95.9863 105.969L93.913 105.469V104.468C93.913 102.895 96.8442 101.894 102.635 101.465V97.4614C103.136 97.1754 103.707 96.9609 104.279 96.9609H104.351Z" fill="black"/>
<path d="M122.011 92.9604L122.44 93.9613V94.4617C121.01 99.7521 120.366 102.54 120.366 102.969C120.366 103.255 121.653 106.258 124.156 111.977H125.013V114.48C125.013 114.98 124.584 115.48 123.727 115.981C122.654 114.98 121.796 114.48 121.224 114.48C121.224 114.122 121.367 113.979 121.653 113.979C119.723 109.332 118.579 106.973 118.293 106.973L116.22 112.978C116.506 113.55 116.649 114.265 116.649 114.98C116.434 114.98 115.576 115.123 114.147 115.48V112.978L119.151 96.4635H117.507L115.433 96.9639V96.4635C114.504 97.1069 113.718 97.4644 112.931 97.4644H109.571C109.142 97.4644 108.785 96.9639 108.284 95.963C108.713 94.6047 109.714 93.9613 111.215 93.9613H112.86C112.86 93.9613 113.289 94.1757 113.289 94.4617C113.289 93.7468 116.22 93.2463 122.011 92.9604ZM136.166 91.459H137.024L137.882 91.9595L137.453 97.9648V101.468C137.453 105.186 137.739 109.189 138.311 113.479C137.739 113.479 137.453 114.337 137.453 115.981C136.023 115.266 135.38 114.766 135.38 114.48C135.237 109.475 135.022 106.973 134.522 106.973L128.66 108.474C128.302 108.474 127.873 107.974 127.444 106.973V106.472C127.444 105.615 129.803 104.399 134.522 102.969V99.9666H134.093C132.806 99.9666 130.447 100.324 127.015 100.967C125.657 100.539 124.942 100.038 124.942 99.4662V97.9648C129.589 96.9639 132.806 96.1775 134.522 95.4626C134.951 92.8174 135.523 91.459 136.166 91.459Z" fill="black"/>
<path d="M145.892 88.4562H148.394C150.896 89.0997 152.183 90.744 152.183 93.4607V93.9612C152.183 97.6788 149.538 99.8235 144.247 100.467C141.459 99.0371 140.029 96.8209 140.029 93.9612C140.029 91.3875 141.817 89.7431 145.463 88.9567C145.463 88.5992 145.606 88.4562 145.892 88.4562ZM143.389 95.4625C144.819 96.8209 145.606 97.4643 145.892 97.4643C148.394 96.8209 149.609 95.677 149.609 93.9612C149.466 92.9603 148.608 92.1738 147.107 91.4589C144.605 92.6743 143.389 94.0327 143.389 95.4625ZM162.549 108.975V109.975L161.691 113.479C165.552 117.196 167.554 119.127 167.554 119.484V121.486C166.982 121.486 166.767 121.843 166.767 122.487L165.91 121.986H164.623C163.336 120.413 161.763 118.912 160.047 117.482C159.332 120.699 158.546 122.487 157.545 122.987C156.473 122.987 153.541 120.842 148.751 116.481H147.894C146.964 121.486 146.106 123.988 145.391 123.988H143.747L144.176 122.987H143.318C146.035 114.337 147.965 109.975 149.18 109.975H150.038C150.324 110.619 150.467 111.119 150.467 111.477V112.978L155.901 118.483H156.33C157.473 117.268 158.689 114.122 160.047 108.975H162.549ZM162.549 84.9531H162.978C163.836 89.0282 164.265 91.5304 164.265 92.4598H163.836L165.052 98.9656L163.407 100.967C162.049 100.967 161.048 95.82 160.476 85.4536L162.549 84.9531Z" fill="black"/>
<path d="M183.564 110.964C185.494 111.322 186.495 111.822 186.495 112.466V114.467L173.126 115.969H171.052C170.409 115.325 169.837 114.968 169.408 114.968C169.98 113.895 170.266 113.037 170.266 112.466H172.339C174.055 112.466 177.773 111.965 183.564 110.964ZM170.624 91.9473H171.482L172.768 92.9482L172.339 95.4504C172.911 99.168 173.197 101.17 173.197 101.456C175.056 101.456 179.703 101.17 186.995 100.455V103.457C186.423 103.457 186.137 103.815 186.137 104.458H185.708C185.708 104.458 185.28 104.315 185.28 103.958C182.348 104.601 177.773 105.102 171.482 105.459C170.409 100.383 169.837 96.8802 169.837 94.9499V92.9482C169.909 92.2332 170.195 91.9473 170.695 91.9473H170.624ZM176.057 116.97H176.915C177.344 116.97 177.916 119.329 178.559 123.976C182.992 122.975 185.637 122.474 186.495 122.474L188.568 122.975V124.977C188.568 125.477 188.139 125.978 187.281 126.478H186.495C186.495 126.478 186.066 126.335 186.066 125.978C180.347 127.979 176.986 128.98 176.057 128.98C175.557 128.551 175.128 124.905 174.77 117.97L176.057 116.97Z" fill="black"/>
<path d="M204.161 91.8823L205.018 93.3837C204.446 97.6732 204.161 100.175 204.161 100.89C207.664 100.247 210.595 99.8894 212.954 99.8894V98.3881C212.954 97.1727 212.811 95.6714 212.525 93.8841C212.811 93.2407 212.954 92.7402 212.954 92.3828H214.241C215.671 92.3828 216.314 98.7456 216.314 111.471C216.6 111.471 216.743 112.329 216.743 113.973L215.456 114.974H215.027C214.598 114.974 214.027 114.259 213.312 112.973C213.312 110.828 213.169 107.468 212.883 102.964C209.88 103.321 206.734 103.822 203.231 104.465C203.231 104.822 203.374 104.965 203.66 104.965L203.231 107.468V115.475C203.231 116.476 202.659 116.976 201.587 116.976C201.086 116.69 200.657 116.476 200.3 116.476V109.398C200.3 109.398 200.443 108.897 200.729 108.897C200.729 108.54 200.586 108.397 200.3 108.397C200.3 107.11 200.872 102.606 201.944 94.885C196.368 95.5284 192.507 95.8859 190.291 95.8859V93.8841C191.077 92.5257 195.653 91.8823 204.089 91.8823H204.161ZM220.89 89.3086C221.533 89.3086 222.391 96.1718 223.392 109.898V111.4L221.319 111.9C220.604 109.469 219.746 103.25 218.817 93.3122C218.817 92.7402 219.102 91.7393 219.674 90.3095C219.388 90.3095 219.245 90.1665 219.245 89.809C219.388 89.809 219.96 89.5946 220.89 89.3086Z" fill="black"/>
<path d="M246.909 92.4584C248.339 92.8874 248.983 93.3878 248.983 93.9598C248.983 95.0321 248.411 96.605 247.338 98.4638V98.9642C248.625 100.68 250.841 102.324 254.059 103.969C254.059 103.611 254.201 103.468 254.487 103.468C254.487 103.826 254.631 104.326 254.917 104.97C254.631 105.542 254.487 106.328 254.487 107.472H254.059C251.628 107.114 248.84 105.613 245.694 102.968C245.408 102.968 244.55 104.827 243.192 108.473H241.547V104.469C242.62 102.896 243.192 101.752 243.192 100.966C243.478 100.966 244.193 99.6076 245.265 96.9624V96.462H244.836C243.692 96.462 242.548 96.605 241.476 96.9624L236.9 95.4611V92.9589H239.403C239.403 92.9589 239.832 93.1018 239.832 93.4593C240.118 93.4593 240.261 93.3163 240.261 92.9589C240.547 92.9589 240.975 93.1018 241.547 93.4593C244.55 93.1018 246.337 92.8159 246.981 92.4584H246.909ZM250.269 109.974C250.841 110.26 251.199 110.474 251.556 110.474L251.127 116.48V118.982H251.985L254.059 118.482V118.982C255.202 118.339 255.989 117.981 256.561 117.981V118.482C257.061 118.124 258.277 117.838 260.35 117.481L261.208 118.982V120.984C260.135 121.627 256.418 122.485 249.984 123.486C249.126 121.341 248.697 117.981 248.697 113.477C249.054 111.118 249.626 109.974 250.341 109.974H250.269ZM258.634 90.957H259.063C260.064 90.957 260.564 92.9588 260.707 96.9624H260.278C260.85 98.3923 261.279 101.252 261.565 105.47C261.565 106.471 260.85 106.971 259.492 106.971C259.063 106.185 258.491 104.541 257.848 101.967L258.706 101.466C258.134 100.037 257.848 97.3914 257.848 93.4593V91.958C257.919 91.3145 258.205 90.957 258.706 90.957H258.634Z" fill="black"/>
<path d="M273.721 93.4551L274.579 94.9564V95.4569C274.579 97.1012 274.15 98.7455 273.292 100.461C274.078 100.461 274.65 100.962 274.936 101.963L278.725 104.965H279.154C279.726 103.035 280.012 101.319 280.012 99.9609C277.224 99.5319 275.866 98.8885 275.866 97.9591L276.295 95.4569H276.724L278.01 96.4577H281.728L284.659 95.9573V99.4604C283.73 100.676 283.086 102.177 282.586 103.964C285.66 107.396 287.161 109.255 287.161 109.469C286.804 111.042 286.232 111.9 285.517 111.972L280.942 107.968C280.727 111.257 280.298 112.972 279.655 112.972H278.01V108.969L278.439 107.968C276.152 107.968 274.293 106.824 273.006 104.465H271.719C271.219 107.468 270.647 108.969 270.075 108.969V109.97L270.504 110.971H269.646L270.075 111.972H269.217C268.073 111.614 267.573 110.756 267.573 109.469C268.359 105.752 269.574 102.034 271.362 98.4595V97.9591C268.573 98.245 266.5 98.4595 265.07 98.4595H264.641C264.141 98.4595 263.712 97.6016 263.354 95.9573C265.428 94.9564 267.358 94.456 269.217 94.456V94.9564C270.432 94.2415 271.934 93.741 273.792 93.4551H273.721ZM289.163 93.9555L290.021 95.9573C290.021 95.9573 289.878 96.4577 289.592 96.4577L290.021 98.96V100.962H292.523L293.81 99.9609H294.668C295.097 99.9609 295.526 100.461 295.955 101.462V104.465H294.668C292.738 105.108 291.594 105.466 291.308 105.466H290.093L291.308 116.976H290.879C290.236 116.976 289.235 116.476 287.948 115.475C287.948 115.117 288.091 114.974 288.377 114.974C287.805 111.257 287.447 105.895 287.161 98.96H287.59L287.161 97.9591C287.161 97.9591 287.304 97.4586 287.59 97.4586L287.161 96.4577C287.161 94.456 287.876 93.4551 289.235 93.4551V93.9555H289.163Z" fill="black"/>
<path d="M305.178 92.9531L306.036 93.4536H306.894L308.967 92.9531C310.111 95.3839 310.611 98.0291 310.611 100.96V101.461C310.611 106.108 308.252 108.467 303.533 108.467L302.247 111.97C302.533 113.257 302.961 114.472 303.533 115.473C307.751 113.829 311.398 112.756 314.329 112.471L314.758 113.471C314.758 115.473 313.757 116.474 311.827 116.474C306.965 117.832 303.748 118.476 302.247 118.476C301.031 118.476 300.173 116.117 299.744 111.47C299.744 107.681 302.104 105.393 306.822 104.463C307.537 104.463 307.894 103.82 308.037 102.462C307.751 98.458 307.18 96.4562 306.393 96.4562C303.39 96.7422 300.745 96.9567 298.457 96.9567C297.886 96.9567 297.6 96.5992 297.6 95.9558C297.886 95.3124 298.029 94.8119 298.029 94.4545C301.317 94.097 303.676 93.954 305.106 93.954V92.9531H305.178ZM318.904 93.4536H319.762C320.191 93.4536 320.763 95.3123 321.406 98.9585C321.692 98.9585 322.122 99.1014 322.622 99.4589C324.981 99.1014 326.983 98.9585 328.484 98.9585H328.913V101.461L326.84 103.462L324.767 102.962H320.978C321.264 107.395 321.693 109.897 322.264 110.469V112.971C321.978 113.972 321.192 114.472 319.762 114.472L318.475 112.471C318.475 112.471 318.618 111.97 318.904 111.97L318.046 105.464H318.475L318.046 104.463V99.4589L317.617 94.4545L318.904 93.4536Z" fill="black"/>
<path d="M336.564 90.3848H341.139C342.069 90.3848 342.641 94.1024 342.784 101.395V104.898C342.784 105.398 342.355 105.899 341.568 106.399H340.71C340.138 106.399 339.852 106.042 339.852 105.398C339.852 105.041 339.995 104.898 340.281 104.898L339.852 103.897V101.895C339.852 101.895 339.995 101.395 340.281 101.395L339.852 100.394V98.3919L339.423 93.3874H336.492C334.061 94.0309 332.274 94.3883 331.059 94.3883C330.773 93.8164 330.63 93.1015 330.63 92.3865C333.132 91.0282 335.062 90.3848 336.492 90.3848H336.564ZM345.357 107.4C345.357 107.4 345.5 107.9 345.786 107.9C345.786 107.543 345.929 107.4 346.215 107.4L346.644 109.902C346.644 110.546 346.358 110.903 345.786 110.903H340.353V118.91C340.353 119.697 340.496 120.34 340.782 120.984C340.424 122.628 339.995 123.486 339.495 123.486H338.28C337.708 123.486 337.422 123.2 337.422 122.485V120.412C337.422 120.412 337.565 119.911 337.851 119.911L337.422 118.91V117.409C337.422 117.409 337.565 116.908 337.851 116.908L337.422 115.908V111.904C334.562 112.261 332.846 112.619 332.417 112.905C331.917 112.547 331.416 112.404 330.773 112.404V109.902C338.351 108.186 343.284 107.4 345.429 107.4H345.357Z" fill="black"/>
<path d="M351.357 127.988H351.786C352.858 128.56 353.43 129.704 353.43 131.491C352.93 132.993 352.358 133.851 351.786 133.994C350.284 133.994 349.141 132.993 348.426 130.991C348.855 128.989 349.856 127.988 351.357 127.988Z" fill="black"/>
<path d="M358.15 127.988H358.579C359.723 128.56 360.223 129.704 360.223 131.491C359.651 132.993 359.151 133.851 358.579 133.994C357.078 133.994 355.934 132.993 355.219 130.991C355.648 128.989 356.649 127.988 358.15 127.988Z" fill="black"/>
</svg>
